<svg width="72" height="72" viewBox="0 0 72 72" fill="none" xmlns="http://www.w3.org/2000/svg">
<g opacity="0.25">
<path d="M55.6694 3.77898C55.1069 4.34148 54.1226 4.34148 53.5601 3.77898C52.9976 3.21648 52.9976 2.23211 53.5601 1.66961C54.1226 1.10711 55.1069 1.10711 55.6694 1.66961C56.2319 2.23211 56.2319 3.21648 55.6694 3.77898Z" fill="url(#paint0_linear)"/>
<path d="M43.3647 30.427C42.8022 30.9895 41.8179 30.9895 41.2554 30.427C40.6929 29.8646 40.6929 28.8802 41.2554 28.3177C41.8179 27.7552 42.8022 27.7552 43.3647 28.3177C43.9272 28.8802 43.9976 29.7942 43.3647 30.427Z" fill="url(#paint1_linear)"/>
<path d="M63.5449 24.5912C62.9824 25.1537 61.998 25.1537 61.4356 24.5912C60.8731 24.0287 60.8731 23.0444 61.4356 22.4819C61.998 21.9194 62.9824 21.9194 63.5449 22.4819C64.1074 23.0444 64.1074 24.0287 63.5449 24.5912Z" fill="url(#paint2_linear)"/>
<path d="M47.0913 10.2477C47.6738 10.8302 48.6182 10.8302 49.2007 10.2477C49.7832 9.66518 49.7832 8.72079 49.2007 8.1383C48.6182 7.55582 47.6738 7.55582 47.0913 8.1383C46.5088 8.72079 46.5088 9.66518 47.0913 10.2477Z" fill="url(#paint3_linear)"/>
<path d="M34.7866 36.8958C35.3691 37.4783 36.3135 37.4783 36.896 36.8958C37.4785 36.3133 37.4785 35.3689 36.896 34.7864C36.3135 34.2039 35.3691 34.2039 34.7866 34.7864C34.2041 35.3689 34.2041 36.3133 34.7866 36.8958Z" fill="url(#paint4_linear)"/>
<path d="M57.0757 31.0599C56.5132 31.6224 55.5288 31.6224 54.9663 31.0599C54.4038 30.4974 54.4038 29.5131 54.9663 28.9506C55.5288 28.3881 56.5132 28.3881 57.0757 28.9506C57.6382 29.5131 57.6382 30.4974 57.0757 31.0599Z" fill="url(#paint5_linear)"/>
<path d="M40.5523 16.7865C41.1347 17.369 42.0791 17.369 42.6616 16.7865C43.2441 16.2041 43.2441 15.2597 42.6616 14.6772C42.0791 14.0947 41.1347 14.0947 40.5523 14.6772C39.9698 15.2597 39.9698 16.2041 40.5523 16.7865Z" fill="url(#paint6_linear)"/>
<path d="M28.3184 43.3647C28.9008 43.9472 29.8452 43.9472 30.4277 43.3647C31.0102 42.7822 31.0102 41.8378 30.4277 41.2553C29.8452 40.6728 28.9008 40.6728 28.3184 41.2553C27.7359 41.8378 27.7359 42.7822 28.3184 43.3647Z" fill="url(#paint7_linear)"/>
<path d="M50.5371 37.5989C49.9746 38.1614 48.9902 38.1614 48.4277 37.5989C47.8652 37.0364 47.8652 36.052 48.4277 35.4895C48.9902 34.927 49.9746 34.927 50.5371 35.4895C51.0996 36.052 51.1699 36.9661 50.5371 37.5989Z" fill="url(#paint8_linear)"/>
<path d="M36.1934 23.2553C35.6309 23.8178 34.6465 23.8178 34.084 23.2553C33.5215 22.6928 33.5215 21.7084 34.084 21.1459C34.6465 20.5834 35.6309 20.5834 36.1934 21.1459C36.7559 21.7084 36.7559 22.6928 36.1934 23.2553Z" fill="url(#paint9_linear)"/>
<path d="M23.959 49.8332C23.3965 50.3957 22.4121 50.3957 21.8496 49.8332C21.2871 49.2707 21.2871 48.2864 21.8496 47.7239C22.4121 47.1614 23.3965 47.1614 23.959 47.7239C24.5215 48.2864 24.5215 49.2707 23.959 49.8332Z" fill="url(#paint10_linear)"/>
<path d="M41.959 44.0676C42.5415 44.6501 43.4859 44.6501 44.0684 44.0676C44.6508 43.4851 44.6508 42.5407 44.0684 41.9582C43.4859 41.3758 42.5415 41.3758 41.959 41.9582C41.3765 42.5407 41.3765 43.4851 41.959 44.0676Z" fill="url(#paint11_linear)"/>
<path d="M29.7246 29.724C29.1621 30.2865 28.1777 30.2865 27.6152 29.724C27.0527 29.1615 27.0527 28.1771 27.6152 27.6146C28.1777 27.0521 29.1621 27.0521 29.7246 27.6146C30.2871 28.1771 30.2871 29.1615 29.7246 29.724Z" fill="url(#paint12_linear)"/>
<path d="M17.4199 56.3722C16.8574 56.9347 15.873 56.9347 15.3106 56.3722C14.7481 55.8097 14.7481 54.8254 15.3106 54.2629C15.873 53.7004 16.8574 53.7004 17.4199 54.2629C17.9824 54.8254 18.0527 55.7394 17.4199 56.3722Z" fill="url(#paint13_linear)"/>
<path d="M37.5991 50.5363C37.0366 51.0988 36.0522 51.0988 35.4898 50.5363C34.9273 49.9738 34.9273 48.9894 35.4898 48.4269C36.0522 47.8644 37.0366 47.8644 37.5991 48.4269C38.1616 48.9894 38.1616 49.9738 37.5991 50.5363Z" fill="url(#paint14_linear)"/>
<path d="M23.2559 36.1927C22.6934 36.7552 21.709 36.7552 21.1465 36.1927C20.584 35.6302 20.584 34.6458 21.1465 34.0833C21.709 33.5208 22.6934 33.5208 23.2559 34.0833C23.8184 34.6458 23.8184 35.6302 23.2559 36.1927Z" fill="url(#paint15_linear)"/>
<path d="M10.9507 62.841C10.3882 63.4035 9.40381 63.4035 8.84131 62.841C8.27882 62.2785 8.27882 61.2941 8.84131 60.7316C9.40381 60.1691 10.3882 60.1691 10.9507 60.7316C11.5132 61.2941 11.5132 62.2785 10.9507 62.841Z" fill="url(#paint16_linear)"/>
<path d="M31.1309 57.0051C30.5684 57.5675 29.584 57.5675 29.0215 57.0051C28.459 56.4426 28.459 55.4582 29.0215 54.8957C29.584 54.3332 30.5684 54.3332 31.1309 54.8957C31.6934 55.4582 31.6934 56.4426 31.1309 57.0051Z" fill="url(#paint17_linear)"/>
</g>
<defs>
<linearGradient id="paint0_linear" x1="52.4016" y1="2.62056" x2="56.6837" y2="3.09188" gradientUnits="userSpaceOnUse">
<stop stop-color="#FF4C02"/>
<stop offset="1" stop-color="#FF741C"/>
</linearGradient>
<linearGradient id="paint1_linear" x1="40.097" y1="29.2686" x2="44.379" y2="29.74" gradientUnits="userSpaceOnUse">
<stop stop-color="#FF4C02"/>
<stop offset="1" stop-color="#FF741C"/>
</linearGradient>
<linearGradient id="paint2_linear" x1="60.2771" y1="23.4328" x2="64.5591" y2="23.9041" gradientUnits="userSpaceOnUse">
<stop stop-color="#FF4C02"/>
<stop offset="1" stop-color="#FF741C"/>
</linearGradient>
<linearGradient id="paint3_linear" x1="45.9329" y1="9.08924" x2="50.2149" y2="9.56057" gradientUnits="userSpaceOnUse">
<stop stop-color="#FF4C02"/>
<stop offset="1" stop-color="#FF741C"/>
</linearGradient>
<linearGradient id="paint4_linear" x1="33.6282" y1="35.7374" x2="37.9102" y2="36.2087" gradientUnits="userSpaceOnUse">
<stop stop-color="#FF4C02"/>
<stop offset="1" stop-color="#FF741C"/>
</linearGradient>
<linearGradient id="paint5_linear" x1="53.8079" y1="29.9015" x2="58.0899" y2="30.3728" gradientUnits="userSpaceOnUse">
<stop stop-color="#FF4C02"/>
<stop offset="1" stop-color="#FF741C"/>
</linearGradient>
<linearGradient id="paint6_linear" x1="39.3938" y1="15.6281" x2="43.6758" y2="16.0994" gradientUnits="userSpaceOnUse">
<stop stop-color="#FF4C02"/>
<stop offset="1" stop-color="#FF741C"/>
</linearGradient>
<linearGradient id="paint7_linear" x1="27.1599" y1="42.2062" x2="31.442" y2="42.6776" gradientUnits="userSpaceOnUse">
<stop stop-color="#FF4C02"/>
<stop offset="1" stop-color="#FF741C"/>
</linearGradient>
<linearGradient id="paint8_linear" x1="47.2693" y1="36.4404" x2="51.5513" y2="36.9118" gradientUnits="userSpaceOnUse">
<stop stop-color="#FF4C02"/>
<stop offset="1" stop-color="#FF741C"/>
</linearGradient>
<linearGradient id="paint9_linear" x1="32.9256" y1="22.0969" x2="37.2076" y2="22.5682" gradientUnits="userSpaceOnUse">
<stop stop-color="#FF4C02"/>
<stop offset="1" stop-color="#FF741C"/>
</linearGradient>
<linearGradient id="paint10_linear" x1="20.6912" y1="48.6748" x2="24.9732" y2="49.1461" gradientUnits="userSpaceOnUse">
<stop stop-color="#FF4C02"/>
<stop offset="1" stop-color="#FF741C"/>
</linearGradient>
<linearGradient id="paint11_linear" x1="40.8006" y1="42.9092" x2="45.0826" y2="43.3805" gradientUnits="userSpaceOnUse">
<stop stop-color="#FF4C02"/>
<stop offset="1" stop-color="#FF741C"/>
</linearGradient>
<linearGradient id="paint12_linear" x1="26.4568" y1="28.5656" x2="30.7388" y2="29.0369" gradientUnits="userSpaceOnUse">
<stop stop-color="#FF4C02"/>
<stop offset="1" stop-color="#FF741C"/>
</linearGradient>
<linearGradient id="paint13_linear" x1="14.1521" y1="55.2138" x2="18.4341" y2="55.6851" gradientUnits="userSpaceOnUse">
<stop stop-color="#FF4C02"/>
<stop offset="1" stop-color="#FF741C"/>
</linearGradient>
<linearGradient id="paint14_linear" x1="34.3313" y1="49.3779" x2="38.6133" y2="49.8492" gradientUnits="userSpaceOnUse">
<stop stop-color="#FF4C02"/>
<stop offset="1" stop-color="#FF741C"/>
</linearGradient>
<linearGradient id="paint15_linear" x1="19.9881" y1="35.0343" x2="24.2701" y2="35.5056" gradientUnits="userSpaceOnUse">
<stop stop-color="#FF4C02"/>
<stop offset="1" stop-color="#FF741C"/>
</linearGradient>
<linearGradient id="paint16_linear" x1="7.68289" y1="61.6826" x2="11.9649" y2="62.1539" gradientUnits="userSpaceOnUse">
<stop stop-color="#FF4C02"/>
<stop offset="1" stop-color="#FF741C"/>
</linearGradient>
<linearGradient id="paint17_linear" x1="27.8631" y1="55.8466" x2="32.1451" y2="56.318" gradientUnits="userSpaceOnUse">
<stop stop-color="#FF4C02"/>
<stop offset="1" stop-color="#FF741C"/>
</linearGradient>
</defs>
</svg>
