<svg width="36" height="116" viewBox="0 0 36 116" fill="none" xmlns="http://www.w3.org/2000/svg">
<g opacity="0.25">
<path d="M30.6958 113.305C30.6958 112.101 31.7491 111.048 32.9529 111.048C34.1567 111.048 35.21 112.101 35.21 113.305C35.21 114.509 34.1567 115.562 32.9529 115.562C31.7491 115.562 30.6958 114.509 30.6958 113.305Z" fill="url(#paint0_linear)"/>
<path d="M15.3482 71.6243C15.3482 70.4206 16.4015 69.3673 17.6052 69.3673C18.809 69.3673 19.8623 70.4206 19.8623 71.6243C19.8623 72.8281 18.809 73.8814 17.6052 73.8814C16.4015 73.8814 15.3482 72.9786 15.3482 71.6243Z" fill="url(#paint1_linear)"/>
<path d="M0.000511844 99.4615C0.000511949 98.2577 1.05381 97.2044 2.25758 97.2044C3.46135 97.2044 4.51465 98.2577 4.51465 99.4615C4.51465 100.665 3.46135 101.719 2.25758 101.719C1.05381 101.719 0.000511738 100.665 0.000511844 99.4615Z" fill="url(#paint2_linear)"/>
<path d="M32.9529 97.2047C31.7063 97.2047 30.6958 98.2152 30.6958 99.4617C30.6958 100.708 31.7063 101.719 32.9529 101.719C34.1994 101.719 35.21 100.708 35.21 99.4617C35.21 98.2152 34.1994 97.2047 32.9529 97.2047Z" fill="url(#paint3_linear)"/>
<path d="M17.6052 55.524C16.3587 55.524 15.3482 56.5345 15.3482 57.7811C15.3482 59.0276 16.3587 60.0381 17.6052 60.0381C18.8518 60.0381 19.8623 59.0276 19.8623 57.7811C19.8623 56.5345 18.8518 55.524 17.6052 55.524Z" fill="url(#paint4_linear)"/>
<path d="M-0.000464719 85.6182C-0.000464614 84.4144 1.05283 83.3611 2.2566 83.3611C3.46037 83.3611 4.51367 84.4144 4.51367 85.6182C4.51367 86.8219 3.46037 87.8752 2.2566 87.8752C1.05283 87.8752 -0.000464824 86.8219 -0.000464719 85.6182Z" fill="url(#paint5_linear)"/>
<path d="M32.9529 83.2105C31.7063 83.2105 30.6958 84.2211 30.6958 85.4676C30.6958 86.7141 31.7063 87.7247 32.9529 87.7247C34.1994 87.7247 35.21 86.7141 35.21 85.4676C35.21 84.2211 34.1994 83.2105 32.9529 83.2105Z" fill="url(#paint6_linear)"/>
<path d="M17.6052 41.6807C16.3587 41.6807 15.3482 42.6913 15.3482 43.9378C15.3482 45.1844 16.3587 46.1949 17.6052 46.1949C18.8518 46.1949 19.8623 45.1844 19.8623 43.9378C19.8623 42.6913 18.8518 41.6807 17.6052 41.6807Z" fill="url(#paint7_linear)"/>
<path d="M-0.000464719 71.6245C-0.000464614 70.4208 1.05283 69.3675 2.2566 69.3675C3.46037 69.3675 4.51367 70.4208 4.51367 71.6245C4.51367 72.8283 3.46037 73.8816 2.2566 73.8816C1.05283 73.8816 -0.000464837 72.9788 -0.000464719 71.6245Z" fill="url(#paint8_linear)"/>
<path d="M30.6958 71.6243C30.6958 70.4206 31.7491 69.3673 32.9529 69.3673C34.1567 69.3673 35.21 70.4206 35.21 71.6243C35.21 72.8281 34.1567 73.8814 32.9529 73.8814C31.7491 73.8814 30.6958 72.8281 30.6958 71.6243Z" fill="url(#paint9_linear)"/>
<path d="M15.3482 30.0944C15.3482 28.8906 16.4015 27.8373 17.6052 27.8373C18.809 27.8373 19.8623 28.8906 19.8623 30.0944C19.8623 31.2981 18.809 32.3514 17.6052 32.3514C16.4015 32.3514 15.3482 31.2981 15.3482 30.0944Z" fill="url(#paint10_linear)"/>
<path d="M2.2566 55.5242C1.01006 55.5242 -0.00046461 56.5347 -0.000464719 57.7813C-0.000464828 59.0278 1.01006 60.0383 2.2566 60.0383C3.50315 60.0383 4.51367 59.0278 4.51367 57.7813C4.51367 56.5347 3.50315 55.5242 2.2566 55.5242Z" fill="url(#paint11_linear)"/>
<path d="M30.6958 57.7811C30.6958 56.5773 31.7491 55.524 32.9529 55.524C34.1567 55.524 35.21 56.5773 35.21 57.7811C35.21 58.9848 34.1567 60.0381 32.9529 60.0381C31.7491 60.0381 30.6958 58.9848 30.6958 57.7811Z" fill="url(#paint12_linear)"/>
<path d="M15.3482 16.1007C15.3482 14.8969 16.4015 13.8436 17.6052 13.8436C18.809 13.8436 19.8623 14.8969 19.8623 16.1007C19.8623 17.3044 18.809 18.3577 17.6052 18.3577C16.4015 18.3577 15.3482 17.4549 15.3482 16.1007Z" fill="url(#paint13_linear)"/>
<path d="M0.000511844 43.9376C0.000511949 42.7339 1.05381 41.6806 2.25758 41.6806C3.46135 41.6806 4.51465 42.7339 4.51465 43.9376C4.51465 45.1414 3.46135 46.1947 2.25758 46.1947C1.05381 46.1947 0.000511738 45.1414 0.000511844 43.9376Z" fill="url(#paint14_linear)"/>
<path d="M30.6958 43.9378C30.6958 42.734 31.7491 41.6807 32.9529 41.6807C34.1567 41.6807 35.21 42.734 35.21 43.9378C35.21 45.1416 34.1567 46.1949 32.9529 46.1949C31.7491 46.1949 30.6958 45.1416 30.6958 43.9378Z" fill="url(#paint15_linear)"/>
<path d="M15.3482 2.25709C15.3482 1.05332 16.4015 2.30625e-05 17.6052 2.31677e-05C18.809 2.32729e-05 19.8623 1.05332 19.8623 2.25709C19.8623 3.46086 18.809 4.51416 17.6052 4.51416C16.4015 4.51416 15.3482 3.46086 15.3482 2.25709Z" fill="url(#paint16_linear)"/>
<path d="M0.000511844 30.0944C0.000511949 28.8906 1.05381 27.8373 2.25758 27.8373C3.46135 27.8373 4.51465 28.8906 4.51465 30.0944C4.51465 31.2981 3.46135 32.3514 2.25758 32.3514C1.05381 32.3514 0.000511738 31.2981 0.000511844 30.0944Z" fill="url(#paint17_linear)"/>
</g>
<defs>
<linearGradient id="paint0_linear" x1="35.432" y1="111.048" x2="30.3458" y2="115.125" gradientUnits="userSpaceOnUse">
<stop stop-color="#FF4C02"/>
<stop offset="1" stop-color="#FF741C"/>
</linearGradient>
<linearGradient id="paint1_linear" x1="20.0843" y1="69.3673" x2="14.9981" y2="73.4448" gradientUnits="userSpaceOnUse">
<stop stop-color="#FF4C02"/>
<stop offset="1" stop-color="#FF741C"/>
</linearGradient>
<linearGradient id="paint2_linear" x1="4.73666" y1="97.2044" x2="-0.34952" y2="101.282" gradientUnits="userSpaceOnUse">
<stop stop-color="#FF4C02"/>
<stop offset="1" stop-color="#FF741C"/>
</linearGradient>
<linearGradient id="paint3_linear" x1="35.432" y1="97.2047" x2="30.3458" y2="101.282" gradientUnits="userSpaceOnUse">
<stop stop-color="#FF4C02"/>
<stop offset="1" stop-color="#FF741C"/>
</linearGradient>
<linearGradient id="paint4_linear" x1="20.0843" y1="55.524" x2="14.9981" y2="59.6015" gradientUnits="userSpaceOnUse">
<stop stop-color="#FF4C02"/>
<stop offset="1" stop-color="#FF741C"/>
</linearGradient>
<linearGradient id="paint5_linear" x1="4.73568" y1="83.3611" x2="-0.350496" y2="87.4386" gradientUnits="userSpaceOnUse">
<stop stop-color="#FF4C02"/>
<stop offset="1" stop-color="#FF741C"/>
</linearGradient>
<linearGradient id="paint6_linear" x1="35.432" y1="83.2105" x2="30.3458" y2="87.2881" gradientUnits="userSpaceOnUse">
<stop stop-color="#FF4C02"/>
<stop offset="1" stop-color="#FF741C"/>
</linearGradient>
<linearGradient id="paint7_linear" x1="20.0843" y1="41.6807" x2="14.9981" y2="45.7583" gradientUnits="userSpaceOnUse">
<stop stop-color="#FF4C02"/>
<stop offset="1" stop-color="#FF741C"/>
</linearGradient>
<linearGradient id="paint8_linear" x1="4.73568" y1="69.3675" x2="-0.350496" y2="73.445" gradientUnits="userSpaceOnUse">
<stop stop-color="#FF4C02"/>
<stop offset="1" stop-color="#FF741C"/>
</linearGradient>
<linearGradient id="paint9_linear" x1="35.432" y1="69.3673" x2="30.3458" y2="73.4448" gradientUnits="userSpaceOnUse">
<stop stop-color="#FF4C02"/>
<stop offset="1" stop-color="#FF741C"/>
</linearGradient>
<linearGradient id="paint10_linear" x1="20.0843" y1="27.8373" x2="14.9981" y2="31.9148" gradientUnits="userSpaceOnUse">
<stop stop-color="#FF4C02"/>
<stop offset="1" stop-color="#FF741C"/>
</linearGradient>
<linearGradient id="paint11_linear" x1="4.73568" y1="55.5242" x2="-0.350496" y2="59.6017" gradientUnits="userSpaceOnUse">
<stop stop-color="#FF4C02"/>
<stop offset="1" stop-color="#FF741C"/>
</linearGradient>
<linearGradient id="paint12_linear" x1="35.432" y1="55.524" x2="30.3458" y2="59.6015" gradientUnits="userSpaceOnUse">
<stop stop-color="#FF4C02"/>
<stop offset="1" stop-color="#FF741C"/>
</linearGradient>
<linearGradient id="paint13_linear" x1="20.0843" y1="13.8436" x2="14.9981" y2="17.9211" gradientUnits="userSpaceOnUse">
<stop stop-color="#FF4C02"/>
<stop offset="1" stop-color="#FF741C"/>
</linearGradient>
<linearGradient id="paint14_linear" x1="4.73666" y1="41.6806" x2="-0.34952" y2="45.7581" gradientUnits="userSpaceOnUse">
<stop stop-color="#FF4C02"/>
<stop offset="1" stop-color="#FF741C"/>
</linearGradient>
<linearGradient id="paint15_linear" x1="35.432" y1="41.6807" x2="30.3458" y2="45.7583" gradientUnits="userSpaceOnUse">
<stop stop-color="#FF4C02"/>
<stop offset="1" stop-color="#FF741C"/>
</linearGradient>
<linearGradient id="paint16_linear" x1="20.0843" y1="2.34402e-05" x2="14.9981" y2="4.07754" gradientUnits="userSpaceOnUse">
<stop stop-color="#FF4C02"/>
<stop offset="1" stop-color="#FF741C"/>
</linearGradient>
<linearGradient id="paint17_linear" x1="4.73666" y1="27.8373" x2="-0.34952" y2="31.9148" gradientUnits="userSpaceOnUse">
<stop stop-color="#FF4C02"/>
<stop offset="1" stop-color="#FF741C"/>
</linearGradient>
</defs>
</svg>
