<svg width="32" height="104" viewBox="0 0 32 104" fill="none" xmlns="http://www.w3.org/2000/svg">
<g opacity="0.25">
<path d="M4.0624 2.0312C4.0624 3.11451 3.11451 4.0624 2.0312 4.0624C0.947894 4.0624 0 3.11451 0 2.0312C0 0.947894 0.947894 0 2.0312 0C3.11451 0 4.0624 0.947894 4.0624 2.0312Z" fill="url(#paint0_linear)"/>
<path d="M17.8744 39.5406C17.8744 40.6239 16.9265 41.5718 15.8432 41.5718C14.7599 41.5718 13.812 40.6239 13.812 39.5406C13.812 38.4573 14.7599 37.5094 15.8432 37.5094C16.9265 37.5094 17.8744 38.3219 17.8744 39.5406Z" fill="url(#paint1_linear)"/>
<path d="M31.6869 14.4891C31.6869 15.5724 30.739 16.5203 29.6557 16.5203C28.5724 16.5203 27.6245 15.5724 27.6245 14.4891C27.6245 13.4058 28.5724 12.4579 29.6557 12.4579C30.739 12.4579 31.6869 13.4058 31.6869 14.4891Z" fill="url(#paint2_linear)"/>
<path d="M2.0312 16.5203C3.153 16.5203 4.0624 15.6109 4.0624 14.4891C4.0624 13.3673 3.153 12.4579 2.0312 12.4579C0.9094 12.4579 0 13.3673 0 14.4891C0 15.6109 0.9094 16.5203 2.0312 16.5203Z" fill="url(#paint3_linear)"/>
<path d="M15.8432 54.0299C16.965 54.0299 17.8744 53.1205 17.8744 51.9987C17.8744 50.8769 16.965 49.9675 15.8432 49.9675C14.7214 49.9675 13.812 50.8769 13.812 51.9987C13.812 53.1205 14.7214 54.0299 15.8432 54.0299Z" fill="url(#paint4_linear)"/>
<path d="M31.6869 26.9472C31.6869 28.0305 30.739 28.9784 29.6557 28.9784C28.5724 28.9784 27.6245 28.0305 27.6245 26.9472C27.6245 25.8639 28.5724 24.916 29.6557 24.916C30.739 24.916 31.6869 25.8639 31.6869 26.9472Z" fill="url(#paint5_linear)"/>
<path d="M2.0312 29.1138C3.153 29.1138 4.0624 28.2044 4.0624 27.0826C4.0624 25.9608 3.153 25.0514 2.0312 25.0514C0.9094 25.0514 0 25.9608 0 27.0826C0 28.2044 0.9094 29.1138 2.0312 29.1138Z" fill="url(#paint6_linear)"/>
<path d="M15.8432 66.4878C16.965 66.4878 17.8744 65.5784 17.8744 64.4566C17.8744 63.3348 16.965 62.4254 15.8432 62.4254C14.7214 62.4254 13.812 63.3348 13.812 64.4566C13.812 65.5784 14.7214 66.4878 15.8432 66.4878Z" fill="url(#paint7_linear)"/>
<path d="M31.6869 39.5406C31.6869 40.6239 30.739 41.5718 29.6557 41.5718C28.5724 41.5718 27.6245 40.6239 27.6245 39.5406C27.6245 38.4573 28.5724 37.5094 29.6557 37.5094C30.739 37.5094 31.6869 38.3219 31.6869 39.5406Z" fill="url(#paint8_linear)"/>
<path d="M4.0624 39.5406C4.0624 40.6239 3.11451 41.5718 2.0312 41.5718C0.947894 41.5718 0 40.6239 0 39.5406C0 38.4573 0.947894 37.5094 2.0312 37.5094C3.11451 37.5094 4.0624 38.4573 4.0624 39.5406Z" fill="url(#paint9_linear)"/>
<path d="M17.8744 76.9146C17.8744 77.9979 16.9265 78.9458 15.8432 78.9458C14.7599 78.9458 13.812 77.9979 13.812 76.9146C13.812 75.8313 14.7599 74.8834 15.8432 74.8834C16.9265 74.8834 17.8744 75.8313 17.8744 76.9146Z" fill="url(#paint10_linear)"/>
<path d="M29.6557 54.0299C30.7775 54.0299 31.6869 53.1205 31.6869 51.9987C31.6869 50.8769 30.7775 49.9675 29.6557 49.9675C28.5339 49.9675 27.6245 50.8769 27.6245 51.9987C27.6245 53.1205 28.5339 54.0299 29.6557 54.0299Z" fill="url(#paint11_linear)"/>
<path d="M4.0624 51.9987C4.0624 53.082 3.11451 54.0299 2.0312 54.0299C0.947894 54.0299 0 53.082 0 51.9987C0 50.9154 0.947894 49.9675 2.0312 49.9675C3.11451 49.9675 4.0624 50.9154 4.0624 51.9987Z" fill="url(#paint12_linear)"/>
<path d="M17.8744 89.5081C17.8744 90.5914 16.9265 91.5393 15.8432 91.5393C14.7599 91.5393 13.812 90.5914 13.812 89.5081C13.812 88.4248 14.7599 87.4769 15.8432 87.4769C16.9265 87.4769 17.8744 88.2894 17.8744 89.5081Z" fill="url(#paint13_linear)"/>
<path d="M31.6869 64.4566C31.6869 65.5399 30.739 66.4878 29.6557 66.4878C28.5724 66.4878 27.6245 65.5399 27.6245 64.4566C27.6245 63.3733 28.5724 62.4254 29.6557 62.4254C30.739 62.4254 31.6869 63.3733 31.6869 64.4566Z" fill="url(#paint14_linear)"/>
<path d="M4.0624 64.4566C4.0624 65.5399 3.11451 66.4878 2.0312 66.4878C0.947894 66.4878 0 65.5399 0 64.4566C0 63.3733 0.947894 62.4254 2.0312 62.4254C3.11451 62.4254 4.0624 63.3733 4.0624 64.4566Z" fill="url(#paint15_linear)"/>
<path d="M17.8744 101.966C17.8744 103.05 16.9265 103.998 15.8432 103.998C14.7599 103.998 13.812 103.05 13.812 101.966C13.812 100.883 14.7599 99.9352 15.8432 99.9352C16.9265 99.9352 17.8744 100.883 17.8744 101.966Z" fill="url(#paint16_linear)"/>
<path d="M31.6869 76.9146C31.6869 77.9979 30.739 78.9458 29.6557 78.9458C28.5724 78.9458 27.6245 77.9979 27.6245 76.9146C27.6245 75.8313 28.5724 74.8834 29.6557 74.8834C30.739 74.8834 31.6869 75.8313 31.6869 76.9146Z" fill="url(#paint17_linear)"/>
</g>
<defs>
<linearGradient id="paint0_linear" x1="-0.19979" y1="4.0624" x2="4.37741" y2="0.392926" gradientUnits="userSpaceOnUse">
<stop stop-color="#FF4C02"/>
<stop offset="1" stop-color="#FF741C"/>
</linearGradient>
<linearGradient id="paint1_linear" x1="13.6122" y1="41.5718" x2="18.1894" y2="37.9023" gradientUnits="userSpaceOnUse">
<stop stop-color="#FF4C02"/>
<stop offset="1" stop-color="#FF741C"/>
</linearGradient>
<linearGradient id="paint2_linear" x1="27.4247" y1="16.5203" x2="32.0019" y2="12.8508" gradientUnits="userSpaceOnUse">
<stop stop-color="#FF4C02"/>
<stop offset="1" stop-color="#FF741C"/>
</linearGradient>
<linearGradient id="paint3_linear" x1="-0.19979" y1="16.5203" x2="4.37741" y2="12.8508" gradientUnits="userSpaceOnUse">
<stop stop-color="#FF4C02"/>
<stop offset="1" stop-color="#FF741C"/>
</linearGradient>
<linearGradient id="paint4_linear" x1="13.6122" y1="54.0299" x2="18.1894" y2="50.3605" gradientUnits="userSpaceOnUse">
<stop stop-color="#FF4C02"/>
<stop offset="1" stop-color="#FF741C"/>
</linearGradient>
<linearGradient id="paint5_linear" x1="27.4247" y1="28.9784" x2="32.0019" y2="25.3089" gradientUnits="userSpaceOnUse">
<stop stop-color="#FF4C02"/>
<stop offset="1" stop-color="#FF741C"/>
</linearGradient>
<linearGradient id="paint6_linear" x1="-0.19979" y1="29.1138" x2="4.37741" y2="25.4443" gradientUnits="userSpaceOnUse">
<stop stop-color="#FF4C02"/>
<stop offset="1" stop-color="#FF741C"/>
</linearGradient>
<linearGradient id="paint7_linear" x1="13.6122" y1="66.4878" x2="18.1894" y2="62.8183" gradientUnits="userSpaceOnUse">
<stop stop-color="#FF4C02"/>
<stop offset="1" stop-color="#FF741C"/>
</linearGradient>
<linearGradient id="paint8_linear" x1="27.4247" y1="41.5718" x2="32.0019" y2="37.9023" gradientUnits="userSpaceOnUse">
<stop stop-color="#FF4C02"/>
<stop offset="1" stop-color="#FF741C"/>
</linearGradient>
<linearGradient id="paint9_linear" x1="-0.19979" y1="41.5718" x2="4.37741" y2="37.9023" gradientUnits="userSpaceOnUse">
<stop stop-color="#FF4C02"/>
<stop offset="1" stop-color="#FF741C"/>
</linearGradient>
<linearGradient id="paint10_linear" x1="13.6122" y1="78.9458" x2="18.1894" y2="75.2763" gradientUnits="userSpaceOnUse">
<stop stop-color="#FF4C02"/>
<stop offset="1" stop-color="#FF741C"/>
</linearGradient>
<linearGradient id="paint11_linear" x1="27.4247" y1="54.0299" x2="32.0019" y2="50.3605" gradientUnits="userSpaceOnUse">
<stop stop-color="#FF4C02"/>
<stop offset="1" stop-color="#FF741C"/>
</linearGradient>
<linearGradient id="paint12_linear" x1="-0.19979" y1="54.0299" x2="4.37741" y2="50.3605" gradientUnits="userSpaceOnUse">
<stop stop-color="#FF4C02"/>
<stop offset="1" stop-color="#FF741C"/>
</linearGradient>
<linearGradient id="paint13_linear" x1="13.6122" y1="91.5393" x2="18.1894" y2="87.8699" gradientUnits="userSpaceOnUse">
<stop stop-color="#FF4C02"/>
<stop offset="1" stop-color="#FF741C"/>
</linearGradient>
<linearGradient id="paint14_linear" x1="27.4247" y1="66.4878" x2="32.0019" y2="62.8183" gradientUnits="userSpaceOnUse">
<stop stop-color="#FF4C02"/>
<stop offset="1" stop-color="#FF741C"/>
</linearGradient>
<linearGradient id="paint15_linear" x1="-0.19979" y1="66.4878" x2="4.37741" y2="62.8183" gradientUnits="userSpaceOnUse">
<stop stop-color="#FF4C02"/>
<stop offset="1" stop-color="#FF741C"/>
</linearGradient>
<linearGradient id="paint16_linear" x1="13.6122" y1="103.998" x2="18.1894" y2="100.328" gradientUnits="userSpaceOnUse">
<stop stop-color="#FF4C02"/>
<stop offset="1" stop-color="#FF741C"/>
</linearGradient>
<linearGradient id="paint17_linear" x1="27.4247" y1="78.9458" x2="32.0019" y2="75.2763" gradientUnits="userSpaceOnUse">
<stop stop-color="#FF4C02"/>
<stop offset="1" stop-color="#FF741C"/>
</linearGradient>
</defs>
</svg>
