<svg width="100" height="100" viewBox="0 0 100 100" fill="none" xmlns="http://www.w3.org/2000/svg">
<circle opacity="0.1" cx="50" cy="50" r="50" fill="url(#paint0_linear)"/>
<path d="M41.0829 67.5579C41.0829 68.084 41.5078 68.51 42.0316 68.51H56.9642C57.4884 68.51 57.9128 68.084 57.9128 67.5579C57.9128 67.0317 57.4884 66.6057 56.9642 66.6057H42.0316C41.5078 66.6057 41.0829 67.0317 41.0829 67.5579ZM73.6508 73.7969L72.9447 72.2814C72.5647 71.4656 72.2624 70.6241 72.037 69.7627C72.0326 69.7433 72.0277 69.7245 72.0222 69.7051C71.7742 68.7421 71.623 67.7542 71.5721 66.7485L69.8447 32.6725C69.7183 30.1781 67.6697 28.2242 65.1815 28.2242H61.2193V25.7645C61.2193 19.2775 55.9611 14 49.4979 14C43.0351 14 37.7764 19.2775 37.7764 25.7645V28.2242H33.8148C31.326 28.2242 29.278 30.1781 29.1515 32.6725L29.0255 35.1575C28.9988 35.6827 29.4015 36.13 29.9248 36.1568C30.448 36.1851 30.8937 35.7794 30.9204 35.2542L31.0464 32.7692C31.1215 31.2884 32.3374 30.1285 33.8148 30.1285H37.7769V33.0489C36.1089 33.4744 34.8711 34.9939 34.8711 36.799C34.8711 38.9319 36.6 40.6671 38.7256 40.6671C40.8507 40.6671 42.58 38.9319 42.58 36.799C42.58 34.9939 41.3423 33.4744 39.6743 33.0489V30.1285H59.322V33.0489C57.6539 33.4744 56.4162 34.9939 56.4162 36.799C56.4162 38.9319 58.1455 40.6671 60.2706 40.6671C62.3962 40.6671 64.1251 38.9319 64.1251 36.799C64.1251 34.9939 62.8874 33.4744 61.2193 33.0489V30.1285H65.1815C66.6588 30.1285 67.8748 31.2884 67.9499 32.7692L69.6772 66.8457C69.7178 67.6402 69.8136 68.4247 69.9628 69.1973C63.92 70.1009 55.4646 70.508 49.4979 70.508C43.5317 70.508 35.0762 70.1009 29.0334 69.1973C29.1826 68.4247 29.2785 67.6402 29.319 66.8457L30.696 39.6792C30.7227 39.1541 30.32 38.7068 29.7968 38.68C29.274 38.6522 28.8279 39.0574 28.8012 39.5825L27.4241 66.7485C27.3727 67.7547 27.2216 68.7426 26.9735 69.7066C26.9681 69.7245 26.9636 69.7428 26.9592 69.7617C26.7339 70.6231 26.4315 71.4651 26.051 72.2814L25.345 73.7969C24.8148 74.935 24.8998 76.2477 25.5718 77.3075C26.2437 78.3672 27.392 79 28.6441 79H67.3436C67.8679 79 68.2923 78.574 68.2923 78.0479C68.2923 77.5217 67.8679 77.0957 67.3436 77.0957H28.6441C28.0353 77.0957 27.4992 76.8001 27.1721 76.2849C26.8455 75.7696 26.806 75.1567 27.0639 74.6038L27.77 73.0882C28.0793 72.4232 28.3427 71.7438 28.5615 71.0515C34.719 71.9898 43.3992 72.4123 49.4979 72.4123C55.5965 72.4123 64.2768 71.9898 70.4342 71.0515C70.6531 71.7438 70.9164 72.4232 71.2257 73.0882L71.9318 74.6038C72.3528 75.5073 71.9348 76.4004 71.3038 76.8155C70.8655 77.1036 70.7425 77.6938 71.0301 78.1336C71.2119 78.4123 71.5153 78.5641 71.8241 78.5641C72.0025 78.5641 72.1828 78.514 72.3434 78.4084C73.8761 77.4007 74.426 75.4612 73.6508 73.7969ZM40.6822 36.799C40.6822 37.8816 39.8042 38.7628 38.7251 38.7628C37.6465 38.7628 36.7685 37.8821 36.7685 36.799C36.7685 36.0611 37.1761 35.4179 37.7764 35.0822V36.799C37.7764 37.3247 38.2014 37.7511 38.7251 37.7511C39.2493 37.7511 39.6738 37.3247 39.6738 36.799V35.0822C40.2746 35.4179 40.6822 36.0611 40.6822 36.799ZM39.6738 28.2242V25.7645C39.6738 20.3273 44.0811 15.9043 49.4979 15.9043C54.9151 15.9043 59.322 20.3273 59.322 25.7645V28.2242H39.6738ZM62.2278 36.799C62.2278 37.8816 61.3498 38.7628 60.2706 38.7628C59.1915 38.7628 58.3135 37.8821 58.3135 36.799C58.3135 36.0611 58.7212 35.4179 59.322 35.0822V36.799C59.322 37.3247 59.7464 37.7511 60.2706 37.7511C60.7944 37.7511 61.2193 37.3247 61.2193 36.799V35.0822C61.8196 35.4179 62.2278 36.0611 62.2278 36.799ZM57.5828 52.2312C57.5803 51.2171 56.9716 50.3205 56.0323 49.9471L45.3657 45.706C44.2787 45.2741 43.0899 45.5211 42.2633 46.3507C41.4362 47.1809 41.1901 48.374 41.621 49.4646L45.8465 60.1703C46.2186 61.1135 47.1119 61.724 48.1218 61.7264H48.1282C49.1362 61.7264 50.0295 61.1204 50.4055 60.1817L51.6368 57.1055L55.7699 61.2538C55.9552 61.4398 56.1983 61.5325 56.4409 61.5325C56.6835 61.5325 56.9266 61.4398 57.1119 61.2538C57.4825 60.8819 57.4825 60.2794 57.1119 59.9074L52.9788 55.7591L56.0437 54.5228C56.981 54.145 57.5852 53.2454 57.5828 52.2312ZM55.3361 52.7559L50.9401 54.5288C50.824 54.5754 50.7153 54.6453 50.6214 54.7396C50.5276 54.8343 50.4574 54.9439 50.411 55.0604L48.6451 59.4715C48.5186 59.7874 48.2424 59.8221 48.1282 59.8221H48.1268C48.0131 59.8221 47.7359 59.7869 47.6104 59.4691L43.3849 48.7633C43.1631 48.2015 43.4971 47.8052 43.6048 47.6976C43.6863 47.6153 43.9339 47.4021 44.2941 47.4021C44.4077 47.4021 44.5327 47.4234 44.6671 47.4764L55.3336 51.7175C55.6504 51.8434 55.6849 52.1221 55.6854 52.2357C55.6859 52.3498 55.6523 52.6285 55.3361 52.7559Z" fill="url(#paint1_linear)"/>
<defs>
<linearGradient id="paint0_linear" x1="5.83333" y1="94.1667" x2="107.673" y2="9.19591" gradientUnits="userSpaceOnUse">
<stop stop-color="#FF2A00"/>
<stop offset="1" stop-color="#FF9900"/>
</linearGradient>
<linearGradient id="paint1_linear" x1="27.8583" y1="75.2083" x2="88.5057" y2="37.0624" gradientUnits="userSpaceOnUse">
<stop stop-color="#FF2A00"/>
<stop offset="1" stop-color="#FF9900"/>
</linearGradient>
</defs>
</svg>
