<svg width="100" height="100" viewBox="0 0 100 100" fill="none" xmlns="http://www.w3.org/2000/svg">
<circle opacity="0.1" cx="50" cy="50" r="50" fill="url(#paint0_linear)"/>
<path fill-rule="evenodd" clip-rule="evenodd" d="M65.8411 59.9457C65.8113 59.9315 65.7806 59.9194 65.7491 59.9094L59.6492 57.8504C60.208 57.6457 60.6895 57.2729 61.0276 56.7832C61.3657 56.2935 61.5436 55.711 61.5369 55.116V53.261C61.6511 53.2696 61.7776 53.2754 61.8834 53.2754C62.7702 53.2747 63.6319 52.9811 64.3346 52.4403C65.0374 51.8996 65.5419 51.1418 65.7698 50.2849L67.3728 44.201C67.8587 42.3421 66.9073 40.4406 65.3076 39.6122V35.0702C65.3076 26.7604 58.5346 20 50.2247 20C41.9149 20 35.1419 26.7604 35.1419 35.0702V39.6122C33.5422 40.4406 32.5839 42.3417 33.0697 44.201L34.6625 50.2849C34.7954 50.7935 35.0272 51.271 35.3447 51.69C35.6621 52.1091 36.059 52.4615 36.5127 52.7271C36.9664 52.9927 37.4679 53.1663 37.9887 53.238C38.5095 53.3097 39.0393 53.2781 39.5479 53.145L42.2048 52.4509C42.9528 53.2191 43.8065 53.8768 44.7401 54.4041V56.5204L34.6943 59.9092C34.6646 59.9194 34.6356 59.9316 34.6076 59.9457C33.3345 60.5848 32.2456 61.5384 31.444 62.716C30.6424 63.8936 30.1547 65.2563 30.027 66.6752C30.0263 66.6842 30.02 66.6933 30.0136 66.7025C30.0068 66.7124 30 66.7223 30 66.7323V75.0136C30.0101 75.2036 30.0914 75.3829 30.2277 75.5156C30.3641 75.6484 30.5454 75.7249 30.7356 75.73H69.7138C69.9041 75.7249 70.0854 75.6484 70.2217 75.5156C70.3581 75.3829 70.4394 75.2036 70.4495 75.0136V66.7321C70.4495 66.7222 70.4426 66.7124 70.4357 66.7027C70.4293 66.6934 70.4228 66.6842 70.4221 66.6749C70.2942 65.2561 69.8064 63.8934 69.0048 62.7159C68.2031 61.5383 67.1142 60.5848 65.8411 59.9457ZM44.7401 74.3588H36.2845V71.5C36.2845 71.4102 36.2669 71.3214 36.2326 71.2385C36.1982 71.1556 36.1479 71.0802 36.0845 71.0168C36.021 70.9533 35.9457 70.903 35.8628 70.8687C35.7799 70.8343 35.6911 70.8167 35.6013 70.8167H35.5965C35.5068 70.8167 35.418 70.8343 35.3351 70.8687C35.2522 70.903 35.1769 70.9533 35.1134 71.0168C35.05 71.0802 34.9997 71.1556 34.9653 71.2385C34.931 71.3214 34.9133 71.4102 34.9134 71.5V74.3588H31.3712V66.7613C31.5997 65.2774 32.1402 63.8871 33.1023 62.7913C34.0396 64.0321 34.6449 65.4915 34.8609 67.0314C34.8876 67.211 34.9842 67.3727 35.1297 67.4813C35.2751 67.59 35.4576 67.6367 35.6373 67.6114C35.8171 67.5861 35.9795 67.4908 36.0893 67.3462C36.1991 67.2016 36.2473 67.0195 36.2234 66.8396C35.9578 65.0274 35.2383 63.3119 34.1318 61.8524C34.4598 61.6014 34.8099 61.3806 35.1779 61.193L44.7401 57.9675V74.3588ZM60.1657 55.116C60.1657 55.9698 59.5272 56.6479 58.6734 56.6479H56.0865L55.7094 56.5206V54.4019C56.6377 53.8735 57.4881 53.2188 58.2361 52.4564L60.1657 52.9676V55.116ZM60.3309 51.5789L59.1778 51.2775L62.0968 40.1036L63.2508 40.405L60.3309 51.5789ZM60.4093 39.6629C60.4045 39.7342 60.3804 39.8028 60.3394 39.8613L59.4532 40.2758L59.1397 38.9827C58.3718 35.8077 56.4487 33.0327 53.7454 31.1989C53.5971 31.0982 53.4153 31.0595 53.2388 31.0913C53.0624 31.123 52.9054 31.2226 52.8015 31.3687C51.8474 32.7085 50.554 33.7704 49.054 34.4453C47.5541 35.1202 45.9015 35.3837 44.266 35.209L43.4276 35.1188C43.2792 35.1029 43.129 35.1168 42.9861 35.1599C42.8431 35.2029 42.7102 35.2742 42.5953 35.3695C42.4803 35.4647 42.3856 35.5821 42.3168 35.7146C42.248 35.8471 42.2064 35.992 42.1945 36.1408L41.8784 40.0926C41.4053 40.0066 40.7169 39.86 40.0993 39.7165C40.0664 39.6848 40.0464 39.642 40.0431 39.5964L39.8032 36.1228C39.7046 34.6933 39.9011 33.2589 40.3804 31.9086C40.8597 30.5583 41.6116 29.321 42.5893 28.2736C43.567 27.2261 44.7497 26.391 46.0638 25.8199C47.378 25.2489 48.7955 24.9543 50.2283 24.9543C51.6612 24.9543 53.0787 25.2489 54.3929 25.8199C55.707 26.391 56.8897 27.2261 57.8674 28.2736C58.8451 29.321 59.597 30.5583 60.0763 31.9086C60.5556 33.2589 60.752 34.6933 60.6535 36.1228L60.4093 39.6629ZM66.047 43.8544L64.4574 49.9383C64.2989 50.5418 63.9314 51.0695 63.4203 51.4274C62.9091 51.7852 62.2875 51.9499 61.6662 51.8922L64.5685 40.7858C65.1383 41.0395 65.5997 41.4871 65.8704 42.049C66.1411 42.611 66.2037 43.2507 66.047 43.8544ZM36.5131 35.0702C36.5131 27.5165 42.6711 21.3712 50.2247 21.3712C57.7784 21.3712 63.9364 27.5165 63.9364 35.0702V39.1638L61.8556 38.6216L62.0214 36.2175C62.1328 34.6005 61.9106 32.9778 61.3684 31.4504C60.8263 29.9229 59.9757 28.5232 58.8698 27.3383C57.7638 26.1535 56.4259 25.2087 54.9393 24.5628C53.4528 23.9168 51.8492 23.5835 50.2284 23.5835C48.6076 23.5835 47.004 23.9168 45.5174 24.5628C44.0309 25.2087 42.693 26.1535 41.587 27.3383C40.481 28.5232 39.6305 29.9229 39.0884 31.4504C38.5462 32.9778 38.3239 34.6005 38.4354 36.2175L38.6012 38.6202L36.5131 39.1638V35.0702ZM35.9921 49.9383L34.4025 43.8544C34.2457 43.2506 34.3082 42.6107 34.579 42.0486C34.8498 41.4866 35.3113 41.0389 35.8813 40.7852L38.7836 51.8917C38.1623 51.9494 37.5408 51.7847 37.0296 51.427C36.5184 51.0693 36.1507 50.5418 35.9921 49.9383ZM40.1185 51.5789L37.1986 40.405L38.3527 40.1036L41.2717 51.2775L40.1185 51.5789ZM42.5606 50.7871L40.032 41.1089C42.5121 41.6802 42.6557 41.5768 42.9043 41.3955C42.9859 41.3361 43.0537 41.2597 43.103 41.1717C43.1523 41.0836 43.182 40.9859 43.19 40.8853L43.5398 36.5105L44.1187 36.5729C45.8803 36.7609 47.6609 36.5064 49.2992 35.8323C50.9375 35.1582 52.3817 34.0859 53.5008 32.7126C55.6509 34.3507 57.1713 36.6791 57.8066 39.3064L58.3177 41.4135C58.3417 41.5122 58.3872 41.6044 58.4511 41.6833C58.5151 41.7622 58.5957 41.826 58.6872 41.8699C58.7788 41.9139 58.879 41.9369 58.9805 41.9375C59.0821 41.938 59.1825 41.9159 59.2745 41.8729L60.3502 41.3701L57.8876 50.7927C56.9654 51.9381 55.7981 52.8621 54.4716 53.4969C53.1451 54.1316 51.6932 54.4608 50.2227 54.4603C48.7521 54.4598 47.3004 54.1296 45.9743 53.494C44.6483 52.8584 43.4816 51.9336 42.5601 50.7875L42.5606 50.7871ZM53.5384 56.5336V58.2476H49.9962V56.5336H53.5384ZM46.1112 74.3588V61.6394C47.3829 62.2964 48.7934 62.6393 50.2247 62.6393C51.6561 62.6393 53.0666 62.2964 54.3382 61.6394V74.3588H46.1112ZM54.3382 60.0582C53.1116 60.8479 51.6836 61.2678 50.2247 61.2678C48.7659 61.2678 47.3379 60.8479 46.1112 60.0582V55.0546C46.9446 55.3869 47.8164 55.6133 48.7062 55.7288C48.6523 55.8575 48.6247 55.9958 48.625 56.1353V58.5854C48.625 59.1276 49.0171 59.6187 49.5594 59.6187H53.9737C54.0997 59.6188 54.2242 59.5912 54.3382 59.5378V60.0582ZM64.165 74.3588H55.7094V58.0191H55.861L65.265 61.1929C65.6493 61.3901 66.0138 61.6238 66.3535 61.8907C64.9383 63.7472 64.1697 66.0158 64.165 68.3502V74.3588ZM69.0783 74.3588H65.5361V68.3502C65.5501 66.3651 66.196 64.436 67.38 62.8426C68.317 63.9304 68.8498 65.3003 69.0783 66.7619V74.3588ZM39.0269 64.653C39.2087 64.653 39.3831 64.5808 39.5116 64.4522C39.6402 64.3236 39.7124 64.1493 39.7124 63.9674V63.2476C39.7124 63.0657 39.6402 62.8914 39.5116 62.7628C39.3831 62.6342 39.2087 62.562 39.0269 62.562C38.845 62.562 38.6707 62.6342 38.5421 62.7628C38.4135 62.8914 38.3413 63.0657 38.3413 63.2476V63.9674C38.3413 64.1493 38.4135 64.3236 38.5421 64.4522C38.6707 64.5808 38.845 64.653 39.0269 64.653ZM39.5116 71.8794C39.3831 72.0079 39.2087 72.0802 39.0269 72.0802C38.845 72.0802 38.6707 72.0079 38.5421 71.8794C38.4135 71.7508 38.3413 71.5764 38.3413 71.3946V66.1385C38.3413 65.9566 38.4135 65.7822 38.5421 65.6537C38.6707 65.5251 38.845 65.4529 39.0269 65.4529C39.2087 65.4529 39.3831 65.5251 39.5116 65.6537C39.6402 65.7822 39.7124 65.9566 39.7124 66.1385V71.3946C39.7124 71.5764 39.6402 71.7508 39.5116 71.8794Z" fill="url(#paint1_linear)"/>
<defs>
<linearGradient id="paint0_linear" x1="5.83333" y1="94.1667" x2="107.673" y2="9.19591" gradientUnits="userSpaceOnUse">
<stop stop-color="#FF2A00"/>
<stop offset="1" stop-color="#FF9900"/>
</linearGradient>
<linearGradient id="paint1_linear" x1="32.3596" y1="72.4791" x2="83.4818" y2="41.5201" gradientUnits="userSpaceOnUse">
<stop stop-color="#FF2A00"/>
<stop offset="1" stop-color="#FF9900"/>
</linearGradient>
</defs>
</svg>
