<svg width="100" height="100" viewBox="0 0 100 100" fill="none" xmlns="http://www.w3.org/2000/svg">
<circle opacity="0.1" cx="50" cy="50" r="50" fill="url(#paint0_linear)"/>
<path fill-rule="evenodd" clip-rule="evenodd" d="M49.9931 77.9998C49.2787 77.9998 48.5635 77.9725 47.847 77.9178C41.1931 77.4076 34.9263 74.5242 30.201 69.7993C24.9125 64.5104 22 57.4792 22 49.9999C22 42.521 24.9125 35.4894 30.201 30.201C35.4894 24.9125 42.521 22 49.9999 22C57.4792 22 64.5104 24.9125 69.7993 30.201C74.5242 34.9263 77.4076 41.1931 77.9178 47.847C78.4224 54.4287 76.5895 60.9891 72.7571 66.3202C72.4046 66.8107 71.721 66.9222 71.2305 66.5697C70.7401 66.2173 70.6286 65.5337 70.981 65.0432C78.3886 54.7393 77.241 40.7368 68.2522 31.7476C58.188 21.6834 41.8122 21.6834 31.748 31.7476C21.6834 41.8122 21.6834 58.1876 31.748 68.2522C40.7368 77.2406 54.7398 78.3886 65.0436 70.9806C65.5341 70.6281 66.2173 70.7401 66.5702 71.2305C66.9226 71.721 66.8107 72.4042 66.3202 72.7571C61.5693 76.1725 55.8416 77.9998 49.9931 77.9998ZM46.3363 63.7978C46.0462 63.7978 45.768 63.6825 45.563 63.4774L33.6702 51.5851C33.2429 51.1578 33.2429 50.4652 33.6702 50.038L39.8571 43.8511C40.2843 43.4238 40.9769 43.4238 41.4042 43.8511L46.3363 48.7832L58.5965 36.5225C58.8016 36.3175 59.0801 36.2021 59.3702 36.2021C59.6599 36.2021 59.9384 36.3175 60.1435 36.5225L66.3305 42.7099C66.7577 43.1367 66.7577 43.8293 66.3305 44.2565L47.1096 63.4778C46.9045 63.6829 46.6264 63.7978 46.3363 63.7978ZM35.9905 50.8117L46.3363 61.1575L64.0105 43.4832L59.3702 38.8425L47.1096 51.1031C46.6823 51.5304 45.9898 51.5304 45.563 51.1031L40.6308 46.171L35.9905 50.8117ZM68.2531 69.7993C68.4564 70.0026 68.7384 70.1197 69.0264 70.1197C69.3139 70.1197 69.5959 70.0026 69.7997 69.7993C70.003 69.5955 70.1201 69.3135 70.1201 69.026C70.1201 68.738 70.003 68.456 69.7997 68.2526C69.5959 68.0493 69.3139 67.9322 69.0264 67.9322C68.7384 67.9322 68.4564 68.0493 68.2531 68.2526C68.0497 68.456 67.9326 68.738 67.9326 69.026C67.9326 69.3135 68.0497 69.5955 68.2531 69.7993Z" fill="url(#paint1_linear)"/>
<defs>
<linearGradient id="paint0_linear" x1="5.83333" y1="94.1667" x2="107.673" y2="9.19591" gradientUnits="userSpaceOnUse">
<stop stop-color="#FF2A00"/>
<stop offset="1" stop-color="#FF9900"/>
</linearGradient>
<linearGradient id="paint1_linear" x1="25.2667" y1="74.7332" x2="82.2965" y2="27.1496" gradientUnits="userSpaceOnUse">
<stop stop-color="#FF2A00"/>
<stop offset="1" stop-color="#FF9900"/>
</linearGradient>
</defs>
</svg>
