<svg width="100" height="100" viewBox="0 0 100 100" fill="none" xmlns="http://www.w3.org/2000/svg">
<circle opacity="0.1" cx="50" cy="50" r="50" fill="url(#paint0_linear)"/>
<path fill-rule="evenodd" clip-rule="evenodd" d="M76.6148 42.0343L78.351 48.979C81.0047 49.383 83.0444 51.6799 83.0443 54.4445V65.6418C83.0443 66.2216 82.5742 66.6916 81.9945 66.6916H78.5633C78.5634 66.7021 78.5638 66.7126 78.5642 66.7231V66.7232C78.5647 66.7359 78.5651 66.7486 78.5651 66.7615C78.5651 70.4275 75.5826 73.4099 71.9167 73.4099C68.2509 73.4099 65.2683 70.4275 65.2683 66.7615C65.2683 66.7487 65.2688 66.736 65.2693 66.7233V66.7232V66.7232V66.7231C65.2697 66.7126 65.2701 66.7021 65.2702 66.6916H41.6121C41.6123 66.7022 41.6126 66.7127 41.613 66.7232V66.7233V66.7233C41.6133 66.7292 41.6135 66.7352 41.6136 66.7411C41.6138 66.7479 41.614 66.7547 41.614 66.7615C41.614 70.4275 38.6314 73.4099 34.9656 73.4099C31.2997 73.4099 28.3172 70.4275 28.3172 66.7615C28.3172 66.7487 28.3177 66.736 28.3181 66.7233L28.3187 66.7047L28.319 66.6916H22.6485C21.4522 66.6916 20.479 65.7184 20.479 64.5221V62.2126H17.0498C16.47 62.2126 16 61.7426 16 61.1628C16 60.583 16.4701 60.113 17.0498 60.113H27.1274C27.7072 60.113 28.1772 60.583 28.1772 61.1628C28.1772 61.7426 27.7071 62.2126 27.1274 62.2126H22.5785V64.5221C22.5785 64.5607 22.6098 64.592 22.6484 64.592H28.6825C29.5841 61.9884 32.0592 60.113 34.9656 60.113C37.8719 60.113 40.3469 61.9884 41.2486 64.592H63.0286V56.684C63.0286 56.1042 63.4987 55.6342 64.0784 55.6342C64.6583 55.6342 65.1282 56.1043 65.1282 56.684V64.5923H65.6337C66.5352 61.9887 69.0104 60.1133 71.9167 60.1133C74.8231 60.1133 77.2981 61.9887 78.1998 64.5923H80.9447V59.9734H79.7549C77.9412 59.9734 76.4657 58.4979 76.4657 56.6842V54.4447C76.4657 53.8649 76.9358 53.3949 77.5155 53.3949H80.7797C80.3353 52.0167 79.0414 51.0166 77.5176 51.0155L77.5147 51.0156L77.5119 51.0154H65.1285V52.2054C65.1285 52.7852 64.6584 53.2552 64.0787 53.2552C63.4989 53.2552 63.0289 52.7851 63.0289 52.2054V33.1695C63.0289 33.1309 62.9976 33.0996 62.959 33.0996H22.6484C22.6098 33.0996 22.5785 33.1309 22.5785 33.1695V52.2052C22.5785 52.785 22.1084 53.2549 21.5287 53.2549C20.9488 53.2549 20.4789 52.7849 20.4789 52.2052V33.1695C20.4789 31.9732 21.4521 31 22.6484 31H62.9591C64.1554 31 65.1286 31.9732 65.1286 33.1695V35.4791H73.0367C75.4677 35.4791 77.4457 37.457 77.4457 39.8881V41.0078C77.4457 41.5124 77.0895 41.9335 76.6148 42.0343ZM73.0367 37.5786H65.1286V39.958H75.3462V39.8881C75.3462 38.6146 74.3102 37.5786 73.0367 37.5786ZM65.1286 42.0575V48.9159H76.1712L74.4566 42.0575H65.1286ZM30.4166 66.7618C30.4166 69.2702 32.4573 71.3107 34.9656 71.3107C37.4739 71.3107 39.5145 69.2702 39.5145 66.7618C39.5145 64.2534 37.4739 62.2128 34.9656 62.2128C32.4573 62.2128 30.4166 64.2534 30.4166 66.7618ZM67.3681 66.7618C67.3681 69.2702 69.4087 71.3107 71.917 71.3107C74.4253 71.3107 76.4659 69.2702 76.4659 66.7618C76.4659 64.2534 74.4253 62.2128 71.917 62.2128C69.4087 62.2128 67.3681 64.2534 67.3681 66.7618ZM79.7552 57.8738H80.9448V55.4943H78.5654V56.684C78.5654 57.3401 79.0991 57.8738 79.7552 57.8738ZM32.796 66.7617C32.796 65.5654 33.7692 64.5922 34.9656 64.5922C36.1619 64.5922 37.1351 65.5654 37.1351 66.7617C37.1351 67.9581 36.1619 68.9313 34.9656 68.9313C33.7692 68.9313 32.796 67.9581 32.796 66.7617ZM71.917 64.5922C70.7207 64.5922 69.7475 65.5654 69.7475 66.7617C69.7475 67.9581 70.7207 68.9313 71.917 68.9313C73.1134 68.9313 74.0866 67.9581 74.0866 66.7617C74.0866 65.5654 73.1134 64.5922 71.917 64.5922ZM43.9235 60.1134H59.5998C60.1797 60.1134 60.6496 60.5834 60.6496 61.1632C60.6496 61.743 60.1795 62.213 59.5998 62.213H43.9235C43.3437 62.213 42.8737 61.743 42.8737 61.1632C42.8737 60.5834 43.3438 60.1134 43.9235 60.1134ZM32.7261 55.6344H19.2892C18.7095 55.6344 18.2394 56.1044 18.2394 56.6842C18.2394 57.264 18.7094 57.734 19.2892 57.734H32.7261C33.3058 57.734 33.7759 57.264 33.7759 56.6842C33.7759 56.1044 33.3058 55.6344 32.7261 55.6344ZM46.0497 34.9999H59.4866C60.0663 34.9999 60.5364 35.4699 60.5364 36.0497C60.5364 36.6295 60.0663 37.0995 59.4866 37.0995H46.0497C45.4699 37.0995 44.9999 36.6295 44.9999 36.0497C44.9999 35.4699 45.47 34.9999 46.0497 34.9999Z" fill="url(#paint1_linear)"/>
<defs>
<linearGradient id="paint0_linear" x1="5.83333" y1="94.1667" x2="107.673" y2="9.19591" gradientUnits="userSpaceOnUse">
<stop stop-color="#FF2A00"/>
<stop offset="1" stop-color="#FF9900"/>
</linearGradient>
<linearGradient id="paint1_linear" x1="19.9109" y1="70.936" x2="62.1804" y2="15.1822" gradientUnits="userSpaceOnUse">
<stop stop-color="#FF2A00"/>
<stop offset="1" stop-color="#FF9900"/>
</linearGradient>
</defs>
</svg>
