<svg width="680" height="651" viewBox="0 0 680 651" fill="none" xmlns="http://www.w3.org/2000/svg">
<path opacity="0.7" d="M680 6.10352e-05C670.229 5.62628 659.061 10.2825 646.498 13.2896C623.853 18.7218 598.261 19.7888 577.787 27.9371C550.644 38.6075 538.081 59.0753 531.256 78.5731C524.432 98.1678 521.329 118.636 505.974 136.193C474.023 172.57 394.61 185.083 331.793 171.891C289.916 163.063 254.862 145.409 226.634 123.777C212.519 112.912 200.111 101.175 189.254 89.0495C165.058 61.5974 147.221 31.4293 113.874 8.05137C109.996 5.23826 105.653 2.52216 101 6.10352e-05H680Z" fill="white"/>
<path opacity="0.7" d="M0 308.337V649.36H492C490.386 635.006 487.293 620.785 482.72 606.967C467.387 560.147 434.031 519.095 391.932 494.008C369.605 480.727 344.857 471.873 318.899 469.055C285.139 465.299 246.941 469.86 220.983 447.993C205.381 434.846 197.715 414.857 187.896 396.88C160.055 345.901 107.734 306.727 49.6304 302.703C32.9524 301.495 16.0055 303.508 0 308.337Z" fill="white"/>
<g opacity="0.25">
<path d="M623.916 649.993C632.943 614.441 639.485 575.772 626.925 541.495C610.44 496.594 564.781 471.523 520.43 465.716C476.079 459.909 431.597 469.54 387.115 473.081C342.633 476.764 295.011 473.506 258.379 446.028C207.486 407.926 190.871 333.564 144.95 288.521C106.617 251.269 48.7906 238.805 0.252972 257.785" stroke="url(#paint0_linear)" stroke-miterlimit="10"/>
<path d="M590.162 649.993C598.666 616.424 604.945 579.738 593.04 547.302C577.471 504.809 534.167 481.014 492.302 475.631C450.436 470.249 408.178 479.172 366.182 482.713C324.055 486.113 279.05 483.138 244.38 457.218C196.235 421.099 180.535 350.844 137.1 308.21C100.86 272.799 46.3047 261.043 0.383669 278.89" stroke="url(#paint1_linear)" stroke-miterlimit="10"/>
<path d="M556.538 649.993C564.519 618.265 570.406 583.704 559.155 553.11C544.502 513.025 503.683 490.645 464.173 485.546C424.662 480.447 384.89 488.945 345.249 492.203C305.608 495.461 263.088 492.628 230.381 468.124C184.983 434.13 170.2 367.699 129.25 327.615C95.1036 294.187 43.5569 283.139 0.252437 299.994" stroke="url(#paint2_linear)" stroke-miterlimit="10"/>
<path d="M522.785 649.993C530.373 620.248 535.868 587.67 525.271 559.058C511.403 521.382 473.201 500.418 436.045 495.603C398.89 490.787 361.603 498.719 324.317 501.835C287.031 504.951 247.128 502.26 216.383 479.172C173.733 447.161 159.734 384.838 121.401 347.161C89.3477 315.717 40.9409 305.377 0.253035 321.241" stroke="url(#paint3_linear)" stroke-miterlimit="10"/>
<path d="M489.162 649.993C496.227 622.089 501.329 591.778 491.517 564.866C478.565 529.738 442.717 510.05 408.048 505.518C373.378 500.985 338.316 508.492 303.515 511.325C268.584 514.158 231.297 511.75 202.515 490.078C162.612 460.192 149.529 401.835 113.551 366.708C83.5911 337.388 38.3242 327.614 0.252942 342.487" stroke="url(#paint4_linear)" stroke-miterlimit="10"/>
</g>
<defs>
<linearGradient id="paint0_linear" x1="596.929" y1="626.602" x2="197.217" y2="99.6075" gradientUnits="userSpaceOnUse">
<stop stop-color="#FF2A00"/>
<stop offset="1" stop-color="#FF9900"/>
</linearGradient>
<linearGradient id="paint1_linear" x1="564.664" y1="627.865" x2="186.499" y2="129.44" gradientUnits="userSpaceOnUse">
<stop stop-color="#FF2A00"/>
<stop offset="1" stop-color="#FF9900"/>
</linearGradient>
<linearGradient id="paint2_linear" x1="532.427" y1="629.122" x2="175.735" y2="159.044" gradientUnits="userSpaceOnUse">
<stop stop-color="#FF2A00"/>
<stop offset="1" stop-color="#FF9900"/>
</linearGradient>
<linearGradient id="paint3_linear" x1="500.19" y1="630.387" x2="165.126" y2="188.791" gradientUnits="userSpaceOnUse">
<stop stop-color="#FF2A00"/>
<stop offset="1" stop-color="#FF9900"/>
</linearGradient>
<linearGradient id="paint4_linear" x1="467.987" y1="631.654" x2="154.594" y2="218.527" gradientUnits="userSpaceOnUse">
<stop stop-color="#FF2A00"/>
<stop offset="1" stop-color="#FF9900"/>
</linearGradient>
</defs>
</svg>
