<svg width="82" height="82" viewBox="0 0 82 82" fill="none" xmlns="http://www.w3.org/2000/svg">
<path fill-rule="evenodd" clip-rule="evenodd" d="M73.2508 15.6852H75.7844C76.6682 15.6852 77.3849 14.9685 77.3849 14.0847C77.3849 13.2009 76.6682 12.4842 75.7844 12.4842H69.7025C68.8187 12.4842 68.102 13.2009 68.102 14.0847V20.1666C68.102 21.0504 68.8187 21.7671 69.7025 21.7671C70.5863 21.7671 71.303 21.0504 71.303 20.1666V18.4056C76.1592 24.907 78.799 32.7955 78.799 41C78.799 61.8425 61.8425 78.799 41 78.799C20.1575 78.799 3.20102 61.8425 3.20102 41C3.20102 20.1575 20.1575 3.20102 41 3.20102C42.5415 3.20102 44.0928 3.29465 45.6114 3.47919C46.4877 3.58515 47.2868 2.96111 47.3934 2.08355C47.5002 1.20615 46.8753 0.408131 45.9978 0.301536C44.3515 0.101472 42.6701 0 41 0C30.0485 0 19.7524 4.26472 12.0086 12.0086C4.26472 19.7524 0 30.0485 0 41C0 51.9515 4.26472 62.2476 12.0086 69.9914C19.7524 77.7353 30.0485 82 41 82C51.9515 82 62.2476 77.7353 69.9914 69.9914C77.7353 62.2476 82 51.9515 82 41C82 31.7585 78.9126 22.8865 73.2508 15.6852ZM17.3613 24.1698C16.6143 23.697 15.6257 23.9195 15.1527 24.666C11.4989 30.4368 9.88142 37.3769 10.5983 44.2081C11.3257 51.1405 14.4459 57.678 19.3841 62.6164C25.3436 68.5759 33.1719 71.5557 41.0003 71.5557C48.8288 71.5557 56.6569 68.576 62.6165 62.6164C74.5357 50.6972 74.5357 31.3031 62.6165 19.3841C57.6858 14.4536 51.1591 11.3345 44.2382 10.6015C37.4197 9.87885 30.4871 11.4837 24.7186 15.1196C23.9707 15.5909 23.7468 16.5792 24.218 17.327C24.6894 18.0749 25.6777 18.2988 26.4254 17.8276C37.299 10.9742 51.2502 12.5448 60.3529 21.6476C71.024 32.3187 71.024 49.6817 60.3529 60.3528C49.682 71.024 32.3187 71.024 21.6477 60.3528C12.6708 51.3758 11.0767 37.0876 17.8574 26.3785C18.33 25.6316 18.1081 24.6428 17.3613 24.1698ZM63.7801 42.6264H61.8064C60.9224 42.6264 60.2059 41.9097 60.2059 41.0259C60.2059 40.1421 60.9226 39.4254 61.8064 39.4254H63.7801C64.6639 39.4254 65.3807 40.1421 65.3807 41.0259C65.3807 41.9097 64.6639 42.6264 63.7801 42.6264ZM16.6186 40.9741C16.6186 41.8579 17.3353 42.5746 18.2191 42.5746H20.1929C21.0767 42.5746 21.7934 41.8579 21.7934 40.9741C21.7934 40.0903 21.0767 39.3736 20.1929 39.3736H18.2191C17.3353 39.3736 16.6186 40.0901 16.6186 40.9741ZM42.6266 18.2195V20.1932C42.6266 21.077 41.9099 21.7937 41.0261 21.7937C40.1423 21.7937 39.4256 21.077 39.4256 20.1932V18.2195C39.4256 17.3357 40.1423 16.619 41.0261 16.619C41.9099 16.619 42.6266 17.3357 42.6266 18.2195ZM39.3736 61.8068V63.7805C39.3736 64.6643 40.0904 65.381 40.9742 65.381C41.858 65.381 42.5747 64.6643 42.5747 63.7805V61.8068C42.5747 60.923 41.858 60.2063 40.9742 60.2063C40.0904 60.2063 39.3736 60.9228 39.3736 61.8068ZM30.714 30.714C31.3393 30.0892 32.3524 30.0892 32.9776 30.714L38.4019 36.1383C39.1765 35.7228 40.0611 35.4863 41 35.4863C41.9388 35.4863 42.8234 35.7227 43.5981 36.1383L54.5429 25.1935C55.1682 24.5687 56.1813 24.5687 56.8065 25.1935C57.4315 25.8187 57.4315 26.8321 56.8065 27.4571L45.8617 38.4019C46.2772 39.1766 46.5137 40.0612 46.5137 41C46.5137 44.0404 44.0403 46.5138 41 46.5138C37.9596 46.5138 35.4862 44.0404 35.4862 41C35.4862 40.0612 35.7226 39.1766 36.1383 38.4019L30.714 32.9776C30.089 32.3525 30.089 31.339 30.714 30.714ZM41 43.3128C42.2753 43.3128 43.3127 42.2753 43.3127 41C43.3127 39.7247 42.2753 38.6873 41 38.6873C39.7247 38.6873 38.6872 39.7247 38.6872 41C38.6872 42.2753 39.7247 43.3128 41 43.3128ZM21.6467 21.6467C21.946 21.349 22.1171 20.936 22.1171 20.5151C22.1171 20.0942 21.946 19.6828 21.6467 19.3835C21.349 19.086 20.9375 18.9146 20.5152 18.9146C20.0942 18.9146 19.6813 19.0858 19.3836 19.3835C19.0861 19.6812 18.9146 20.0942 18.9146 20.5151C18.9146 20.9376 19.0859 21.349 19.3836 21.6467C19.6813 21.9442 20.0942 22.1156 20.5152 22.1156C20.9375 22.1156 21.349 21.9442 21.6467 21.6467ZM53.2201 4.31302C52.9225 4.61216 52.5096 4.78197 52.0869 4.78197C51.666 4.78197 51.253 4.61216 50.9555 4.31302C50.6576 4.01533 50.4864 3.60399 50.4864 3.18146C50.4864 2.76052 50.6578 2.34759 50.9555 2.0499C51.253 1.7522 51.666 1.58095 52.0869 1.58095C52.5096 1.58095 52.9225 1.75236 53.2201 2.0499C53.5179 2.34759 53.6892 2.76052 53.6892 3.18146C53.6892 3.60383 53.5178 4.01533 53.2201 4.31302Z" fill="url(#paint0_linear)"/>
<defs>
<linearGradient id="paint0_linear" x1="4.78333" y1="77.2167" x2="88.2916" y2="7.54065" gradientUnits="userSpaceOnUse">
<stop stop-color="#FF2A00"/>
<stop offset="1" stop-color="#FF9900"/>
</linearGradient>
</defs>
</svg>
