<svg width="1267" height="417" viewBox="0 0 1267 417" fill="none" xmlns="http://www.w3.org/2000/svg">
<g opacity="0.3">
<path d="M108.709 4.33102C107.554 4.33102 106.543 3.32045 106.543 2.16551C106.543 1.01057 107.554 -1.45141e-07 108.709 -9.46574e-08C109.863 -4.41735e-08 110.874 1.01057 110.874 2.16551C110.874 3.32045 109.863 4.33102 108.709 4.33102Z" fill="url(#paint0_linear)"/>
<path d="M68.7188 19.0564C67.5638 19.0564 66.5533 18.0459 66.5533 16.8909C66.5533 15.736 67.5638 14.7254 68.7188 14.7254C69.8737 14.7254 70.8843 15.736 70.8843 16.8909C70.8843 18.0459 70.0181 19.0564 68.7188 19.0564Z" fill="url(#paint1_linear)"/>
<path d="M95.4273 33.7818C94.2723 33.7818 93.2618 32.7713 93.2618 31.6163C93.2618 30.4614 94.2723 29.4508 95.4273 29.4508C96.5822 29.4508 97.5928 30.4614 97.5928 31.6163C97.5928 32.7713 96.5822 33.7818 95.4273 33.7818Z" fill="url(#paint2_linear)"/>
<path d="M93.2618 2.16551C93.2618 3.36149 94.2313 4.33102 95.4273 4.33102C96.6232 4.33102 97.5928 3.36149 97.5928 2.16551C97.5928 0.969532 96.6232 -4.23796e-08 95.4273 -9.46574e-08C94.2313 -1.46935e-07 93.2618 0.969532 93.2618 2.16551Z" fill="url(#paint3_linear)"/>
<path d="M53.2715 16.8909C53.2715 18.0869 54.2411 19.0564 55.437 19.0564C56.633 19.0564 57.6025 18.0869 57.6025 16.8909C57.6025 15.6949 56.633 14.7254 55.437 14.7254C54.2411 14.7254 53.2715 15.6949 53.2715 16.8909Z" fill="url(#paint4_linear)"/>
<path d="M82.145 33.7818C80.9901 33.7818 79.9795 32.7713 79.9795 31.6163C79.9795 30.4614 80.9901 29.4508 82.145 29.4508C83.3 29.4508 84.3105 30.4614 84.3105 31.6163C84.3105 32.7713 83.3 33.7818 82.145 33.7818Z" fill="url(#paint5_linear)"/>
<path d="M79.8355 2.16551C79.8355 3.36149 80.805 4.33102 82.001 4.33102C83.197 4.33102 84.1665 3.36149 84.1665 2.16551C84.1665 0.969532 83.197 -4.23796e-08 82.001 -9.46574e-08C80.805 -1.46935e-07 79.8355 0.969532 79.8355 2.16551Z" fill="url(#paint6_linear)"/>
<path d="M39.9903 16.8909C39.9903 18.0869 40.9598 19.0564 42.1558 19.0564C43.3518 19.0564 44.3213 18.0869 44.3213 16.8909C44.3213 15.6949 43.3518 14.7254 42.1558 14.7254C40.9598 14.7254 39.9903 15.6949 39.9903 16.8909Z" fill="url(#paint7_linear)"/>
<path d="M68.7188 33.7818C67.5638 33.7818 66.5533 32.7713 66.5533 31.6163C66.5533 30.4614 67.5638 29.4508 68.7188 29.4508C69.8737 29.4508 70.8843 30.4614 70.8843 31.6163C70.8843 32.7713 70.0181 33.7818 68.7188 33.7818Z" fill="url(#paint8_linear)"/>
<path d="M68.7188 4.33102C67.5638 4.33102 66.5533 3.32045 66.5533 2.16551C66.5533 1.01057 67.5638 -1.45141e-07 68.7188 -9.46574e-08C69.8737 -4.41735e-08 70.8843 1.01057 70.8843 2.16551C70.8843 3.32045 69.8737 4.33102 68.7188 4.33102Z" fill="url(#paint9_linear)"/>
<path d="M28.8736 19.0564C27.7186 19.0564 26.708 18.0459 26.708 16.8909C26.708 15.736 27.7186 14.7254 28.8736 14.7254C30.0285 14.7254 31.0391 15.736 31.0391 16.8909C31.0391 18.0459 30.0285 19.0564 28.8736 19.0564Z" fill="url(#paint10_linear)"/>
<path d="M53.2715 31.6163C53.2715 32.8123 54.2411 33.7818 55.437 33.7818C56.633 33.7818 57.6025 32.8123 57.6025 31.6163C57.6025 30.4203 56.633 29.4508 55.437 29.4508C54.2411 29.4508 53.2715 30.4203 53.2715 31.6163Z" fill="url(#paint11_linear)"/>
<path d="M55.437 4.33102C54.2821 4.33102 53.2715 3.32045 53.2715 2.16551C53.2715 1.01057 54.2821 -1.45141e-07 55.437 -9.46574e-08C56.592 -4.41735e-08 57.6025 1.01057 57.6025 2.16551C57.6025 3.32045 56.592 4.33102 55.437 4.33102Z" fill="url(#paint12_linear)"/>
<path d="M15.4473 19.0564C14.2923 19.0564 13.2818 18.0459 13.2818 16.8909C13.2818 15.736 14.2923 14.7254 15.4473 14.7254C16.6022 14.7254 17.6128 15.736 17.6128 16.8909C17.6128 18.0459 16.7466 19.0564 15.4473 19.0564Z" fill="url(#paint13_linear)"/>
<path d="M42.1558 33.7818C41.0008 33.7818 39.9903 32.7713 39.9903 31.6163C39.9903 30.4614 41.0008 29.4508 42.1558 29.4508C43.3107 29.4508 44.3213 30.4614 44.3213 31.6163C44.3213 32.7713 43.3107 33.7818 42.1558 33.7818Z" fill="url(#paint14_linear)"/>
<path d="M42.1558 4.33102C41.0008 4.33102 39.9903 3.32045 39.9903 2.16551C39.9903 1.01057 41.0008 -1.45141e-07 42.1558 -9.46574e-08C43.3107 -4.41735e-08 44.3213 1.01057 44.3213 2.16551C44.3213 3.32045 43.3107 4.33102 42.1558 4.33102Z" fill="url(#paint15_linear)"/>
<path d="M2.16554 19.0564C1.01061 19.0564 3.4664e-05 18.0459 3.47145e-05 16.8909C3.47649e-05 15.736 1.01061 14.7254 2.16554 14.7254C3.32048 14.7254 4.33105 15.736 4.33105 16.8909C4.33105 18.0459 3.32048 19.0564 2.16554 19.0564Z" fill="url(#paint16_linear)"/>
<path d="M28.8736 33.7818C27.7186 33.7818 26.708 32.7713 26.708 31.6163C26.708 30.4614 27.7186 29.4508 28.8736 29.4508C30.0285 29.4508 31.0391 30.4614 31.0391 31.6163C31.0391 32.7713 30.0285 33.7818 28.8736 33.7818Z" fill="url(#paint17_linear)"/>
</g>
<circle opacity="0.4" cx="619.5" cy="359.5" r="5.5" stroke="url(#paint18_linear)" stroke-width="2"/>
<g opacity="0.3">
<path fill-rule="evenodd" clip-rule="evenodd" d="M1266.43 92.3298C1266.87 92.7696 1266.87 93.4825 1266.43 93.9223L1252.92 107.435C1252.48 107.874 1251.77 107.874 1251.33 107.435C1250.89 106.995 1250.89 106.282 1251.33 105.842L1264.84 92.3298C1265.28 91.8901 1265.99 91.8901 1266.43 92.3298Z" fill="url(#paint19_linear)"/>
<path fill-rule="evenodd" clip-rule="evenodd" d="M1251.33 92.3298C1251.77 91.8901 1252.48 91.8901 1252.92 92.3298L1266.43 105.842C1266.87 106.282 1266.87 106.995 1266.43 107.435C1265.99 107.874 1265.28 107.874 1264.84 107.435L1251.33 93.9223C1250.89 93.4825 1250.89 92.7696 1251.33 92.3298Z" fill="url(#paint20_linear)"/>
</g>
<g opacity="0.3">
<path fill-rule="evenodd" clip-rule="evenodd" d="M22.3478 401.264C22.6996 401.616 22.6996 402.186 22.3478 402.538L11.5378 413.348C11.186 413.7 10.6156 413.7 10.2638 413.348C9.91205 412.996 9.91205 412.426 10.2638 412.074L21.0738 401.264C21.4256 400.912 21.996 400.912 22.3478 401.264Z" fill="url(#paint21_linear)"/>
<path fill-rule="evenodd" clip-rule="evenodd" d="M10.2638 401.264C10.6156 400.912 11.186 400.912 11.5378 401.264L22.3478 412.074C22.6996 412.426 22.6996 412.996 22.3478 413.348C21.996 413.7 21.4256 413.7 21.0738 413.348L10.2638 402.538C9.91205 402.186 9.91205 401.616 10.2638 401.264Z" fill="url(#paint22_linear)"/>
</g>
<g opacity="0.3">
<path fill-rule="evenodd" clip-rule="evenodd" d="M1105.85 407.306C1105.85 407.803 1105.45 408.207 1104.95 408.207H1089.66C1089.16 408.207 1088.76 407.803 1088.76 407.306C1088.76 406.808 1089.16 406.405 1089.66 406.405H1104.95C1105.45 406.405 1105.85 406.808 1105.85 407.306Z" fill="url(#paint23_linear)"/>
<path fill-rule="evenodd" clip-rule="evenodd" d="M1097.31 398.761C1097.8 398.761 1098.21 399.165 1098.21 399.662L1098.21 414.95C1098.21 415.447 1097.8 415.85 1097.31 415.85C1096.81 415.85 1096.4 415.447 1096.4 414.95L1096.4 399.662C1096.4 399.165 1096.81 398.761 1097.31 398.761Z" fill="url(#paint24_linear)"/>
</g>
<g opacity="0.4">
<path fill-rule="evenodd" clip-rule="evenodd" d="M344.348 126.264C344.7 126.616 344.7 127.186 344.348 127.538L333.538 138.348C333.186 138.7 332.616 138.7 332.264 138.348C331.912 137.996 331.912 137.426 332.264 137.074L343.074 126.264C343.426 125.912 343.996 125.912 344.348 126.264Z" fill="url(#paint25_linear)"/>
<path fill-rule="evenodd" clip-rule="evenodd" d="M332.264 126.264C332.616 125.912 333.186 125.912 333.538 126.264L344.348 137.074C344.7 137.426 344.7 137.996 344.348 138.348C343.996 138.7 343.426 138.7 343.074 138.348L332.264 127.538C331.912 127.186 331.912 126.616 332.264 126.264Z" fill="url(#paint26_linear)"/>
</g>
<defs>
<linearGradient id="paint0_linear" x1="106.543" y1="-0.213001" x2="110.455" y2="4.66685" gradientUnits="userSpaceOnUse">
<stop stop-color="#FF4C02"/>
<stop offset="1" stop-color="#FF741C"/>
</linearGradient>
<linearGradient id="paint1_linear" x1="66.5533" y1="14.5124" x2="70.4654" y2="19.3923" gradientUnits="userSpaceOnUse">
<stop stop-color="#FF4C02"/>
<stop offset="1" stop-color="#FF741C"/>
</linearGradient>
<linearGradient id="paint2_linear" x1="93.2618" y1="29.2378" x2="97.1739" y2="34.1177" gradientUnits="userSpaceOnUse">
<stop stop-color="#FF4C02"/>
<stop offset="1" stop-color="#FF741C"/>
</linearGradient>
<linearGradient id="paint3_linear" x1="93.2618" y1="-0.213001" x2="97.1739" y2="4.66685" gradientUnits="userSpaceOnUse">
<stop stop-color="#FF4C02"/>
<stop offset="1" stop-color="#FF741C"/>
</linearGradient>
<linearGradient id="paint4_linear" x1="53.2715" y1="14.5124" x2="57.1836" y2="19.3923" gradientUnits="userSpaceOnUse">
<stop stop-color="#FF4C02"/>
<stop offset="1" stop-color="#FF741C"/>
</linearGradient>
<linearGradient id="paint5_linear" x1="79.9795" y1="29.2378" x2="83.8916" y2="34.1177" gradientUnits="userSpaceOnUse">
<stop stop-color="#FF4C02"/>
<stop offset="1" stop-color="#FF741C"/>
</linearGradient>
<linearGradient id="paint6_linear" x1="79.8355" y1="-0.213001" x2="83.7476" y2="4.66685" gradientUnits="userSpaceOnUse">
<stop stop-color="#FF4C02"/>
<stop offset="1" stop-color="#FF741C"/>
</linearGradient>
<linearGradient id="paint7_linear" x1="39.9903" y1="14.5124" x2="43.9024" y2="19.3923" gradientUnits="userSpaceOnUse">
<stop stop-color="#FF4C02"/>
<stop offset="1" stop-color="#FF741C"/>
</linearGradient>
<linearGradient id="paint8_linear" x1="66.5533" y1="29.2378" x2="70.4654" y2="34.1177" gradientUnits="userSpaceOnUse">
<stop stop-color="#FF4C02"/>
<stop offset="1" stop-color="#FF741C"/>
</linearGradient>
<linearGradient id="paint9_linear" x1="66.5533" y1="-0.213001" x2="70.4654" y2="4.66685" gradientUnits="userSpaceOnUse">
<stop stop-color="#FF4C02"/>
<stop offset="1" stop-color="#FF741C"/>
</linearGradient>
<linearGradient id="paint10_linear" x1="26.708" y1="14.5124" x2="30.6202" y2="19.3923" gradientUnits="userSpaceOnUse">
<stop stop-color="#FF4C02"/>
<stop offset="1" stop-color="#FF741C"/>
</linearGradient>
<linearGradient id="paint11_linear" x1="53.2715" y1="29.2378" x2="57.1836" y2="34.1177" gradientUnits="userSpaceOnUse">
<stop stop-color="#FF4C02"/>
<stop offset="1" stop-color="#FF741C"/>
</linearGradient>
<linearGradient id="paint12_linear" x1="53.2715" y1="-0.213001" x2="57.1836" y2="4.66685" gradientUnits="userSpaceOnUse">
<stop stop-color="#FF4C02"/>
<stop offset="1" stop-color="#FF741C"/>
</linearGradient>
<linearGradient id="paint13_linear" x1="13.2818" y1="14.5124" x2="17.1939" y2="19.3923" gradientUnits="userSpaceOnUse">
<stop stop-color="#FF4C02"/>
<stop offset="1" stop-color="#FF741C"/>
</linearGradient>
<linearGradient id="paint14_linear" x1="39.9903" y1="29.2378" x2="43.9024" y2="34.1177" gradientUnits="userSpaceOnUse">
<stop stop-color="#FF4C02"/>
<stop offset="1" stop-color="#FF741C"/>
</linearGradient>
<linearGradient id="paint15_linear" x1="39.9903" y1="-0.213001" x2="43.9024" y2="4.66685" gradientUnits="userSpaceOnUse">
<stop stop-color="#FF4C02"/>
<stop offset="1" stop-color="#FF741C"/>
</linearGradient>
<linearGradient id="paint16_linear" x1="3.48719e-05" y1="14.5124" x2="3.91215" y2="19.3923" gradientUnits="userSpaceOnUse">
<stop stop-color="#FF4C02"/>
<stop offset="1" stop-color="#FF741C"/>
</linearGradient>
<linearGradient id="paint17_linear" x1="26.708" y1="29.2378" x2="30.6202" y2="34.1177" gradientUnits="userSpaceOnUse">
<stop stop-color="#FF4C02"/>
<stop offset="1" stop-color="#FF741C"/>
</linearGradient>
<linearGradient id="paint18_linear" x1="612.361" y1="366" x2="627.008" y2="354.257" gradientUnits="userSpaceOnUse">
<stop stop-color="#FF4C02"/>
<stop offset="1" stop-color="#FF741C"/>
</linearGradient>
<linearGradient id="paint19_linear" x1="1250.22" y1="107.765" x2="1267.99" y2="93.5248" gradientUnits="userSpaceOnUse">
<stop stop-color="#FF4C02"/>
<stop offset="1" stop-color="#FF741C"/>
</linearGradient>
<linearGradient id="paint20_linear" x1="1250.22" y1="107.765" x2="1267.99" y2="93.5248" gradientUnits="userSpaceOnUse">
<stop stop-color="#FF4C02"/>
<stop offset="1" stop-color="#FF741C"/>
</linearGradient>
<linearGradient id="paint21_linear" x1="9.37976" y1="413.612" x2="23.5895" y2="402.22" gradientUnits="userSpaceOnUse">
<stop stop-color="#FF4C02"/>
<stop offset="1" stop-color="#FF741C"/>
</linearGradient>
<linearGradient id="paint22_linear" x1="9.37976" y1="413.612" x2="23.5895" y2="402.22" gradientUnits="userSpaceOnUse">
<stop stop-color="#FF4C02"/>
<stop offset="1" stop-color="#FF741C"/>
</linearGradient>
<linearGradient id="paint23_linear" x1="1087.95" y1="406.867" x2="1106.05" y2="408.86" gradientUnits="userSpaceOnUse">
<stop stop-color="#FF4C02"/>
<stop offset="1" stop-color="#FF741C"/>
</linearGradient>
<linearGradient id="paint24_linear" x1="1087.95" y1="406.867" x2="1106.05" y2="408.86" gradientUnits="userSpaceOnUse">
<stop stop-color="#FF4C02"/>
<stop offset="1" stop-color="#FF741C"/>
</linearGradient>
<linearGradient id="paint25_linear" x1="331.38" y1="138.612" x2="345.59" y2="127.22" gradientUnits="userSpaceOnUse">
<stop stop-color="#FF4C02"/>
<stop offset="1" stop-color="#FF741C"/>
</linearGradient>
<linearGradient id="paint26_linear" x1="331.38" y1="138.612" x2="345.59" y2="127.22" gradientUnits="userSpaceOnUse">
<stop stop-color="#FF4C02"/>
<stop offset="1" stop-color="#FF741C"/>
</linearGradient>
</defs>
</svg>
