<svg width="73" height="92" viewBox="0 0 73 92" fill="none" xmlns="http://www.w3.org/2000/svg">
<path fill-rule="evenodd" clip-rule="evenodd" d="M72.0558 68.3488C72.0558 69.0928 71.4526 69.696 70.7086 69.696C69.9646 69.696 69.3614 69.0928 69.3615 68.3489V36.0157C69.3615 35.032 68.9536 33.9963 68.2132 33.0992L58.2217 20.9931C58.1132 20.8616 57.9996 20.7375 57.8823 20.6195C56.66 24.1688 53.9163 27.0766 50.288 28.449C50.032 30.5336 48.2519 32.1535 46.0994 32.1535C43.7717 32.1535 41.8781 30.2598 41.8781 27.9322C41.8781 25.6045 43.7717 23.7109 46.0994 23.7109C47.6384 23.7109 48.9871 24.539 49.7248 25.7728C52.5459 24.5702 54.635 22.1704 55.4784 19.2943C55.2285 19.2458 54.9756 19.2202 54.7218 19.2202H37.2977C36.0035 19.2202 34.7278 19.8665 33.7978 20.9931L23.8063 33.099C23.1634 33.8777 22.8376 34.859 22.8376 36.0155V82.5395C22.8376 86.2538 25.7788 89.2756 29.394 89.2756H62.6254C66.2768 89.2756 69.3615 86.1908 69.3615 82.5395V74.6358C69.3615 73.8918 69.9647 73.2886 70.7088 73.2886C71.4528 73.2886 72.056 73.8918 72.056 74.6358V82.5395C72.056 87.6514 67.7373 91.97 62.6254 91.97H29.394C26.1512 91.97 23.2947 90.2587 21.6425 87.677C21.6383 87.6754 21.6341 87.6739 21.6299 87.6723L21.6213 87.6692C21.6082 87.6645 21.5951 87.6598 21.5821 87.6541L5.30341 80.4409C0.817888 78.4534 -1.21983 73.1828 0.752862 68.683L9.52595 46.8813C9.80384 46.1911 10.5881 45.8567 11.2788 46.1344C11.9691 46.4123 12.3034 47.1969 12.0257 47.8872L3.24486 69.7093C3.23911 69.7229 3.23336 69.7368 3.22743 69.7504C1.83782 72.8975 3.25905 76.5883 6.39502 77.9778L20.2771 84.129C20.1907 83.612 20.1431 83.0816 20.1431 82.5398V36.0158C20.1431 34.2422 20.6912 32.6404 21.7282 31.3841L28.654 22.9927L21.7152 26.3724C20.8406 26.8115 20.128 27.5575 19.7205 28.468L14.3012 42.214C14.0923 42.7439 13.5847 43.0674 13.0476 43.0674C12.883 43.0674 12.716 43.0372 12.5538 42.9732C11.8615 42.7002 11.5216 41.9179 11.7945 41.2256L17.2243 27.4531C17.2308 27.4366 17.2376 27.4202 17.2448 27.4039C17.9028 25.911 19.0662 24.6868 20.5212 23.957L33.6541 17.56C33.6994 17.5379 33.7455 17.5192 33.7921 17.5025C34.8686 16.8701 36.071 16.5259 37.2977 16.5259H54.7218C55.1132 16.5259 55.5022 16.5609 55.8856 16.6288C55.8867 16.5645 55.8893 1.34722 55.8893 1.34722C55.8893 0.603195 56.4925 0 57.2366 0C57.9806 0 58.5838 0.603195 58.5838 1.34722V16.4361C58.5838 16.8559 58.561 17.2717 58.5209 17.6834C59.1744 18.1091 59.7762 18.6437 60.2996 19.278L70.2911 31.3839C71.4291 32.7626 72.0558 34.4074 72.0558 36.0155V68.3488ZM44.5725 27.9322C44.5725 28.7741 45.2575 29.459 46.0994 29.459C46.9413 29.459 47.6262 28.7741 47.6262 27.9322C47.6262 27.0902 46.9413 26.4053 46.0994 26.4053C45.2575 26.4053 44.5725 27.0902 44.5725 27.9322ZM35.3759 71.2772C35.113 71.5404 34.7681 71.6719 34.4234 71.6719C33.2709 71.7126 32.6118 70.1727 33.4708 69.3721L56.4634 46.3795C56.9893 45.8534 57.8424 45.8534 58.3685 46.3795C58.8946 46.9055 58.8946 47.7585 58.3685 48.2847L35.3759 71.2772ZM37.2976 57.4811C40.5166 57.4811 43.1356 54.8621 43.1356 51.6432C43.1356 48.4242 40.5166 45.8052 37.2976 45.8052H37.118C33.899 45.8052 31.2801 48.4242 31.2801 51.6432C31.2801 54.8621 33.899 57.4811 37.118 57.4811H37.2976ZM33.9745 51.6432C33.9745 49.9099 35.3848 48.4997 37.118 48.4997H37.2976C39.0309 48.4997 40.4411 49.9099 40.4411 51.6432C40.4411 53.3764 39.0309 54.7867 37.2976 54.7867H37.118C35.3848 54.7867 33.9745 53.3764 33.9745 51.6432ZM54.9011 71.6719H54.7215C51.5026 71.6719 48.8836 69.0529 48.8836 65.8339C48.8836 62.615 51.5026 59.996 54.7215 59.996H54.9011C58.1201 59.996 60.7391 62.615 60.7391 65.8339C60.7391 69.0529 58.1201 71.6719 54.9011 71.6719ZM54.9011 62.6904H54.7215C52.9883 62.6904 51.578 64.1007 51.578 65.8339C51.578 67.5672 52.9883 68.9774 54.7215 68.9774H54.9011C56.6344 68.9774 58.0447 67.5672 58.0447 65.8339C58.0447 64.1007 56.6344 62.6904 54.9011 62.6904Z" fill="url(#paint0_linear)"/>
<defs>
<linearGradient id="paint0_linear" x1="4.20327" y1="86.6051" x2="91.406" y2="29.6008" gradientUnits="userSpaceOnUse">
<stop stop-color="#FF2A00"/>
<stop offset="1" stop-color="#FF9900"/>
</linearGradient>
</defs>
</svg>
