<svg width="85" height="90" viewBox="0 0 85 90" fill="none" xmlns="http://www.w3.org/2000/svg">
<path fill-rule="evenodd" clip-rule="evenodd" d="M83.6449 19.8583L42.7814 0.131045C42.4191 -0.0436816 41.9973 -0.0436816 41.6352 0.131045L0.771503 19.8583C0.315879 20.0782 0.0263672 20.5396 0.0263672 21.0455V68.9544C0.0263672 69.4603 0.315879 69.9218 0.771503 70.1417L41.635 89.8689C41.816 89.9562 42.0122 90 42.2082 90C42.4042 90 42.6002 89.9562 42.7814 89.8689L83.6449 70.1417C84.1005 69.9218 84.39 69.4603 84.39 68.9544V21.0457C84.39 20.5394 84.1003 20.0783 83.6449 19.8583ZM42.2082 2.78235L80.0393 21.0455L69.0728 26.3397C69.0034 26.2867 68.9301 26.2379 68.8496 26.199L31.2755 8.06018L42.2082 2.78235ZM28.2981 9.5508L66.0742 27.7874L58.3372 31.5226L20.5768 13.2934L28.2981 9.5508ZM66.958 30.2884V44.0953L59.7311 47.5842V33.7773L66.958 30.2884ZM81.7533 68.1272L43.5266 86.5811V41.6001L52.6448 37.1982C53.3005 36.8816 53.5754 36.0936 53.2589 35.4377C52.9423 34.7822 52.1542 34.507 51.4984 34.8237L42.2082 39.3088L38.5527 37.5439C37.8968 37.227 37.1088 37.5023 36.7922 38.1579C36.4756 38.8136 36.7505 39.6018 37.4062 39.9184L40.8898 41.6001V86.5811L2.66308 68.1269V23.1459L31.7724 37.1987C31.9572 37.288 32.1525 37.3302 32.3446 37.3302C32.8347 37.3302 33.3054 37.0556 33.5327 36.5847C33.8493 35.929 33.5744 35.1408 32.9187 34.8243L4.37712 21.0455L17.4737 14.723L57.0761 33.8415C57.0819 33.8496 57.0884 33.8568 57.0944 33.8647V49.6848C57.0944 50.1385 57.3277 50.5602 57.7119 50.8015C57.9253 50.9355 58.1688 51.0031 58.4129 51.0031C58.6084 51.0031 58.8044 50.9597 58.986 50.872L68.8496 46.1103C69.3052 45.8904 69.5947 45.4291 69.5947 44.9231V29.0157L81.7533 23.1461V68.1272ZM13.5429 63.0139L7.54609 60.1189C6.89008 59.802 6.10223 60.0773 5.78565 60.7329C5.46906 61.3886 5.74399 62.1768 6.39965 62.4934L12.3964 65.3883C12.5812 65.4776 12.7765 65.5198 12.9686 65.5198C13.4587 65.5198 13.9294 65.2452 14.1567 64.7743C14.4734 64.1185 14.1985 63.3306 13.5429 63.0139ZM7.55436 53.866L19.0619 59.4214C19.7175 59.7378 19.9925 60.526 19.6759 61.1821C19.4486 61.653 18.9778 61.9275 18.4878 61.9275C18.2956 61.9275 18.1003 61.8852 17.9156 61.7961L6.40809 56.2407C5.75243 55.9241 5.4775 55.1359 5.79391 54.4802C6.11049 53.8244 6.89852 53.5495 7.55436 53.866Z" fill="url(#paint0_linear)"/>
<defs>
<linearGradient id="paint0_linear" x1="4.94758" y1="84.75" x2="95.3656" y2="14.0333" gradientUnits="userSpaceOnUse">
<stop stop-color="#FF2A00"/>
<stop offset="1" stop-color="#FF9900"/>
</linearGradient>
</defs>
</svg>
