<svg width="74" height="87" viewBox="0 0 74 87" fill="none" xmlns="http://www.w3.org/2000/svg">
<path fill-rule="evenodd" clip-rule="evenodd" d="M49.0258 9.89014C47.8136 4.19663 42.701 0 36.8035 0C32.8293 0 29.055 1.91774 26.7083 5.13179C26.6388 5.22683 26.5824 5.32741 26.5387 5.43141L10.0218 7.38369C9.21608 7.4793 8.63985 8.20971 8.73503 9.01634L9.92784 19.1094H8.87282C8.35602 19.1094 7.87755 19.3798 7.61226 19.823L3.20227 27.1731C3.06972 27.3942 3.0001 27.6415 2.99348 27.8902L0.055159 85.1847C0.0344871 85.587 0.180052 85.9806 0.457399 86.2726C0.735177 86.5642 1.12019 86.73 1.52329 86.73H72.0832C72.4859 86.73 72.8713 86.5646 73.1504 86.2726C73.4273 85.9806 73.5729 85.5874 73.5526 85.1847L70.6125 27.8548C70.5987 27.5887 70.5147 27.342 70.379 27.1324L65.9934 19.823C65.7281 19.3798 65.2497 19.1094 64.7329 19.1094H62.2333L63.258 14.7287C63.3476 14.3493 63.2821 13.9496 63.0762 13.6189C62.8704 13.2868 62.5418 13.0512 62.1619 12.9625L49.0258 9.89014ZM3.07023 83.7898L5.85964 29.4001L67.7464 29.4L70.5358 83.7898H3.07023ZM34.6084 4.47758L31.0069 4.90328C32.656 3.64782 34.6927 2.94014 36.8031 2.94014C40.8227 2.94014 44.3648 5.48788 45.7441 9.12259L42.1227 8.27561C41.7433 8.18647 41.3437 8.25279 41.0121 8.45778C40.6813 8.66364 40.4453 8.99224 40.3566 9.37208L38.9236 15.4978L37.4341 15.856L36.2411 5.76526C36.1954 5.37809 35.9977 5.02452 35.6911 4.78335C35.3845 4.54218 34.9973 4.43193 34.6084 4.47758ZM34.5554 16.5483L33.4943 7.56931L11.8272 10.13L13.7571 26.4591H20.9124L19.7491 21.6211C19.5596 20.8317 20.0454 20.0375 20.8348 19.848L34.5554 16.5483ZM23.9359 26.4591H45.9624L43.7732 17.3558L22.9507 22.3627L23.9359 26.4591ZM48.9871 26.4591H57.4953L60.0607 15.4905L42.8846 11.4729L42.1228 14.7284L44.5157 14.1529C44.8968 14.0625 45.2952 14.1258 45.6273 14.3278C45.9593 14.5315 46.1975 14.8592 46.2888 15.2378L48.9871 26.4591ZM10.2753 22.0491L10.7964 26.4591H7.05886L9.70486 22.0491H10.2753ZM61.5457 22.0491L60.5141 26.4591H66.5468L63.9008 22.0491H61.5457ZM43.4182 36.7498C43.4182 34.3178 45.3963 32.3398 47.8282 32.3398C50.2602 32.3398 52.2382 34.3178 52.2382 36.7498C52.2382 38.6665 51.0096 40.3013 49.2984 40.9079V46.3049C49.2984 53.1947 43.6933 58.7998 36.8035 58.7998C29.9138 58.7998 24.3087 53.1947 24.3087 46.3049V40.9082C22.597 40.3018 21.368 38.6668 21.368 36.7498C21.368 34.3178 23.346 32.3398 25.7779 32.3398C28.2099 32.3398 30.1879 34.3178 30.1879 36.7498C30.1879 38.6664 28.9594 40.3011 27.2484 40.9078V46.3045C27.2484 51.5732 31.5348 55.8596 36.8035 55.8596C42.0723 55.8596 46.3587 51.5728 46.3587 46.3045V40.9081C44.6472 40.3016 43.4182 38.6667 43.4182 36.7498ZM49.1012 37.4845C48.8469 37.0454 48.372 36.7498 47.8285 36.7498H47.7152C47.2127 36.7498 46.7688 37.0024 46.5037 37.3875C46.4106 37.1946 46.3584 36.9784 46.3584 36.7502C46.3584 35.9397 47.0177 35.2804 47.8282 35.2804C48.6387 35.2804 49.2981 35.9397 49.2981 36.7502C49.2981 37.0175 49.2264 37.2683 49.1012 37.4845ZM27.0511 37.4843C27.1761 37.2682 27.2478 37.0174 27.2478 36.7502C27.2478 35.9397 26.5885 35.2804 25.7779 35.2804C24.9674 35.2804 24.3081 35.9397 24.3081 36.7502C24.3081 37.0178 24.38 37.269 24.5054 37.4853C24.7597 37.046 25.2348 36.7502 25.7785 36.7502C26.3219 36.7502 26.7967 37.0455 27.0511 37.4843Z" fill="url(#paint0_linear)"/>
<defs>
<linearGradient id="paint0_linear" x1="25.7663" y1="57.5135" x2="54.2385" y2="35.3249" gradientUnits="userSpaceOnUse">
<stop stop-color="#FF2A00"/>
<stop offset="1" stop-color="#FF8A00"/>
</linearGradient>
</defs>
</svg>
