<svg width="139" height="51" viewBox="0 0 139 51" fill="none" xmlns="http://www.w3.org/2000/svg">
<g filter="url(#filter0_d)">
<rect x="7" y="7" width="124.168" height="36.5605" rx="6.8982" fill="url(#paint0_linear)"/>
</g>
<path d="M42.934 15.9675C42.9744 15.9675 43.0148 15.9675 43.0575 15.9675C43.1566 17.1911 42.6894 18.1053 42.1217 18.7673C41.5646 19.4248 40.8018 20.0624 39.568 19.9657C39.4857 18.7597 39.9536 17.9133 40.5206 17.2528C41.0464 16.6372 42.0104 16.0894 42.934 15.9675Z" fill="white"/>
<path d="M46.6708 28.7025C46.6708 28.7147 46.6708 28.7253 46.6708 28.7368C46.3241 29.7866 45.8295 30.6863 45.2259 31.5212C44.675 32.2793 43.9998 33.2994 42.7942 33.2994C41.7525 33.2994 41.0605 32.6297 39.9929 32.6114C38.8635 32.5931 38.2425 33.1714 37.2099 33.3169C37.0918 33.3169 36.9736 33.3169 36.8578 33.3169C36.0996 33.2072 35.4876 32.6069 35.0418 32.066C33.7273 30.4676 32.7115 28.4031 32.5225 25.7611C32.5225 25.5021 32.5225 25.2438 32.5225 24.9848C32.6025 23.0939 33.5215 21.5566 34.7431 20.8115C35.3878 20.4153 36.2741 20.0779 37.2609 20.2287C37.6839 20.2942 38.116 20.439 38.4947 20.5822C38.8536 20.7201 39.3025 20.9646 39.7277 20.9517C40.0158 20.9433 40.3023 20.7932 40.5926 20.6873C41.4431 20.3803 42.2768 20.0283 43.3757 20.1937C44.6963 20.3932 45.6336 20.9799 46.2128 21.8849C45.0956 22.5957 44.2124 23.6668 44.3633 25.496C44.4974 27.1575 45.4637 28.1296 46.6708 28.7025Z" fill="white"/>
<path d="M56.562 22.3854C55.6846 22.3854 54.9589 22.0957 54.3849 21.5163C53.8165 20.9368 53.5323 20.2249 53.5323 19.3806C53.5323 18.5362 53.8165 17.8244 54.3849 17.2449C54.9589 16.6655 55.6846 16.3757 56.562 16.3757C57.0918 16.3757 57.5774 16.5027 58.0189 16.7565C58.4659 17.0104 58.8136 17.3525 59.0619 17.783L58.3914 18.172C58.2259 17.8519 57.9775 17.5981 57.6464 17.4105C57.3208 17.2173 56.9594 17.1207 56.562 17.1207C55.8943 17.1207 55.3479 17.336 54.923 17.7664C54.5036 18.1969 54.2939 18.7349 54.2939 19.3806C54.2939 20.0207 54.5036 20.556 54.923 20.9865C55.3479 21.4169 55.8943 21.6322 56.562 21.6322C56.9594 21.6322 57.3208 21.5383 57.6464 21.3507C57.9775 21.1576 58.2259 20.9037 58.3914 20.5892L59.0619 20.9699C58.8191 21.4004 58.4742 21.7453 58.0272 22.0047C57.5802 22.2585 57.0918 22.3854 56.562 22.3854ZM63.3851 22.2778H62.4911L60.6037 20.316V22.2778H59.8836V18.1389H60.6037V19.9683L62.3918 18.1389H63.3189L61.3405 20.1421L63.3851 22.2778ZM67.1019 18.1389H67.8221V22.2778H67.1019V21.5659C66.7432 22.1123 66.2217 22.3854 65.5374 22.3854C64.958 22.3854 64.464 22.1757 64.0557 21.7563C63.6473 21.3314 63.4431 20.8154 63.4431 20.2084C63.4431 19.6013 63.6473 19.0881 64.0557 18.6687C64.464 18.2438 64.958 18.0313 65.5374 18.0313C66.2217 18.0313 66.7432 18.3045 67.1019 18.8508V18.1389ZM65.6285 21.6901C66.0479 21.6901 66.3983 21.5494 66.6797 21.2679C66.9612 20.981 67.1019 20.6278 67.1019 20.2084C67.1019 19.789 66.9612 19.4385 66.6797 19.1571C66.3983 18.8701 66.0479 18.7266 65.6285 18.7266C65.2146 18.7266 64.8669 18.8701 64.5855 19.1571C64.304 19.4385 64.1633 19.789 64.1633 20.2084C64.1633 20.6278 64.304 20.981 64.5855 21.2679C64.8669 21.5494 65.2146 21.6901 65.6285 21.6901ZM71.5207 18.1389H72.2409V22.2778H71.5207V20.7878C71.1896 20.9313 70.8171 21.003 70.4032 21.003C69.8734 21.003 69.4623 20.8789 69.1698 20.6305C68.8829 20.3767 68.7394 20.0042 68.7394 19.513V18.1389H69.4596V19.4716C69.4596 19.7807 69.5423 20.0014 69.7079 20.1339C69.879 20.2663 70.1273 20.3325 70.4529 20.3325C70.8447 20.3325 71.2007 20.2608 71.5207 20.1173V18.1389ZM76.7621 18.1389H77.4823V22.2778H76.7621V21.5659C76.4034 22.1123 75.8819 22.3854 75.1976 22.3854C74.6181 22.3854 74.1242 22.1757 73.7158 21.7563C73.3075 21.3314 73.1033 20.8154 73.1033 20.2084C73.1033 19.6013 73.3075 19.0881 73.7158 18.6687C74.1242 18.2438 74.6181 18.0313 75.1976 18.0313C75.8819 18.0313 76.4034 18.3045 76.7621 18.8508V18.1389ZM75.2886 21.6901C75.7081 21.6901 76.0585 21.5494 76.3399 21.2679C76.6214 20.981 76.7621 20.6278 76.7621 20.2084C76.7621 19.789 76.6214 19.4385 76.3399 19.1571C76.0585 18.8701 75.7081 18.7266 75.2886 18.7266C74.8747 18.7266 74.5271 18.8701 74.2456 19.1571C73.9642 19.4385 73.8235 19.789 73.8235 20.2084C73.8235 20.6278 73.9642 20.981 74.2456 21.2679C74.5271 21.5494 74.8747 21.6901 75.2886 21.6901ZM81.6527 18.1389V18.8342H80.2455V22.2778H79.5253V18.8342H78.1098V18.1389H81.6527ZM85.2887 18.1389H85.8682V22.2778H85.1563V19.3723L82.8633 22.2778H82.2839V18.1389H82.9958V21.0444L85.2887 18.1389ZM91.7904 20.1504C92.2153 20.327 92.4278 20.6471 92.4278 21.1107C92.4278 21.4528 92.3119 21.7343 92.0801 21.955C91.8539 22.1702 91.5283 22.2778 91.1033 22.2778H89.0339V18.1389H90.9378C91.3517 18.1389 91.6717 18.2438 91.898 18.4535C92.1243 18.6577 92.2374 18.9281 92.2374 19.2647C92.2374 19.662 92.0884 19.9573 91.7904 20.1504ZM90.9047 18.7846H89.7375V19.869H90.9047C91.3241 19.869 91.5338 19.6841 91.5338 19.3144C91.5338 18.9612 91.3241 18.7846 90.9047 18.7846ZM91.0619 21.6239C91.2716 21.6239 91.4317 21.5742 91.5421 21.4749C91.6579 21.3755 91.7159 21.2348 91.7159 21.0527C91.7159 20.8816 91.6579 20.7492 91.5421 20.6554C91.4317 20.556 91.2716 20.5064 91.0619 20.5064H89.7375V21.6239H91.0619ZM59.0233 33.2778L58.4825 31.7216H55.1934L54.6526 33.2778H53.273L56.0764 25.5518H57.5995L60.3919 33.2778H59.0233ZM55.6128 30.5296H58.0631L56.838 27.0419L55.6128 30.5296ZM64.269 27.6158C65.0268 27.6158 65.6743 27.8991 66.2115 28.4656C66.7486 29.0249 67.0172 29.7092 67.0172 30.5186C67.0172 31.3353 66.7486 32.0233 66.2115 32.5825C65.6743 33.1417 65.0268 33.4213 64.269 33.4213C63.4301 33.4213 62.7863 33.1123 62.3375 32.4942V35.4853H61.1454V27.7593H62.3375V28.5539C62.7863 27.9285 63.4301 27.6158 64.269 27.6158ZM62.8341 31.7878C63.1652 32.1189 63.581 32.2845 64.0813 32.2845C64.5817 32.2845 64.9974 32.1189 65.3285 31.7878C65.6596 31.4493 65.8252 31.0263 65.8252 30.5186C65.8252 30.0108 65.6596 29.5914 65.3285 29.2603C64.9974 28.9218 64.5817 28.7526 64.0813 28.7526C63.581 28.7526 63.1652 28.9218 62.8341 29.2603C62.503 29.5914 62.3375 30.0108 62.3375 30.5186C62.3375 31.0263 62.503 31.4493 62.8341 31.7878ZM71.2211 27.6158C71.9789 27.6158 72.6264 27.8991 73.1636 28.4656C73.7007 29.0249 73.9693 29.7092 73.9693 30.5186C73.9693 31.3353 73.7007 32.0233 73.1636 32.5825C72.6264 33.1417 71.9789 33.4213 71.2211 33.4213C70.3822 33.4213 69.7384 33.1123 69.2896 32.4942V35.4853H68.0975V27.7593H69.2896V28.5539C69.7384 27.9285 70.3822 27.6158 71.2211 27.6158ZM69.7862 31.7878C70.1173 32.1189 70.5331 32.2845 71.0334 32.2845C71.5338 32.2845 71.9495 32.1189 72.2806 31.7878C72.6117 31.4493 72.7773 31.0263 72.7773 30.5186C72.7773 30.0108 72.6117 29.5914 72.2806 29.2603C71.9495 28.9218 71.5338 28.7526 71.0334 28.7526C70.5331 28.7526 70.1173 28.9218 69.7862 29.2603C69.4551 29.5914 69.2896 30.0108 69.2896 30.5186C69.2896 31.0263 69.4551 31.4493 69.7862 31.7878ZM80.4578 33.4213C79.7147 33.4213 79.0819 33.2521 78.5594 32.9136C78.0444 32.5751 77.6838 32.1116 77.4778 31.5229L78.5705 30.8828C78.8795 31.751 79.5197 32.1852 80.4909 32.1852C80.9692 32.1852 81.3261 32.0932 81.5615 31.9092C81.8044 31.7179 81.9258 31.4714 81.9258 31.1697C81.9258 30.8533 81.797 30.6142 81.5395 30.4523C81.2819 30.2831 80.8257 30.0991 80.1709 29.9005C79.803 29.7901 79.505 29.6871 79.2769 29.5914C79.0488 29.4958 78.8059 29.3633 78.5484 29.1941C78.2982 29.0175 78.1106 28.8004 77.9855 28.5429C77.8604 28.2854 77.7979 27.9837 77.7979 27.6379C77.7979 26.9536 78.0407 26.4127 78.5263 26.0154C79.012 25.6107 79.5969 25.4084 80.2812 25.4084C80.8993 25.4084 81.4401 25.5592 81.9037 25.8609C82.3673 26.1626 82.7241 26.5783 82.9743 27.1081L81.9037 27.7262C81.5799 27.0051 81.0391 26.6445 80.2812 26.6445C79.9133 26.6445 79.619 26.7328 79.3983 26.9094C79.1775 27.0786 79.0672 27.3104 79.0672 27.6047C79.0672 27.8917 79.1775 28.1198 79.3983 28.2891C79.6264 28.4509 80.0347 28.6238 80.6234 28.8078C80.9177 28.9035 81.1311 28.977 81.2635 29.0285C81.4033 29.0727 81.5947 29.1463 81.8375 29.2493C82.0876 29.3523 82.2753 29.4553 82.4004 29.5583C82.5255 29.6613 82.6579 29.7901 82.7977 29.9446C82.9449 30.0991 83.0479 30.2757 83.1067 30.4744C83.1656 30.6731 83.195 30.8975 83.195 31.1477C83.195 31.8467 82.9412 32.4022 82.4335 32.8143C81.9331 33.219 81.2746 33.4213 80.4578 33.4213ZM87.129 28.9071H85.7604V31.556C85.7604 31.7841 85.8119 31.9497 85.9149 32.0527C86.0179 32.1484 86.1688 32.2036 86.3674 32.2183C86.5735 32.2256 86.8273 32.2219 87.129 32.2072V33.2778C86.2166 33.3882 85.5617 33.3109 85.1644 33.0461C84.7671 32.7738 84.5684 32.2771 84.5684 31.556V28.9071H83.553V27.7593H84.5684V26.5673L85.7604 26.2141V27.7593H87.129V28.9071ZM90.5885 33.4213C89.7791 33.4213 89.0912 33.1417 88.5246 32.5825C87.958 32.0233 87.6747 31.3353 87.6747 30.5186C87.6747 29.7018 87.958 29.0138 88.5246 28.4546C89.0912 27.8954 89.7791 27.6158 90.5885 27.6158C91.4053 27.6158 92.0933 27.8954 92.6525 28.4546C93.219 29.0138 93.5023 29.7018 93.5023 30.5186C93.5023 31.3353 93.219 32.0233 92.6525 32.5825C92.0933 33.1417 91.4053 33.4213 90.5885 33.4213ZM89.3634 31.7657C89.6945 32.0969 90.1029 32.2624 90.5885 32.2624C91.0742 32.2624 91.4825 32.0969 91.8137 31.7657C92.1448 31.4346 92.3103 31.0189 92.3103 30.5186C92.3103 30.0182 92.1448 29.6025 91.8137 29.2714C91.4825 28.9402 91.0742 28.7747 90.5885 28.7747C90.1029 28.7747 89.6945 28.9402 89.3634 29.2714C89.0323 29.6025 88.8667 30.0182 88.8667 30.5186C88.8667 31.0189 89.0323 31.4346 89.3634 31.7657ZM95.7722 28.6864C96.0739 28.0021 96.6404 27.6599 97.4719 27.6599V28.9513C97.0157 28.9218 96.6184 29.0322 96.2799 29.2824C95.9414 29.5252 95.7722 29.9299 95.7722 30.4965V33.2778H94.5802V27.7593H95.7722V28.6864ZM99.0321 31.0263C99.1204 31.4457 99.3227 31.7694 99.6391 31.9975C99.9555 32.2183 100.342 32.3286 100.798 32.3286C101.431 32.3286 101.905 32.1005 102.222 31.6443L103.204 32.2183C102.66 33.0203 101.854 33.4213 100.787 33.4213C99.8893 33.4213 99.1645 33.1491 98.6127 32.6046C98.0608 32.0527 97.7849 31.3574 97.7849 30.5186C97.7849 29.6944 98.0572 29.0065 98.6017 28.4546C99.1462 27.8954 99.8452 27.6158 100.699 27.6158C101.508 27.6158 102.17 27.8991 102.685 28.4656C103.208 29.0322 103.469 29.7202 103.469 30.5296C103.469 30.6547 103.454 30.8202 103.425 31.0263H99.0321ZM99.0211 30.055H102.266C102.185 29.6061 101.997 29.2677 101.703 29.0396C101.416 28.8115 101.078 28.6974 100.688 28.6974C100.246 28.6974 99.8783 28.8188 99.584 29.0616C99.2896 29.3045 99.102 29.6356 99.0211 30.055Z" fill="white"/>
<defs>
<filter id="filter0_d" x="0.101796" y="0.101796" width="137.964" height="50.3569" filterUnits="userSpaceOnUse" color-interpolation-filters="sRGB">
<feFlood flood-opacity="0" result="BackgroundImageFix"/>
<feColorMatrix in="SourceAlpha" type="matrix" values="0 0 0 0 0 0 0 0 0 0 0 0 0 0 0 0 0 0 127 0"/>
<feOffset/>
<feGaussianBlur stdDeviation="3.4491"/>
<feColorMatrix type="matrix" values="0 0 0 0 1 0 0 0 0 0.470588 0 0 0 0 0.168627 0 0 0 0.23 0"/>
<feBlend mode="normal" in2="BackgroundImageFix" result="effect1_dropShadow"/>
<feBlend mode="normal" in="SourceGraphic" in2="effect1_dropShadow" result="shape"/>
</filter>
<linearGradient id="paint0_linear" x1="14.2431" y1="41.4278" x2="37.996" y2="-25.8801" gradientUnits="userSpaceOnUse">
<stop stop-color="#FF2A00"/>
<stop offset="1" stop-color="#FF9900"/>
</linearGradient>
</defs>
</svg>
