<svg width="200" height="73" viewBox="0 0 200 73" fill="none" xmlns="http://www.w3.org/2000/svg">
<g filter="url(#filter0_d)">
<rect x="10" y="10" width="180" height="53" rx="10" fill="url(#paint0_linear)"/>
</g>
<path d="M62.0934 23C62.152 23 62.2105 23 62.2724 23C62.416 24.7737 61.7388 26.099 60.9158 27.0587C60.1082 28.0118 59.0024 28.9362 57.2139 28.796C57.0946 27.0477 57.7729 25.8207 58.5948 24.8631C59.357 23.9708 60.7545 23.1767 62.0934 23Z" fill="white"/>
<path d="M67.5102 41.461C67.5102 41.4786 67.5102 41.4941 67.5102 41.5107C67.0075 43.0325 66.2906 44.3368 65.4156 45.5472C64.6169 46.6461 63.6382 48.1248 61.8905 48.1248C60.3803 48.1248 59.3773 47.1541 57.8295 47.1276C56.1924 47.1011 55.292 47.9393 53.7951 48.1502C53.6239 48.1502 53.4527 48.1502 53.2847 48.1502C52.1855 47.9912 51.2985 47.1209 50.6522 46.3368C48.7466 44.0198 47.274 41.027 47 37.197C47 36.8215 47 36.4471 47 36.0716C47.116 33.3305 48.4483 31.1019 50.2191 30.0218C51.1537 29.4475 52.4385 28.9582 53.8691 29.1769C54.4823 29.2719 55.1086 29.4817 55.6577 29.6894C56.178 29.8892 56.8287 30.2438 57.4451 30.225C57.8627 30.2128 58.2781 29.9953 58.699 29.8418C59.9318 29.3967 61.1404 28.8865 62.7334 29.1261C64.6479 29.4155 66.0067 30.2658 66.8463 31.5778C65.2267 32.6082 63.9464 34.161 64.1651 36.8126C64.3595 39.2213 65.7603 40.6305 67.5102 41.461Z" fill="white"/>
<path d="M81.848 32.156C80.576 32.156 79.524 31.736 78.692 30.896C77.868 30.056 77.456 29.024 77.456 27.8C77.456 26.576 77.868 25.544 78.692 24.704C79.524 23.864 80.576 23.444 81.848 23.444C82.616 23.444 83.32 23.628 83.96 23.996C84.608 24.364 85.112 24.86 85.472 25.484L84.5 26.048C84.26 25.584 83.9 25.216 83.42 24.944C82.948 24.664 82.424 24.524 81.848 24.524C80.88 24.524 80.088 24.836 79.472 25.46C78.864 26.084 78.56 26.864 78.56 27.8C78.56 28.728 78.864 29.504 79.472 30.128C80.088 30.752 80.88 31.064 81.848 31.064C82.424 31.064 82.948 30.928 83.42 30.656C83.9 30.376 84.26 30.008 84.5 29.552L85.472 30.104C85.12 30.728 84.62 31.228 83.972 31.604C83.324 31.972 82.616 32.156 81.848 32.156ZM91.7391 32H90.4431L87.7071 29.156V32H86.6631V26H87.7071V28.652L90.2991 26H91.6431L88.7751 28.904L91.7391 32ZM97.1272 26H98.1712V32H97.1272V30.968C96.6072 31.76 95.8512 32.156 94.8592 32.156C94.0192 32.156 93.3032 31.852 92.7112 31.244C92.1192 30.628 91.8232 29.88 91.8232 29C91.8232 28.12 92.1192 27.376 92.7112 26.768C93.3032 26.152 94.0192 25.844 94.8592 25.844C95.8512 25.844 96.6072 26.24 97.1272 27.032V26ZM94.9912 31.148C95.5992 31.148 96.1072 30.944 96.5152 30.536C96.9232 30.12 97.1272 29.608 97.1272 29C97.1272 28.392 96.9232 27.884 96.5152 27.476C96.1072 27.06 95.5992 26.852 94.9912 26.852C94.3912 26.852 93.8872 27.06 93.4792 27.476C93.0712 27.884 92.8672 28.392 92.8672 29C92.8672 29.608 93.0712 30.12 93.4792 30.536C93.8872 30.944 94.3912 31.148 94.9912 31.148ZM103.533 26H104.577V32H103.533V29.84C103.053 30.048 102.513 30.152 101.913 30.152C101.145 30.152 100.549 29.972 100.125 29.612C99.7089 29.244 99.5009 28.704 99.5009 27.992V26H100.545V27.932C100.545 28.38 100.665 28.7 100.905 28.892C101.153 29.084 101.513 29.18 101.985 29.18C102.553 29.18 103.069 29.076 103.533 28.868V26ZM111.131 26H112.175V32H111.131V30.968C110.611 31.76 109.855 32.156 108.863 32.156C108.023 32.156 107.307 31.852 106.715 31.244C106.123 30.628 105.827 29.88 105.827 29C105.827 28.12 106.123 27.376 106.715 26.768C107.307 26.152 108.023 25.844 108.863 25.844C109.855 25.844 110.611 26.24 111.131 27.032V26ZM108.995 31.148C109.603 31.148 110.111 30.944 110.519 30.536C110.927 30.12 111.131 29.608 111.131 29C111.131 28.392 110.927 27.884 110.519 27.476C110.111 27.06 109.603 26.852 108.995 26.852C108.395 26.852 107.891 27.06 107.483 27.476C107.075 27.884 106.871 28.392 106.871 29C106.871 29.608 107.075 30.12 107.483 30.536C107.891 30.944 108.395 31.148 108.995 31.148ZM118.221 26V27.008H116.181V32H115.137V27.008H113.085V26H118.221ZM123.492 26H124.332V32H123.3V27.788L119.976 32H119.136V26H120.168V30.212L123.492 26ZM132.917 28.916C133.533 29.172 133.841 29.636 133.841 30.308C133.841 30.804 133.673 31.212 133.337 31.532C133.009 31.844 132.537 32 131.921 32H128.921V26H131.681C132.281 26 132.745 26.152 133.073 26.456C133.401 26.752 133.565 27.144 133.565 27.632C133.565 28.208 133.349 28.636 132.917 28.916ZM131.633 26.936H129.941V28.508H131.633C132.241 28.508 132.545 28.24 132.545 27.704C132.545 27.192 132.241 26.936 131.633 26.936ZM131.861 31.052C132.165 31.052 132.397 30.98 132.557 30.836C132.725 30.692 132.809 30.488 132.809 30.224C132.809 29.976 132.725 29.784 132.557 29.648C132.397 29.504 132.165 29.432 131.861 29.432H129.941V31.052H131.861ZM85.416 49L84.632 46.744H79.864L79.08 49H77.08L81.144 37.8H83.352L87.4 49H85.416ZM80.472 45.016H84.024L82.248 39.96L80.472 45.016ZM93.0204 40.792C94.119 40.792 95.0577 41.2027 95.8364 42.024C96.615 42.8347 97.0044 43.8267 97.0044 45C97.0044 46.184 96.615 47.1813 95.8364 47.992C95.0577 48.8027 94.119 49.208 93.0204 49.208C91.8044 49.208 90.871 48.76 90.2204 47.864V52.2H88.4924V41H90.2204V42.152C90.871 41.2453 91.8044 40.792 93.0204 40.792ZM90.9404 46.84C91.4204 47.32 92.023 47.56 92.7484 47.56C93.4737 47.56 94.0764 47.32 94.5564 46.84C95.0364 46.3493 95.2764 45.736 95.2764 45C95.2764 44.264 95.0364 43.656 94.5564 43.176C94.0764 42.6853 93.4737 42.44 92.7484 42.44C92.023 42.44 91.4204 42.6853 90.9404 43.176C90.4604 43.656 90.2204 44.264 90.2204 45C90.2204 45.736 90.4604 46.3493 90.9404 46.84ZM103.099 40.792C104.197 40.792 105.136 41.2027 105.915 42.024C106.693 42.8347 107.083 43.8267 107.083 45C107.083 46.184 106.693 47.1813 105.915 47.992C105.136 48.8027 104.197 49.208 103.099 49.208C101.883 49.208 100.949 48.76 100.299 47.864V52.2H98.5705V41H100.299V42.152C100.949 41.2453 101.883 40.792 103.099 40.792ZM101.019 46.84C101.499 47.32 102.101 47.56 102.827 47.56C103.552 47.56 104.155 47.32 104.635 46.84C105.115 46.3493 105.355 45.736 105.355 45C105.355 44.264 105.115 43.656 104.635 43.176C104.155 42.6853 103.552 42.44 102.827 42.44C102.101 42.44 101.499 42.6853 101.019 43.176C100.539 43.656 100.299 44.264 100.299 45C100.299 45.736 100.539 46.3493 101.019 46.84ZM116.489 49.208C115.411 49.208 114.494 48.9627 113.737 48.472C112.99 47.9813 112.467 47.3093 112.169 46.456L113.753 45.528C114.201 46.7867 115.129 47.416 116.537 47.416C117.23 47.416 117.747 47.2827 118.089 47.016C118.441 46.7387 118.617 46.3813 118.617 45.944C118.617 45.4853 118.43 45.1387 118.057 44.904C117.683 44.6587 117.022 44.392 116.073 44.104C115.539 43.944 115.107 43.7947 114.777 43.656C114.446 43.5173 114.094 43.3253 113.721 43.08C113.358 42.824 113.086 42.5093 112.905 42.136C112.723 41.7627 112.633 41.3253 112.633 40.824C112.633 39.832 112.985 39.048 113.689 38.472C114.393 37.8853 115.241 37.592 116.233 37.592C117.129 37.592 117.913 37.8107 118.585 38.248C119.257 38.6853 119.774 39.288 120.137 40.056L118.585 40.952C118.115 39.9067 117.331 39.384 116.233 39.384C115.699 39.384 115.273 39.512 114.953 39.768C114.633 40.0133 114.473 40.3493 114.473 40.776C114.473 41.192 114.633 41.5227 114.953 41.768C115.283 42.0027 115.875 42.2533 116.729 42.52C117.155 42.6587 117.465 42.7653 117.657 42.84C117.859 42.904 118.137 43.0107 118.489 43.16C118.851 43.3093 119.123 43.4587 119.305 43.608C119.486 43.7573 119.678 43.944 119.881 44.168C120.094 44.392 120.243 44.648 120.329 44.936C120.414 45.224 120.457 45.5493 120.457 45.912C120.457 46.9253 120.089 47.7307 119.353 48.328C118.627 48.9147 117.673 49.208 116.489 49.208ZM126.16 42.664H124.176V46.504C124.176 46.8347 124.25 47.0747 124.4 47.224C124.549 47.3627 124.768 47.4427 125.056 47.464C125.354 47.4747 125.722 47.4693 126.16 47.448V49C124.837 49.16 123.888 49.048 123.312 48.664C122.736 48.2693 122.448 47.5493 122.448 46.504V42.664H120.976V41H122.448V39.272L124.176 38.76V41H126.16V42.664ZM131.175 49.208C130.001 49.208 129.004 48.8027 128.183 47.992C127.361 47.1813 126.951 46.184 126.951 45C126.951 43.816 127.361 42.8187 128.183 42.008C129.004 41.1973 130.001 40.792 131.175 40.792C132.359 40.792 133.356 41.1973 134.167 42.008C134.988 42.8187 135.399 43.816 135.399 45C135.399 46.184 134.988 47.1813 134.167 47.992C133.356 48.8027 132.359 49.208 131.175 49.208ZM129.399 46.808C129.879 47.288 130.471 47.528 131.175 47.528C131.879 47.528 132.471 47.288 132.951 46.808C133.431 46.328 133.671 45.7253 133.671 45C133.671 44.2747 133.431 43.672 132.951 43.192C132.471 42.712 131.879 42.472 131.175 42.472C130.471 42.472 129.879 42.712 129.399 43.192C128.919 43.672 128.679 44.2747 128.679 45C128.679 45.7253 128.919 46.328 129.399 46.808ZM138.689 42.344C139.126 41.352 139.948 40.856 141.153 40.856V42.728C140.492 42.6853 139.916 42.8453 139.425 43.208C138.934 43.56 138.689 44.1467 138.689 44.968V49H136.961V41H138.689V42.344ZM143.415 45.736C143.543 46.344 143.836 46.8133 144.295 47.144C144.754 47.464 145.314 47.624 145.975 47.624C146.892 47.624 147.58 47.2933 148.039 46.632L149.463 47.464C148.674 48.6267 147.506 49.208 145.959 49.208C144.658 49.208 143.607 48.8133 142.807 48.024C142.007 47.224 141.607 46.216 141.607 45C141.607 43.8053 142.002 42.808 142.791 42.008C143.58 41.1973 144.594 40.792 145.831 40.792C147.004 40.792 147.964 41.2027 148.711 42.024C149.468 42.8453 149.847 43.8427 149.847 45.016C149.847 45.1973 149.826 45.4373 149.783 45.736H143.415ZM143.399 44.328H148.103C147.986 43.6773 147.714 43.1867 147.287 42.856C146.871 42.5253 146.38 42.36 145.815 42.36C145.175 42.36 144.642 42.536 144.215 42.888C143.788 43.24 143.516 43.72 143.399 44.328Z" fill="white"/>
<defs>
<filter id="filter0_d" x="0" y="0" width="200" height="73" filterUnits="userSpaceOnUse" color-interpolation-filters="sRGB">
<feFlood flood-opacity="0" result="BackgroundImageFix"/>
<feColorMatrix in="SourceAlpha" type="matrix" values="0 0 0 0 0 0 0 0 0 0 0 0 0 0 0 0 0 0 127 0"/>
<feOffset/>
<feGaussianBlur stdDeviation="5"/>
<feColorMatrix type="matrix" values="0 0 0 0 1 0 0 0 0 0.470588 0 0 0 0 0.168627 0 0 0 0.23 0"/>
<feBlend mode="normal" in2="BackgroundImageFix" result="effect1_dropShadow"/>
<feBlend mode="normal" in="SourceGraphic" in2="effect1_dropShadow" result="shape"/>
</filter>
<linearGradient id="paint0_linear" x1="20.5" y1="59.9083" x2="54.9334" y2="-37.6648" gradientUnits="userSpaceOnUse">
<stop stop-color="#FF2A00"/>
<stop offset="1" stop-color="#FF9900"/>
</linearGradient>
</defs>
</svg>
