<svg width="826" height="651" viewBox="0 0 826 651" fill="none" xmlns="http://www.w3.org/2000/svg">
<path opacity="0.4" fill-rule="evenodd" clip-rule="evenodd" d="M6.46052 458.868C8.50635 454.841 12.2589 451.918 16.7698 452.23C21.6932 452.57 26.2628 455.529 27.4447 460.317C28.7092 465.44 26.4669 470.703 22.0368 473.57C16.89 476.9 9.88381 478.777 5.42275 474.567C1.20256 470.584 3.8349 464.037 6.46052 458.868Z" fill="white"/>
<path opacity="0.6" d="M826 327.667V651H161C163.182 637.39 167.363 623.907 173.544 610.806C194.268 566.414 239.353 527.492 296.254 503.707C326.432 491.114 359.882 482.719 394.968 480.048C440.598 476.487 492.227 480.811 527.314 460.078C548.402 447.613 558.764 428.661 572.035 411.616C609.666 363.282 680.384 326.14 758.918 322.325C781.461 321.18 804.367 323.088 826 327.667Z" fill="white"/>
<path opacity="0.4" d="M83.06 25.8128C62.9242 15.4319 59.6522 11.634 0 1H445C441.873 2.69565 438.954 4.52173 436.348 6.41303C413.937 22.1304 401.949 42.4129 385.688 60.8694C378.391 69.0215 370.052 76.9128 360.567 84.2171C341.595 98.7606 318.037 110.63 289.893 116.565C247.676 125.434 194.306 117.021 172.833 92.5649C162.513 80.7606 99.4203 34.2472 83.06 25.8128Z" fill="white"/>
<g opacity="0.25">
<path d="M826 605.038C791.566 613.782 754.115 620.117 720.916 607.953C677.428 591.987 653.146 547.764 647.522 504.809C641.897 461.853 651.226 418.771 654.655 375.689C658.222 332.607 655.067 286.483 628.453 251.004C591.55 201.713 519.527 185.62 475.903 141.144C439.823 104.018 427.75 48.0108 446.133 1.00047" stroke="url(#paint0_linear)" stroke-miterlimit="10"/>
<path d="M826 572.347C793.487 580.583 757.956 586.665 726.54 575.134C685.385 560.056 662.338 518.114 657.124 477.566C651.911 437.018 660.554 396.09 663.984 355.415C667.276 314.614 664.395 271.025 639.29 237.446C604.308 190.816 536.264 175.61 494.971 133.542C460.675 98.4425 449.288 45.6034 466.574 1.12736" stroke="url(#paint1_linear)" stroke-miterlimit="10"/>
<path d="M826 539.781C795.27 547.511 761.797 553.213 732.165 542.316C693.341 528.124 671.666 488.59 666.727 450.322C661.789 412.055 670.02 373.535 673.175 335.141C676.33 296.747 673.587 255.565 649.853 223.887C616.929 179.918 552.589 165.6 513.765 125.939C481.39 92.8667 470.689 42.9421 487.014 1.0003" stroke="url(#paint2_linear)" stroke-miterlimit="10"/>
<path d="M826 507.09C797.191 514.439 765.638 519.761 737.927 509.497C701.436 496.066 681.132 459.066 676.468 423.079C671.804 387.093 679.486 350.98 682.504 314.867C685.522 278.754 682.916 240.107 660.554 210.329C629.55 169.021 569.189 155.463 532.697 118.336C502.242 87.2915 492.228 40.408 507.592 1.00044" stroke="url(#paint3_linear)" stroke-miterlimit="10"/>
<path d="M825.999 474.525C798.974 481.367 769.616 486.309 743.551 476.806C709.529 464.261 690.46 429.542 686.07 395.963C681.68 362.384 688.951 328.425 691.695 294.72C694.438 260.888 692.106 224.775 671.117 196.898C642.171 158.251 585.65 145.579 551.628 110.734C523.231 81.7164 513.765 37.874 528.169 1.00066" stroke="url(#paint4_linear)" stroke-miterlimit="10"/>
</g>
<defs>
<linearGradient id="paint0_linear" x1="803.345" y1="578.901" x2="292.933" y2="191.767" gradientUnits="userSpaceOnUse">
<stop stop-color="#FF2A00"/>
<stop offset="1" stop-color="#FF9900"/>
</linearGradient>
<linearGradient id="paint1_linear" x1="804.568" y1="547.652" x2="321.827" y2="181.386" gradientUnits="userSpaceOnUse">
<stop stop-color="#FF2A00"/>
<stop offset="1" stop-color="#FF9900"/>
</linearGradient>
<linearGradient id="paint2_linear" x1="805.785" y1="516.428" x2="350.499" y2="170.96" gradientUnits="userSpaceOnUse">
<stop stop-color="#FF2A00"/>
<stop offset="1" stop-color="#FF9900"/>
</linearGradient>
<linearGradient id="paint3_linear" x1="807.011" y1="485.205" x2="379.311" y2="160.686" gradientUnits="userSpaceOnUse">
<stop stop-color="#FF2A00"/>
<stop offset="1" stop-color="#FF9900"/>
</linearGradient>
<linearGradient id="paint4_linear" x1="808.237" y1="454.016" x2="408.111" y2="150.485" gradientUnits="userSpaceOnUse">
<stop stop-color="#FF2A00"/>
<stop offset="1" stop-color="#FF9900"/>
</linearGradient>
</defs>
</svg>
