<svg width="8" height="8" viewBox="0 0 8 8" fill="none" xmlns="http://www.w3.org/2000/svg">
<path d="M4.09205 6.04797C3.66005 6.04797 3.27338 5.95464 2.93205 5.76797C2.59605 5.5813 2.33205 5.3253 2.14005 4.99997C1.94805 4.6693 1.85205 4.29597 1.85205 3.87997C1.85205 3.46397 1.94805 3.0933 2.14005 2.76797C2.33205 2.4373 2.59605 2.1813 2.93205 1.99997C3.27338 1.8133 3.66005 1.71997 4.09205 1.71997C4.47605 1.71997 4.81738 1.7973 5.11605 1.95197C5.42005 2.10664 5.65472 2.33064 5.82005 2.62397L5.23605 2.99997C5.10272 2.7973 4.93738 2.6453 4.74005 2.54397C4.54272 2.44264 4.32405 2.39197 4.08405 2.39197C3.80672 2.39197 3.55605 2.4533 3.33205 2.57597C3.11338 2.69864 2.94005 2.87464 2.81205 3.10397C2.68938 3.32797 2.62805 3.58664 2.62805 3.87997C2.62805 4.17864 2.68938 4.44264 2.81205 4.67197C2.94005 4.89597 3.11338 5.0693 3.33205 5.19197C3.55605 5.31464 3.80672 5.37597 4.08405 5.37597C4.32405 5.37597 4.54272 5.3253 4.74005 5.22397C4.93738 5.12264 5.10272 4.97064 5.23605 4.76797L5.82005 5.13597C5.65472 5.4293 5.42005 5.65597 5.11605 5.81597C4.81738 5.97064 4.47605 6.04797 4.09205 6.04797Z" fill="#333333"/>
<path fill-rule="evenodd" clip-rule="evenodd" d="M4 7.5C5.933 7.5 7.5 5.933 7.5 4C7.5 2.067 5.933 0.5 4 0.5C2.067 0.5 0.5 2.067 0.5 4C0.5 5.933 2.067 7.5 4 7.5ZM4 8C6.20914 8 8 6.20914 8 4C8 1.79086 6.20914 0 4 0C1.79086 0 0 1.79086 0 4C0 6.20914 1.79086 8 4 8Z" fill="#333333"/>
</svg>
