<svg width="73" height="76" viewBox="0 0 73 76" fill="none" xmlns="http://www.w3.org/2000/svg">
<path fill-rule="evenodd" clip-rule="evenodd" d="M69.4584 44.1391H70.5861C71.9172 44.1391 73.0001 45.2219 73 46.553V58.0134C73 59.3444 71.9172 60.4272 70.5861 60.4272H69.4584V70.5848C69.4584 73.2165 67.3174 75.3574 64.6858 75.3574H4.77269C2.14092 75.3574 0 73.2165 0 70.5848V33.9813C0 32.0592 1.14272 30.4002 2.78396 29.6446V28.7011C2.78396 26.6949 4.41621 25.0628 6.42231 25.0628H9.17241L10.7873 8.71522C10.9758 6.80686 12.6821 5.40789 14.5902 5.59613L31.2327 7.24016C31.8229 7.29845 32.254 7.82403 32.1957 8.41424C32.1374 9.00444 31.6119 9.43421 31.0216 9.37725L14.3791 7.73322C13.6482 7.66007 12.9967 8.19641 12.9245 8.92643L10.9211 29.2088H12.2903L13.5779 16.1737C13.6733 15.208 14.2935 14.3968 15.1967 14.0562C16.3967 13.6037 17.4367 12.7589 18.1249 11.6771C18.6371 10.8723 19.5488 10.4318 20.5047 10.5254L28.7403 11.339C29.3305 11.3973 29.7616 11.9229 29.7033 12.5131C29.6451 13.1033 29.1198 13.5334 28.5293 13.4761L20.2937 12.6625C20.1497 12.6479 20.0106 12.7142 19.9369 12.83C19.0008 14.3012 17.5864 15.4504 15.9543 16.0658C15.8233 16.1151 15.7294 16.2404 15.7151 16.3849L14.4483 29.2089H19.699L38.568 1.5205C39.0911 0.752801 39.8819 0.234866 40.7946 0.0619263C41.7077 -0.111307 42.6329 0.081796 43.4004 0.60503L65.2616 15.5028C66.8462 16.5829 67.2568 18.7507 66.1769 20.3353L62.9552 25.0628H63.7973C65.8035 25.0628 67.4356 26.6949 67.4356 28.7011V30.0842C68.658 30.9493 69.4584 32.3732 69.4584 33.9813V44.1391ZM65.2881 28.7013C65.2881 27.8791 64.6194 27.2103 63.7973 27.2105H61.4917L60.1298 29.2091H64.6858C64.89 29.2091 65.0906 29.2233 65.2881 29.2484V28.7013ZM41.1943 2.17179C40.8452 2.23802 40.5427 2.43613 40.3426 2.72976L22.2978 29.2088H23.9469L37.4434 9.40389C37.9816 8.61426 38.937 8.1889 39.8789 8.32107C41.1491 8.49887 42.4669 8.25557 43.5891 7.63594C44.4242 7.17481 45.436 7.22441 46.2297 7.76531L57.5625 15.4883C58.3561 16.029 58.7723 16.9524 58.6487 17.8984C58.4824 19.1699 58.7379 20.4853 59.3681 21.6024C59.8423 22.4432 59.7973 23.4635 59.2509 24.2652L55.8821 29.2086H57.5311L64.4025 19.1257C64.8155 18.5196 64.6583 17.6904 64.0522 17.2773L42.191 2.37946C41.9676 2.22727 41.7092 2.14809 41.4447 2.14809C41.3615 2.14809 41.2778 2.15604 41.1943 2.17179ZM31.988 29.2088C32.3008 24.6105 36.1393 20.9643 40.8155 20.9643C45.4919 20.9643 49.3303 24.6105 49.6433 29.2086H53.2836L57.4765 23.0558C57.5581 22.9358 57.5664 22.7795 57.4977 22.6575C56.6407 21.1383 56.293 19.3495 56.5192 17.6202C56.5369 17.4842 56.4717 17.3441 56.3531 17.2631L45.0202 9.54004C44.9012 9.45908 44.747 9.44952 44.6269 9.51604C43.1003 10.359 41.3084 10.6895 39.5807 10.4479C39.5644 10.4456 39.5481 10.4445 39.5317 10.4445C39.4091 10.4445 39.2898 10.5075 39.2178 10.6133H39.2177L26.5454 29.2088H31.988ZM34.1412 29.2089H47.4899C47.1824 25.7959 44.3072 23.1119 40.8155 23.112C37.3239 23.112 34.4488 25.7959 34.1412 29.2089ZM6.42231 27.2102C5.60015 27.2102 4.9315 27.879 4.9315 28.7011V29.2088H8.76295L8.96032 27.2102H6.42231ZM4.77269 31.3563C3.32515 31.3563 2.14754 32.5339 2.14754 33.9813V36.9609H67.3108V33.9813C67.3108 32.5339 66.1334 31.3563 64.6858 31.3563H4.77269ZM64.6858 73.2098C66.1334 73.2098 67.3108 72.0322 67.3108 70.5848V67.6053H14.8135C14.2205 67.6053 13.7398 67.1246 13.7398 66.5316C13.7398 65.9386 14.2203 65.4579 14.8135 65.4579H67.3107V60.4272H57.1012H57.1011C52.6105 60.4272 48.9572 56.7738 48.9572 52.2831C48.9572 51.4421 49.0854 50.6307 49.3231 49.867L49.3239 49.8641C49.4354 49.5067 49.5722 49.1604 49.7297 48.8258C49.7373 48.8095 49.7444 48.7929 49.7518 48.7764C49.7549 48.7694 49.7582 48.7624 49.7615 48.7555C49.7635 48.7514 49.7656 48.7474 49.7678 48.7434C49.7704 48.7384 49.773 48.7335 49.7755 48.7284C51.0979 46.0142 53.8844 44.1391 57.1012 44.1391H57.1014H67.3108V39.1084H2.14754V65.4579H7.93799C8.53099 65.4579 9.01169 65.9386 9.01169 66.5316C9.01169 67.1246 8.53114 67.6053 7.93799 67.6053H2.14754V70.5848C2.14754 72.0322 3.32515 73.2098 4.77269 73.2098H64.6858ZM70.5861 58.2797C70.7331 58.2797 70.8526 58.1601 70.8526 58.0133V46.553C70.8526 46.4062 70.7329 46.2866 70.5861 46.2866H57.1015C54.8283 46.2866 52.8463 47.5581 51.8297 49.4272C51.7835 49.5121 51.7393 49.5984 51.6971 49.6857C51.6129 49.8605 51.5368 50.0399 51.4694 50.2235C51.2338 50.8661 51.105 51.5599 51.105 52.2831C51.105 53.0064 51.2336 53.7002 51.4694 54.3428C51.5367 54.5265 51.6128 54.7059 51.6971 54.8806C51.7393 54.9679 51.7835 55.0541 51.8297 55.1391C52.8463 57.0081 54.8283 58.2797 57.1015 58.2797H70.5861ZM52.9965 52.2833C52.9965 49.8812 54.9508 47.9267 57.3531 47.9267C59.7554 47.9267 61.7097 49.8812 61.7097 52.2833C61.7097 54.6855 59.7554 56.6398 57.3531 56.6398C54.9508 56.6398 52.9965 54.6855 52.9965 52.2833ZM55.144 52.2833C55.144 53.5013 56.135 54.4923 57.3531 54.4923C58.5712 54.4923 59.5621 53.5014 59.5621 52.2833C59.5621 51.0653 58.5712 50.0743 57.3531 50.0743C56.135 50.0743 55.144 51.0654 55.144 52.2833Z" fill="url(#paint0_linear)"/>
<defs>
<linearGradient id="paint0_linear" x1="4.25833" y1="70.9615" x2="80.529" y2="9.31505" gradientUnits="userSpaceOnUse">
<stop stop-color="#FF2A00"/>
<stop offset="1" stop-color="#FF9900"/>
</linearGradient>
</defs>
</svg>
