<svg width="1310" height="660" viewBox="0 0 1310 660" fill="none" xmlns="http://www.w3.org/2000/svg">
<g opacity="0.3">
<path d="M64.6712 621.994C64.2035 621.184 64.5031 620.066 65.3131 619.598C66.123 619.131 67.241 619.43 67.7086 620.24C68.1763 621.05 67.8767 622.168 67.0667 622.636C66.2567 623.104 65.1388 622.804 64.6712 621.994Z" fill="url(#paint0_linear)"/>
<path d="M38.1521 599.91C37.6845 599.1 37.984 597.982 38.794 597.515C39.604 597.047 40.7219 597.347 41.1896 598.157C41.6572 598.967 41.3577 600.084 40.5477 600.552C39.7377 601.02 38.6782 600.821 38.1521 599.91Z" fill="url(#paint1_linear)"/>
<path d="M38.6389 624.603C38.1713 623.793 38.4708 622.675 39.2808 622.208C40.0908 621.74 41.2087 622.04 41.6764 622.85C42.144 623.66 41.8445 624.778 41.0345 625.245C40.2245 625.713 39.1066 625.413 38.6389 624.603Z" fill="url(#paint2_linear)"/>
<path d="M59.9356 610.283C59.0968 610.767 58.8095 611.84 59.2937 612.679C59.778 613.518 60.8505 613.805 61.6893 613.321C62.5281 612.836 62.8154 611.764 62.3312 610.925C61.8469 610.086 60.7744 609.799 59.9356 610.283Z" fill="url(#paint3_linear)"/>
<path d="M33.4161 588.2C32.5773 588.684 32.2899 589.757 32.7742 590.596C33.2585 591.434 34.331 591.722 35.1698 591.237C36.0085 590.753 36.2959 589.681 35.8116 588.842C35.3274 588.003 34.2548 587.716 33.4161 588.2Z" fill="url(#paint4_linear)"/>
<path d="M33.2605 615.289C32.7929 614.479 33.0924 613.361 33.9024 612.893C34.7124 612.425 35.8303 612.725 36.298 613.535C36.7656 614.345 36.4661 615.463 35.6561 615.931C34.8461 616.398 33.7282 616.099 33.2605 615.289Z" fill="url(#paint5_linear)"/>
<path d="M54.4991 600.867C53.6603 601.351 53.3729 602.424 53.8572 603.263C54.3415 604.101 55.414 604.389 56.2528 603.904C57.0915 603.42 57.3789 602.348 56.8946 601.509C56.4104 600.67 55.3379 600.383 54.4991 600.867Z" fill="url(#paint6_linear)"/>
<path d="M28.0381 578.885C27.1994 579.369 26.912 580.442 27.3963 581.28C27.8805 582.119 28.9531 582.407 29.7918 581.922C30.6306 581.438 30.918 580.365 30.4337 579.527C29.9494 578.688 28.8769 578.401 28.0381 578.885Z" fill="url(#paint7_linear)"/>
<path d="M27.8245 605.873C27.3568 605.063 27.6564 603.945 28.4664 603.477C29.2764 603.01 30.3943 603.309 30.8619 604.119C31.3296 604.929 31.03 606.047 30.22 606.515C29.4101 606.982 28.3506 606.784 27.8245 605.873Z" fill="url(#paint8_linear)"/>
<path d="M48.4793 593.948C48.0116 593.138 48.3112 592.02 49.1212 591.552C49.9311 591.084 51.0491 591.384 51.5167 592.194C51.9844 593.004 51.6848 594.122 50.8748 594.589C50.0648 595.057 48.9469 594.758 48.4793 593.948Z" fill="url(#paint9_linear)"/>
<path d="M22.0178 571.966C21.5502 571.156 21.8497 570.038 22.6597 569.57C23.4697 569.102 24.5876 569.402 25.0553 570.212C25.5229 571.022 25.2234 572.14 24.4134 572.608C23.6034 573.075 22.4855 572.776 22.0178 571.966Z" fill="url(#paint10_linear)"/>
<path d="M23.0884 594.162C22.2497 594.647 21.9623 595.719 22.4466 596.558C22.9308 597.397 24.0033 597.684 24.8421 597.2C25.6809 596.716 25.9683 595.643 25.484 594.804C24.9997 593.966 23.9272 593.678 23.0884 594.162Z" fill="url(#paint11_linear)"/>
<path d="M43.1013 584.633C42.6337 583.823 42.9332 582.705 43.7432 582.237C44.5532 581.77 45.6711 582.069 46.1388 582.879C46.6064 583.689 46.3069 584.807 45.4969 585.275C44.6869 585.742 43.569 585.443 43.1013 584.633Z" fill="url(#paint12_linear)"/>
<path d="M16.5813 562.55C16.1137 561.74 16.4132 560.622 17.2232 560.154C18.0332 559.686 19.1511 559.986 19.6188 560.796C20.0864 561.606 19.7869 562.724 18.9769 563.192C18.1669 563.659 17.1074 563.461 16.5813 562.55Z" fill="url(#paint13_linear)"/>
<path d="M17.0686 587.243C16.601 586.433 16.9005 585.315 17.7105 584.847C18.5205 584.38 19.6384 584.679 20.1061 585.489C20.5737 586.299 20.2742 587.417 19.4642 587.885C18.6542 588.353 17.5363 588.053 17.0686 587.243Z" fill="url(#paint14_linear)"/>
<path d="M37.7234 575.318C37.2558 574.508 37.5553 573.39 38.3653 572.923C39.1753 572.455 40.2932 572.755 40.7609 573.565C41.2285 574.375 40.929 575.492 40.119 575.96C39.309 576.428 38.1911 576.128 37.7234 575.318Z" fill="url(#paint15_linear)"/>
<path d="M11.2039 553.235C10.7362 552.425 11.0358 551.307 11.8458 550.839C12.6558 550.371 13.7737 550.671 14.2413 551.481C14.709 552.291 14.4094 553.409 13.5994 553.877C12.7895 554.344 11.6715 554.045 11.2039 553.235Z" fill="url(#paint16_linear)"/>
<path d="M11.6907 577.928C11.223 577.118 11.5226 576 12.3326 575.533C13.1426 575.065 14.2605 575.364 14.7281 576.174C15.1958 576.984 14.8962 578.102 14.0863 578.57C13.2763 579.038 12.1583 578.738 11.6907 577.928Z" fill="url(#paint17_linear)"/>
</g>
<g opacity="0.25">
<path d="M1188.26 107.696C1189.46 107.696 1190.51 108.749 1190.51 109.953C1190.51 111.156 1189.46 112.21 1188.26 112.21C1187.05 112.21 1186 111.156 1186 109.953C1186 108.749 1187.05 107.696 1188.26 107.696Z" fill="url(#paint18_linear)"/>
<path d="M1229.94 92.3484C1231.14 92.3484 1232.19 93.4017 1232.19 94.6055C1232.19 95.8093 1231.14 96.8625 1229.94 96.8625C1228.73 96.8625 1227.68 95.8093 1227.68 94.6055C1227.68 93.4017 1228.58 92.3484 1229.94 92.3484Z" fill="url(#paint19_linear)"/>
<path d="M1202.1 77.0001C1203.3 77.0001 1204.36 78.0534 1204.36 79.2572C1204.36 80.461 1203.3 81.5143 1202.1 81.5143C1200.9 81.5143 1199.84 80.461 1199.84 79.2572C1199.84 78.0534 1200.9 77.0001 1202.1 77.0001Z" fill="url(#paint20_linear)"/>
<path d="M1204.36 109.953C1204.36 108.706 1203.35 107.696 1202.1 107.696C1200.85 107.696 1199.84 108.706 1199.84 109.953C1199.84 111.2 1200.85 112.21 1202.1 112.21C1203.35 112.21 1204.36 111.2 1204.36 109.953Z" fill="url(#paint21_linear)"/>
<path d="M1246.04 94.605C1246.04 93.3584 1245.03 92.3479 1243.78 92.3479C1242.53 92.3479 1241.52 93.3584 1241.52 94.605C1241.52 95.8515 1242.53 96.8621 1243.78 96.8621C1245.03 96.8621 1246.04 95.8515 1246.04 94.605Z" fill="url(#paint22_linear)"/>
<path d="M1215.94 76.9999C1217.15 76.9999 1218.2 78.0532 1218.2 79.257C1218.2 80.4607 1217.15 81.514 1215.94 81.514C1214.74 81.514 1213.69 80.4607 1213.69 79.257C1213.69 78.0532 1214.74 76.9999 1215.94 76.9999Z" fill="url(#paint23_linear)"/>
<path d="M1218.35 109.953C1218.35 108.707 1217.34 107.696 1216.09 107.696C1214.85 107.696 1213.84 108.707 1213.84 109.953C1213.84 111.2 1214.85 112.21 1216.09 112.21C1217.34 112.21 1218.35 111.2 1218.35 109.953Z" fill="url(#paint24_linear)"/>
<path d="M1259.88 94.605C1259.88 93.3584 1258.87 92.3479 1257.62 92.3479C1256.38 92.3479 1255.37 93.3584 1255.37 94.605C1255.37 95.8515 1256.38 96.8621 1257.62 96.8621C1258.87 96.8621 1259.88 95.8515 1259.88 94.605Z" fill="url(#paint25_linear)"/>
<path d="M1229.94 76.9999C1231.14 76.9999 1232.19 78.0532 1232.19 79.257C1232.19 80.4607 1231.14 81.514 1229.94 81.514C1228.73 81.514 1227.68 80.4607 1227.68 79.257C1227.68 78.0532 1228.58 76.9999 1229.94 76.9999Z" fill="url(#paint26_linear)"/>
<path d="M1229.94 107.696C1231.14 107.696 1232.19 108.749 1232.19 109.953C1232.19 111.157 1231.14 112.21 1229.94 112.21C1228.73 112.21 1227.68 111.157 1227.68 109.953C1227.68 108.749 1228.73 107.696 1229.94 107.696Z" fill="url(#paint27_linear)"/>
<path d="M1271.47 92.348C1272.67 92.348 1273.73 93.4013 1273.73 94.6051C1273.73 95.8089 1272.67 96.8622 1271.47 96.8622C1270.26 96.8622 1269.21 95.8089 1269.21 94.6051C1269.21 93.4013 1270.26 92.348 1271.47 92.348Z" fill="url(#paint28_linear)"/>
<path d="M1246.04 79.257C1246.04 78.0104 1245.03 76.9999 1243.78 76.9999C1242.53 76.9999 1241.52 78.0104 1241.52 79.257C1241.52 80.5035 1242.53 81.514 1243.78 81.514C1245.03 81.514 1246.04 80.5035 1246.04 79.257Z" fill="url(#paint29_linear)"/>
<path d="M1243.78 107.696C1244.98 107.696 1246.04 108.749 1246.04 109.953C1246.04 111.157 1244.98 112.21 1243.78 112.21C1242.58 112.21 1241.52 111.157 1241.52 109.953C1241.52 108.749 1242.58 107.696 1243.78 107.696Z" fill="url(#paint30_linear)"/>
<path d="M1285.46 92.3479C1286.66 92.3479 1287.72 93.4012 1287.72 94.605C1287.72 95.8088 1286.66 96.8621 1285.46 96.8621C1284.26 96.8621 1283.2 95.8088 1283.2 94.605C1283.2 93.4012 1284.11 92.3479 1285.46 92.3479Z" fill="url(#paint31_linear)"/>
<path d="M1257.62 77.0001C1258.83 77.0001 1259.88 78.0534 1259.88 79.2572C1259.88 80.461 1258.83 81.5143 1257.62 81.5143C1256.42 81.5143 1255.37 80.461 1255.37 79.2572C1255.37 78.0534 1256.42 77.0001 1257.62 77.0001Z" fill="url(#paint32_linear)"/>
<path d="M1257.62 107.696C1258.83 107.696 1259.88 108.749 1259.88 109.953C1259.88 111.157 1258.83 112.21 1257.62 112.21C1256.42 112.21 1255.37 111.157 1255.37 109.953C1255.37 108.749 1256.42 107.696 1257.62 107.696Z" fill="url(#paint33_linear)"/>
<path d="M1299.3 92.3479C1300.51 92.3479 1301.56 93.4012 1301.56 94.605C1301.56 95.8088 1300.51 96.8621 1299.3 96.8621C1298.1 96.8621 1297.05 95.8088 1297.05 94.605C1297.05 93.4012 1298.1 92.3479 1299.3 92.3479Z" fill="url(#paint34_linear)"/>
<path d="M1271.47 77.0001C1272.67 77.0001 1273.73 78.0534 1273.73 79.2572C1273.73 80.461 1272.67 81.5143 1271.47 81.5143C1270.26 81.5143 1269.21 80.461 1269.21 79.2572C1269.21 78.0534 1270.26 77.0001 1271.47 77.0001Z" fill="url(#paint35_linear)"/>
</g>
<g opacity="0.3">
<path fill-rule="evenodd" clip-rule="evenodd" d="M1308.89 604.297C1309.29 604.693 1309.29 605.334 1308.89 605.73L1296.73 617.891C1296.33 618.287 1295.69 618.287 1295.3 617.891C1294.9 617.495 1294.9 616.854 1295.3 616.458L1307.46 604.297C1307.85 603.901 1308.5 603.901 1308.89 604.297Z" fill="url(#paint36_linear)"/>
<path fill-rule="evenodd" clip-rule="evenodd" d="M1295.3 604.297C1295.69 603.901 1296.33 603.901 1296.73 604.297L1308.89 616.458C1309.29 616.854 1309.29 617.495 1308.89 617.891C1308.5 618.287 1307.85 618.287 1307.46 617.891L1295.3 605.73C1294.9 605.334 1294.9 604.693 1295.3 604.297Z" fill="url(#paint37_linear)"/>
</g>
<g opacity="0.3">
<path fill-rule="evenodd" clip-rule="evenodd" d="M447.983 41.8432C448.06 42.2985 447.753 42.73 447.298 42.8068L433.305 45.1674C432.849 45.2443 432.418 44.9374 432.341 44.482C432.264 44.0266 432.571 43.5952 433.027 43.5183L447.02 41.1577C447.475 41.0809 447.906 41.3878 447.983 41.8432Z" fill="url(#paint38_linear)"/>
<path fill-rule="evenodd" clip-rule="evenodd" d="M438.843 35.3415C439.298 35.2647 439.73 35.5716 439.806 36.027L442.167 50.02C442.244 50.4753 441.937 50.9068 441.482 50.9836C441.026 51.0604 440.595 50.7536 440.518 50.2982L438.157 36.3052C438.081 35.8498 438.387 35.4184 438.843 35.3415Z" fill="url(#paint39_linear)"/>
</g>
<g opacity="0.3">
<path fill-rule="evenodd" clip-rule="evenodd" d="M350.983 649.843C351.06 650.299 350.753 650.73 350.298 650.807L336.305 653.167C335.849 653.244 335.418 652.937 335.341 652.482C335.264 652.027 335.571 651.595 336.027 651.518L350.02 649.158C350.475 649.081 350.906 649.388 350.983 649.843Z" fill="url(#paint40_linear)"/>
<path fill-rule="evenodd" clip-rule="evenodd" d="M341.843 643.342C342.298 643.265 342.73 643.572 342.806 644.027L345.167 658.02C345.244 658.475 344.937 658.907 344.482 658.984C344.026 659.06 343.595 658.754 343.518 658.298L341.157 644.305C341.081 643.85 341.387 643.418 341.843 643.342Z" fill="url(#paint41_linear)"/>
</g>
<g opacity="0.3">
<path fill-rule="evenodd" clip-rule="evenodd" d="M91.2664 11.9297C91.1635 12.1687 90.8864 12.279 90.6474 12.1762L83.3042 9.01461C83.0653 8.91173 82.9549 8.63459 83.0578 8.39562C83.1607 8.15664 83.4378 8.04632 83.6768 8.14921L91.02 11.3107C91.259 11.4136 91.3693 11.6908 91.2664 11.9297Z" fill="url(#paint42_linear)"/>
<path fill-rule="evenodd" clip-rule="evenodd" d="M88.9292 6.05838C89.1682 6.16127 89.2785 6.4384 89.1756 6.67738L86.0141 14.0206C85.9112 14.2595 85.634 14.3699 85.3951 14.267C85.1561 14.1641 85.0458 13.887 85.1486 13.648L88.3102 6.30479C88.4131 6.06581 88.6902 5.95549 88.9292 6.05838Z" fill="url(#paint43_linear)"/>
</g>
<circle opacity="0.3" cx="50.5171" cy="164.518" r="4.51759" stroke="url(#paint44_linear)" stroke-width="2"/>
<circle opacity="0.3" cx="1075.09" cy="177.094" r="6.09404" stroke="url(#paint45_linear)" stroke-width="2"/>
<circle opacity="0.3" cx="842.166" cy="9.16537" r="7.67049" stroke="url(#paint46_linear)" stroke-width="2"/>
<circle opacity="0.3" cx="816.611" cy="599.612" r="11.6116" stroke="url(#paint47_linear)" stroke-width="2"/>
<defs>
<linearGradient id="paint0_linear" x1="66.9812" y1="618.635" x2="65.1429" y2="623.355" gradientUnits="userSpaceOnUse">
<stop stop-color="#FF4C02"/>
<stop offset="1" stop-color="#FF741C"/>
</linearGradient>
<linearGradient id="paint1_linear" x1="40.4621" y1="596.552" x2="38.6238" y2="601.271" gradientUnits="userSpaceOnUse">
<stop stop-color="#FF4C02"/>
<stop offset="1" stop-color="#FF741C"/>
</linearGradient>
<linearGradient id="paint2_linear" x1="40.9489" y1="621.245" x2="39.1106" y2="625.964" gradientUnits="userSpaceOnUse">
<stop stop-color="#FF4C02"/>
<stop offset="1" stop-color="#FF741C"/>
</linearGradient>
<linearGradient id="paint3_linear" x1="61.6037" y1="609.32" x2="59.7654" y2="614.04" gradientUnits="userSpaceOnUse">
<stop stop-color="#FF4C02"/>
<stop offset="1" stop-color="#FF741C"/>
</linearGradient>
<linearGradient id="paint4_linear" x1="35.0842" y1="587.237" x2="33.2459" y2="591.956" gradientUnits="userSpaceOnUse">
<stop stop-color="#FF4C02"/>
<stop offset="1" stop-color="#FF741C"/>
</linearGradient>
<linearGradient id="paint5_linear" x1="35.5705" y1="611.93" x2="33.7322" y2="616.65" gradientUnits="userSpaceOnUse">
<stop stop-color="#FF4C02"/>
<stop offset="1" stop-color="#FF741C"/>
</linearGradient>
<linearGradient id="paint6_linear" x1="56.1672" y1="599.904" x2="54.3289" y2="604.623" gradientUnits="userSpaceOnUse">
<stop stop-color="#FF4C02"/>
<stop offset="1" stop-color="#FF741C"/>
</linearGradient>
<linearGradient id="paint7_linear" x1="29.7063" y1="577.922" x2="27.8679" y2="582.641" gradientUnits="userSpaceOnUse">
<stop stop-color="#FF4C02"/>
<stop offset="1" stop-color="#FF741C"/>
</linearGradient>
<linearGradient id="paint8_linear" x1="30.1345" y1="602.514" x2="28.2962" y2="607.234" gradientUnits="userSpaceOnUse">
<stop stop-color="#FF4C02"/>
<stop offset="1" stop-color="#FF741C"/>
</linearGradient>
<linearGradient id="paint9_linear" x1="50.7893" y1="590.589" x2="48.951" y2="595.309" gradientUnits="userSpaceOnUse">
<stop stop-color="#FF4C02"/>
<stop offset="1" stop-color="#FF741C"/>
</linearGradient>
<linearGradient id="paint10_linear" x1="24.3278" y1="568.607" x2="22.4895" y2="573.327" gradientUnits="userSpaceOnUse">
<stop stop-color="#FF4C02"/>
<stop offset="1" stop-color="#FF741C"/>
</linearGradient>
<linearGradient id="paint11_linear" x1="24.7565" y1="593.199" x2="22.9182" y2="597.919" gradientUnits="userSpaceOnUse">
<stop stop-color="#FF4C02"/>
<stop offset="1" stop-color="#FF741C"/>
</linearGradient>
<linearGradient id="paint12_linear" x1="45.4113" y1="581.274" x2="43.573" y2="585.994" gradientUnits="userSpaceOnUse">
<stop stop-color="#FF4C02"/>
<stop offset="1" stop-color="#FF741C"/>
</linearGradient>
<linearGradient id="paint13_linear" x1="18.8913" y1="559.191" x2="17.053" y2="563.911" gradientUnits="userSpaceOnUse">
<stop stop-color="#FF4C02"/>
<stop offset="1" stop-color="#FF741C"/>
</linearGradient>
<linearGradient id="paint14_linear" x1="19.3786" y1="583.884" x2="17.5403" y2="588.604" gradientUnits="userSpaceOnUse">
<stop stop-color="#FF4C02"/>
<stop offset="1" stop-color="#FF741C"/>
</linearGradient>
<linearGradient id="paint15_linear" x1="40.0334" y1="571.96" x2="38.1951" y2="576.679" gradientUnits="userSpaceOnUse">
<stop stop-color="#FF4C02"/>
<stop offset="1" stop-color="#FF741C"/>
</linearGradient>
<linearGradient id="paint16_linear" x1="13.5139" y1="549.876" x2="11.6756" y2="554.596" gradientUnits="userSpaceOnUse">
<stop stop-color="#FF4C02"/>
<stop offset="1" stop-color="#FF741C"/>
</linearGradient>
<linearGradient id="paint17_linear" x1="14.0007" y1="574.569" x2="12.1624" y2="579.289" gradientUnits="userSpaceOnUse">
<stop stop-color="#FF4C02"/>
<stop offset="1" stop-color="#FF741C"/>
</linearGradient>
<linearGradient id="paint18_linear" x1="1190.51" y1="112.432" x2="1186.44" y2="107.346" gradientUnits="userSpaceOnUse">
<stop stop-color="#FF4C02"/>
<stop offset="1" stop-color="#FF741C"/>
</linearGradient>
<linearGradient id="paint19_linear" x1="1232.19" y1="97.0846" x2="1228.12" y2="91.9984" gradientUnits="userSpaceOnUse">
<stop stop-color="#FF4C02"/>
<stop offset="1" stop-color="#FF741C"/>
</linearGradient>
<linearGradient id="paint20_linear" x1="1204.36" y1="81.7363" x2="1200.28" y2="76.6501" gradientUnits="userSpaceOnUse">
<stop stop-color="#FF4C02"/>
<stop offset="1" stop-color="#FF741C"/>
</linearGradient>
<linearGradient id="paint21_linear" x1="1204.36" y1="112.432" x2="1200.28" y2="107.346" gradientUnits="userSpaceOnUse">
<stop stop-color="#FF4C02"/>
<stop offset="1" stop-color="#FF741C"/>
</linearGradient>
<linearGradient id="paint22_linear" x1="1246.04" y1="97.0841" x2="1241.96" y2="91.9979" gradientUnits="userSpaceOnUse">
<stop stop-color="#FF4C02"/>
<stop offset="1" stop-color="#FF741C"/>
</linearGradient>
<linearGradient id="paint23_linear" x1="1218.2" y1="81.736" x2="1214.12" y2="76.6499" gradientUnits="userSpaceOnUse">
<stop stop-color="#FF4C02"/>
<stop offset="1" stop-color="#FF741C"/>
</linearGradient>
<linearGradient id="paint24_linear" x1="1218.35" y1="112.432" x2="1214.27" y2="107.346" gradientUnits="userSpaceOnUse">
<stop stop-color="#FF4C02"/>
<stop offset="1" stop-color="#FF741C"/>
</linearGradient>
<linearGradient id="paint25_linear" x1="1259.88" y1="97.0841" x2="1255.8" y2="91.9979" gradientUnits="userSpaceOnUse">
<stop stop-color="#FF4C02"/>
<stop offset="1" stop-color="#FF741C"/>
</linearGradient>
<linearGradient id="paint26_linear" x1="1232.19" y1="81.736" x2="1228.12" y2="76.6499" gradientUnits="userSpaceOnUse">
<stop stop-color="#FF4C02"/>
<stop offset="1" stop-color="#FF741C"/>
</linearGradient>
<linearGradient id="paint27_linear" x1="1232.19" y1="112.432" x2="1228.12" y2="107.346" gradientUnits="userSpaceOnUse">
<stop stop-color="#FF4C02"/>
<stop offset="1" stop-color="#FF741C"/>
</linearGradient>
<linearGradient id="paint28_linear" x1="1273.73" y1="97.0842" x2="1269.65" y2="91.998" gradientUnits="userSpaceOnUse">
<stop stop-color="#FF4C02"/>
<stop offset="1" stop-color="#FF741C"/>
</linearGradient>
<linearGradient id="paint29_linear" x1="1246.04" y1="81.736" x2="1241.96" y2="76.6499" gradientUnits="userSpaceOnUse">
<stop stop-color="#FF4C02"/>
<stop offset="1" stop-color="#FF741C"/>
</linearGradient>
<linearGradient id="paint30_linear" x1="1246.04" y1="112.432" x2="1241.96" y2="107.346" gradientUnits="userSpaceOnUse">
<stop stop-color="#FF4C02"/>
<stop offset="1" stop-color="#FF741C"/>
</linearGradient>
<linearGradient id="paint31_linear" x1="1287.72" y1="97.0841" x2="1283.64" y2="91.9979" gradientUnits="userSpaceOnUse">
<stop stop-color="#FF4C02"/>
<stop offset="1" stop-color="#FF741C"/>
</linearGradient>
<linearGradient id="paint32_linear" x1="1259.88" y1="81.7363" x2="1255.8" y2="76.6501" gradientUnits="userSpaceOnUse">
<stop stop-color="#FF4C02"/>
<stop offset="1" stop-color="#FF741C"/>
</linearGradient>
<linearGradient id="paint33_linear" x1="1259.88" y1="112.432" x2="1255.8" y2="107.346" gradientUnits="userSpaceOnUse">
<stop stop-color="#FF4C02"/>
<stop offset="1" stop-color="#FF741C"/>
</linearGradient>
<linearGradient id="paint34_linear" x1="1301.56" y1="97.0841" x2="1297.48" y2="91.9979" gradientUnits="userSpaceOnUse">
<stop stop-color="#FF4C02"/>
<stop offset="1" stop-color="#FF741C"/>
</linearGradient>
<linearGradient id="paint35_linear" x1="1273.73" y1="81.7363" x2="1269.65" y2="76.6501" gradientUnits="userSpaceOnUse">
<stop stop-color="#FF4C02"/>
<stop offset="1" stop-color="#FF741C"/>
</linearGradient>
<linearGradient id="paint36_linear" x1="1294.3" y1="618.188" x2="1310.29" y2="605.372" gradientUnits="userSpaceOnUse">
<stop stop-color="#FF4C02"/>
<stop offset="1" stop-color="#FF741C"/>
</linearGradient>
<linearGradient id="paint37_linear" x1="1294.3" y1="618.188" x2="1310.29" y2="605.372" gradientUnits="userSpaceOnUse">
<stop stop-color="#FF4C02"/>
<stop offset="1" stop-color="#FF741C"/>
</linearGradient>
<linearGradient id="paint38_linear" x1="431.53" y1="44.2059" x2="448.408" y2="43.2344" gradientUnits="userSpaceOnUse">
<stop stop-color="#FF4C02"/>
<stop offset="1" stop-color="#FF741C"/>
</linearGradient>
<linearGradient id="paint39_linear" x1="431.53" y1="44.2059" x2="448.408" y2="43.2344" gradientUnits="userSpaceOnUse">
<stop stop-color="#FF4C02"/>
<stop offset="1" stop-color="#FF741C"/>
</linearGradient>
<linearGradient id="paint40_linear" x1="334.53" y1="652.206" x2="351.408" y2="651.234" gradientUnits="userSpaceOnUse">
<stop stop-color="#FF4C02"/>
<stop offset="1" stop-color="#FF741C"/>
</linearGradient>
<linearGradient id="paint41_linear" x1="334.53" y1="652.206" x2="351.408" y2="651.234" gradientUnits="userSpaceOnUse">
<stop stop-color="#FF4C02"/>
<stop offset="1" stop-color="#FF741C"/>
</linearGradient>
<linearGradient id="paint42_linear" x1="82.7586" y1="8.01709" x2="91.0421" y2="12.718" gradientUnits="userSpaceOnUse">
<stop stop-color="#FF4C02"/>
<stop offset="1" stop-color="#FF741C"/>
</linearGradient>
<linearGradient id="paint43_linear" x1="82.7586" y1="8.01709" x2="91.0421" y2="12.718" gradientUnits="userSpaceOnUse">
<stop stop-color="#FF4C02"/>
<stop offset="1" stop-color="#FF741C"/>
</linearGradient>
<linearGradient id="paint44_linear" x1="44.4568" y1="170.035" x2="56.8904" y2="160.067" gradientUnits="userSpaceOnUse">
<stop stop-color="#FF4C02"/>
<stop offset="1" stop-color="#FF741C"/>
</linearGradient>
<linearGradient id="paint45_linear" x1="1067.3" y1="184.188" x2="1083.29" y2="171.372" gradientUnits="userSpaceOnUse">
<stop stop-color="#FF4C02"/>
<stop offset="1" stop-color="#FF741C"/>
</linearGradient>
<linearGradient id="paint46_linear" x1="832.643" y1="17.8359" x2="852.181" y2="2.17214" gradientUnits="userSpaceOnUse">
<stop stop-color="#FF4C02"/>
<stop offset="1" stop-color="#FF741C"/>
</linearGradient>
<linearGradient id="paint47_linear" x1="802.759" y1="612.223" x2="831.179" y2="589.44" gradientUnits="userSpaceOnUse">
<stop stop-color="#FF4C02"/>
<stop offset="1" stop-color="#FF741C"/>
</linearGradient>
</defs>
</svg>
