<svg width="125" height="37" viewBox="0 0 125 37" fill="none" xmlns="http://www.w3.org/2000/svg">
<path fill-rule="evenodd" clip-rule="evenodd" d="M117.437 0.896766H7.06617C3.75167 0.896766 1.06474 3.5837 1.06474 6.8982V29.6623C1.06474 32.9768 3.75167 35.6637 7.06618 35.6637H117.437C120.752 35.6637 123.439 32.9768 123.439 29.6623V6.8982C123.439 3.5837 120.752 0.896766 117.437 0.896766ZM7.06617 0C3.2564 0 0.167969 3.08843 0.167969 6.8982V29.6623C0.167969 33.472 3.2564 36.5605 7.06618 36.5605H117.437C121.247 36.5605 124.336 33.472 124.336 29.6623V6.8982C124.336 3.08843 121.247 0 117.437 0H7.06617Z" fill="url(#paint0_linear)"/>
<path fill-rule="evenodd" clip-rule="evenodd" d="M21.756 11.0371C22.3067 10.7335 22.9574 10.7264 23.5116 11.0326L30.3779 14.8215L28.2098 16.989L21.756 11.0371ZM20.8623 12.5107C20.8623 12.1982 20.9526 11.9035 21.1102 11.646L27.5835 17.6157L21.0934 24.1041C20.9446 23.8518 20.8623 23.5633 20.8623 23.2606V12.5107ZM33.2528 16.4077L31.1847 15.2669L28.8608 17.5893L31.7088 20.2153L33.2537 19.363C33.8096 19.055 34.1425 18.5027 34.1425 17.8849C34.1416 17.2671 33.8096 16.7148 33.2528 16.4077ZM21.7283 24.7214L28.2361 18.2156L30.8938 20.6662L23.5131 24.7382C23.236 24.8914 22.9332 24.9675 22.6322 24.9675C22.3206 24.9675 22.0107 24.8825 21.7283 24.7214Z" fill="url(#paint1_linear)"/>
<path d="M44.2114 15.3854C43.334 15.3854 42.6083 15.0957 42.0344 14.5163C41.466 13.9368 41.1817 13.2249 41.1817 12.3806C41.1817 11.5362 41.466 10.8244 42.0344 10.2449C42.6083 9.66545 43.334 9.37573 44.2114 9.37573C44.7412 9.37573 45.2269 9.50266 45.6683 9.75651C46.1153 10.0104 46.463 10.3525 46.7113 10.783L46.0408 11.172C45.8753 10.8519 45.6269 10.5981 45.2958 10.4105C44.9702 10.2173 44.6088 10.1207 44.2114 10.1207C43.5437 10.1207 42.9974 10.336 42.5724 10.7664C42.153 11.1969 41.9433 11.7349 41.9433 12.3806C41.9433 13.0207 42.153 13.556 42.5724 13.9865C42.9974 14.4169 43.5437 14.6322 44.2114 14.6322C44.6088 14.6322 44.9702 14.5383 45.2958 14.3507C45.6269 14.1576 45.8753 13.9037 46.0408 13.5892L46.7113 13.9699C46.4685 14.4004 46.1236 14.7453 45.6766 15.0047C45.2296 15.2585 44.7412 15.3854 44.2114 15.3854ZM51.0345 15.2778H50.1405L48.2532 13.316V15.2778H47.533V11.1389H48.2532V12.9683L50.0412 11.1389H50.9683L48.9899 13.1421L51.0345 15.2778ZM54.7513 11.1389H55.4715V15.2778H54.7513V14.5659C54.3926 15.1123 53.8711 15.3854 53.1868 15.3854C52.6074 15.3854 52.1135 15.1757 51.7051 14.7563C51.2967 14.3314 51.0925 13.8154 51.0925 13.2084C51.0925 12.6013 51.2967 12.0881 51.7051 11.6687C52.1135 11.2438 52.6074 11.0313 53.1868 11.0313C53.8711 11.0313 54.3926 11.3045 54.7513 11.8508V11.1389ZM53.2779 14.6901C53.6973 14.6901 54.0477 14.5494 54.3292 14.2679C54.6106 13.981 54.7513 13.6278 54.7513 13.2084C54.7513 12.789 54.6106 12.4385 54.3292 12.1571C54.0477 11.8701 53.6973 11.7266 53.2779 11.7266C52.864 11.7266 52.5163 11.8701 52.2349 12.1571C51.9534 12.4385 51.8127 12.789 51.8127 13.2084C51.8127 13.6278 51.9534 13.981 52.2349 14.2679C52.5163 14.5494 52.864 14.6901 53.2779 14.6901ZM59.1701 11.1389H59.8903V15.2778H59.1701V13.7878C58.839 13.9313 58.4665 14.003 58.0526 14.003C57.5229 14.003 57.1117 13.8789 56.8192 13.6305C56.5323 13.3767 56.3888 13.0042 56.3888 12.513V11.1389H57.109V12.4716C57.109 12.7807 57.1917 13.0014 57.3573 13.1339C57.5284 13.2663 57.7767 13.3325 58.1023 13.3325C58.4941 13.3325 58.8501 13.2608 59.1701 13.1173V11.1389ZM64.4115 11.1389H65.1317V15.2778H64.4115V14.5659C64.0528 15.1123 63.5313 15.3854 62.847 15.3854C62.2675 15.3854 61.7736 15.1757 61.3653 14.7563C60.9569 14.3314 60.7527 13.8154 60.7527 13.2084C60.7527 12.6013 60.9569 12.0881 61.3653 11.6687C61.7736 11.2438 62.2675 11.0313 62.847 11.0313C63.5313 11.0313 64.0528 11.3045 64.4115 11.8508V11.1389ZM62.9381 14.6901C63.3575 14.6901 63.7079 14.5494 63.9893 14.2679C64.2708 13.981 64.4115 13.6278 64.4115 13.2084C64.4115 12.789 64.2708 12.4385 63.9893 12.1571C63.7079 11.8701 63.3575 11.7266 62.9381 11.7266C62.5242 11.7266 62.1765 11.8701 61.895 12.1571C61.6136 12.4385 61.4729 12.789 61.4729 13.2084C61.4729 13.6278 61.6136 13.981 61.895 14.2679C62.1765 14.5494 62.5242 14.6901 62.9381 14.6901ZM69.3022 11.1389V11.8342H67.8949V15.2778H67.1748V11.8342H65.7592V11.1389H69.3022ZM72.9381 11.1389H73.5176V15.2778H72.8057V12.3723L70.5127 15.2778H69.9333V11.1389H70.6452V14.0444L72.9381 11.1389ZM79.4398 13.1504C79.8647 13.327 80.0772 13.6471 80.0772 14.1107C80.0772 14.4528 79.9613 14.7343 79.7295 14.955C79.5033 15.1702 79.1777 15.2778 78.7527 15.2778H76.6833V11.1389H78.5872C79.0011 11.1389 79.3212 11.2438 79.5474 11.4535C79.7737 11.6577 79.8868 11.9281 79.8868 12.2647C79.8868 12.662 79.7378 12.9573 79.4398 13.1504ZM78.5541 11.7846H77.3869V12.869H78.5541C78.9735 12.869 79.1832 12.6841 79.1832 12.3144C79.1832 11.9612 78.9735 11.7846 78.5541 11.7846ZM78.7114 14.6239C78.9211 14.6239 79.0811 14.5742 79.1915 14.4749C79.3074 14.3755 79.3653 14.2348 79.3653 14.0527C79.3653 13.8816 79.3074 13.7492 79.1915 13.6554C79.0811 13.556 78.9211 13.5064 78.7114 13.5064H77.3869V14.6239H78.7114ZM49.1561 22.2824V22.8122C49.1561 23.8717 48.8066 24.74 48.1075 25.4169C47.4085 26.0865 46.4961 26.4213 45.3703 26.4213C44.1783 26.4213 43.1923 26.035 42.4124 25.2624C41.6398 24.4898 41.2535 23.5406 41.2535 22.4148C41.2535 21.2964 41.6398 20.3509 42.4124 19.5783C43.1923 18.7983 44.1563 18.4084 45.3041 18.4084C46.0252 18.4084 46.6838 18.5739 47.2798 18.905C47.8758 19.2361 48.3393 19.6813 48.6704 20.2405L47.5778 20.8696C47.3717 20.5017 47.0664 20.2074 46.6617 19.9867C46.257 19.7586 45.8045 19.6445 45.3041 19.6445C44.4947 19.6445 43.8288 19.9094 43.3064 20.4392C42.784 20.969 42.5228 21.6312 42.5228 22.4259C42.5228 23.2205 42.784 23.8791 43.3064 24.4015C43.8362 24.9239 44.5278 25.1852 45.3814 25.1852C46.0657 25.1852 46.6212 25.027 47.048 24.7106C47.4821 24.3868 47.758 23.9564 47.8758 23.4192H45.2931V22.2824H49.1561ZM52.8439 26.4213C52.0345 26.4213 51.3466 26.1417 50.78 25.5825C50.2134 25.0233 49.9301 24.3353 49.9301 23.5186C49.9301 22.7018 50.2134 22.0138 50.78 21.4546C51.3466 20.8954 52.0345 20.6158 52.8439 20.6158C53.6607 20.6158 54.3487 20.8954 54.9079 21.4546C55.4744 22.0138 55.7577 22.7018 55.7577 23.5186C55.7577 24.3353 55.4744 25.0233 54.9079 25.5825C54.3487 26.1417 53.6607 26.4213 52.8439 26.4213ZM51.6188 24.7657C51.9499 25.0969 52.3583 25.2624 52.8439 25.2624C53.3296 25.2624 53.7379 25.0969 54.0691 24.7657C54.4002 24.4346 54.5657 24.0189 54.5657 23.5186C54.5657 23.0182 54.4002 22.6025 54.0691 22.2714C53.7379 21.9402 53.3296 21.7747 52.8439 21.7747C52.3583 21.7747 51.9499 21.9402 51.6188 22.2714C51.2877 22.6025 51.1221 23.0182 51.1221 23.5186C51.1221 24.0189 51.2877 24.4346 51.6188 24.7657ZM59.4403 26.4213C58.631 26.4213 57.943 26.1417 57.3764 25.5825C56.8098 25.0233 56.5265 24.3353 56.5265 23.5186C56.5265 22.7018 56.8098 22.0138 57.3764 21.4546C57.943 20.8954 58.631 20.6158 59.4403 20.6158C60.2571 20.6158 60.9451 20.8954 61.5043 21.4546C62.0709 22.0138 62.3541 22.7018 62.3541 23.5186C62.3541 24.3353 62.0709 25.0233 61.5043 25.5825C60.9451 26.1417 60.2571 26.4213 59.4403 26.4213ZM58.2152 24.7657C58.5463 25.0969 58.9547 25.2624 59.4403 25.2624C59.926 25.2624 60.3343 25.0969 60.6655 24.7657C60.9966 24.4346 61.1621 24.0189 61.1621 23.5186C61.1621 23.0182 60.9966 22.6025 60.6655 22.2714C60.3343 21.9402 59.926 21.7747 59.4403 21.7747C58.9547 21.7747 58.5463 21.9402 58.2152 22.2714C57.8841 22.6025 57.7185 23.0182 57.7185 23.5186C57.7185 24.0189 57.8841 24.4346 58.2152 24.7657ZM67.8248 20.7593H68.9947V26.024C68.9947 26.8628 68.7188 27.5066 68.1669 27.9555C67.6151 28.4043 66.9455 28.6287 66.1582 28.6287C64.8852 28.6287 64.0133 28.1836 63.5424 27.2932L64.5688 26.6972C64.8558 27.2638 65.3929 27.5471 66.1802 27.5471C66.6953 27.5471 67.0963 27.411 67.3833 27.1387C67.6776 26.8738 67.8248 26.5023 67.8248 26.024V25.3507C67.3759 25.9909 66.7358 26.3109 65.9043 26.3109C65.1243 26.3109 64.4658 26.035 63.9287 25.4832C63.3915 24.9239 63.1229 24.2507 63.1229 23.4634C63.1229 22.676 63.3915 22.0065 63.9287 21.4546C64.4658 20.8954 65.1243 20.6158 65.9043 20.6158C66.7358 20.6158 67.3759 20.9359 67.8248 21.576V20.7593ZM64.8116 24.6995C65.1501 25.0306 65.5695 25.1962 66.0699 25.1962C66.5702 25.1962 66.9859 25.0306 67.3171 24.6995C67.6555 24.3684 67.8248 23.9564 67.8248 23.4634C67.8248 22.9704 67.6555 22.5583 67.3171 22.2272C66.9859 21.8961 66.5702 21.7305 66.0699 21.7305C65.5695 21.7305 65.1501 21.8961 64.8116 22.2272C64.4805 22.5583 64.315 22.9704 64.315 23.4634C64.315 23.9564 64.4805 24.3684 64.8116 24.6995ZM70.3841 26.2778V18.2207H71.5761V26.2778H70.3841ZM73.8983 24.0263C73.9866 24.4457 74.1889 24.7694 74.5053 24.9975C74.8217 25.2183 75.208 25.3286 75.6642 25.3286C76.297 25.3286 76.7716 25.1005 77.088 24.6443L78.0703 25.2183C77.5258 26.0203 76.7201 26.4213 75.6532 26.4213C74.7555 26.4213 74.0307 26.1491 73.4789 25.6046C72.927 25.0527 72.6511 24.3574 72.6511 23.5186C72.6511 22.6944 72.9233 22.0065 73.4678 21.4546C74.0123 20.8954 74.7114 20.6158 75.5649 20.6158C76.3743 20.6158 77.0365 20.8991 77.5516 21.4656C78.074 22.0322 78.3352 22.7202 78.3352 23.5296C78.3352 23.6547 78.3205 23.8202 78.2911 24.0263H73.8983ZM73.8872 23.055H77.1322C77.0512 22.6061 76.8636 22.2677 76.5693 22.0396C76.2823 21.8115 75.9438 21.6974 75.5539 21.6974C75.1124 21.6974 74.7445 21.8188 74.4501 22.0616C74.1558 22.3045 73.9682 22.6356 73.8872 23.055ZM85.0682 18.5518C85.7967 18.5518 86.4037 18.7947 86.8893 19.2803C87.3823 19.7659 87.6288 20.3693 87.6288 21.0904C87.6288 21.8041 87.3823 22.4075 86.8893 22.9005C86.4037 23.3861 85.7967 23.6289 85.0682 23.6289H83.4899V26.2778H82.2206V18.5518H85.0682ZM85.0682 22.4369C85.4435 22.4369 85.7525 22.3118 85.9953 22.0616C86.2381 21.8041 86.3595 21.4804 86.3595 21.0904C86.3595 20.7004 86.2381 20.3803 85.9953 20.1302C85.7525 19.8726 85.4435 19.7439 85.0682 19.7439H83.4899V22.4369H85.0682ZM88.6535 26.2778V18.2207H89.8456V26.2778H88.6535ZM95.6003 20.7593H96.7923V26.2778H95.6003V25.4832C95.1515 26.1086 94.5076 26.4213 93.6688 26.4213C92.9109 26.4213 92.2634 26.1417 91.7263 25.5825C91.1891 25.0159 90.9206 24.3279 90.9206 23.5186C90.9206 22.7018 91.1891 22.0138 91.7263 21.4546C92.2634 20.8954 92.9109 20.6158 93.6688 20.6158C94.5076 20.6158 95.1515 20.9248 95.6003 21.5429V20.7593ZM92.6092 24.7878C92.9403 25.1189 93.3561 25.2845 93.8564 25.2845C94.3568 25.2845 94.7725 25.1189 95.1036 24.7878C95.4347 24.4493 95.6003 24.0263 95.6003 23.5186C95.6003 23.0108 95.4347 22.5914 95.1036 22.2603C94.7725 21.9218 94.3568 21.7526 93.8564 21.7526C93.3561 21.7526 92.9403 21.9218 92.6092 22.2603C92.2781 22.5914 92.1126 23.0108 92.1126 23.5186C92.1126 24.0263 92.2781 24.4493 92.6092 24.7878ZM101.901 20.7593H103.17L101.051 26.4544C100.522 27.8819 99.6239 28.5588 98.3583 28.4853V27.3705C98.7335 27.3926 99.0352 27.3116 99.2633 27.1277C99.4914 26.9511 99.6791 26.6715 99.8262 26.2889L99.8814 26.1785L97.5415 20.7593H98.8439L100.488 24.7657L101.901 20.7593Z" fill="url(#paint2_linear)"/>
<defs>
<linearGradient id="paint0_linear" x1="7.41108" y1="34.4278" x2="31.1639" y2="-32.8801" gradientUnits="userSpaceOnUse">
<stop stop-color="#FF2A00"/>
<stop offset="1" stop-color="#FF9900"/>
</linearGradient>
<linearGradient id="paint1_linear" x1="21.637" y1="24.1414" x2="35.8656" y2="13.0083" gradientUnits="userSpaceOnUse">
<stop stop-color="#FF2A00"/>
<stop offset="1" stop-color="#FF9900"/>
</linearGradient>
<linearGradient id="paint2_linear" x1="44.529" y1="27.1157" x2="58.3336" y2="-9.02712" gradientUnits="userSpaceOnUse">
<stop stop-color="#FF2A00"/>
<stop offset="1" stop-color="#FF9900"/>
</linearGradient>
</defs>
</svg>
