<svg width="182" height="337" viewBox="0 0 182 337" fill="none" xmlns="http://www.w3.org/2000/svg">
<g filter="url(#filter0_d)">
<path d="M165.055 96.7452H165.591C165.887 96.7452 166.126 96.9851 166.126 97.2811V129.436C166.126 129.732 165.887 129.971 165.591 129.971H165.055V96.7452Z" fill="white"/>
<path d="M16.0723 137.117L15.5364 137.117C15.2404 137.117 15.0004 136.877 15.0004 136.581L15.0005 116.574C15.0005 116.278 15.2404 116.038 15.5364 116.038L16.0723 116.038L16.0723 137.117Z" fill="white"/>
<path d="M16.0723 110.321L15.5364 110.321C15.2404 110.321 15.0004 110.082 15.0004 109.786L15.0005 89.7784C15.0005 89.4824 15.2404 89.2424 15.5364 89.2424L16.0723 89.2424L16.0723 110.321Z" fill="white"/>
<path d="M16.0723 79.9534L15.5364 79.9534C15.2404 79.9534 15.0005 79.7134 15.0005 79.4175L15.0005 70.4857C15.0005 70.1897 15.2404 69.9498 15.5364 69.9498L16.0723 69.9498L16.0723 79.9534Z" fill="white"/>
<path d="M16.0723 43.5117C16.0723 34.8669 16.0723 30.5445 17.2089 27.0465C19.506 19.9766 25.0489 14.4337 32.1187 12.1366C35.6168 11 39.9392 11 48.584 11H132.543C141.188 11 145.51 11 149.008 12.1366C156.078 14.4337 161.621 19.9766 163.918 27.0465C165.055 30.5445 165.055 34.8669 165.055 43.5117V285.027C165.055 293.672 165.055 297.994 163.918 301.493C161.621 308.562 156.078 314.105 149.008 316.402C145.51 317.539 141.188 317.539 132.543 317.539H48.584C39.9392 317.539 35.6168 317.539 32.1187 316.402C25.0489 314.105 19.506 308.562 17.2089 301.493C16.0723 297.994 16.0723 293.672 16.0723 285.027V43.5117Z" fill="white"/>
<path d="M17.8584 42.7972C17.8584 34.8174 17.8584 30.8275 18.9076 27.5985C21.028 21.0725 26.1445 15.956 32.6705 13.8355C35.8995 12.7864 39.8894 12.7864 47.8692 12.7864H133.257C141.237 12.7864 145.227 12.7864 148.456 13.8355C154.982 15.956 160.098 21.0725 162.219 27.5985C163.268 30.8275 163.268 34.8174 163.268 42.7972V285.742C163.268 293.722 163.268 297.712 162.219 300.941C160.098 307.467 154.982 312.583 148.456 314.704C145.227 315.753 141.237 315.753 133.257 315.753H47.8692C39.8894 315.753 35.8995 315.753 32.6705 314.704C26.1445 312.583 21.028 307.467 18.9076 300.941C17.8584 297.712 17.8584 293.722 17.8584 285.742V42.7972Z" fill="white"/>
<path d="M133.258 11H135.401V12.7864H133.258V11Z" fill="#F5F5F5"/>
<path d="M163.269 41.7253H165.055V43.869H163.269V41.7253Z" fill="#F5F5F5"/>
<path d="M16.0723 41.7253H17.8586V43.869H16.0723V41.7253Z" fill="#F5F5F5"/>
<path d="M16.0723 284.67H17.8586V286.814H16.0723V284.67Z" fill="#F5F5F5"/>
<path d="M163.269 284.67H165.055V286.814H163.269V284.67Z" fill="#F5F5F5"/>
<path d="M45.7256 315.753H47.8692V317.539H45.7256V315.753Z" fill="#F5F5F5"/>
<mask id="mask0" mask-type="alpha" maskUnits="userSpaceOnUse" x="22" y="17" width="137" height="294">
<path d="M57.5157 21.468C57.5157 25.1578 60.587 28.149 64.3039 28.149H116.823C120.54 28.149 123.611 25.1578 123.611 21.468V19.646C123.611 18.6396 124.384 17.7881 125.397 17.7881H133.582C140.934 17.7881 144.609 17.7881 147.533 18.9193C151.943 20.6253 155.429 24.1115 157.135 28.5213C158.266 31.445 158.266 35.1207 158.266 42.472V286.067C158.266 293.418 158.266 297.094 157.135 300.018C155.429 304.428 151.943 307.914 147.533 309.62C144.609 310.751 140.934 310.751 133.582 310.751H47.5442C40.1929 310.751 36.5172 310.751 33.5935 309.62C29.1837 307.914 25.6975 304.428 23.9915 300.018C22.8604 297.094 22.8604 293.418 22.8604 286.067V42.472C22.8604 35.1207 22.8604 31.445 23.9915 28.5213C25.6975 24.1115 29.1837 20.6253 33.5935 18.9193C36.5172 17.7881 40.1929 17.7881 47.5442 17.7881H55.7293C56.743 17.7881 57.5157 18.6396 57.5157 19.646V21.468Z" fill="white"/>
</mask>
<g mask="url(#mask0)">
<rect x="22.8604" y="17.7881" width="135.406" height="292.963" fill="url(#paint0_linear)"/>
</g>
<path fill-rule="evenodd" clip-rule="evenodd" d="M104.318 24.219C105.699 24.219 106.819 23.0993 106.819 21.7181C106.819 20.3369 105.699 19.2172 104.318 19.2172C102.937 19.2172 101.817 20.3369 101.817 21.7181C101.817 23.0993 102.937 24.219 104.318 24.219Z" fill="#F5F5F5"/>
<rect width="15.3627" height="2.14363" transform="translate(82.8818 20.6464)" fill="#EBEBEB"/>
<path fill-rule="evenodd" clip-rule="evenodd" d="M82.8818 21.7182C82.8818 21.1262 83.3617 20.6464 83.9537 20.6464H97.1727C97.7646 20.6464 98.2445 21.1262 98.2445 21.7182V21.7182C98.2445 22.3101 97.7646 22.79 97.1727 22.79H83.9537C83.3617 22.79 82.8818 22.3101 82.8818 21.7182V21.7182Z" fill="#F5F5F5"/>
<path d="M125.073 155.974L123.252 152.821C122.875 152.168 122.041 151.944 121.387 152.321C120.734 152.698 120.511 153.533 120.888 154.186L122.708 157.34C122.804 157.506 122.783 157.664 122.762 157.744C122.74 157.823 122.68 157.971 122.513 158.067L117.699 160.847C117.444 160.994 117.118 160.906 116.971 160.652L107.285 143.877C107.139 143.622 107.226 143.296 107.481 143.148L112.295 140.369C112.549 140.222 112.876 140.309 113.023 140.564L114.745 143.546C115.122 144.199 115.956 144.423 116.609 144.046C117.262 143.669 117.486 142.834 117.109 142.181L115.387 139.199C114.488 137.641 112.488 137.105 110.93 138.004L106.115 140.784C105.384 141.206 104.878 141.871 104.64 142.619H90.9913C89.0751 142.619 87.2736 143.365 85.9184 144.72L84.52 146.118C83.2939 145.826 82.0377 145.676 80.7744 145.676H76.5366C76.3248 144.858 75.7988 144.122 75.0112 143.667L70.1967 140.887C69.4418 140.451 68.5621 140.336 67.7205 140.561C66.8787 140.787 66.1749 141.327 65.7392 142.082L56.0539 158.857C55.6181 159.612 55.5022 160.491 55.7277 161.333C55.9533 162.175 56.4933 162.879 57.2482 163.315L62.0627 166.094C62.5753 166.39 63.1354 166.531 63.6887 166.531C63.8903 166.531 64.0908 166.511 64.288 166.475L68.2285 170.415C68.1681 170.725 68.1369 171.043 68.1369 171.365C68.1369 172.677 68.6477 173.911 69.5753 174.838C70.4634 175.726 71.6099 176.202 72.775 176.266C72.7571 176.437 72.7474 176.61 72.7474 176.784C72.7474 178.096 73.2582 179.329 74.1858 180.257C75.1134 181.184 76.3467 181.695 77.6584 181.695C77.694 181.695 77.7293 181.694 77.7647 181.693C77.7639 181.728 77.7622 181.763 77.7622 181.799C77.7622 183.111 78.273 184.344 79.2006 185.272C80.1282 186.199 81.3614 186.71 82.6731 186.71C82.7088 186.71 82.744 186.708 82.7795 186.707C82.7787 186.743 82.7769 186.778 82.7769 186.814C82.7769 188.126 83.2877 189.359 84.2153 190.286C85.1429 191.214 86.3762 191.725 87.6879 191.725C88.9996 191.725 90.233 191.214 91.1605 190.286L93.1025 188.344C93.6719 187.775 94.0705 187.099 94.3013 186.38C95.1641 187.017 96.1893 187.336 97.2149 187.336C98.4723 187.335 99.7302 186.857 100.687 185.899C101.26 185.327 101.673 184.637 101.906 183.885C102.697 184.401 103.62 184.679 104.586 184.679C105.898 184.679 107.131 184.169 108.058 183.241C108.748 182.552 109.206 181.694 109.397 180.76C109.89 180.923 110.411 181.009 110.945 181.009C112.257 181.009 113.491 180.498 114.418 179.571C116.333 177.656 116.333 174.54 114.418 172.625L111.232 169.439L117.048 163.623C117.177 163.639 117.307 163.648 117.437 163.648C117.991 163.648 118.551 163.507 119.063 163.211L123.878 160.432C124.633 159.996 125.173 159.292 125.398 158.45C125.624 157.608 125.508 156.729 125.073 155.974ZM58.6132 160.95C58.4469 160.854 58.3863 160.706 58.365 160.627C58.3437 160.547 58.3223 160.389 58.4184 160.222L68.1037 143.447C68.1997 143.28 68.3477 143.22 68.4272 143.199C68.4612 143.19 68.5096 143.18 68.5666 143.18C68.6435 143.18 68.7362 143.197 68.8315 143.252L73.6459 146.031C73.9003 146.178 73.9879 146.505 73.841 146.759L64.1557 163.535C64.0087 163.789 63.6824 163.877 63.4278 163.73L58.6132 160.95ZM70.8671 171.365C70.8671 170.783 71.094 170.235 71.506 169.823L72.6841 168.645C73.1092 168.22 73.6676 168.007 74.2262 168.007C74.7846 168.007 75.3432 168.22 75.7683 168.645C76.1803 169.057 76.4071 169.605 76.4071 170.187C76.4071 170.77 76.1803 171.317 75.7683 171.729L74.5902 172.907C73.7399 173.758 72.3563 173.758 71.506 172.907C71.094 172.496 70.8671 171.948 70.8671 171.365ZM77.6585 178.965C77.0759 178.965 76.5284 178.738 76.1165 178.326C75.7045 177.914 75.4776 177.367 75.4776 176.784C75.4776 176.202 75.7045 175.654 76.1165 175.242L78.0584 173.3C78.4835 172.875 79.0419 172.663 79.6004 172.663C80.159 172.663 80.7175 172.875 81.1426 173.3C81.5546 173.712 81.7815 174.26 81.7815 174.842C81.7815 175.425 81.5546 175.973 81.1426 176.384L79.2007 178.326C78.7887 178.738 78.241 178.965 77.6585 178.965ZM82.6733 183.98C82.0907 183.98 81.5431 183.753 81.1313 183.341C80.7193 182.929 80.4924 182.382 80.4924 181.799C80.4924 181.217 80.7193 180.669 81.1313 180.257L83.0731 178.315C83.4982 177.89 84.0567 177.677 84.6152 177.677C85.1736 177.677 85.7322 177.89 86.1573 178.315C86.5693 178.727 86.7962 179.275 86.7962 179.857C86.7962 180.44 86.5693 180.987 86.1573 181.399L84.2154 183.341C83.8036 183.753 83.2559 183.98 82.6733 183.98ZM91.1721 186.414L89.2301 188.356C88.8182 188.768 88.2707 188.995 87.688 188.995C87.1054 188.995 86.5578 188.768 86.146 188.356C85.734 187.944 85.5071 187.397 85.5071 186.814C85.5071 186.231 85.734 185.684 86.146 185.272L88.0879 183.33C88.513 182.905 89.0714 182.692 89.63 182.692C90.1884 182.692 90.747 182.905 91.1721 183.33C92.0224 184.18 92.0224 185.564 91.1721 186.414ZM112.488 177.64C112.076 178.052 111.528 178.279 110.946 178.279C110.363 178.279 109.816 178.052 109.404 177.64L96.3736 164.61C95.8405 164.077 94.9764 164.077 94.4429 164.61C93.9098 165.143 93.9098 166.008 94.4429 166.541L106.128 178.226C106.54 178.638 106.767 179.186 106.767 179.768C106.767 180.351 106.54 180.899 106.128 181.311C105.716 181.722 105.169 181.949 104.586 181.949C104.004 181.949 103.456 181.722 103.044 181.311L89.0025 167.269C88.4694 166.736 87.605 166.736 87.0718 167.269C86.5387 167.802 86.5387 168.666 87.0718 169.199L98.7572 180.885C99.1692 181.297 99.396 181.844 99.396 182.427C99.396 183.009 99.1692 183.557 98.7572 183.969C97.907 184.819 96.5234 184.82 95.673 183.969L93.103 181.399C93.0995 181.396 93.0955 181.393 93.092 181.389C92.1088 180.412 90.8119 179.938 89.5238 179.966C89.5246 179.93 89.5264 179.894 89.5264 179.857C89.5264 178.546 89.0156 177.312 88.088 176.385C87.1036 175.4 85.8018 174.923 84.5089 174.951C84.5098 174.915 84.5115 174.879 84.5115 174.843C84.5115 173.531 84.0007 172.297 83.0731 171.37C81.9966 170.293 80.5404 169.822 79.1316 169.956C79.0753 168.731 78.5717 167.588 77.6988 166.715C75.784 164.8 72.6682 164.8 70.7534 166.715L69.5753 167.893C69.5739 167.894 69.5726 167.896 69.5712 167.897L66.5398 164.866L76.0428 148.406H80.7743C81.2379 148.406 81.7002 148.431 82.16 148.478L80.5995 150.039C79.6719 150.966 79.1611 152.2 79.1611 153.511C79.1611 154.823 79.6719 156.057 80.5995 156.984C81.557 157.942 82.8147 158.42 84.0721 158.42C85.3298 158.42 86.5875 157.942 87.5448 156.984L91.2301 153.299L112.488 174.556C113.338 175.406 113.338 176.79 112.488 177.64ZM99.372 157.579C101.359 156.142 102.576 153.821 102.576 151.301C102.576 150.547 101.965 149.936 101.211 149.936C100.457 149.936 99.846 150.547 99.846 151.301C99.846 153.084 98.9041 154.711 97.4012 155.609L92.2018 150.409C91.6685 149.876 90.8057 149.862 90.2725 150.395L85.6143 155.053C84.764 155.904 83.3804 155.904 82.5301 155.053C82.1181 154.642 81.8912 154.094 81.8912 153.511C81.8912 152.929 82.1181 152.381 82.5301 151.969L87.849 146.65C88.6882 145.811 89.8042 145.349 90.9913 145.349H104.983L114.606 162.017C114.629 162.057 114.654 162.094 114.678 162.132L109.302 167.509L99.372 157.579Z" fill="url(#paint1_linear)"/>
<path d="M118.999 149.549C119.358 149.549 119.709 149.403 119.964 149.149C120.218 148.894 120.364 148.543 120.364 148.184C120.364 147.824 120.218 147.473 119.964 147.218C119.709 146.964 119.358 146.819 118.999 146.819C118.639 146.819 118.288 146.964 118.034 147.218C117.778 147.473 117.634 147.824 117.634 148.184C117.634 148.543 117.778 148.894 118.034 149.149C118.288 149.403 118.639 149.549 118.999 149.549Z" fill="url(#paint2_linear)"/>
</g>
<defs>
<filter id="filter0_d" x="0" y="0" width="181.126" height="336.539" filterUnits="userSpaceOnUse" color-interpolation-filters="sRGB">
<feFlood flood-opacity="0" result="BackgroundImageFix"/>
<feColorMatrix in="SourceAlpha" type="matrix" values="0 0 0 0 0 0 0 0 0 0 0 0 0 0 0 0 0 0 127 0"/>
<feOffset dy="4"/>
<feGaussianBlur stdDeviation="7.5"/>
<feColorMatrix type="matrix" values="0 0 0 0 0.2 0 0 0 0 0.2 0 0 0 0 0.2 0 0 0 0.1 0"/>
<feBlend mode="normal" in2="BackgroundImageFix" result="effect1_dropShadow"/>
<feBlend mode="normal" in="SourceGraphic" in2="effect1_dropShadow" result="shape"/>
</filter>
<linearGradient id="paint0_linear" x1="-0.112459" y1="345.366" x2="185.469" y2="337.13" gradientUnits="userSpaceOnUse">
<stop stop-color="#F2F2F2"/>
<stop offset="1" stop-color="#F2F2F2" stop-opacity="0.03"/>
</linearGradient>
<linearGradient id="paint1_linear" x1="59.6925" y1="188.566" x2="115.599" y2="128.363" gradientUnits="userSpaceOnUse">
<stop stop-color="#FF2A00"/>
<stop offset="1" stop-color="#FF9900"/>
</linearGradient>
<linearGradient id="paint2_linear" x1="117.793" y1="149.39" x2="120.574" y2="147.07" gradientUnits="userSpaceOnUse">
<stop stop-color="#FF2A00"/>
<stop offset="1" stop-color="#FF9900"/>
</linearGradient>
</defs>
</svg>
