<svg width="41" height="56" viewBox="0 0 41 56" fill="none" xmlns="http://www.w3.org/2000/svg">
<path fill-rule="evenodd" clip-rule="evenodd" d="M35.8411 39.9457C35.8113 39.9315 35.7806 39.9194 35.7491 39.9094L29.6492 37.8504C30.208 37.6457 30.6895 37.2729 31.0276 36.7832C31.3657 36.2935 31.5436 35.711 31.5369 35.116V33.261C31.6511 33.2696 31.7776 33.2754 31.8834 33.2754C32.7702 33.2747 33.6319 32.9811 34.3346 32.4403C35.0374 31.8996 35.5419 31.1418 35.7698 30.2849L37.3728 24.201C37.8587 22.3421 36.9073 20.4406 35.3076 19.6122V15.0702C35.3076 6.76043 28.5346 0 20.2247 0C11.9149 0 5.14188 6.76043 5.14188 15.0702V19.6122C3.54219 20.4406 2.58385 22.3417 3.0697 24.201L4.66255 30.2849C4.79542 30.7935 5.02721 31.271 5.34466 31.69C5.66212 32.1091 6.05902 32.4615 6.51269 32.7271C6.96637 32.9927 7.46793 33.1663 7.98872 33.238C8.50951 33.3097 9.03933 33.2781 9.5479 33.145L12.2048 32.4509C12.9528 33.2191 13.8065 33.8768 14.7401 34.4041V36.5204L4.69431 39.9092C4.6646 39.9194 4.63562 39.9316 4.60758 39.9457C3.33448 40.5848 2.24558 41.5384 1.444 42.716C0.642412 43.8936 0.154675 45.2563 0.0269663 46.6752C0.0262506 46.6842 0.0199641 46.6933 0.0136413 46.7025C0.00684166 46.7124 0 46.7223 0 46.7323V55.0136C0.0101021 55.2036 0.0914144 55.3829 0.227741 55.5156C0.364067 55.6484 0.545404 55.7249 0.735632 55.73H39.7138C39.9041 55.7249 40.0854 55.6484 40.2217 55.5156C40.3581 55.3829 40.4394 55.2036 40.4495 55.0136V46.7321C40.4495 46.7222 40.4426 46.7124 40.4357 46.7027C40.4293 46.6934 40.4228 46.6842 40.4221 46.6749C40.2942 45.2561 39.8064 43.8934 39.0048 42.7159C38.2031 41.5383 37.1142 40.5848 35.8411 39.9457ZM14.7401 54.3588H6.28452V51.5C6.28454 51.4102 6.26688 51.3214 6.23255 51.2385C6.19823 51.1556 6.1479 51.0802 6.08446 51.0168C6.02102 50.9533 5.9457 50.903 5.86281 50.8687C5.77991 50.8343 5.69106 50.8167 5.60134 50.8167H5.59654C5.50681 50.8167 5.41796 50.8343 5.33507 50.8687C5.25217 50.903 5.17686 50.9533 5.11341 51.0168C5.04997 51.0802 4.99965 51.1556 4.96533 51.2385C4.931 51.3214 4.91334 51.4102 4.91335 51.5V54.3588H1.37117V46.7613C1.5997 45.2774 2.14017 43.8871 3.10227 42.7913C4.03962 44.0321 4.64493 45.4915 4.86091 47.0314C4.88763 47.211 4.98423 47.3727 5.12966 47.4813C5.27509 47.59 5.45757 47.6367 5.63732 47.6114C5.81708 47.5861 5.97955 47.4908 6.08932 47.3462C6.1991 47.2016 6.24729 47.0195 6.22339 46.8396C5.95785 45.0274 5.23834 43.3119 4.13179 41.8524C4.45978 41.6014 4.80992 41.3806 5.17788 41.193L14.7401 37.9675V54.3588ZM30.1657 35.116C30.1657 35.9698 29.5272 36.6479 28.6734 36.6479H26.0865L25.7094 36.5206V34.4019C26.6377 33.8735 27.4881 33.2188 28.2361 32.4564L30.1657 32.9676V35.116ZM30.3309 31.5789L29.1778 31.2775L32.0968 20.1036L33.2508 20.405L30.3309 31.5789ZM30.4093 19.6629C30.4045 19.7342 30.3804 19.8028 30.3394 19.8613L29.4532 20.2758L29.1397 18.9827C28.3718 15.8077 26.4487 13.0327 23.7454 11.1989C23.5971 11.0982 23.4153 11.0595 23.2388 11.0913C23.0624 11.123 22.9054 11.2226 22.8015 11.3687C21.8474 12.7085 20.554 13.7704 19.054 14.4453C17.5541 15.1202 15.9015 15.3837 14.266 15.209L13.4276 15.1188C13.2792 15.1029 13.129 15.1168 12.9861 15.1599C12.8431 15.2029 12.7102 15.2742 12.5953 15.3695C12.4803 15.4647 12.3856 15.5821 12.3168 15.7146C12.248 15.8471 12.2064 15.992 12.1945 16.1408L11.8784 20.0926C11.4053 20.0066 10.7169 19.86 10.0993 19.7165C10.0664 19.6848 10.0464 19.642 10.0431 19.5964L9.80317 16.1228C9.70464 14.6933 9.90112 13.2589 10.3804 11.9086C10.8597 10.5583 11.6116 9.32098 12.5893 8.27355C13.567 7.22612 14.7497 6.39095 16.0638 5.81993C17.378 5.24891 18.7955 4.95425 20.2283 4.95425C21.6612 4.95425 23.0787 5.24891 24.3929 5.81993C25.707 6.39095 26.8897 7.22612 27.8674 8.27355C28.8451 9.32098 29.597 10.5583 30.0763 11.9086C30.5556 13.2589 30.752 14.6933 30.6535 16.1228L30.4093 19.6629ZM36.047 23.8544L34.4574 29.9383C34.2989 30.5418 33.9314 31.0695 33.4203 31.4274C32.9091 31.7852 32.2875 31.9499 31.6662 31.8922L34.5685 20.7858C35.1383 21.0395 35.5997 21.4871 35.8704 22.049C36.1411 22.611 36.2037 23.2507 36.047 23.8544ZM6.51305 15.0702C6.51305 7.51652 12.6711 1.37117 20.2247 1.37117C27.7784 1.37117 33.9364 7.51652 33.9364 15.0702V19.1638L31.8556 18.6216L32.0214 16.2175C32.1328 14.6005 31.9106 12.9778 31.3684 11.4504C30.8263 9.92287 29.9757 8.52321 28.8698 7.33834C27.7638 6.15347 26.4259 5.2087 24.9393 4.56276C23.4528 3.91681 21.8492 3.58348 20.2284 3.58348C18.6076 3.58348 17.004 3.91681 15.5174 4.56276C14.0309 5.2087 12.693 6.15347 11.587 7.33834C10.481 8.52321 9.63053 9.92287 9.08836 11.4504C8.54619 12.9778 8.32395 14.6005 8.43543 16.2175L8.60123 18.6202L6.51305 19.1638V15.0702ZM5.99212 29.9383L4.40248 23.8544C4.24565 23.2506 4.30821 22.6107 4.57901 22.0486C4.84982 21.4866 5.31129 21.0389 5.88128 20.7852L8.78359 31.8917C8.16234 31.9494 7.54078 31.7847 7.02958 31.427C6.51838 31.0693 6.15074 30.5418 5.99212 29.9383ZM10.1185 31.5789L7.19864 20.405L8.3527 20.1036L11.2717 31.2775L10.1185 31.5789ZM12.5606 30.7871L10.032 21.1089C12.5121 21.6802 12.6557 21.5768 12.9043 21.3955C12.9859 21.3361 13.0537 21.2597 13.103 21.1717C13.1523 21.0836 13.182 20.9859 13.19 20.8853L13.5398 16.5105L14.1187 16.5729C15.8803 16.7609 17.6609 16.5064 19.2992 15.8323C20.9375 15.1582 22.3817 14.0859 23.5008 12.7126C25.6509 14.3507 27.1713 16.6791 27.8066 19.3064L28.3177 21.4135C28.3417 21.5122 28.3872 21.6044 28.4511 21.6833C28.5151 21.7622 28.5957 21.826 28.6872 21.8699C28.7788 21.9139 28.879 21.9369 28.9805 21.9375C29.0821 21.938 29.1825 21.9159 29.2745 21.8729L30.3502 21.3701L27.8876 30.7927C26.9654 31.9381 25.7981 32.8621 24.4716 33.4969C23.1451 34.1316 21.6932 34.4608 20.2227 34.4603C18.7521 34.4598 17.3004 34.1296 15.9743 33.494C14.6483 32.8584 13.4816 31.9336 12.5601 30.7875L12.5606 30.7871ZM23.5384 36.5336V38.2476H19.9962V36.5336H23.5384ZM16.1112 54.3588V41.6394C17.3829 42.2964 18.7934 42.6393 20.2247 42.6393C21.6561 42.6393 23.0666 42.2964 24.3382 41.6394V54.3588H16.1112ZM24.3382 40.0582C23.1116 40.8479 21.6836 41.2678 20.2247 41.2678C18.7659 41.2678 17.3379 40.8479 16.1112 40.0582V35.0546C16.9446 35.3869 17.8164 35.6133 18.7062 35.7288C18.6523 35.8575 18.6247 35.9958 18.625 36.1353V38.5854C18.625 39.1276 19.0171 39.6187 19.5594 39.6187H23.9737C24.0997 39.6188 24.2242 39.5912 24.3382 39.5378V40.0582ZM34.165 54.3588H25.7094V38.0191H25.861L35.265 41.1929C35.6493 41.3901 36.0138 41.6238 36.3535 41.8907C34.9383 43.7472 34.1697 46.0158 34.165 48.3502V54.3588ZM39.0783 54.3588H35.5361V48.3502C35.5501 46.3651 36.196 44.436 37.38 42.8426C38.317 43.9304 38.8498 45.3003 39.0783 46.7619V54.3588ZM9.02686 44.653C9.20869 44.653 9.38307 44.5808 9.51164 44.4522C9.64021 44.3236 9.71245 44.1493 9.71245 43.9674V43.2476C9.71245 43.0657 9.64021 42.8914 9.51164 42.7628C9.38307 42.6342 9.20869 42.562 9.02686 42.562C8.84503 42.562 8.67065 42.6342 8.54208 42.7628C8.41351 42.8914 8.34128 43.0657 8.34128 43.2476V43.9674C8.34128 44.1493 8.41351 44.3236 8.54208 44.4522C8.67065 44.5808 8.84503 44.653 9.02686 44.653ZM9.51164 51.8794C9.38307 52.0079 9.20869 52.0802 9.02686 52.0802C8.84503 52.0802 8.67065 52.0079 8.54208 51.8794C8.41351 51.7508 8.34128 51.5764 8.34128 51.3946V46.1385C8.34128 45.9566 8.41351 45.7822 8.54208 45.6537C8.67065 45.5251 8.84503 45.4529 9.02686 45.4529C9.20869 45.4529 9.38307 45.5251 9.51164 45.6537C9.64021 45.7822 9.71245 45.9566 9.71245 46.1385V51.3946C9.71245 51.5764 9.64021 51.7508 9.51164 51.8794Z" fill="url(#paint0_linear)"/>
<defs>
<linearGradient id="paint0_linear" x1="2.35955" y1="52.4791" x2="53.4818" y2="21.5201" gradientUnits="userSpaceOnUse">
<stop stop-color="#FF2A00"/>
<stop offset="1" stop-color="#FF9900"/>
</linearGradient>
</defs>
</svg>
