<svg width="49" height="65" viewBox="0 0 49 65" fill="none" xmlns="http://www.w3.org/2000/svg">
<path d="M16.0829 53.5579C16.0829 54.084 16.5078 54.51 17.0316 54.51H31.9642C32.4884 54.51 32.9128 54.084 32.9128 53.5579C32.9128 53.0317 32.4884 52.6057 31.9642 52.6057H17.0316C16.5078 52.6057 16.0829 53.0317 16.0829 53.5579ZM48.6508 59.7969L47.9447 58.2814C47.5647 57.4656 47.2624 56.6241 47.037 55.7627C47.0326 55.7433 47.0277 55.7245 47.0222 55.7051C46.7742 54.7421 46.623 53.7542 46.5721 52.7485L44.8447 18.6725C44.7183 16.1781 42.6697 14.2242 40.1815 14.2242H36.2193V11.7645C36.2193 5.27748 30.9611 0 24.4979 0C18.0351 0 12.7764 5.27748 12.7764 11.7645V14.2242H8.81477C6.32601 14.2242 4.27798 16.1781 4.15149 18.6725L4.0255 21.1575C3.99882 21.6827 4.40151 22.13 4.92475 22.1568C5.448 22.1851 5.89368 21.7794 5.92036 21.2542L6.04635 18.7692C6.12145 17.2884 7.33742 16.1285 8.81477 16.1285H12.7769V19.0489C11.1089 19.4744 9.87115 20.9939 9.87115 22.799C9.87115 24.9319 11.6 26.6671 13.7256 26.6671C15.8507 26.6671 17.58 24.9319 17.58 22.799C17.58 20.9939 16.3423 19.4744 14.6743 19.0489V16.1285H34.322V19.0489C32.6539 19.4744 31.4162 20.9939 31.4162 22.799C31.4162 24.9319 33.1455 26.6671 35.2706 26.6671C37.3962 26.6671 39.1251 24.9319 39.1251 22.799C39.1251 20.9939 37.8874 19.4744 36.2193 19.0489V16.1285H40.1815C41.6588 16.1285 42.8748 17.2884 42.9499 18.7692L44.6772 52.8457C44.7178 53.6402 44.8136 54.4247 44.9628 55.1973C38.92 56.1009 30.4646 56.508 24.4979 56.508C18.5317 56.508 10.0762 56.1009 4.0334 55.1973C4.18262 54.4247 4.27848 53.6402 4.31899 52.8457L5.69604 25.6792C5.72272 25.1541 5.32003 24.7068 4.79678 24.68C4.27403 24.6522 3.82786 25.0574 3.80118 25.5825L2.42413 52.7485C2.37275 53.7547 2.22155 54.7426 1.97352 55.7066C1.96808 55.7245 1.96364 55.7428 1.95919 55.7617C1.73388 56.6231 1.4315 57.4651 1.05104 58.2814L0.344979 59.7969C-0.185186 60.935 -0.100202 62.2477 0.571769 63.3075C1.24374 64.3672 2.39202 65 3.64406 65H42.3436C42.8679 65 43.2923 64.574 43.2923 64.0479C43.2923 63.5217 42.8679 63.0957 42.3436 63.0957H3.64406C3.03533 63.0957 2.49924 62.8001 2.17215 62.2849C1.84555 61.7696 1.80602 61.1567 2.06394 60.6038L2.77 59.0882C3.07931 58.4232 3.34266 57.7438 3.56154 57.0515C9.71897 57.9898 18.3992 58.4123 24.4979 58.4123C30.5965 58.4123 39.2768 57.9898 45.4342 57.0515C45.6531 57.7438 45.9164 58.4232 46.2257 59.0882L46.9318 60.6038C47.3528 61.5073 46.9348 62.4004 46.3038 62.8155C45.8655 63.1036 45.7425 63.6938 46.0301 64.1336C46.2119 64.4123 46.5153 64.5641 46.8241 64.5641C47.0025 64.5641 47.1828 64.514 47.3434 64.4084C48.8761 63.4007 49.426 61.4612 48.6508 59.7969ZM15.6822 22.799C15.6822 23.8816 14.8042 24.7628 13.7251 24.7628C12.6465 24.7628 11.7685 23.8821 11.7685 22.799C11.7685 22.0611 12.1761 21.4179 12.7764 21.0822V22.799C12.7764 23.3247 13.2014 23.7511 13.7251 23.7511C14.2493 23.7511 14.6738 23.3247 14.6738 22.799V21.0822C15.2746 21.4179 15.6822 22.0611 15.6822 22.799ZM14.6738 14.2242V11.7645C14.6738 6.32732 19.0811 1.9043 24.4979 1.9043C29.9151 1.9043 34.322 6.32732 34.322 11.7645V14.2242H14.6738ZM37.2278 22.799C37.2278 23.8816 36.3498 24.7628 35.2706 24.7628C34.1915 24.7628 33.3135 23.8821 33.3135 22.799C33.3135 22.0611 33.7212 21.4179 34.322 21.0822V22.799C34.322 23.3247 34.7464 23.7511 35.2706 23.7511C35.7944 23.7511 36.2193 23.3247 36.2193 22.799V21.0822C36.8196 21.4179 37.2278 22.0611 37.2278 22.799ZM32.5828 38.2312C32.5803 37.2171 31.9716 36.3205 31.0323 35.9471L20.3657 31.706C19.2787 31.2741 18.0899 31.5211 17.2633 32.3507C16.4362 33.1809 16.1901 34.374 16.621 35.4646L20.8465 46.1703C21.2186 47.1135 22.1119 47.724 23.1218 47.7264H23.1282C24.1362 47.7264 25.0295 47.1204 25.4055 46.1817L26.6368 43.1055L30.7699 47.2538C30.9552 47.4398 31.1983 47.5325 31.4409 47.5325C31.6835 47.5325 31.9266 47.4398 32.1119 47.2538C32.4825 46.8819 32.4825 46.2794 32.1119 45.9074L27.9788 41.7591L31.0437 40.5228C31.981 40.145 32.5852 39.2454 32.5828 38.2312ZM30.3361 38.7559L25.9401 40.5288C25.824 40.5754 25.7153 40.6453 25.6214 40.7396C25.5276 40.8343 25.4574 40.9439 25.411 41.0604L23.6451 45.4715C23.5186 45.7874 23.2424 45.8221 23.1282 45.8221H23.1268C23.0131 45.8221 22.7359 45.7869 22.6104 45.4691L18.3849 34.7633C18.1631 34.2015 18.4971 33.8052 18.6048 33.6976C18.6863 33.6153 18.9339 33.4021 19.2941 33.4021C19.4077 33.4021 19.5327 33.4234 19.6671 33.4764L30.3336 37.7175C30.6504 37.8434 30.6849 38.1221 30.6854 38.2357C30.6859 38.3498 30.6523 38.6285 30.3361 38.7559Z" fill="url(#paint0_linear)"/>
<defs>
<linearGradient id="paint0_linear" x1="2.85833" y1="61.2083" x2="63.5057" y2="23.0624" gradientUnits="userSpaceOnUse">
<stop stop-color="#FF2A00"/>
<stop offset="1" stop-color="#FF9900"/>
</linearGradient>
</defs>
</svg>
