<svg width="68" height="43" viewBox="0 0 68 43" fill="none" xmlns="http://www.w3.org/2000/svg">
<path fill-rule="evenodd" clip-rule="evenodd" d="M60.6148 11.0343L62.351 17.979C65.0047 18.383 67.0444 20.6799 67.0443 23.4445V34.6418C67.0443 35.2216 66.5742 35.6916 65.9945 35.6916H62.5633C62.5634 35.7021 62.5638 35.7126 62.5642 35.7231V35.7232C62.5647 35.7359 62.5651 35.7486 62.5651 35.7615C62.5651 39.4275 59.5826 42.4099 55.9167 42.4099C52.2509 42.4099 49.2683 39.4275 49.2683 35.7615C49.2683 35.7487 49.2688 35.736 49.2693 35.7233V35.7232V35.7232V35.7231C49.2697 35.7126 49.2701 35.7021 49.2702 35.6916H25.6121C25.6123 35.7022 25.6126 35.7127 25.613 35.7232V35.7233V35.7233C25.6133 35.7292 25.6135 35.7352 25.6136 35.7411C25.6138 35.7479 25.614 35.7547 25.614 35.7615C25.614 39.4275 22.6314 42.4099 18.9656 42.4099C15.2997 42.4099 12.3172 39.4275 12.3172 35.7615C12.3172 35.7487 12.3177 35.736 12.3181 35.7233L12.3187 35.7047L12.319 35.6916H6.64853C5.4522 35.6916 4.47901 34.7184 4.47901 33.5221V31.2126H1.04979C0.469966 31.2126 0 30.7426 0 30.1628C0 29.583 0.470097 29.113 1.04979 29.113H11.1274C11.7072 29.113 12.1772 29.583 12.1772 30.1628C12.1772 30.7426 11.7071 31.2126 11.1274 31.2126H6.57847V33.5221C6.57847 33.5607 6.60977 33.592 6.6484 33.592H12.6825C13.5841 30.9884 16.0592 29.113 18.9656 29.113C21.8719 29.113 24.3469 30.9884 25.2486 33.592H47.0286V25.684C47.0286 25.1042 47.4987 24.6342 48.0784 24.6342C48.6583 24.6342 49.1282 25.1043 49.1282 25.684V33.5923H49.6337C50.5352 30.9887 53.0104 29.1133 55.9167 29.1133C58.8231 29.1133 61.2981 30.9887 62.1998 33.5923H64.9447V28.9734H63.7549C61.9412 28.9734 60.4657 27.4979 60.4657 25.6842V23.4447C60.4657 22.8649 60.9358 22.3949 61.5155 22.3949H64.7797C64.3353 21.0167 63.0414 20.0166 61.5176 20.0155L61.5147 20.0156L61.5119 20.0154H49.1285V21.2054C49.1285 21.7852 48.6584 22.2552 48.0787 22.2552C47.4989 22.2552 47.0289 21.7851 47.0289 21.2054V2.16952C47.0289 2.13089 46.9976 2.09959 46.959 2.09959H6.6484C6.60977 2.09959 6.57847 2.13089 6.57847 2.16952V21.2052C6.57847 21.785 6.10837 22.2549 5.52868 22.2549C4.94885 22.2549 4.47888 21.7849 4.47888 21.2052V2.16952C4.47888 0.973192 5.45207 0 6.6484 0H46.9591C48.1554 0 49.1286 0.973192 49.1286 2.16952V4.47914H57.0367C59.4677 4.47914 61.4457 6.45695 61.4457 8.8881V10.0078C61.4457 10.5124 61.0895 10.9335 60.6148 11.0343ZM57.0367 6.5786H49.1286V8.95802H59.3462V8.8881C59.3462 7.61465 58.3102 6.5786 57.0367 6.5786ZM49.1286 11.0575V17.9159H60.1712L58.4566 11.0575H49.1286ZM14.4166 35.7618C14.4166 38.2702 16.4573 40.3107 18.9656 40.3107C21.4739 40.3107 23.5145 38.2702 23.5145 35.7618C23.5145 33.2534 21.4739 31.2128 18.9656 31.2128C16.4573 31.2128 14.4166 33.2534 14.4166 35.7618ZM51.3681 35.7618C51.3681 38.2702 53.4087 40.3107 55.917 40.3107C58.4253 40.3107 60.4659 38.2702 60.4659 35.7618C60.4659 33.2534 58.4253 31.2128 55.917 31.2128C53.4087 31.2128 51.3681 33.2534 51.3681 35.7618ZM63.7552 26.8738H64.9448V24.4943H62.5654V25.684C62.5654 26.3401 63.0991 26.8738 63.7552 26.8738ZM16.796 35.7617C16.796 34.5654 17.7692 33.5922 18.9656 33.5922C20.1619 33.5922 21.1351 34.5654 21.1351 35.7617C21.1351 36.9581 20.1619 37.9313 18.9656 37.9313C17.7692 37.9313 16.796 36.9581 16.796 35.7617ZM55.917 33.5922C54.7207 33.5922 53.7475 34.5654 53.7475 35.7617C53.7475 36.9581 54.7207 37.9313 55.917 37.9313C57.1134 37.9313 58.0866 36.9581 58.0866 35.7617C58.0866 34.5654 57.1134 33.5922 55.917 33.5922ZM27.9235 29.1134H43.5998C44.1797 29.1134 44.6496 29.5834 44.6496 30.1632C44.6496 30.743 44.1795 31.213 43.5998 31.213H27.9235C27.3437 31.213 26.8737 30.743 26.8737 30.1632C26.8737 29.5834 27.3438 29.1134 27.9235 29.1134ZM16.7261 24.6344H3.28921C2.70951 24.6344 2.23941 25.1044 2.23941 25.6842C2.23941 26.264 2.70938 26.734 3.28921 26.734H16.7261C17.3058 26.734 17.7759 26.264 17.7759 25.6842C17.7759 25.1044 17.3058 24.6344 16.7261 24.6344ZM30.0497 3.9999H43.4866C44.0663 3.9999 44.5364 4.46987 44.5364 5.0497C44.5364 5.62953 44.0663 6.09949 43.4866 6.09949H30.0497C29.4699 6.09949 28.9999 5.62953 28.9999 5.0497C28.9999 4.46987 29.47 3.9999 30.0497 3.9999Z" fill="url(#paint0_linear)"/>
<defs>
<linearGradient id="paint0_linear" x1="3.91092" y1="39.936" x2="46.1804" y2="-15.8178" gradientUnits="userSpaceOnUse">
<stop stop-color="#FF2A00"/>
<stop offset="1" stop-color="#FF9900"/>
</linearGradient>
</defs>
</svg>
