<svg width="56" height="56" viewBox="0 0 56 56" fill="none" xmlns="http://www.w3.org/2000/svg">
<path fill-rule="evenodd" clip-rule="evenodd" d="M27.9931 55.9998C27.2787 55.9998 26.5635 55.9725 25.847 55.9178C19.1931 55.4076 12.9263 52.5242 8.20096 47.7993C2.91253 42.5104 0 35.4792 0 27.9999C0 20.521 2.91253 13.4894 8.20096 8.20096C13.4894 2.91253 20.521 0 27.9999 0C35.4792 0 42.5104 2.91253 47.7993 8.20096C52.5242 12.9263 55.4076 19.1931 55.9178 25.847C56.4224 32.4287 54.5895 38.9891 50.7571 44.3202C50.4046 44.8107 49.721 44.9222 49.2305 44.5697C48.7401 44.2173 48.6286 43.5337 48.981 43.0432C56.3886 32.7393 55.241 18.7368 46.2522 9.74759C36.188 -0.316588 19.8122 -0.316588 9.74801 9.74759C-0.316588 19.8122 -0.316588 36.1876 9.74801 46.2522C18.7368 55.2406 32.7398 56.3886 43.0436 48.9806C43.5341 48.6281 44.2173 48.7401 44.5702 49.2305C44.9226 49.721 44.8107 50.4042 44.3202 50.7571C39.5693 54.1725 33.8416 55.9998 27.9931 55.9998ZM24.3363 41.7978C24.0462 41.7978 23.768 41.6825 23.563 41.4774L11.6702 29.5851C11.2429 29.1578 11.2429 28.4652 11.6702 28.038L17.8571 21.8511C18.2843 21.4238 18.9769 21.4238 19.4042 21.8511L24.3363 26.7832L36.5965 14.5225C36.8016 14.3175 37.0801 14.2021 37.3702 14.2021C37.6599 14.2021 37.9384 14.3175 38.1435 14.5225L44.3305 20.7099C44.7577 21.1367 44.7577 21.8293 44.3305 22.2565L25.1096 41.4778C24.9045 41.6829 24.6264 41.7978 24.3363 41.7978ZM13.9905 28.8117L24.3363 39.1575L42.0105 21.4832L37.3702 16.8425L25.1096 29.1031C24.6823 29.5304 23.9898 29.5304 23.563 29.1031L18.6308 24.171L13.9905 28.8117ZM46.2531 47.7993C46.4564 48.0026 46.7384 48.1197 47.0264 48.1197C47.3139 48.1197 47.5959 48.0026 47.7997 47.7993C48.003 47.5955 48.1201 47.3135 48.1201 47.026C48.1201 46.738 48.003 46.456 47.7997 46.2526C47.5959 46.0493 47.3139 45.9322 47.0264 45.9322C46.7384 45.9322 46.4564 46.0493 46.2531 46.2526C46.0497 46.456 45.9326 46.738 45.9326 47.026C45.9326 47.3135 46.0497 47.5955 46.2531 47.7993Z" fill="url(#paint0_linear)"/>
<defs>
<linearGradient id="paint0_linear" x1="3.26666" y1="52.7332" x2="60.2965" y2="5.14961" gradientUnits="userSpaceOnUse">
<stop stop-color="#FF2A00"/>
<stop offset="1" stop-color="#FF9900"/>
</linearGradient>
</defs>
</svg>
