<svg width="1239" height="407" viewBox="0 0 1239 407" fill="none" xmlns="http://www.w3.org/2000/svg">
<g opacity="0.25">
<path d="M1234.38 95.4917C1233.84 94.5727 1234.18 93.3043 1235.1 92.7737C1236.02 92.2432 1237.29 92.583 1237.82 93.502C1238.35 94.421 1238.01 95.6894 1237.09 96.22C1236.17 96.7506 1234.91 96.4107 1234.38 95.4917Z" fill="url(#paint0_linear)"/>
<path d="M1204.29 70.4353C1203.76 69.5163 1204.1 68.2479 1205.02 67.7173C1205.93 67.1867 1207.2 67.5266 1207.73 68.4456C1208.26 69.3646 1207.92 70.633 1207.01 71.1636C1206.09 71.6941 1204.88 71.4692 1204.29 70.4353Z" fill="url(#paint1_linear)"/>
<path d="M1204.84 98.4522C1204.31 97.5332 1204.65 96.2648 1205.57 95.7342C1206.49 95.2036 1207.76 95.5435 1208.29 96.4625C1208.82 97.3815 1208.48 98.6499 1207.56 99.1805C1206.64 99.711 1205.37 99.3712 1204.84 98.4522Z" fill="url(#paint2_linear)"/>
<path d="M1229 82.2045C1228.05 82.7539 1227.73 83.9708 1228.27 84.9225C1228.82 85.8741 1230.04 86.2002 1230.99 85.6507C1231.94 85.1013 1232.27 83.8844 1231.72 82.9327C1231.17 81.9811 1229.95 81.655 1229 82.2045Z" fill="url(#paint3_linear)"/>
<path d="M1198.91 57.1489C1197.96 57.6983 1197.64 58.9152 1198.19 59.8669C1198.74 60.8185 1199.95 61.1446 1200.9 60.5951C1201.86 60.0457 1202.18 58.8288 1201.63 57.8771C1201.08 56.9255 1199.87 56.5994 1198.91 57.1489Z" fill="url(#paint4_linear)"/>
<path d="M1198.74 87.8838C1198.21 86.9648 1198.55 85.6964 1199.47 85.1658C1200.38 84.6352 1201.65 84.975 1202.18 85.8941C1202.71 86.8131 1202.37 88.0815 1201.46 88.612C1200.54 89.1426 1199.27 88.8028 1198.74 87.8838Z" fill="url(#paint5_linear)"/>
<path d="M1222.84 71.5209C1221.88 72.0703 1221.56 73.2872 1222.11 74.2389C1222.66 75.1905 1223.87 75.5166 1224.82 74.9671C1225.78 74.4177 1226.1 73.2008 1225.55 72.2492C1225 71.2975 1223.79 70.9714 1222.84 71.5209Z" fill="url(#paint6_linear)"/>
<path d="M1192.81 46.5803C1191.86 47.1297 1191.53 48.3466 1192.08 49.2982C1192.63 50.2499 1193.85 50.576 1194.8 50.0265C1195.75 49.4771 1196.08 48.2602 1195.53 47.3085C1194.98 46.3569 1193.76 46.0308 1192.81 46.5803Z" fill="url(#paint7_linear)"/>
<path d="M1192.57 77.2005C1192.04 76.2815 1192.38 75.0131 1193.3 74.4825C1194.22 73.952 1195.49 74.2918 1196.02 75.2108C1196.55 76.1298 1196.21 77.3982 1195.29 77.9288C1194.37 78.4594 1193.17 78.2344 1192.57 77.2005Z" fill="url(#paint8_linear)"/>
<path d="M1216 63.6704C1215.47 62.7514 1215.81 61.483 1216.73 60.9524C1217.65 60.4218 1218.92 60.7617 1219.45 61.6807C1219.98 62.5997 1219.64 63.8681 1218.72 64.3987C1217.8 64.9292 1216.53 64.5894 1216 63.6704Z" fill="url(#paint9_linear)"/>
<path d="M1185.98 38.7298C1185.45 37.8108 1185.79 36.5424 1186.71 36.0118C1187.63 35.4812 1188.9 35.8211 1189.43 36.7401C1189.96 37.6591 1189.62 38.9275 1188.7 39.458C1187.78 39.9886 1186.51 39.6488 1185.98 38.7298Z" fill="url(#paint10_linear)"/>
<path d="M1187.2 63.9139C1186.25 64.4634 1185.92 65.6803 1186.47 66.6319C1187.02 67.5836 1188.24 67.9097 1189.19 67.3602C1190.14 66.8108 1190.46 65.5939 1189.92 64.6422C1189.37 63.6906 1188.15 63.3645 1187.2 63.9139Z" fill="url(#paint11_linear)"/>
<path d="M1209.9 53.1018C1209.37 52.1828 1209.71 50.9144 1210.63 50.3838C1211.55 49.8532 1212.82 50.1931 1213.35 51.1121C1213.88 52.0311 1213.54 53.2995 1212.62 53.8301C1211.7 54.3606 1210.43 54.0208 1209.9 53.1018Z" fill="url(#paint12_linear)"/>
<path d="M1179.81 28.0464C1179.28 27.1274 1179.62 25.859 1180.54 25.3284C1181.46 24.7978 1182.73 25.1376 1183.26 26.0567C1183.79 26.9757 1183.45 28.244 1182.53 28.7746C1181.61 29.3052 1180.41 29.0802 1179.81 28.0464Z" fill="url(#paint13_linear)"/>
<path d="M1180.37 56.0631C1179.84 55.1441 1180.18 53.8757 1181.09 53.3452C1182.01 52.8146 1183.28 53.1544 1183.81 54.0734C1184.34 54.9924 1184 56.2608 1183.08 56.7914C1182.17 57.322 1180.9 56.9821 1180.37 56.0631Z" fill="url(#paint14_linear)"/>
<path d="M1203.8 42.5334C1203.27 41.6143 1203.61 40.346 1204.53 39.8154C1205.45 39.2848 1206.72 39.6246 1207.25 40.5437C1207.78 41.4627 1207.44 42.731 1206.52 43.2616C1205.6 43.7922 1204.33 43.4524 1203.8 42.5334Z" fill="url(#paint15_linear)"/>
<path d="M1173.71 17.4777C1173.18 16.5587 1173.52 15.2903 1174.44 14.7597C1175.36 14.2291 1176.63 14.569 1177.16 15.488C1177.69 16.407 1177.35 17.6754 1176.43 18.2059C1175.51 18.7365 1174.24 18.3967 1173.71 17.4777Z" fill="url(#paint16_linear)"/>
<path d="M1174.26 45.4947C1173.73 44.5757 1174.07 43.3073 1174.99 42.7767C1175.91 42.2461 1177.18 42.5859 1177.71 43.505C1178.24 44.424 1177.9 45.6924 1176.98 46.2229C1176.06 46.7535 1174.8 46.4137 1174.26 45.4947Z" fill="url(#paint17_linear)"/>
</g>
<g opacity="0.25">
<path d="M30.6944 356.305C30.6944 355.101 31.7477 354.048 32.9514 354.048C34.1552 354.048 35.2085 355.101 35.2085 356.305C35.2085 357.509 34.1552 358.562 32.9514 358.562C31.7477 358.562 30.6944 357.509 30.6944 356.305Z" fill="url(#paint18_linear)"/>
<path d="M15.3487 314.624C15.3487 313.421 16.402 312.367 17.6057 312.367C18.8095 312.367 19.8628 313.421 19.8628 314.624C19.8628 315.828 18.8095 316.881 17.6057 316.881C16.402 316.881 15.3487 315.979 15.3487 314.624Z" fill="url(#paint19_linear)"/>
<path d="M0.000511449 342.462C0.000511344 341.258 1.05381 340.205 2.25758 340.205C3.46135 340.205 4.51465 341.258 4.51465 342.462C4.51465 343.665 3.46135 344.719 2.25758 344.719C1.05381 344.719 0.000511554 343.665 0.000511449 342.462Z" fill="url(#paint20_linear)"/>
<path d="M32.9529 340.205C31.7063 340.205 30.6958 341.215 30.6958 342.462C30.6958 343.708 31.7063 344.719 32.9529 344.719C34.1994 344.719 35.21 343.708 35.21 342.462C35.21 341.215 34.1994 340.205 32.9529 340.205Z" fill="url(#paint21_linear)"/>
<path d="M17.6052 298.524C16.3587 298.524 15.3482 299.535 15.3482 300.781C15.3482 302.028 16.3587 303.038 17.6052 303.038C18.8518 303.038 19.8623 302.028 19.8623 300.781C19.8623 299.535 18.8518 298.524 17.6052 298.524Z" fill="url(#paint22_linear)"/>
<path d="M2.31677e-05 328.618C2.30625e-05 327.414 1.05332 326.361 2.25709 326.361C3.46086 326.361 4.51416 327.414 4.51416 328.618C4.51416 329.822 3.46086 330.875 2.25709 330.875C1.05332 330.875 2.32729e-05 329.822 2.31677e-05 328.618Z" fill="url(#paint23_linear)"/>
<path d="M32.9534 326.211C31.7068 326.211 30.6963 327.221 30.6963 328.468C30.6963 329.714 31.7068 330.725 32.9534 330.725C34.1999 330.725 35.2104 329.714 35.2104 328.468C35.2104 327.221 34.1999 326.211 32.9534 326.211Z" fill="url(#paint24_linear)"/>
<path d="M17.6052 284.681C16.3587 284.681 15.3482 285.691 15.3482 286.938C15.3482 288.184 16.3587 289.195 17.6052 289.195C18.8518 289.195 19.8623 288.184 19.8623 286.938C19.8623 285.691 18.8518 284.681 17.6052 284.681Z" fill="url(#paint25_linear)"/>
<path d="M2.31677e-05 314.624C2.30625e-05 313.421 1.05332 312.367 2.25709 312.367C3.46086 312.367 4.51416 313.421 4.51416 314.624C4.51416 315.828 3.46086 316.881 2.25709 316.881C1.05332 316.881 2.32861e-05 315.979 2.31677e-05 314.624Z" fill="url(#paint26_linear)"/>
<path d="M30.6963 314.624C30.6963 313.421 31.7496 312.367 32.9534 312.367C34.1572 312.367 35.2104 313.421 35.2104 314.624C35.2104 315.828 34.1572 316.881 32.9534 316.881C31.7496 316.881 30.6963 315.828 30.6963 314.624Z" fill="url(#paint27_linear)"/>
<path d="M15.3482 273.094C15.3482 271.89 16.4015 270.837 17.6052 270.837C18.809 270.837 19.8623 271.89 19.8623 273.094C19.8623 274.298 18.809 275.351 17.6052 275.351C16.4015 275.351 15.3482 274.298 15.3482 273.094Z" fill="url(#paint28_linear)"/>
<path d="M2.25709 298.524C1.01055 298.524 2.30587e-05 299.535 2.31677e-05 300.782C2.32767e-05 302.028 1.01055 303.039 2.25709 303.039C3.50364 303.039 4.51416 302.028 4.51416 300.782C4.51416 299.535 3.50364 298.524 2.25709 298.524Z" fill="url(#paint29_linear)"/>
<path d="M30.6963 300.781C30.6963 299.577 31.7496 298.524 32.9534 298.524C34.1572 298.524 35.2104 299.577 35.2104 300.781C35.2104 301.985 34.1572 303.038 32.9534 303.038C31.7496 303.038 30.6963 301.985 30.6963 300.781Z" fill="url(#paint30_linear)"/>
<path d="M15.3482 259.101C15.3482 257.897 16.4015 256.844 17.6052 256.844C18.809 256.844 19.8623 257.897 19.8623 259.101C19.8623 260.304 18.809 261.358 17.6052 261.358C16.4015 261.358 15.3482 260.455 15.3482 259.101Z" fill="url(#paint31_linear)"/>
<path d="M0.000511449 286.938C0.000511344 285.734 1.05381 284.681 2.25758 284.681C3.46135 284.681 4.51465 285.734 4.51465 286.938C4.51465 288.141 3.46135 289.195 2.25758 289.195C1.05381 289.195 0.000511554 288.141 0.000511449 286.938Z" fill="url(#paint32_linear)"/>
<path d="M30.6963 286.938C30.6963 285.734 31.7496 284.681 32.9534 284.681C34.1572 284.681 35.2104 285.734 35.2104 286.938C35.2104 288.142 34.1572 289.195 32.9534 289.195C31.7496 289.195 30.6963 288.142 30.6963 286.938Z" fill="url(#paint33_linear)"/>
<path d="M15.3482 245.257C15.3482 244.053 16.4015 243 17.6052 243C18.809 243 19.8623 244.053 19.8623 245.257C19.8623 246.461 18.809 247.514 17.6052 247.514C16.4015 247.514 15.3482 246.461 15.3482 245.257Z" fill="url(#paint34_linear)"/>
<path d="M0.000511449 273.094C0.000511344 271.89 1.05381 270.837 2.25758 270.837C3.46135 270.837 4.51465 271.89 4.51465 273.094C4.51465 274.298 3.46135 275.351 2.25758 275.351C1.05381 275.351 0.000511554 274.298 0.000511449 273.094Z" fill="url(#paint35_linear)"/>
</g>
<g opacity="0.4">
<path fill-rule="evenodd" clip-rule="evenodd" d="M1210.03 318.214C1210.32 318.5 1210.32 318.964 1210.03 319.249L1201.25 328.033C1200.96 328.318 1200.5 328.318 1200.21 328.033C1199.93 327.747 1199.93 327.283 1200.21 326.997L1209 318.214C1209.28 317.929 1209.75 317.929 1210.03 318.214Z" fill="url(#paint36_linear)"/>
<path fill-rule="evenodd" clip-rule="evenodd" d="M1200.21 318.214C1200.5 317.929 1200.96 317.929 1201.25 318.214L1210.03 326.997C1210.32 327.283 1210.32 327.747 1210.03 328.033C1209.75 328.318 1209.28 328.318 1209 328.033L1200.21 319.249C1199.93 318.964 1199.93 318.5 1200.21 318.214Z" fill="url(#paint37_linear)"/>
</g>
<g opacity="0.4">
<path fill-rule="evenodd" clip-rule="evenodd" d="M457.033 392.214C457.318 392.5 457.318 392.964 457.033 393.249L448.249 402.033C447.964 402.318 447.5 402.318 447.214 402.033C446.929 401.747 446.929 401.283 447.214 400.997L455.997 392.214C456.283 391.929 456.747 391.929 457.033 392.214Z" fill="url(#paint38_linear)"/>
<path fill-rule="evenodd" clip-rule="evenodd" d="M447.214 392.214C447.5 391.929 447.964 391.929 448.249 392.214L457.033 400.997C457.318 401.283 457.318 401.747 457.033 402.033C456.747 402.318 456.283 402.318 455.997 402.033L447.214 393.249C446.929 392.964 446.929 392.5 447.214 392.214Z" fill="url(#paint39_linear)"/>
</g>
<g opacity="0.3">
<path fill-rule="evenodd" clip-rule="evenodd" d="M967.891 0.296828C968.287 0.692599 968.287 1.33427 967.891 1.73004L955.73 13.8913C955.334 14.287 954.693 14.287 954.297 13.8913C953.901 13.4955 953.901 12.8538 954.297 12.458L966.458 0.296828C966.854 -0.0989427 967.495 -0.0989427 967.891 0.296828Z" fill="url(#paint40_linear)"/>
<path fill-rule="evenodd" clip-rule="evenodd" d="M954.297 0.296828C954.693 -0.0989427 955.334 -0.0989427 955.73 0.296828L967.891 12.458C968.287 12.8538 968.287 13.4955 967.891 13.8913C967.495 14.287 966.854 14.287 966.458 13.8913L954.297 1.73004C953.901 1.33427 953.901 0.692599 954.297 0.296828Z" fill="url(#paint41_linear)"/>
</g>
<circle opacity="0.3" cx="929.459" cy="397.459" r="7.95872" stroke="url(#paint42_linear)" stroke-width="3"/>
<circle opacity="0.3" cx="250.67" cy="34.6705" r="7.67049" stroke="url(#paint43_linear)" stroke-width="2"/>
<circle opacity="0.4" cx="90.5" cy="213.5" r="5.5" stroke="url(#paint44_linear)" stroke-width="2"/>
<defs>
<linearGradient id="paint0_linear" x1="1237" y1="91.681" x2="1234.91" y2="97.0358" gradientUnits="userSpaceOnUse">
<stop stop-color="#FF4C02"/>
<stop offset="1" stop-color="#FF741C"/>
</linearGradient>
<linearGradient id="paint1_linear" x1="1206.91" y1="66.6246" x2="1204.82" y2="71.9794" gradientUnits="userSpaceOnUse">
<stop stop-color="#FF4C02"/>
<stop offset="1" stop-color="#FF741C"/>
</linearGradient>
<linearGradient id="paint2_linear" x1="1207.46" y1="94.6415" x2="1205.38" y2="99.9963" gradientUnits="userSpaceOnUse">
<stop stop-color="#FF4C02"/>
<stop offset="1" stop-color="#FF741C"/>
</linearGradient>
<linearGradient id="paint3_linear" x1="1230.9" y1="81.1118" x2="1228.81" y2="86.4665" gradientUnits="userSpaceOnUse">
<stop stop-color="#FF4C02"/>
<stop offset="1" stop-color="#FF741C"/>
</linearGradient>
<linearGradient id="paint4_linear" x1="1200.81" y1="56.0562" x2="1198.72" y2="61.4109" gradientUnits="userSpaceOnUse">
<stop stop-color="#FF4C02"/>
<stop offset="1" stop-color="#FF741C"/>
</linearGradient>
<linearGradient id="paint5_linear" x1="1201.36" y1="84.0731" x2="1199.27" y2="89.4278" gradientUnits="userSpaceOnUse">
<stop stop-color="#FF4C02"/>
<stop offset="1" stop-color="#FF741C"/>
</linearGradient>
<linearGradient id="paint6_linear" x1="1224.73" y1="70.4282" x2="1222.64" y2="75.7829" gradientUnits="userSpaceOnUse">
<stop stop-color="#FF4C02"/>
<stop offset="1" stop-color="#FF741C"/>
</linearGradient>
<linearGradient id="paint7_linear" x1="1194.71" y1="45.4876" x2="1192.62" y2="50.8423" gradientUnits="userSpaceOnUse">
<stop stop-color="#FF4C02"/>
<stop offset="1" stop-color="#FF741C"/>
</linearGradient>
<linearGradient id="paint8_linear" x1="1195.19" y1="73.3898" x2="1193.11" y2="78.7446" gradientUnits="userSpaceOnUse">
<stop stop-color="#FF4C02"/>
<stop offset="1" stop-color="#FF741C"/>
</linearGradient>
<linearGradient id="paint9_linear" x1="1218.63" y1="59.8597" x2="1216.54" y2="65.2145" gradientUnits="userSpaceOnUse">
<stop stop-color="#FF4C02"/>
<stop offset="1" stop-color="#FF741C"/>
</linearGradient>
<linearGradient id="paint10_linear" x1="1188.6" y1="34.9191" x2="1186.52" y2="40.2739" gradientUnits="userSpaceOnUse">
<stop stop-color="#FF4C02"/>
<stop offset="1" stop-color="#FF741C"/>
</linearGradient>
<linearGradient id="paint11_linear" x1="1189.09" y1="62.8212" x2="1187" y2="68.176" gradientUnits="userSpaceOnUse">
<stop stop-color="#FF4C02"/>
<stop offset="1" stop-color="#FF741C"/>
</linearGradient>
<linearGradient id="paint12_linear" x1="1212.52" y1="49.2911" x2="1210.44" y2="54.6459" gradientUnits="userSpaceOnUse">
<stop stop-color="#FF4C02"/>
<stop offset="1" stop-color="#FF741C"/>
</linearGradient>
<linearGradient id="paint13_linear" x1="1182.43" y1="24.2357" x2="1180.35" y2="29.5904" gradientUnits="userSpaceOnUse">
<stop stop-color="#FF4C02"/>
<stop offset="1" stop-color="#FF741C"/>
</linearGradient>
<linearGradient id="paint14_linear" x1="1182.99" y1="52.2524" x2="1180.9" y2="57.6072" gradientUnits="userSpaceOnUse">
<stop stop-color="#FF4C02"/>
<stop offset="1" stop-color="#FF741C"/>
</linearGradient>
<linearGradient id="paint15_linear" x1="1206.42" y1="38.7227" x2="1204.34" y2="44.0774" gradientUnits="userSpaceOnUse">
<stop stop-color="#FF4C02"/>
<stop offset="1" stop-color="#FF741C"/>
</linearGradient>
<linearGradient id="paint16_linear" x1="1176.33" y1="13.667" x2="1174.25" y2="19.0217" gradientUnits="userSpaceOnUse">
<stop stop-color="#FF4C02"/>
<stop offset="1" stop-color="#FF741C"/>
</linearGradient>
<linearGradient id="paint17_linear" x1="1176.89" y1="41.684" x2="1174.8" y2="47.0387" gradientUnits="userSpaceOnUse">
<stop stop-color="#FF4C02"/>
<stop offset="1" stop-color="#FF741C"/>
</linearGradient>
<linearGradient id="paint18_linear" x1="35.4305" y1="354.048" x2="30.3443" y2="358.125" gradientUnits="userSpaceOnUse">
<stop stop-color="#FF4C02"/>
<stop offset="1" stop-color="#FF741C"/>
</linearGradient>
<linearGradient id="paint19_linear" x1="20.0848" y1="312.367" x2="14.9986" y2="316.445" gradientUnits="userSpaceOnUse">
<stop stop-color="#FF4C02"/>
<stop offset="1" stop-color="#FF741C"/>
</linearGradient>
<linearGradient id="paint20_linear" x1="4.73665" y1="340.205" x2="-0.34952" y2="344.282" gradientUnits="userSpaceOnUse">
<stop stop-color="#FF4C02"/>
<stop offset="1" stop-color="#FF741C"/>
</linearGradient>
<linearGradient id="paint21_linear" x1="35.432" y1="340.205" x2="30.3458" y2="344.282" gradientUnits="userSpaceOnUse">
<stop stop-color="#FF4C02"/>
<stop offset="1" stop-color="#FF741C"/>
</linearGradient>
<linearGradient id="paint22_linear" x1="20.0843" y1="298.524" x2="14.9981" y2="302.602" gradientUnits="userSpaceOnUse">
<stop stop-color="#FF4C02"/>
<stop offset="1" stop-color="#FF741C"/>
</linearGradient>
<linearGradient id="paint23_linear" x1="4.73617" y1="326.361" x2="-0.350008" y2="330.439" gradientUnits="userSpaceOnUse">
<stop stop-color="#FF4C02"/>
<stop offset="1" stop-color="#FF741C"/>
</linearGradient>
<linearGradient id="paint24_linear" x1="35.4325" y1="326.211" x2="30.3463" y2="330.288" gradientUnits="userSpaceOnUse">
<stop stop-color="#FF4C02"/>
<stop offset="1" stop-color="#FF741C"/>
</linearGradient>
<linearGradient id="paint25_linear" x1="20.0843" y1="284.681" x2="14.9981" y2="288.758" gradientUnits="userSpaceOnUse">
<stop stop-color="#FF4C02"/>
<stop offset="1" stop-color="#FF741C"/>
</linearGradient>
<linearGradient id="paint26_linear" x1="4.73617" y1="312.367" x2="-0.350008" y2="316.445" gradientUnits="userSpaceOnUse">
<stop stop-color="#FF4C02"/>
<stop offset="1" stop-color="#FF741C"/>
</linearGradient>
<linearGradient id="paint27_linear" x1="35.4325" y1="312.367" x2="30.3463" y2="316.445" gradientUnits="userSpaceOnUse">
<stop stop-color="#FF4C02"/>
<stop offset="1" stop-color="#FF741C"/>
</linearGradient>
<linearGradient id="paint28_linear" x1="20.0843" y1="270.837" x2="14.9981" y2="274.915" gradientUnits="userSpaceOnUse">
<stop stop-color="#FF4C02"/>
<stop offset="1" stop-color="#FF741C"/>
</linearGradient>
<linearGradient id="paint29_linear" x1="4.73617" y1="298.524" x2="-0.350008" y2="302.602" gradientUnits="userSpaceOnUse">
<stop stop-color="#FF4C02"/>
<stop offset="1" stop-color="#FF741C"/>
</linearGradient>
<linearGradient id="paint30_linear" x1="35.4325" y1="298.524" x2="30.3463" y2="302.602" gradientUnits="userSpaceOnUse">
<stop stop-color="#FF4C02"/>
<stop offset="1" stop-color="#FF741C"/>
</linearGradient>
<linearGradient id="paint31_linear" x1="20.0843" y1="256.844" x2="14.9981" y2="260.921" gradientUnits="userSpaceOnUse">
<stop stop-color="#FF4C02"/>
<stop offset="1" stop-color="#FF741C"/>
</linearGradient>
<linearGradient id="paint32_linear" x1="4.73665" y1="284.681" x2="-0.34952" y2="288.758" gradientUnits="userSpaceOnUse">
<stop stop-color="#FF4C02"/>
<stop offset="1" stop-color="#FF741C"/>
</linearGradient>
<linearGradient id="paint33_linear" x1="35.4325" y1="284.681" x2="30.3463" y2="288.758" gradientUnits="userSpaceOnUse">
<stop stop-color="#FF4C02"/>
<stop offset="1" stop-color="#FF741C"/>
</linearGradient>
<linearGradient id="paint34_linear" x1="20.0843" y1="243" x2="14.9981" y2="247.077" gradientUnits="userSpaceOnUse">
<stop stop-color="#FF4C02"/>
<stop offset="1" stop-color="#FF741C"/>
</linearGradient>
<linearGradient id="paint35_linear" x1="4.73665" y1="270.837" x2="-0.34952" y2="274.915" gradientUnits="userSpaceOnUse">
<stop stop-color="#FF4C02"/>
<stop offset="1" stop-color="#FF741C"/>
</linearGradient>
<linearGradient id="paint36_linear" x1="1199.5" y1="328.247" x2="1211.04" y2="318.991" gradientUnits="userSpaceOnUse">
<stop stop-color="#FF4C02"/>
<stop offset="1" stop-color="#FF741C"/>
</linearGradient>
<linearGradient id="paint37_linear" x1="1199.5" y1="328.247" x2="1211.04" y2="318.991" gradientUnits="userSpaceOnUse">
<stop stop-color="#FF4C02"/>
<stop offset="1" stop-color="#FF741C"/>
</linearGradient>
<linearGradient id="paint38_linear" x1="446.496" y1="402.247" x2="458.042" y2="392.991" gradientUnits="userSpaceOnUse">
<stop stop-color="#FF4C02"/>
<stop offset="1" stop-color="#FF741C"/>
</linearGradient>
<linearGradient id="paint39_linear" x1="446.496" y1="402.247" x2="458.042" y2="392.991" gradientUnits="userSpaceOnUse">
<stop stop-color="#FF4C02"/>
<stop offset="1" stop-color="#FF741C"/>
</linearGradient>
<linearGradient id="paint40_linear" x1="953.302" y1="14.1881" x2="969.288" y2="1.37231" gradientUnits="userSpaceOnUse">
<stop stop-color="#FF4C02"/>
<stop offset="1" stop-color="#FF741C"/>
</linearGradient>
<linearGradient id="paint41_linear" x1="953.302" y1="14.1881" x2="969.288" y2="1.37231" gradientUnits="userSpaceOnUse">
<stop stop-color="#FF4C02"/>
<stop offset="1" stop-color="#FF741C"/>
</linearGradient>
<linearGradient id="paint42_linear" x1="919.07" y1="406.917" x2="940.384" y2="389.83" gradientUnits="userSpaceOnUse">
<stop stop-color="#FF4C02"/>
<stop offset="1" stop-color="#FF741C"/>
</linearGradient>
<linearGradient id="paint43_linear" x1="241.147" y1="43.341" x2="260.686" y2="27.6773" gradientUnits="userSpaceOnUse">
<stop stop-color="#FF4C02"/>
<stop offset="1" stop-color="#FF741C"/>
</linearGradient>
<linearGradient id="paint44_linear" x1="83.3607" y1="220" x2="98.008" y2="208.257" gradientUnits="userSpaceOnUse">
<stop stop-color="#FF4C02"/>
<stop offset="1" stop-color="#FF741C"/>
</linearGradient>
</defs>
</svg>
