<svg width="23" height="23" viewBox="0 0 23 23" fill="none" xmlns="http://www.w3.org/2000/svg">
<path d="M22.7971 6.62173C22.7845 5.67974 22.6079 4.74712 22.2751 3.86558C21.9865 3.122 21.5457 2.44671 20.9809 1.88283C20.4161 1.31895 19.7397 0.878898 18.9948 0.590782C18.1232 0.264119 17.2023 0.0874871 16.2715 0.0684064C15.073 0.0149251 14.693 0 11.6507 0C8.60842 0 8.21847 8.34e-08 7.02871 0.0684064C6.09828 0.0876273 5.17785 0.264257 4.30659 0.590782C3.56166 0.878697 2.88513 1.31868 2.32029 1.88258C1.75545 2.44648 1.31473 3.12189 1.02634 3.86558C0.698474 4.73513 0.521931 5.65423 0.504336 6.58318C0.450766 7.78091 0.43457 8.16025 0.43457 11.1975C0.43457 14.2347 0.43457 14.6228 0.504336 15.8118C0.523024 16.7421 0.698685 17.66 1.02634 18.5319C1.31521 19.2754 1.75626 19.9505 2.32129 20.5142C2.88632 21.0778 3.56291 21.5176 4.30783 21.8054C5.17671 22.1452 6.0973 22.3345 7.02996 22.3651C8.22969 22.4186 8.60966 22.4348 11.652 22.4348C14.6943 22.4348 15.0842 22.4348 16.274 22.3651C17.2048 22.3468 18.1257 22.1706 18.9973 21.844C19.742 21.5556 20.4182 21.1154 20.983 20.5515C21.5478 19.9877 21.9887 19.3126 22.2776 18.5692C22.6052 17.6986 22.7809 16.7807 22.7996 15.8491C22.8532 14.6526 22.8694 14.2733 22.8694 11.2348C22.8669 8.19756 22.8669 7.812 22.7971 6.62173ZM11.6432 16.9411C8.46141 16.9411 5.8838 14.3678 5.8838 11.1913C5.8838 8.01473 8.46141 5.44141 11.6432 5.44141C13.1707 5.44141 14.6357 6.0472 15.7158 7.12551C16.7959 8.20382 17.4027 9.66632 17.4027 11.1913C17.4027 12.7162 16.7959 14.1787 15.7158 15.257C14.6357 16.3353 13.1707 16.9411 11.6432 16.9411ZM17.6319 6.56949C16.8882 6.56949 16.2889 5.97001 16.2889 5.22873C16.2889 5.05274 16.3236 4.87847 16.3911 4.71588C16.4586 4.55329 16.5574 4.40555 16.6821 4.28111C16.8067 4.15666 16.9547 4.05795 17.1176 3.9906C17.2805 3.92325 17.455 3.88859 17.6313 3.88859C17.8076 3.88859 17.9821 3.92325 18.145 3.9906C18.3079 4.05795 18.4558 4.15666 18.5805 4.28111C18.7051 4.40555 18.804 4.55329 18.8715 4.71588C18.9389 4.87847 18.9737 5.05274 18.9737 5.22873C18.9737 5.97001 18.3732 6.56949 17.6319 6.56949Z" fill="#333333"/>
<path d="M11.6436 14.9263C13.7098 14.9263 15.3848 13.2541 15.3848 11.1913C15.3848 9.12851 13.7098 7.4563 11.6436 7.4563C9.57734 7.4563 7.90234 9.12851 7.90234 11.1913C7.90234 13.2541 9.57734 14.9263 11.6436 14.9263Z" fill="#333333"/>
</svg>
