<svg width="200" height="49" viewBox="0 0 200 49" fill="none" xmlns="http://www.w3.org/2000/svg">
<path fill-rule="evenodd" clip-rule="evenodd" d="M41.0493 37.5309L23.1858 47.9167C22.0992 48.5439 20.7733 48.5439 19.7052 47.9167L1.78636 37.6047C0.699812 36.9775 0.0368343 35.8338 0.0368343 34.5794L0 13.8816C0 12.6271 0.662979 11.4834 1.73111 10.8562L19.5947 0.470405C20.6812 -0.156802 22.0072 -0.156802 23.0753 0.470405L40.9941 10.7824C42.0806 11.4096 42.7436 12.5533 42.7436 13.8078L42.7805 34.5056C42.7805 35.7415 42.1175 36.9037 41.0493 37.5309Z" fill="url(#paint0_linear)"/>
<path fill-rule="evenodd" clip-rule="evenodd" d="M23.8118 13.9921L25.0088 13.9737C25.0088 12.5532 26.0954 11.3357 27.5318 11.2619C27.5687 11.2619 27.6055 11.2619 27.6423 11.2619C27.6792 11.2619 27.716 11.2619 27.7528 11.2619C29.1709 11.3173 30.2758 12.5163 30.2942 13.9368L31.4913 13.9552C31.4913 12.3872 30.5705 10.9668 29.1156 10.3765C28.6552 10.192 28.158 10.0813 27.6239 10.0813C27.0898 10.0813 26.5926 10.192 26.1322 10.3765C24.7142 10.9852 23.7934 12.4241 23.8118 13.9921C23.8118 13.9737 23.8118 13.9921 23.8118 13.9921Z" fill="white"/>
<path fill-rule="evenodd" clip-rule="evenodd" d="M26.261 41.5522C26.3531 41.4784 26.4268 41.3862 26.5189 41.2939L33.4617 32.3655C33.959 31.7383 33.9958 30.8897 33.5722 30.2072C33.2591 29.7091 32.9461 29.1926 32.633 28.6945C32.4673 28.7129 32.3015 28.7129 32.1542 28.7314L33.2223 30.447C33.5538 30.9819 33.517 31.6091 33.1302 32.1072L26.1874 41.0357C25.9848 41.3124 25.6901 41.4415 25.3402 41.4231C24.9903 41.4046 24.7141 41.2386 24.5484 40.9619L7.64243 13.9182C7.47669 13.6415 7.43986 13.3464 7.55035 13.0328C7.66085 12.7192 7.88184 12.5163 8.19491 12.424L18.7105 9.04817C19.355 8.84525 20.0364 9.08507 20.3863 9.65693L23.0567 13.9736L23.5723 14.0105C22.6331 12.4794 21.6939 10.9667 20.7547 9.43557C20.2943 8.69768 19.4103 8.36563 18.5816 8.62389L17.8633 8.8637C17.7713 8.88215 17.6792 8.9006 17.5687 8.93749L13.1304 10.3579L6.86896 12.3687C6.42697 12.5163 6.09549 12.8299 5.92974 13.2726C5.764 13.7153 5.81925 14.1581 6.05866 14.5639L14.8063 28.5469L23.2961 42.1241C23.5539 42.5484 23.9775 42.7882 24.4747 42.8066C24.9719 42.8251 25.4139 42.6406 25.7086 42.2348" fill="white"/>
<path fill-rule="evenodd" clip-rule="evenodd" d="M15.9483 10.8744C15.9115 10.7637 15.801 10.7084 15.6905 10.7453L12.6334 11.7599C12.5229 11.7968 12.4677 11.9074 12.5045 12.0181C12.5229 12.0919 12.5966 12.1473 12.6887 12.1473C12.7071 12.1473 12.7439 12.1473 12.7624 12.1288L15.8194 11.1142C15.9299 11.0773 15.9852 10.9666 15.9483 10.8744Z" fill="white"/>
<path fill-rule="evenodd" clip-rule="evenodd" d="M17.3848 22.9391H17.9372C18.3424 22.9391 18.7291 22.6255 18.7475 22.2197C18.7844 21.7585 18.4161 21.3526 17.9557 21.3711H17.4032C16.998 21.3711 16.6113 21.6847 16.5929 22.0905C16.556 22.5517 16.9244 22.9391 17.3848 22.9391Z" fill="white"/>
<path fill-rule="evenodd" clip-rule="evenodd" d="M33.6829 19.5632L33.5908 16.9622L33.5356 15.099C33.5172 14.7669 33.2593 14.5087 32.9279 14.5087L22.4675 14.5456C22.1729 14.5456 21.9335 14.7485 21.8782 15.0252L16.8138 15.0436C16.4087 15.0436 16.0219 15.3572 16.0035 15.7631C15.9667 16.2243 16.335 16.6117 16.7954 16.6117H17.4768L23.1305 16.5748C23.5725 16.5748 23.9224 16.9253 23.9224 17.3495C23.9224 17.7923 23.5725 18.1428 23.1489 18.1428H19.2263C19.1895 18.1428 19.1527 18.1428 19.1158 18.1428C18.7291 18.1981 18.4344 18.5302 18.4344 18.9176C18.4344 19.3603 18.7843 19.7108 19.2263 19.6923H22.1545C22.5965 19.6923 22.9464 20.0428 22.9464 20.4671C22.9464 20.9099 22.5965 21.2604 22.1729 21.2604L20.0182 21.2788C19.5762 21.2788 19.2079 21.6662 19.2447 22.1274C19.2816 22.5517 19.6315 22.8653 20.055 22.8653H21.3258C21.7309 22.8653 22.0992 23.1604 22.1545 23.5663C22.1545 23.6032 22.1545 23.6216 22.1545 23.6585C22.1545 23.8614 22.0808 24.0274 21.9703 24.175C21.7862 24.3964 21.6572 24.6731 21.6388 24.9683L21.5836 27.2742C21.5836 27.6062 21.8414 27.9014 22.1913 27.8829L33.3698 27.846C33.7013 27.846 33.9776 27.5693 33.9591 27.2188L33.6829 19.5632ZM32.1912 19.4341L27.182 24.4333L24.6038 21.8691C24.3276 21.5924 24.2355 21.1312 24.4749 20.7992C24.7695 20.3564 25.3957 20.3011 25.764 20.67L27.182 22.0905L31.031 18.235C31.3993 17.8661 32.007 17.9214 32.3201 18.3641C32.5411 18.6962 32.4675 19.1574 32.1912 19.4341Z" fill="white"/>
<path d="M70.4715 24.3896V25.642C70.4715 28.1467 69.6467 30.1992 67.997 31.7995C66.3474 33.3824 64.1942 34.1738 61.5374 34.1738C58.7243 34.1738 56.3974 33.2606 54.5567 31.4342C52.7334 29.6078 51.8218 27.364 51.8218 24.7027C51.8218 22.0588 52.7334 19.8236 54.5567 17.9972C56.3974 16.1535 58.6722 15.2316 61.3811 15.2316C63.0828 15.2316 64.637 15.6229 66.0435 16.4057C67.45 17.1884 68.544 18.2408 69.3254 19.5627L66.7468 21.0499C66.2606 20.1802 65.5399 19.4844 64.5849 18.9626C63.6298 18.4234 62.5619 18.1538 61.3811 18.1538C59.4709 18.1538 57.8994 18.78 56.6665 20.0324C55.4336 21.2847 54.8172 22.8502 54.8172 24.7288C54.8172 26.6074 55.4336 28.1641 56.6665 29.3991C57.9168 30.6341 59.5491 31.2516 61.5634 31.2516C63.1783 31.2516 64.4894 30.8776 65.4965 30.1297C66.521 29.3643 67.1722 28.3468 67.45 27.077H61.355V24.3896H70.4715Z" fill="#333333"/>
<path d="M76.2053 30.9646H84.2799V33.8346H73.2099V15.5708H84.1497V18.4408H76.2053V23.1894H83.4985V26.0333H76.2053V30.9646Z" fill="#333333"/>
<path d="M98.8734 15.5708V18.4408H93.7422V33.8346H90.7467V18.4408H85.5894V15.5708H98.8734Z" fill="#333333"/>
<path d="M125.338 24.3896V25.642C125.338 28.1467 124.514 30.1992 122.864 31.7995C121.214 33.3824 119.061 34.1738 116.404 34.1738C113.591 34.1738 111.264 33.2606 109.424 31.4342C107.6 29.6078 106.689 27.364 106.689 24.7027C106.689 22.0588 107.6 19.8236 109.424 17.9972C111.264 16.1535 113.539 15.2316 116.248 15.2316C117.95 15.2316 119.504 15.6229 120.91 16.4057C122.317 17.1884 123.411 18.2408 124.192 19.5627L121.614 21.0499C121.127 20.1802 120.407 19.4844 119.452 18.9626C118.497 18.4234 117.429 18.1538 116.248 18.1538C114.338 18.1538 112.766 18.78 111.533 20.0324C110.3 21.2847 109.684 22.8502 109.684 24.7288C109.684 26.6074 110.3 28.1641 111.533 29.3991C112.784 30.6341 114.416 31.2516 116.43 31.2516C118.045 31.2516 119.356 30.8776 120.363 30.1297C121.388 29.3643 122.039 28.3468 122.317 27.077H116.222V24.3896H125.338Z" fill="#333333"/>
<path d="M143.314 31.4342C141.491 33.2606 139.26 34.1738 136.62 34.1738C133.981 34.1738 131.741 33.2606 129.9 31.4342C128.077 29.5905 127.165 27.3466 127.165 24.7027C127.165 22.0588 128.077 19.8236 129.9 17.9972C131.741 16.1535 133.981 15.2316 136.62 15.2316C139.26 15.2316 141.491 16.1535 143.314 17.9972C145.155 19.8236 146.075 22.0588 146.075 24.7027C146.075 27.3466 145.155 29.5905 143.314 31.4342ZM132.01 29.3991C133.26 30.6341 134.797 31.2516 136.62 31.2516C138.443 31.2516 139.972 30.6341 141.204 29.3991C142.455 28.1467 143.08 26.5813 143.08 24.7027C143.08 22.8241 142.455 21.2673 141.204 20.0324C139.972 18.78 138.443 18.1538 136.62 18.1538C134.797 18.1538 133.26 18.78 132.01 20.0324C130.777 21.2673 130.161 22.8241 130.161 24.7027C130.161 26.5813 130.777 28.1467 132.01 29.3991Z" fill="#333333"/>
<path d="M164.045 31.4342C162.222 33.2606 159.991 34.1738 157.351 34.1738C154.712 34.1738 152.472 33.2606 150.631 31.4342C148.808 29.5905 147.896 27.3466 147.896 24.7027C147.896 22.0588 148.808 19.8236 150.631 17.9972C152.472 16.1535 154.712 15.2316 157.351 15.2316C159.991 15.2316 162.222 16.1535 164.045 17.9972C165.886 19.8236 166.806 22.0588 166.806 24.7027C166.806 27.3466 165.886 29.5905 164.045 31.4342ZM152.741 29.3991C153.991 30.6341 155.528 31.2516 157.351 31.2516C159.174 31.2516 160.702 30.6341 161.935 29.3991C163.186 28.1467 163.811 26.5813 163.811 24.7027C163.811 22.8241 163.186 21.2673 161.935 20.0324C160.702 18.78 159.174 18.1538 157.351 18.1538C155.528 18.1538 153.991 18.78 152.741 20.0324C151.508 21.2673 150.891 22.8241 150.891 24.7027C150.891 26.5813 151.508 28.1467 152.741 29.3991Z" fill="#333333"/>
<path d="M176.701 15.5708C179.202 15.5708 181.277 16.4492 182.927 18.206C184.594 19.9628 185.427 22.1284 185.427 24.7027C185.427 27.2596 184.594 29.4252 182.927 31.1994C181.277 32.9562 179.202 33.8346 176.701 33.8346H169.538V15.5708H176.701ZM176.701 30.9646C178.421 30.9646 179.818 30.3732 180.895 29.1904C181.989 28.0076 182.536 26.5117 182.536 24.7027C182.536 22.8763 181.989 21.3804 180.895 20.215C179.818 19.0322 178.421 18.4408 176.701 18.4408H172.534V30.9646H176.701Z" fill="#333333"/>
<path d="M193.54 34.1738C191.786 34.1738 190.293 33.7738 189.06 32.9736C187.845 32.1735 186.994 31.0777 186.508 29.6861L189.086 28.1728C189.816 30.2253 191.326 31.2516 193.618 31.2516C194.747 31.2516 195.589 31.0342 196.145 30.5993C196.718 30.1471 197.005 29.5644 197.005 28.8512C197.005 28.1033 196.701 27.5379 196.093 27.1553C195.485 26.7552 194.409 26.3203 192.863 25.8507C191.995 25.5898 191.292 25.3463 190.753 25.1202C190.215 24.894 189.642 24.5809 189.034 24.1809C188.444 23.7634 188.001 23.2503 187.706 22.6415C187.411 22.0327 187.263 21.3195 187.263 20.502C187.263 18.8843 187.836 17.6059 188.982 16.6666C190.128 15.7099 191.509 15.2316 193.124 15.2316C194.582 15.2316 195.858 15.5881 196.952 16.3013C198.046 17.0145 198.889 17.9972 199.479 19.2496L196.952 20.7107C196.188 19.0061 194.912 18.1538 193.124 18.1538C192.255 18.1538 191.561 18.3625 191.04 18.78C190.519 19.18 190.258 19.728 190.258 20.4237C190.258 21.1021 190.519 21.6413 191.04 22.0414C191.578 22.4241 192.542 22.8328 193.931 23.2677C194.626 23.4938 195.129 23.6677 195.442 23.7895C195.772 23.8939 196.223 24.0678 196.796 24.3113C197.387 24.5548 197.829 24.7984 198.125 25.0419C198.42 25.2854 198.732 25.5898 199.062 25.9551C199.41 26.3204 199.653 26.7378 199.792 27.2075C199.93 27.6771 200 28.2076 200 28.799C200 30.4515 199.401 31.7647 198.203 32.7388C197.022 33.6955 195.468 34.1738 193.54 34.1738Z" fill="#333333"/>
<defs>
<linearGradient id="paint0_linear" x1="2.49553" y1="45.5645" x2="50.3509" y2="10.2625" gradientUnits="userSpaceOnUse">
<stop stop-color="#FF2A00"/>
<stop offset="1" stop-color="#FF9900"/>
</linearGradient>
</defs>
</svg>
