<svg width="196" height="47" viewBox="0 0 196 47" fill="none" xmlns="http://www.w3.org/2000/svg">
<path d="M19.0652 0.45692C20.1224 -0.152307 21.4125 -0.152307 22.4518 0.45692M19.0652 0.45692L1.68433 10.545M19.0652 0.45692L19.3148 0.890135M19.0652 0.45692H22.4518M22.4518 0.45692L39.8864 10.4733L22.4518 0.45692ZM1.68433 10.545C0.645065 11.1542 0 12.2652 0 13.4836M1.68433 10.545L1.93719 10.9763M1.68433 10.545L1.93533 10.9774L1.93631 10.9769C1.04963 11.497 0.500149 12.444 0.5 13.4832L0.499999 13.4827L0 13.4836M0 13.4836L0.035839 33.5881C0.035839 34.8065 0.680902 35.9175 1.73809 36.5267L1.98774 36.0935M0 13.4836H0.5L0.535838 33.5872L0.53584 33.5881C0.535839 34.6267 1.08457 35.573 1.98774 36.0935M1.98774 36.0935L19.4218 46.1095L19.4256 46.1117C20.3073 46.6286 21.4054 46.6308 22.3094 46.11C22.3094 46.11 22.3095 46.1099 22.3096 46.1099L39.6873 36.0237C39.6874 36.0236 39.6875 36.0235 39.6877 36.0234C40.5733 35.5041 41.1242 34.54 41.1245 33.5172C41.1245 33.5169 41.1245 33.5167 41.1245 33.5164L41.0886 13.4128V13.4119C41.0886 12.3733 40.54 11.4271 39.6369 10.9066C39.6368 10.9066 39.6368 10.9066 39.6367 10.9065L22.2027 0.890464L22.1989 0.888285C21.3173 0.371456 20.2193 0.369184 19.3154 0.88981C19.3152 0.889918 19.315 0.890027 19.3148 0.890135M1.98774 36.0935L1.93719 10.9763M19.3148 0.890135L1.93719 10.9763M19.3148 0.890135L1.93719 10.9763" fill="url(#paint0_linear)" stroke="black"/>
<path d="M26.7877 10.439H26.7749L26.7621 10.4397C25.2559 10.5169 24.0936 11.6659 23.8714 13.0801L23.7006 13.0827C23.859 11.9626 24.5832 10.9865 25.6173 10.5409C26.0115 10.384 26.4305 10.2922 26.8773 10.2922C27.3259 10.2922 27.7465 10.3847 28.142 10.5428C29.2032 10.973 29.9307 11.9311 30.1016 13.0468L29.9315 13.0441C29.693 11.6313 28.5148 10.4975 27.0222 10.4394L27.0125 10.439H27.0028H27.0026H27.0024H27.0021H27.0019H27.0017H27.0015H27.0013H27.0011H27.0009H27.0007H27.0005H27.0003H27H26.9998H26.9996H26.9994H26.9992H26.999H26.9988H26.9986H26.9984H26.9982H26.9979H26.9977H26.9975H26.9973H26.9971H26.9969H26.9967H26.9965H26.9963H26.9961H26.9958H26.9956H26.9954H26.9952H26.995H26.9948H26.9946H26.9944H26.9942H26.994H26.9937H26.9935H26.9933H26.9931H26.9929H26.9927H26.9925H26.9923H26.9921H26.9919H26.9916H26.9914H26.9912H26.991H26.9908H26.9906H26.9904H26.9902H26.99H26.9898H26.9895H26.9893H26.9891H26.9889H26.9887H26.9885H26.9883H26.9881H26.9879H26.9877H26.9874H26.9872H26.987H26.9868H26.9866H26.9864H26.9862H26.986H26.9858H26.9856H26.9853H26.9851H26.9849H26.9847H26.9845H26.9843H26.9841H26.9839H26.9837H26.9835H26.9832H26.983H26.9828H26.9826H26.9824H26.9822H26.982H26.9818H26.9816H26.9814H26.9811H26.9809H26.9807H26.9805H26.9803H26.9801H26.9799H26.9797H26.9795H26.9793H26.979H26.9788H26.9786H26.9784H26.9782H26.978H26.9778H26.9776H26.9774H26.9772H26.9769H26.9767H26.9765H26.9763H26.9761H26.9759H26.9757H26.9755H26.9753H26.9751H26.9748H26.9746H26.9744H26.9742H26.974H26.9738H26.9736H26.9734H26.9732H26.973H26.9727H26.9725H26.9723H26.9721H26.9719H26.9717H26.9715H26.9713H26.9711H26.9709H26.9706H26.9704H26.9702H26.97H26.9698H26.9696H26.9694H26.9692H26.969H26.9688H26.9685H26.9683H26.9681H26.9679H26.9677H26.9675H26.9673H26.9671H26.9669H26.9667H26.9664H26.9662H26.966H26.9658H26.9656H26.9654H26.9652H26.965H26.9648H26.9646H26.9643H26.9641H26.9639H26.9637H26.9635H26.9633H26.9631H26.9629H26.9627H26.9625H26.9622H26.962H26.9618H26.9616H26.9614H26.9612H26.961H26.9608H26.9606H26.9604H26.9601H26.9599H26.9597H26.9595H26.9593H26.9591H26.9589H26.9587H26.9585H26.9583H26.958H26.9578H26.9576H26.9574H26.9572H26.957H26.9568H26.9566H26.9564H26.9562H26.9559H26.9557H26.9555H26.9553H26.9551H26.9549H26.9547H26.9545H26.9543H26.9541H26.9538H26.9536H26.9534H26.9532H26.953H26.9528H26.9526H26.9524H26.9522H26.952H26.9517H26.9515H26.9513H26.9511H26.9509H26.9507H26.9505H26.9503H26.9501H26.9499H26.9496H26.9494H26.9492H26.949H26.9488H26.9486H26.9484H26.9482H26.948H26.9478H26.9475H26.9473H26.9471H26.9469H26.9467H26.9465H26.9463H26.9461H26.9459H26.9457H26.9454H26.9452H26.945H26.9448H26.9446H26.9444H26.9442H26.944H26.9438H26.9436H26.9433H26.9431H26.9429H26.9427H26.9425H26.9423H26.9421H26.9419H26.9417H26.9415H26.9412H26.941H26.9408H26.9406H26.9404H26.9402H26.94H26.9398H26.9396H26.9394H26.9391H26.9389H26.9387H26.9385H26.9383H26.9381H26.9379H26.9377H26.9375H26.9373H26.937H26.9368H26.9366H26.9364H26.9362H26.936H26.9358H26.9356H26.9354H26.9352H26.9349H26.9347H26.9345H26.9343H26.9341H26.9339H26.9337H26.9335H26.9333H26.9331H26.9328H26.9326H26.9324H26.9322H26.932H26.9318H26.9316H26.9314H26.9312H26.931H26.9307H26.9305H26.9303H26.9301H26.9299H26.9297H26.9295H26.9293H26.9291H26.9289H26.9286H26.9284H26.9282H26.928H26.9278H26.9276H26.9274H26.9272H26.927H26.9268H26.9265H26.9263H26.9261H26.9259H26.9257H26.9255H26.9253H26.9251H26.9249H26.9247H26.9244H26.9242H26.924H26.9238H26.9236H26.9234H26.9232H26.923H26.9228H26.9226H26.9223H26.9221H26.9219H26.9217H26.9215H26.9213H26.9211H26.9209H26.9207H26.9205H26.9202H26.92H26.9198H26.9196H26.9194H26.9192H26.919H26.9188H26.9186H26.9184H26.9181H26.9179H26.9177H26.9175H26.9173H26.9171H26.9169H26.9167H26.9165H26.9163H26.916H26.9158H26.9156H26.9154H26.9152H26.915H26.9148H26.9146H26.9144H26.9142H26.9139H26.9137H26.9135H26.9133H26.9131H26.9129H26.9127H26.9125H26.9123H26.9121H26.9118H26.9116H26.9114H26.9112H26.911H26.9108H26.9106H26.9104H26.9102H26.91H26.9097H26.9095H26.9093H26.9091H26.9089H26.9087H26.9085H26.9083H26.9081H26.9079H26.9076H26.9074H26.9072H26.907H26.9068H26.9066H26.9064H26.9062H26.906H26.9058H26.9056H26.9053H26.9051H26.9049H26.9047H26.9045H26.9043H26.9041H26.9039H26.9037H26.9035H26.9032H26.903H26.9028H26.9026H26.9024H26.9022H26.902H26.9018H26.9016H26.9014H26.9011H26.9009H26.9007H26.9005H26.9003H26.9001H26.8999H26.8997H26.8995H26.8993H26.899H26.8988H26.8986H26.8984H26.8982H26.898H26.8978H26.8976H26.8974H26.8972H26.8969H26.8967H26.8965H26.8963H26.8961H26.8959H26.8957H26.8955H26.8953H26.8951H26.8948H26.8946H26.8944H26.8942H26.894H26.8938H26.8936H26.8934H26.8932H26.893H26.8927H26.8925H26.8923H26.8921H26.8919H26.8917H26.8915H26.8913H26.8911H26.8909H26.8906H26.8904H26.8902H26.89H26.8898H26.8896H26.8894H26.8892H26.889H26.8888H26.8885H26.8883H26.8881H26.8879H26.8877H26.8875H26.8873H26.8871H26.8869H26.8867H26.8864H26.8862H26.886H26.8858H26.8856H26.8854H26.8852H26.885H26.8848H26.8846H26.8843H26.8841H26.8839H26.8837H26.8835H26.8833H26.8831H26.8829H26.8827H26.8825H26.8822H26.882H26.8818H26.8816H26.8814H26.8812H26.881H26.8808H26.8806H26.8804H26.8801H26.8799H26.8797H26.8795H26.8793H26.8791H26.8789H26.8787H26.8785H26.8783H26.878H26.8778H26.8776H26.8774H26.8772H26.877H26.8768H26.8766H26.8764H26.8762H26.8759H26.8757H26.8755H26.8753H26.8751H26.8749H26.8747H26.8745H26.8743H26.8741H26.8738H26.8736H26.8734H26.8732H26.873H26.8728H26.8726H26.8724H26.8722H26.872H26.8717H26.8715H26.8713H26.8711H26.8709H26.8707H26.8705H26.8703H26.8701H26.8699H26.8696H26.8694H26.8692H26.869H26.8688H26.8686H26.8684H26.8682H26.868H26.8678H26.8675H26.8673H26.8671H26.8669H26.8667H26.8665H26.8663H26.8661H26.8659H26.8657H26.8654H26.8652H26.865H26.8648H26.8646H26.8644H26.8642H26.864H26.8638H26.8636H26.8633H26.8631H26.8629H26.8627H26.8625H26.8623H26.8621H26.8619H26.8617H26.8615H26.8612H26.861H26.8608H26.8606H26.8604H26.8602H26.86H26.8598H26.8596H26.8594H26.8591H26.8589H26.8587H26.8585H26.8583H26.8581H26.8579H26.8577H26.8575H26.8573H26.857H26.8568H26.8566H26.8564H26.8562H26.856H26.8558H26.8556H26.8554H26.8552H26.8549H26.8547H26.8545H26.8543H26.8541H26.8539H26.8537H26.8535H26.8533H26.8531H26.8528H26.8526H26.8524H26.8522H26.852H26.8518H26.8516H26.8514H26.8512H26.851H26.8507H26.8505H26.8503H26.8501H26.8499H26.8497H26.8495H26.8493H26.8491H26.8489H26.8486H26.8484H26.8482H26.848H26.8478H26.8476H26.8474H26.8472H26.847H26.8468H26.8465H26.8463H26.8461H26.8459H26.8457H26.8455H26.8453H26.8451H26.8449H26.8447H26.8444H26.8442H26.844H26.8438H26.8436H26.8434H26.8432H26.843H26.8428H26.8426H26.8423H26.8421H26.8419H26.8417H26.8415H26.8413H26.8411H26.8409H26.8407H26.8405H26.8402H26.84H26.8398H26.8396H26.8394H26.8392H26.839H26.8388H26.8386H26.8384H26.8381H26.8379H26.8377H26.8375H26.8373H26.8371H26.8369H26.8367H26.8365H26.8363H26.836H26.8358H26.8356H26.8354H26.8352H26.835H26.8348H26.8346H26.8344H26.8342H26.8339H26.8337H26.8335H26.8333H26.8331H26.8329H26.8327H26.8325H26.8323H26.8321H26.8318H26.8316H26.8314H26.8312H26.831H26.8308H26.8306H26.8304H26.8302H26.83H26.8297H26.8295H26.8293H26.8291H26.8289H26.8287H26.8285H26.8283H26.8281H26.8279H26.8276H26.8274H26.8272H26.827H26.8268H26.8266H26.8264H26.8262H26.826H26.8258H26.8255H26.8253H26.8251H26.8249H26.8247H26.8245H26.8243H26.8241H26.8239H26.8237H26.8234H26.8232H26.823H26.8228H26.8226H26.8224H26.8222H26.822H26.8218H26.8216H26.8213H26.8211H26.8209H26.8207H26.8205H26.8203H26.8201H26.8199H26.8197H26.8195H26.8192H26.819H26.8188H26.8186H26.8184H26.8182H26.818H26.8178H26.8176H26.8174H26.8171H26.8169H26.8167H26.8165H26.8163H26.8161H26.8159H26.8157H26.8155H26.8153H26.815H26.8148H26.8146H26.8144H26.8142H26.814H26.8138H26.8136H26.8134H26.8132H26.8129H26.8127H26.8125H26.8123H26.8121H26.8119H26.8117H26.8115H26.8113H26.8111H26.8108H26.8106H26.8104H26.8102H26.81H26.8098H26.8096H26.8094H26.8092H26.809H26.8087H26.8085H26.8083H26.8081H26.8079H26.8077H26.8075H26.8073H26.8071H26.8069H26.8066H26.8064H26.8062H26.806H26.8058H26.8056H26.8054H26.8052H26.805H26.8048H26.8045H26.8043H26.8041H26.8039H26.8037H26.8035H26.8033H26.8031H26.8029H26.8027H26.8024H26.8022H26.802H26.8018H26.8016H26.8014H26.8012H26.801H26.8008H26.8006H26.8003H26.8001H26.7999H26.7997H26.7995H26.7993H26.7991H26.7989H26.7987H26.7985H26.7982H26.798H26.7978H26.7976H26.7974H26.7972H26.797H26.7968H26.7966H26.7964H26.7961H26.7959H26.7957H26.7955H26.7953H26.7951H26.7949H26.7947H26.7945H26.7943H26.794H26.7938H26.7936H26.7934H26.7932H26.793H26.7928H26.7926H26.7924H26.7922H26.7919H26.7917H26.7915H26.7913H26.7911H26.7909H26.7907H26.7905H26.7903H26.7901H26.7898H26.7896H26.7894H26.7892H26.789H26.7888H26.7886H26.7884H26.7882H26.788H26.7877Z" fill="white" stroke="black"/>
<mask id="path-3-inside-1" fill="white">
<path fill-rule="evenodd" clip-rule="evenodd" d="M25.5514 40.3611C25.641 40.2895 25.7126 40.1999 25.8022 40.1103L32.5575 31.4378C33.0413 30.8285 33.0771 30.0043 32.665 29.3413C32.3604 28.8575 32.0558 28.3558 31.7512 27.872C31.5899 27.8899 31.4286 27.8899 31.2853 27.9078L32.3245 29.5743C32.6471 30.0939 32.6112 30.7031 32.2349 31.1869L25.4797 39.8594C25.2826 40.1282 24.9959 40.2536 24.6555 40.2357C24.315 40.2178 24.0462 40.0565 23.885 39.7877L7.43586 13.5194C7.2746 13.2506 7.23876 12.9639 7.34627 12.6593C7.45378 12.3547 7.6688 12.1576 7.97342 12.068L18.2048 8.78889C18.832 8.59179 19.495 8.82473 19.8354 9.3802L22.4336 13.5731L22.9353 13.6089C22.0215 12.1217 21.1076 10.6524 20.1938 9.16518C19.7458 8.44844 18.8857 8.12591 18.0794 8.37677L17.3806 8.60971C17.291 8.62763 17.2014 8.64555 17.0939 8.68138L12.7756 10.0611L6.68329 12.0142C6.25325 12.1576 5.93072 12.4622 5.76945 12.8922C5.60819 13.3223 5.66194 13.7523 5.89488 14.1465L14.4061 27.7287L22.6665 40.9166C22.9174 41.3287 23.3295 41.5617 23.8133 41.5796C24.2971 41.5975 24.7271 41.4183 25.0138 41.0241"/>
</mask>
<path fill-rule="evenodd" clip-rule="evenodd" d="M25.5514 40.3611C25.641 40.2895 25.7126 40.1999 25.8022 40.1103L32.5575 31.4378C33.0413 30.8285 33.0771 30.0043 32.665 29.3413C32.3604 28.8575 32.0558 28.3558 31.7512 27.872C31.5899 27.8899 31.4286 27.8899 31.2853 27.9078L32.3245 29.5743C32.6471 30.0939 32.6112 30.7031 32.2349 31.1869L25.4797 39.8594C25.2826 40.1282 24.9959 40.2536 24.6555 40.2357C24.315 40.2178 24.0462 40.0565 23.885 39.7877L7.43586 13.5194C7.2746 13.2506 7.23876 12.9639 7.34627 12.6593C7.45378 12.3547 7.6688 12.1576 7.97342 12.068L18.2048 8.78889C18.832 8.59179 19.495 8.82473 19.8354 9.3802L22.4336 13.5731L22.9353 13.6089C22.0215 12.1217 21.1076 10.6524 20.1938 9.16518C19.7458 8.44844 18.8857 8.12591 18.0794 8.37677L17.3806 8.60971C17.291 8.62763 17.2014 8.64555 17.0939 8.68138L12.7756 10.0611L6.68329 12.0142C6.25325 12.1576 5.93072 12.4622 5.76945 12.8922C5.60819 13.3223 5.66194 13.7523 5.89488 14.1465L14.4061 27.7287L22.6665 40.9166C22.9174 41.3287 23.3295 41.5617 23.8133 41.5796C24.2971 41.5975 24.7271 41.4183 25.0138 41.0241" fill="white"/>
<path d="M25.8022 40.1103L26.5093 40.8174L26.5531 40.7736L26.5912 40.7248L25.8022 40.1103ZM32.5575 31.4378L31.7743 30.8159L31.7686 30.8233L32.5575 31.4378ZM32.665 29.3413L33.5143 28.8134L33.5112 28.8085L32.665 29.3413ZM31.7512 27.872L32.5974 27.3392L32.2635 26.8089L31.6407 26.8781L31.7512 27.872ZM31.2853 27.9078L31.1612 26.9156L29.6089 27.1096L30.4368 28.437L31.2853 27.9078ZM32.3245 29.5743L33.1742 29.0469L33.173 29.0451L32.3245 29.5743ZM32.2349 31.1869L33.0239 31.8014L33.0243 31.8009L32.2349 31.1869ZM25.4797 39.8594L24.6908 39.2449L24.6819 39.2564L24.6733 39.2681L25.4797 39.8594ZM23.885 39.7877L24.7425 39.2733L24.7376 39.2651L24.7325 39.257L23.885 39.7877ZM7.43586 13.5194L6.57837 14.0339L6.58327 14.042L6.58832 14.0501L7.43586 13.5194ZM7.97342 12.068L8.25558 13.0273L8.26714 13.0239L8.27862 13.0203L7.97342 12.068ZM18.2048 8.78889L17.905 7.83489L17.8996 7.83661L18.2048 8.78889ZM19.8354 9.3802L18.9828 9.90277L18.9854 9.90693L19.8354 9.3802ZM22.4336 13.5731L21.5835 14.0998L21.8527 14.5342L22.3623 14.5706L22.4336 13.5731ZM22.9353 13.6089L22.864 14.6064L24.8072 14.7452L23.7873 13.0854L22.9353 13.6089ZM20.1938 9.16518L21.0458 8.64164L21.0418 8.63518L20.1938 9.16518ZM18.0794 8.37677L17.7823 7.42192L17.7727 7.42491L17.7632 7.42809L18.0794 8.37677ZM17.3806 8.60971L17.5767 9.59029L17.6377 9.57808L17.6968 9.55839L17.3806 8.60971ZM17.0939 8.68138L17.3983 9.63402L17.4101 9.63007L17.0939 8.68138ZM12.7756 10.0611L12.4712 9.10854L12.4703 9.10884L12.7756 10.0611ZM6.68329 12.0142L6.37799 11.0619L6.36706 11.0655L6.68329 12.0142ZM5.89488 14.1465L5.03396 14.6552L5.04059 14.6665L5.04751 14.6775L5.89488 14.1465ZM14.4061 27.7287L15.2536 27.1978L15.2535 27.1977L14.4061 27.7287ZM22.6665 40.9166L23.5208 40.3966L23.514 40.3858L22.6665 40.9166ZM26.1761 41.142C26.2754 41.0625 26.3533 40.9824 26.4028 40.9302C26.4669 40.8625 26.4762 40.8506 26.5093 40.8174L25.0951 39.4032C25.0614 39.4369 25.0316 39.4684 25.008 39.4936C24.9798 39.5237 24.9693 39.5353 24.9509 39.5547C24.9197 39.5876 24.917 39.588 24.9267 39.5803L26.1761 41.142ZM26.5912 40.7248L33.3464 32.0523L31.7686 30.8233L25.0133 39.4958L26.5912 40.7248ZM33.3406 32.0596C34.0956 31.1089 34.1421 29.8234 33.5143 28.8134L31.8157 29.8692C32.0121 30.1852 31.9869 30.5482 31.7744 30.8159L33.3406 32.0596ZM33.5112 28.8085C33.3615 28.5707 33.2114 28.3278 33.0587 28.0808C32.9067 27.8351 32.7523 27.5852 32.5974 27.3392L30.9049 28.4048C31.0547 28.6426 31.2048 28.8855 31.3575 29.1325C31.5094 29.3782 31.6639 29.6282 31.8188 29.8741L33.5112 28.8085ZM31.6407 26.8781C31.5916 26.8836 31.5386 26.8867 31.4544 26.8916C31.3816 26.8957 31.2718 26.9017 31.1612 26.9156L31.4093 28.9001C31.4421 28.896 31.4846 28.8931 31.5685 28.8883C31.6411 28.8841 31.7495 28.8783 31.8616 28.8659L31.6407 26.8781ZM30.4368 28.437L31.476 30.1034L33.173 29.0451L32.1338 27.3787L30.4368 28.437ZM31.4749 30.1016C31.5736 30.2607 31.5686 30.4149 31.4456 30.573L33.0243 31.8009C33.6539 30.9914 33.7205 29.9271 33.1742 29.0469L31.4749 30.1016ZM31.446 30.5724L24.6908 39.2449L26.2686 40.4739L33.0239 31.8014L31.446 30.5724ZM24.6733 39.2681C24.6707 39.2715 24.6727 39.2682 24.6804 39.2618C24.6884 39.2553 24.6986 39.2488 24.7098 39.2437C24.7208 39.2387 24.7283 39.2371 24.73 39.2369C24.7313 39.2366 24.7246 39.238 24.708 39.2371L24.6029 41.2343C25.2515 41.2685 25.8733 41.0137 26.2861 40.4508L24.6733 39.2681ZM24.708 39.2371C24.6948 39.2364 24.6899 39.2347 24.6917 39.2352C24.6936 39.2358 24.6999 39.2379 24.7087 39.2431C24.7176 39.2483 24.7259 39.2547 24.7326 39.2615C24.7393 39.2682 24.7422 39.2729 24.7425 39.2733L23.0275 40.3022C23.3685 40.8706 23.9475 41.1998 24.6029 41.2343L24.708 39.2371ZM24.7325 39.257L8.28341 12.9886L6.58832 14.0501L23.0374 40.3185L24.7325 39.257ZM8.29336 13.0049C8.28505 12.991 8.28251 12.9839 8.28233 12.9834C8.28227 12.9832 8.2836 12.9871 8.28435 12.994C8.28511 13.001 8.28477 13.0063 8.28452 13.0084C8.28429 13.0102 8.28468 13.0051 8.28926 12.9921L6.40328 12.3265C6.1925 12.9237 6.27016 13.5202 6.57837 14.0339L8.29336 13.0049ZM8.28926 12.9921C8.29249 12.983 8.29349 12.9831 8.28967 12.9891C8.28567 12.9953 8.27889 13.0041 8.26936 13.013C8.25988 13.0219 8.25147 13.0274 8.24671 13.03C8.24229 13.0325 8.24424 13.0307 8.25558 13.0273L7.69125 11.1086C7.08769 11.2861 6.62082 11.7101 6.40328 12.3265L8.28926 12.9921ZM8.27862 13.0203L18.51 9.74118L17.8996 7.83661L7.66822 11.1157L8.27862 13.0203ZM18.5047 9.74289C18.7157 9.67657 18.8937 9.7573 18.9828 9.90276L20.688 8.85764C20.0963 7.89216 18.9483 7.50702 17.905 7.8349L18.5047 9.74289ZM18.9854 9.90693L21.5835 14.0998L23.2836 13.0464L20.6854 8.85347L18.9854 9.90693ZM22.3623 14.5706L22.864 14.6064L23.0065 12.6115L22.5048 12.5757L22.3623 14.5706ZM23.7873 13.0854C23.3296 12.3405 22.8719 11.6002 22.4151 10.8612C21.9581 10.1219 21.5019 9.38393 21.0458 8.64166L19.3418 9.68871C19.7995 10.4337 20.2571 11.1739 20.7139 11.9129C21.171 12.6522 21.6272 13.3902 22.0833 14.1325L23.7873 13.0854ZM21.0418 8.63518C20.3549 7.53621 19.026 7.03499 17.7823 7.42192L18.3765 9.33163C18.7454 9.21684 19.1367 9.36068 19.3458 9.69518L21.0418 8.63518ZM17.7632 7.42809L17.0644 7.66103L17.6968 9.55839L18.3956 9.32546L17.7632 7.42809ZM17.1845 7.62913C17.0951 7.64701 16.9505 7.67511 16.7777 7.7327L17.4101 9.63007C17.4524 9.61599 17.4869 9.60825 17.5767 9.59029L17.1845 7.62913ZM16.7895 7.72882L12.4712 9.10854L13.0799 11.0137L17.3982 9.63395L16.7895 7.72882ZM12.4703 9.10884L6.37801 11.0619L6.98858 12.9665L13.0808 11.0134L12.4703 9.10884ZM6.36706 11.0655C5.65597 11.3026 5.10226 11.8234 4.83313 12.5411L6.70578 13.2433C6.75918 13.1009 6.85053 13.0126 6.99952 12.9629L6.36706 11.0655ZM4.83313 12.5411C4.55621 13.2795 4.6613 14.0246 5.03396 14.6552L6.75581 13.6378C6.66259 13.48 6.66017 13.365 6.70578 13.2433L4.83313 12.5411ZM5.04751 14.6775L13.5588 28.2597L15.2535 27.1977L6.74225 13.6155L5.04751 14.6775ZM13.5586 28.2595L21.819 41.4474L23.514 40.3858L15.2536 27.1978L13.5586 28.2595ZM21.8123 41.4366C22.2447 42.147 22.9704 42.5491 23.7763 42.5789L23.8503 40.5803C23.6886 40.5743 23.59 40.5105 23.5207 40.3967L21.8123 41.4366ZM23.7763 42.5789C24.5476 42.6075 25.3148 42.3105 25.8226 41.6123L24.2051 40.4359C24.1395 40.5262 24.0466 40.5875 23.8503 40.5803L23.7763 42.5789Z" fill="black" mask="url(#path-3-inside-1)"/>
<mask id="path-5-inside-2" fill="white">
<path fill-rule="evenodd" clip-rule="evenodd" d="M15.5171 10.563C15.4812 10.4555 15.3737 10.4017 15.2662 10.4376L12.2918 11.4231C12.1842 11.4589 12.1305 11.5664 12.1663 11.6739C12.1842 11.7456 12.2559 11.7994 12.3455 11.7994C12.3634 11.7994 12.3993 11.7994 12.4172 11.7815L15.3916 10.7959C15.4992 10.7601 15.5529 10.6526 15.5171 10.563Z"/>
</mask>
<path fill-rule="evenodd" clip-rule="evenodd" d="M15.5171 10.563C15.4812 10.4555 15.3737 10.4017 15.2662 10.4376L12.2918 11.4231C12.1842 11.4589 12.1305 11.5664 12.1663 11.6739C12.1842 11.7456 12.2559 11.7994 12.3455 11.7994C12.3634 11.7994 12.3993 11.7994 12.4172 11.7815L15.3916 10.7959C15.4992 10.7601 15.5529 10.6526 15.5171 10.563Z" fill="white"/>
<path d="M15.5171 10.563L14.5684 10.8792L14.5777 10.9071L14.5886 10.9344L15.5171 10.563ZM15.2662 10.4376L15.5807 11.3868L15.5824 11.3863L15.2662 10.4376ZM12.2918 11.4231L11.9772 10.4738L11.9755 10.4744L12.2918 11.4231ZM12.1663 11.6739L13.1365 11.4314L13.1272 11.3941L13.115 11.3577L12.1663 11.6739ZM12.4172 11.7815L12.1027 10.8322L11.8777 10.9067L11.7101 11.0743L12.4172 11.7815ZM15.3916 10.7959L15.7062 11.7452L15.7079 11.7446L15.3916 10.7959ZM16.4658 10.2468C16.2553 9.61532 15.5814 9.2784 14.95 9.48889L15.5824 11.3863C15.3926 11.4495 15.1712 11.4409 14.9713 11.341C14.7714 11.241 14.6317 11.069 14.5684 10.8792L16.4658 10.2468ZM14.9517 9.48832L11.9772 10.4738L12.6063 12.3723L15.5807 11.3868L14.9517 9.48832ZM11.9755 10.4744C11.3441 10.6849 11.0072 11.3587 11.2176 11.9902L13.115 11.3577C13.1783 11.5475 13.1697 11.769 13.0697 11.9688C12.9698 12.1687 12.7978 12.3085 12.608 12.3718L11.9755 10.4744ZM11.1962 11.9165C11.3424 12.5014 11.8712 12.7994 12.3455 12.7994V10.7994C12.6407 10.7994 13.0261 10.9898 13.1365 11.4314L11.1962 11.9165ZM12.3455 12.7994C12.3487 12.7994 12.4399 12.8012 12.5457 12.7835C12.6285 12.7697 12.8936 12.7192 13.1243 12.4886L11.7101 11.0743C11.8229 10.9616 11.9404 10.8998 12.0223 10.8663C12.1044 10.8327 12.1741 10.8179 12.217 10.8107C12.2959 10.7976 12.3603 10.7994 12.3455 10.7994V12.7994ZM12.7317 12.7307L15.7062 11.7452L15.0771 9.84668L12.1027 10.8322L12.7317 12.7307ZM15.7079 11.7446C16.2665 11.5584 16.7304 10.9038 16.4455 10.1916L14.5886 10.9344C14.3754 10.4013 14.7318 9.96179 15.0754 9.84726L15.7079 11.7446Z" fill="black" mask="url(#path-5-inside-2)"/>
<path d="M17.7426 21.543L17.7419 21.5516L17.7415 21.5602C17.7398 21.5991 17.7197 21.6512 17.6616 21.7013C17.6019 21.7528 17.5237 21.7817 17.4526 21.7817H16.9151C16.7499 21.7817 16.6311 21.6454 16.643 21.4973L16.6437 21.4888L16.644 21.4802C16.6458 21.4413 16.6658 21.3892 16.724 21.339C16.7837 21.2876 16.8619 21.2586 16.933 21.2586H17.4705H17.4805L17.4905 21.2582C17.6207 21.253 17.756 21.3755 17.7426 21.543Z" fill="white" stroke="black"/>
<path d="M16.3597 14.6124L21.2873 14.5945C21.341 14.3257 21.574 14.1286 21.8607 14.1286L16.3597 14.6124ZM16.3597 14.6124C15.9655 14.6124 15.5892 14.917 15.5713 15.3112L16.3597 14.6124ZM32.2733 19.0201L32.2733 19.0205L32.5421 26.4566L32.542 26.4566L32.5425 26.4648C32.545 26.514 32.5098 26.5478 32.4684 26.5478L32.4667 26.5478L21.5903 26.5836L21.5779 26.5837L21.5656 26.5843C21.555 26.5849 21.5494 26.5831 21.5463 26.5818C21.5424 26.5802 21.5364 26.5768 21.5294 26.5695C21.5146 26.5541 21.5016 26.5275 21.5007 26.496L21.5539 24.2755C21.566 24.1163 21.6386 23.9489 21.761 23.8021L21.7692 23.7923L21.7769 23.782C21.9314 23.5759 22.0561 23.312 22.0561 22.9803V22.9801V22.9799V22.9797V22.9795V22.9793V22.9791V22.9788V22.9786V22.9784V22.9782V22.978V22.9778V22.9776V22.9774V22.9772V22.977V22.9768V22.9766V22.9764V22.9762V22.976V22.9758V22.9756V22.9754V22.9752V22.975V22.9748V22.9746V22.9744V22.9742V22.974V22.9738V22.9736V22.9734V22.9732V22.973V22.9728V22.9726V22.9724V22.9722V22.972V22.9718V22.9716V22.9714V22.9713V22.9711V22.9709V22.9707V22.9705V22.9703V22.9701V22.9699V22.9697V22.9695V22.9693V22.9691V22.969V22.9688V22.9686V22.9684V22.9682V22.968V22.9678V22.9676V22.9675V22.9673V22.9671V22.9669V22.9667V22.9665V22.9663V22.9662V22.966V22.9658V22.9656V22.9654V22.9652V22.9651V22.9649V22.9647V22.9645V22.9643V22.9641V22.964V22.9638V22.9636V22.9634V22.9632V22.9631V22.9629V22.9627V22.9625V22.9623V22.9622V22.962V22.9618V22.9616V22.9614V22.9613V22.9611V22.9609V22.9607V22.9606V22.9604V22.9602V22.96V22.9599V22.9597V22.9595V22.9593V22.9592V22.959V22.9588V22.9586V22.9585V22.9583V22.9581V22.9579V22.9578V22.9576V22.9574V22.9573V22.9571V22.9569V22.9567V22.9566V22.9564V22.9562V22.9561V22.9559V22.9557V22.9556V22.9554V22.9552V22.955V22.9549V22.9547V22.9545V22.9544V22.9542V22.954V22.9539V22.9537V22.9535V22.9534V22.9532V22.953V22.9529V22.9527V22.9525V22.9524V22.9522V22.952V22.9519V22.9517V22.9515V22.9514V22.9512V22.951V22.9509V22.9507V22.9505V22.9504V22.9502V22.95V22.9499V22.9497V22.9496V22.9494V22.9492V22.9491V22.9489V22.9487V22.9486V22.9484V22.9482V22.9481V22.9479V22.9478V22.9476V22.9474V22.9473V22.9471V22.947V22.9468V22.9466V22.9465V22.9463V22.9461V22.946V22.9458V22.9457V22.9455V22.9453V22.9452V22.945V22.9449V22.9447V22.9445V22.9444V22.9442V22.9441V22.9439V22.9437V22.9436V22.9434V22.9433V22.9431V22.9429V22.9428V22.9426V22.9425V22.9423V22.9421V22.942V22.9418V22.9417V22.9415V22.9414V22.9412V22.941V22.9409V22.9407V22.9406V22.9404V22.9402V22.9401V22.9399V22.9398V22.9396V22.9395V22.9393V22.9391V22.939V22.9388V22.9387V22.9385V22.9383V22.9382V22.938V22.9379V22.9377V22.9376V22.9374V22.9372V22.9371V22.9369V22.9368V22.9366V22.9365V22.9363V22.9361V22.936V22.9358V22.9357V22.9355V22.9354V22.9352V22.935V22.9349V22.9347V22.9346V22.9344V22.9343V22.9341V22.9339V22.9338V22.9336V22.9335V22.9333V22.9331V22.933V22.9328V22.9327V22.9325V22.9324V22.9322V22.932V22.9319V22.9317V22.9316V22.9314V22.9313V22.9311V22.9309V22.9308V22.9306V22.9305V22.9303V22.9301V22.93V22.9298V22.9297V22.9295V22.9294V22.9292V22.929V22.9289V22.9287V22.9286V22.9284V22.9282V22.9281V22.9279V22.9278V22.9276V22.9274V22.9273V22.9271V22.927V22.9268V22.9266V22.9265V22.9263V22.9262V22.926V22.9258V22.9257V22.9255V22.9254V22.9252V22.925V22.9249V22.9247V22.9246V22.9244V22.9242V22.9241V22.9239V22.9238V22.9236V22.9234V22.9233V22.9231V22.9229V22.9228V22.9226V22.9225V22.9223V22.9221V22.922V22.9218V22.9216V22.9215V22.9213V22.9211V22.921V22.9208V22.9207V22.9205V22.9203V22.9202V22.92V22.9198V22.9197V22.9195V22.9193V22.9192V22.919V22.9188V22.9187V22.9185V22.9183V22.9182V22.918V22.9178V22.9177V22.9175V22.9173V22.9172V22.917V22.9168V22.9167V22.9165V22.9163V22.9162V22.916V22.9158V22.9156V22.9155V22.9153V22.9151V22.915V22.9148V22.9146V22.9145V22.9143V22.9141V22.9139V22.9138V22.9136V22.9134V22.9133V22.9131V22.9129V22.9127V22.9126V22.9124V22.9122V22.912V22.9119V22.9117V22.9115V22.9113V22.9112V22.911V22.9108V22.9106V22.9105V22.9103V22.9101V22.9099V22.9098V22.9096V22.9094V22.9092V22.909V22.9089V22.9087V22.9085V22.9083V22.9081V22.908V22.9078V22.9076V22.9074V22.9072V22.9071V22.9069V22.9067V22.9065V22.9063V22.9062V22.906V22.9058V22.9056V22.9054V22.9052V22.9051V22.9049V22.9047V22.9045V22.9043V22.9041V22.9039V22.9038V22.9036V22.9034V22.9032V22.903V22.9028V22.9026V22.9024V22.9023V22.9021V22.9019V22.9017V22.9015V22.9013V22.9011V22.9009V22.9007V22.9005V22.9004V22.9002V22.9V22.8998V22.8996V22.8994V22.8992V22.899V22.8988V22.8986V22.8984V22.8982V22.898V22.8978V22.8976V22.8974V22.8972V22.897V22.8968V22.8966V22.8964V22.8962V22.896V22.8958V22.8956V22.8954V22.8952V22.895V22.8948V22.8946V22.8944V22.8942V22.894V22.8938V22.8936V22.8934V22.8932V22.893V22.8928V22.8926V22.8924V22.8922V22.892V22.8918V22.8916V22.8913V22.8911V22.8909V22.8907V22.8568L22.0515 22.8232C21.9611 22.1601 21.3721 21.7098 20.7497 21.7098H19.5134C19.3552 21.7098 19.2369 21.5985 19.2232 21.4515C19.2118 21.2964 19.3387 21.1688 19.4775 21.1688L19.4818 21.1688L21.5764 21.1509C22.2712 21.1496 22.8266 20.5781 22.8266 19.8804C22.8266 19.1845 22.2546 18.6278 21.5561 18.6278H18.707H18.6966L18.6862 18.6283C18.5524 18.6339 18.4366 18.5333 18.4366 18.3753C18.4366 18.2635 18.5203 18.1527 18.6441 18.1227H18.6443H18.6445H18.6447H18.6449H18.6451H18.6453H18.6455H18.6457H18.6459H18.6461H18.6464H18.6466H18.6468H18.647H18.6472H18.6474H18.6476H18.6478H18.648H18.6482H18.6485H18.6487H18.6489H18.6491H18.6493H18.6495H18.6497H18.6499H18.6501H18.6503H18.6506H18.6508H18.651H18.6512H18.6514H18.6516H18.6518H18.652H18.6522H18.6524H18.6527H18.6529H18.6531H18.6533H18.6535H18.6537H18.6539H18.6541H18.6543H18.6545H18.6548H18.655H18.6552H18.6554H18.6556H18.6558H18.656H18.6562H18.6564H18.6566H18.6569H18.6571H18.6573H18.6575H18.6577H18.6579H18.6581H18.6583H18.6585H18.6587H18.659H18.6592H18.6594H18.6596H18.6598H18.66H18.6602H18.6604H18.6606H18.6608H18.6611H18.6613H18.6615H18.6617H18.6619H18.6621H18.6623H18.6625H18.6627H18.6629H18.6632H18.6634H18.6636H18.6638H18.664H18.6642H18.6644H18.6646H18.6648H18.665H18.6653H18.6655H18.6657H18.6659H18.6661H18.6663H18.6665H18.6667H18.6669H18.6671H18.6674H18.6676H18.6678H18.668H18.6682H18.6684H18.6686H18.6688H18.669H18.6692H18.6695H18.6697H18.6699H18.6701H18.6703H18.6705H18.6707H18.6709H18.6711H18.6713H18.6716H18.6718H18.672H18.6722H18.6724H18.6726H18.6728H18.673H18.6732H18.6734H18.6737H18.6739H18.6741H18.6743H18.6745H18.6747H18.6749H18.6751H18.6753H18.6755H18.6758H18.676H18.6762H18.6764H18.6766H18.6768H18.677H18.6772H18.6774H18.6776H18.6779H18.6781H18.6783H18.6785H18.6787H18.6789H18.6791H18.6793H18.6795H18.6797H18.68H18.6802H18.6804H18.6806H18.6808H18.681H18.6812H18.6814H18.6816H18.6818H18.6821H18.6823H18.6825H18.6827H18.6829H18.6831H18.6833H18.6835H18.6837H18.6839H18.6842H18.6844H18.6846H18.6848H18.685H18.6852H18.6854H18.6856H18.6858H18.686H18.6863H18.6865H18.6867H18.6869H18.6871H18.6873H18.6875H18.6877H18.6879H18.6881H18.6884H18.6886H18.6888H18.689H18.6892H18.6894H18.6896H18.6898H18.69H18.6902H18.6905H18.6907H18.6909H18.6911H18.6913H18.6915H18.6917H18.6919H18.6921H18.6923H18.6926H18.6928H18.693H18.6932H18.6934H18.6936H18.6938H18.694H18.6942H18.6944H18.6947H18.6949H18.6951H18.6953H18.6955H18.6957H18.6959H18.6961H18.6963H18.6965H18.6968H18.697H18.6972H18.6974H18.6976H18.6978H18.698H18.6982H18.6984H18.6986H18.6989H18.6991H18.6993H18.6995H18.6997H18.6999H18.7001H18.7003H18.7005H18.7007H18.701H18.7012H18.7014H18.7016H18.7018H18.702H18.7022H18.7024H18.7026H18.7028H18.7031H18.7033H18.7035H18.7037H18.7039H18.7041H18.7043H18.7045H18.7047H18.7049H18.7052H18.7054H18.7056H18.7058H18.706H18.7062H18.7064H18.7066H18.7068H18.707H22.5237C23.2196 18.1227 23.7762 17.5507 23.7762 16.8522C23.7762 16.1563 23.2042 15.5996 22.5057 15.5996L22.5025 15.5996L17.0032 15.6355H16.3418C16.1767 15.6355 16.0579 15.4992 16.0697 15.3511L16.0704 15.3425L16.0708 15.3339C16.0726 15.295 16.0926 15.2429 16.1508 15.1928C16.2105 15.1414 16.2887 15.1124 16.3597 15.1124L16.3615 15.1124L21.2891 15.0945L21.6975 15.093L21.7776 14.6925C21.7816 14.6725 21.7915 14.6574 21.8042 14.647C21.8163 14.637 21.8342 14.6286 21.8607 14.6286L21.8624 14.6286L32.0383 14.5928C32.0385 14.5928 32.0387 14.5928 32.0389 14.5928C32.066 14.5929 32.0845 14.6022 32.0985 14.6159C32.113 14.63 32.1272 14.654 32.1301 14.6896L32.1836 16.4908L32.1837 16.4936L32.2733 19.0201ZM31.6745 19.2312L31.6752 19.2305C32.0919 18.8138 32.2258 18.1044 31.8631 17.5604L31.8591 17.5545L31.855 17.5487C31.3787 16.8763 30.4255 16.7724 29.8392 17.3587L26.4478 20.7501L25.4216 19.724C24.8444 19.1468 23.8684 19.2299 23.4029 19.9179C23.0021 20.4817 23.186 21.1961 23.5857 21.5958L23.5869 21.597L26.0955 24.0877L26.4484 24.4381L26.8007 24.0871L31.6745 19.2312Z" fill="white" stroke="black"/>
<mask id="path-9-outside-3" maskUnits="userSpaceOnUse" x="49.4214" y="12.8235" width="147" height="21" fill="black">
<rect fill="white" x="49.4214" y="12.8235" width="147" height="21"/>
<path d="M68.5672 22.719V23.9355C68.5672 26.3684 67.7646 28.3621 66.1596 29.9165C64.5545 31.454 62.4595 32.2227 59.8744 32.2227C57.1374 32.2227 54.8734 31.3357 53.0824 29.5617C51.3084 27.7876 50.4214 25.6081 50.4214 23.0231C50.4214 20.455 51.3084 18.2839 53.0824 16.5099C54.8734 14.7189 57.0867 13.8235 59.7224 13.8235C61.3781 13.8235 62.8903 14.2036 64.2588 14.9639C65.6274 15.7242 66.6918 16.7464 67.4521 18.0305L64.9431 19.475C64.47 18.6303 63.7689 17.9544 62.8396 17.4476C61.9103 16.9238 60.8713 16.6619 59.7224 16.6619C57.8639 16.6619 56.3348 17.2702 55.1352 18.4867C53.9357 19.7031 53.3359 21.2237 53.3359 23.0484C53.3359 24.8732 53.9357 26.3853 55.1352 27.5849C56.3517 28.7845 57.9399 29.3843 59.8998 29.3843C61.4711 29.3843 62.7467 29.021 63.7266 28.2945C64.7235 27.5511 65.357 26.5627 65.6274 25.3293H59.697V22.719H68.5672Z"/>
<path d="M74.1461 29.1055H82.0025V31.8933H71.2316V14.1529H81.8758V16.9407H74.1461V21.5532H81.2422V24.3156H74.1461V29.1055Z"/>
<path d="M96.2017 14.1529V16.9407H91.209V31.8933H88.2946V16.9407H83.2766V14.1529H96.2017Z"/>
<path d="M121.951 22.719V23.9355C121.951 26.3684 121.149 28.3621 119.544 29.9165C117.939 31.454 115.844 32.2227 113.259 32.2227C110.522 32.2227 108.258 31.3357 106.467 29.5617C104.693 27.7876 103.806 25.6081 103.806 23.0231C103.806 20.455 104.693 18.2839 106.467 16.5099C108.258 14.7189 110.471 13.8235 113.107 13.8235C114.762 13.8235 116.275 14.2036 117.643 14.9639C119.012 15.7242 120.076 16.7464 120.836 18.0305L118.327 19.475C117.854 18.6303 117.153 17.9544 116.224 17.4476C115.295 16.9238 114.256 16.6619 113.107 16.6619C111.248 16.6619 109.719 17.2702 108.52 18.4867C107.32 19.7031 106.72 21.2237 106.72 23.0484C106.72 24.8732 107.32 26.3853 108.52 27.5849C109.736 28.7845 111.324 29.3843 113.284 29.3843C114.855 29.3843 116.131 29.021 117.111 28.2945C118.108 27.5511 118.741 26.5627 119.012 25.3293H113.081V22.719H121.951Z"/>
<path d="M139.442 29.5617C137.668 31.3357 135.497 32.2227 132.928 32.2227C130.36 32.2227 128.181 31.3357 126.39 29.5617C124.616 27.7707 123.729 25.5912 123.729 23.0231C123.729 20.455 124.616 18.2839 126.39 16.5099C128.181 14.7189 130.36 13.8235 132.928 13.8235C135.497 13.8235 137.668 14.7189 139.442 16.5099C141.233 18.2839 142.128 20.455 142.128 23.0231C142.128 25.5912 141.233 27.7707 139.442 29.5617ZM128.443 27.5849C129.659 28.7845 131.154 29.3843 132.928 29.3843C134.702 29.3843 136.189 28.7845 137.389 27.5849C138.605 26.3684 139.214 24.8478 139.214 23.0231C139.214 21.1984 138.605 19.6862 137.389 18.4867C136.189 17.2702 134.702 16.6619 132.928 16.6619C131.154 16.6619 129.659 17.2702 128.443 18.4867C127.243 19.6862 126.643 21.1984 126.643 23.0231C126.643 24.8478 127.243 26.3684 128.443 27.5849Z"/>
<path d="M159.612 29.5617C157.838 31.3357 155.667 32.2227 153.099 32.2227C150.531 32.2227 148.352 31.3357 146.561 29.5617C144.787 27.7707 143.9 25.5912 143.9 23.0231C143.9 20.455 144.787 18.2839 146.561 16.5099C148.352 14.7189 150.531 13.8235 153.099 13.8235C155.667 13.8235 157.838 14.7189 159.612 16.5099C161.403 18.2839 162.299 20.455 162.299 23.0231C162.299 25.5912 161.403 27.7707 159.612 29.5617ZM148.613 27.5849C149.83 28.7845 151.325 29.3843 153.099 29.3843C154.873 29.3843 156.36 28.7845 157.56 27.5849C158.776 26.3684 159.384 24.8478 159.384 23.0231C159.384 21.1984 158.776 19.6862 157.56 18.4867C156.36 17.2702 154.873 16.6619 153.099 16.6619C151.325 16.6619 149.83 17.2702 148.613 18.4867C147.414 19.6862 146.814 21.1984 146.814 23.0231C146.814 24.8478 147.414 26.3684 148.613 27.5849Z"/>
<path d="M171.927 14.1529C174.36 14.1529 176.379 15.0062 177.984 16.7126C179.606 18.4191 180.417 20.5226 180.417 23.0231C180.417 25.5067 179.606 27.6102 177.984 29.3336C176.379 31.04 174.36 31.8933 171.927 31.8933H164.957V14.1529H171.927ZM171.927 29.1055C173.599 29.1055 174.959 28.531 176.007 27.3821C177.071 26.2333 177.604 24.7802 177.604 23.0231C177.604 21.2491 177.071 19.7961 176.007 18.6641C174.959 17.5152 173.599 16.9407 171.927 16.9407H167.872V29.1055H171.927Z"/>
<path d="M188.31 32.2227C186.604 32.2227 185.151 31.8341 183.951 31.0569C182.769 30.2797 181.941 29.2153 181.468 27.8637L183.977 26.3938C184.686 28.3874 186.156 29.3843 188.387 29.3843C189.485 29.3843 190.304 29.1731 190.845 28.7507C191.402 28.3114 191.681 27.7454 191.681 27.0527C191.681 26.3262 191.385 25.7771 190.794 25.4054C190.203 25.0168 189.155 24.5944 187.652 24.1382C186.807 23.8848 186.123 23.6482 185.599 23.4286C185.075 23.209 184.517 22.9048 183.926 22.5162C183.352 22.1107 182.921 21.6123 182.634 21.021C182.346 20.4296 182.203 19.7369 182.203 18.9428C182.203 17.3715 182.76 16.1297 183.875 15.2174C184.991 14.2881 186.334 13.8235 187.905 13.8235C189.324 13.8235 190.566 14.1698 191.63 14.8626C192.695 15.5553 193.514 16.5099 194.089 17.7264L191.63 19.1456C190.887 17.4898 189.645 16.6619 187.905 16.6619C187.06 16.6619 186.384 16.8647 185.878 17.2702C185.371 17.6588 185.117 18.191 185.117 18.8668C185.117 19.5257 185.371 20.0495 185.878 20.4381C186.401 20.8098 187.339 21.2068 188.691 21.6292C189.366 21.8489 189.856 22.0178 190.161 22.1361C190.482 22.2375 190.921 22.4064 191.478 22.643C192.053 22.8795 192.484 23.116 192.771 23.3526C193.058 23.5891 193.362 23.8848 193.683 24.2396C194.021 24.5944 194.258 24.9999 194.393 25.4561C194.528 25.9122 194.596 26.4276 194.596 27.002C194.596 28.6071 194.013 29.8827 192.847 30.8288C191.698 31.7581 190.186 32.2227 188.31 32.2227Z"/>
</mask>
<path d="M68.5672 22.719V23.9355C68.5672 26.3684 67.7646 28.3621 66.1596 29.9165C64.5545 31.454 62.4595 32.2227 59.8744 32.2227C57.1374 32.2227 54.8734 31.3357 53.0824 29.5617C51.3084 27.7876 50.4214 25.6081 50.4214 23.0231C50.4214 20.455 51.3084 18.2839 53.0824 16.5099C54.8734 14.7189 57.0867 13.8235 59.7224 13.8235C61.3781 13.8235 62.8903 14.2036 64.2588 14.9639C65.6274 15.7242 66.6918 16.7464 67.4521 18.0305L64.9431 19.475C64.47 18.6303 63.7689 17.9544 62.8396 17.4476C61.9103 16.9238 60.8713 16.6619 59.7224 16.6619C57.8639 16.6619 56.3348 17.2702 55.1352 18.4867C53.9357 19.7031 53.3359 21.2237 53.3359 23.0484C53.3359 24.8732 53.9357 26.3853 55.1352 27.5849C56.3517 28.7845 57.9399 29.3843 59.8998 29.3843C61.4711 29.3843 62.7467 29.021 63.7266 28.2945C64.7235 27.5511 65.357 26.5627 65.6274 25.3293H59.697V22.719H68.5672Z" fill="#333333"/>
<path d="M74.1461 29.1055H82.0025V31.8933H71.2316V14.1529H81.8758V16.9407H74.1461V21.5532H81.2422V24.3156H74.1461V29.1055Z" fill="#333333"/>
<path d="M96.2017 14.1529V16.9407H91.209V31.8933H88.2946V16.9407H83.2766V14.1529H96.2017Z" fill="#333333"/>
<path d="M121.951 22.719V23.9355C121.951 26.3684 121.149 28.3621 119.544 29.9165C117.939 31.454 115.844 32.2227 113.259 32.2227C110.522 32.2227 108.258 31.3357 106.467 29.5617C104.693 27.7876 103.806 25.6081 103.806 23.0231C103.806 20.455 104.693 18.2839 106.467 16.5099C108.258 14.7189 110.471 13.8235 113.107 13.8235C114.762 13.8235 116.275 14.2036 117.643 14.9639C119.012 15.7242 120.076 16.7464 120.836 18.0305L118.327 19.475C117.854 18.6303 117.153 17.9544 116.224 17.4476C115.295 16.9238 114.256 16.6619 113.107 16.6619C111.248 16.6619 109.719 17.2702 108.52 18.4867C107.32 19.7031 106.72 21.2237 106.72 23.0484C106.72 24.8732 107.32 26.3853 108.52 27.5849C109.736 28.7845 111.324 29.3843 113.284 29.3843C114.855 29.3843 116.131 29.021 117.111 28.2945C118.108 27.5511 118.741 26.5627 119.012 25.3293H113.081V22.719H121.951Z" fill="#333333"/>
<path d="M139.442 29.5617C137.668 31.3357 135.497 32.2227 132.928 32.2227C130.36 32.2227 128.181 31.3357 126.39 29.5617C124.616 27.7707 123.729 25.5912 123.729 23.0231C123.729 20.455 124.616 18.2839 126.39 16.5099C128.181 14.7189 130.36 13.8235 132.928 13.8235C135.497 13.8235 137.668 14.7189 139.442 16.5099C141.233 18.2839 142.128 20.455 142.128 23.0231C142.128 25.5912 141.233 27.7707 139.442 29.5617ZM128.443 27.5849C129.659 28.7845 131.154 29.3843 132.928 29.3843C134.702 29.3843 136.189 28.7845 137.389 27.5849C138.605 26.3684 139.214 24.8478 139.214 23.0231C139.214 21.1984 138.605 19.6862 137.389 18.4867C136.189 17.2702 134.702 16.6619 132.928 16.6619C131.154 16.6619 129.659 17.2702 128.443 18.4867C127.243 19.6862 126.643 21.1984 126.643 23.0231C126.643 24.8478 127.243 26.3684 128.443 27.5849Z" fill="#333333"/>
<path d="M159.612 29.5617C157.838 31.3357 155.667 32.2227 153.099 32.2227C150.531 32.2227 148.352 31.3357 146.561 29.5617C144.787 27.7707 143.9 25.5912 143.9 23.0231C143.9 20.455 144.787 18.2839 146.561 16.5099C148.352 14.7189 150.531 13.8235 153.099 13.8235C155.667 13.8235 157.838 14.7189 159.612 16.5099C161.403 18.2839 162.299 20.455 162.299 23.0231C162.299 25.5912 161.403 27.7707 159.612 29.5617ZM148.613 27.5849C149.83 28.7845 151.325 29.3843 153.099 29.3843C154.873 29.3843 156.36 28.7845 157.56 27.5849C158.776 26.3684 159.384 24.8478 159.384 23.0231C159.384 21.1984 158.776 19.6862 157.56 18.4867C156.36 17.2702 154.873 16.6619 153.099 16.6619C151.325 16.6619 149.83 17.2702 148.613 18.4867C147.414 19.6862 146.814 21.1984 146.814 23.0231C146.814 24.8478 147.414 26.3684 148.613 27.5849Z" fill="#333333"/>
<path d="M171.927 14.1529C174.36 14.1529 176.379 15.0062 177.984 16.7126C179.606 18.4191 180.417 20.5226 180.417 23.0231C180.417 25.5067 179.606 27.6102 177.984 29.3336C176.379 31.04 174.36 31.8933 171.927 31.8933H164.957V14.1529H171.927ZM171.927 29.1055C173.599 29.1055 174.959 28.531 176.007 27.3821C177.071 26.2333 177.604 24.7802 177.604 23.0231C177.604 21.2491 177.071 19.7961 176.007 18.6641C174.959 17.5152 173.599 16.9407 171.927 16.9407H167.872V29.1055H171.927Z" fill="#333333"/>
<path d="M188.31 32.2227C186.604 32.2227 185.151 31.8341 183.951 31.0569C182.769 30.2797 181.941 29.2153 181.468 27.8637L183.977 26.3938C184.686 28.3874 186.156 29.3843 188.387 29.3843C189.485 29.3843 190.304 29.1731 190.845 28.7507C191.402 28.3114 191.681 27.7454 191.681 27.0527C191.681 26.3262 191.385 25.7771 190.794 25.4054C190.203 25.0168 189.155 24.5944 187.652 24.1382C186.807 23.8848 186.123 23.6482 185.599 23.4286C185.075 23.209 184.517 22.9048 183.926 22.5162C183.352 22.1107 182.921 21.6123 182.634 21.021C182.346 20.4296 182.203 19.7369 182.203 18.9428C182.203 17.3715 182.76 16.1297 183.875 15.2174C184.991 14.2881 186.334 13.8235 187.905 13.8235C189.324 13.8235 190.566 14.1698 191.63 14.8626C192.695 15.5553 193.514 16.5099 194.089 17.7264L191.63 19.1456C190.887 17.4898 189.645 16.6619 187.905 16.6619C187.06 16.6619 186.384 16.8647 185.878 17.2702C185.371 17.6588 185.117 18.191 185.117 18.8668C185.117 19.5257 185.371 20.0495 185.878 20.4381C186.401 20.8098 187.339 21.2068 188.691 21.6292C189.366 21.8489 189.856 22.0178 190.161 22.1361C190.482 22.2375 190.921 22.4064 191.478 22.643C192.053 22.8795 192.484 23.116 192.771 23.3526C193.058 23.5891 193.362 23.8848 193.683 24.2396C194.021 24.5944 194.258 24.9999 194.393 25.4561C194.528 25.9122 194.596 26.4276 194.596 27.002C194.596 28.6071 194.013 29.8827 192.847 30.8288C191.698 31.7581 190.186 32.2227 188.31 32.2227Z" fill="#333333"/>
<path d="M68.5672 22.719V23.9355C68.5672 26.3684 67.7646 28.3621 66.1596 29.9165C64.5545 31.454 62.4595 32.2227 59.8744 32.2227C57.1374 32.2227 54.8734 31.3357 53.0824 29.5617C51.3084 27.7876 50.4214 25.6081 50.4214 23.0231C50.4214 20.455 51.3084 18.2839 53.0824 16.5099C54.8734 14.7189 57.0867 13.8235 59.7224 13.8235C61.3781 13.8235 62.8903 14.2036 64.2588 14.9639C65.6274 15.7242 66.6918 16.7464 67.4521 18.0305L64.9431 19.475C64.47 18.6303 63.7689 17.9544 62.8396 17.4476C61.9103 16.9238 60.8713 16.6619 59.7224 16.6619C57.8639 16.6619 56.3348 17.2702 55.1352 18.4867C53.9357 19.7031 53.3359 21.2237 53.3359 23.0484C53.3359 24.8732 53.9357 26.3853 55.1352 27.5849C56.3517 28.7845 57.9399 29.3843 59.8998 29.3843C61.4711 29.3843 62.7467 29.021 63.7266 28.2945C64.7235 27.5511 65.357 26.5627 65.6274 25.3293H59.697V22.719H68.5672Z" stroke="black" stroke-width="2" mask="url(#path-9-outside-3)"/>
<path d="M74.1461 29.1055H82.0025V31.8933H71.2316V14.1529H81.8758V16.9407H74.1461V21.5532H81.2422V24.3156H74.1461V29.1055Z" stroke="black" stroke-width="2" mask="url(#path-9-outside-3)"/>
<path d="M96.2017 14.1529V16.9407H91.209V31.8933H88.2946V16.9407H83.2766V14.1529H96.2017Z" stroke="black" stroke-width="2" mask="url(#path-9-outside-3)"/>
<path d="M121.951 22.719V23.9355C121.951 26.3684 121.149 28.3621 119.544 29.9165C117.939 31.454 115.844 32.2227 113.259 32.2227C110.522 32.2227 108.258 31.3357 106.467 29.5617C104.693 27.7876 103.806 25.6081 103.806 23.0231C103.806 20.455 104.693 18.2839 106.467 16.5099C108.258 14.7189 110.471 13.8235 113.107 13.8235C114.762 13.8235 116.275 14.2036 117.643 14.9639C119.012 15.7242 120.076 16.7464 120.836 18.0305L118.327 19.475C117.854 18.6303 117.153 17.9544 116.224 17.4476C115.295 16.9238 114.256 16.6619 113.107 16.6619C111.248 16.6619 109.719 17.2702 108.52 18.4867C107.32 19.7031 106.72 21.2237 106.72 23.0484C106.72 24.8732 107.32 26.3853 108.52 27.5849C109.736 28.7845 111.324 29.3843 113.284 29.3843C114.855 29.3843 116.131 29.021 117.111 28.2945C118.108 27.5511 118.741 26.5627 119.012 25.3293H113.081V22.719H121.951Z" stroke="black" stroke-width="2" mask="url(#path-9-outside-3)"/>
<path d="M139.442 29.5617C137.668 31.3357 135.497 32.2227 132.928 32.2227C130.36 32.2227 128.181 31.3357 126.39 29.5617C124.616 27.7707 123.729 25.5912 123.729 23.0231C123.729 20.455 124.616 18.2839 126.39 16.5099C128.181 14.7189 130.36 13.8235 132.928 13.8235C135.497 13.8235 137.668 14.7189 139.442 16.5099C141.233 18.2839 142.128 20.455 142.128 23.0231C142.128 25.5912 141.233 27.7707 139.442 29.5617ZM128.443 27.5849C129.659 28.7845 131.154 29.3843 132.928 29.3843C134.702 29.3843 136.189 28.7845 137.389 27.5849C138.605 26.3684 139.214 24.8478 139.214 23.0231C139.214 21.1984 138.605 19.6862 137.389 18.4867C136.189 17.2702 134.702 16.6619 132.928 16.6619C131.154 16.6619 129.659 17.2702 128.443 18.4867C127.243 19.6862 126.643 21.1984 126.643 23.0231C126.643 24.8478 127.243 26.3684 128.443 27.5849Z" stroke="black" stroke-width="2" mask="url(#path-9-outside-3)"/>
<path d="M159.612 29.5617C157.838 31.3357 155.667 32.2227 153.099 32.2227C150.531 32.2227 148.352 31.3357 146.561 29.5617C144.787 27.7707 143.9 25.5912 143.9 23.0231C143.9 20.455 144.787 18.2839 146.561 16.5099C148.352 14.7189 150.531 13.8235 153.099 13.8235C155.667 13.8235 157.838 14.7189 159.612 16.5099C161.403 18.2839 162.299 20.455 162.299 23.0231C162.299 25.5912 161.403 27.7707 159.612 29.5617ZM148.613 27.5849C149.83 28.7845 151.325 29.3843 153.099 29.3843C154.873 29.3843 156.36 28.7845 157.56 27.5849C158.776 26.3684 159.384 24.8478 159.384 23.0231C159.384 21.1984 158.776 19.6862 157.56 18.4867C156.36 17.2702 154.873 16.6619 153.099 16.6619C151.325 16.6619 149.83 17.2702 148.613 18.4867C147.414 19.6862 146.814 21.1984 146.814 23.0231C146.814 24.8478 147.414 26.3684 148.613 27.5849Z" stroke="black" stroke-width="2" mask="url(#path-9-outside-3)"/>
<path d="M171.927 14.1529C174.36 14.1529 176.379 15.0062 177.984 16.7126C179.606 18.4191 180.417 20.5226 180.417 23.0231C180.417 25.5067 179.606 27.6102 177.984 29.3336C176.379 31.04 174.36 31.8933 171.927 31.8933H164.957V14.1529H171.927ZM171.927 29.1055C173.599 29.1055 174.959 28.531 176.007 27.3821C177.071 26.2333 177.604 24.7802 177.604 23.0231C177.604 21.2491 177.071 19.7961 176.007 18.6641C174.959 17.5152 173.599 16.9407 171.927 16.9407H167.872V29.1055H171.927Z" stroke="black" stroke-width="2" mask="url(#path-9-outside-3)"/>
<path d="M188.31 32.2227C186.604 32.2227 185.151 31.8341 183.951 31.0569C182.769 30.2797 181.941 29.2153 181.468 27.8637L183.977 26.3938C184.686 28.3874 186.156 29.3843 188.387 29.3843C189.485 29.3843 190.304 29.1731 190.845 28.7507C191.402 28.3114 191.681 27.7454 191.681 27.0527C191.681 26.3262 191.385 25.7771 190.794 25.4054C190.203 25.0168 189.155 24.5944 187.652 24.1382C186.807 23.8848 186.123 23.6482 185.599 23.4286C185.075 23.209 184.517 22.9048 183.926 22.5162C183.352 22.1107 182.921 21.6123 182.634 21.021C182.346 20.4296 182.203 19.7369 182.203 18.9428C182.203 17.3715 182.76 16.1297 183.875 15.2174C184.991 14.2881 186.334 13.8235 187.905 13.8235C189.324 13.8235 190.566 14.1698 191.63 14.8626C192.695 15.5553 193.514 16.5099 194.089 17.7264L191.63 19.1456C190.887 17.4898 189.645 16.6619 187.905 16.6619C187.06 16.6619 186.384 16.8647 185.878 17.2702C185.371 17.6588 185.117 18.191 185.117 18.8668C185.117 19.5257 185.371 20.0495 185.878 20.4381C186.401 20.8098 187.339 21.2068 188.691 21.6292C189.366 21.8489 189.856 22.0178 190.161 22.1361C190.482 22.2375 190.921 22.4064 191.478 22.643C192.053 22.8795 192.484 23.116 192.771 23.3526C193.058 23.5891 193.362 23.8848 193.683 24.2396C194.021 24.5944 194.258 24.9999 194.393 25.4561C194.528 25.9122 194.596 26.4276 194.596 27.002C194.596 28.6071 194.013 29.8827 192.847 30.8288C191.698 31.7581 190.186 32.2227 188.31 32.2227Z" stroke="black" stroke-width="2" mask="url(#path-9-outside-3)"/>
<defs>
<linearGradient id="paint0_linear" x1="2.42809" y1="44.2583" x2="48.9348" y2="9.89305" gradientUnits="userSpaceOnUse">
<stop stop-color="#FF2A00"/>
<stop offset="1" stop-color="#FF9900"/>
</linearGradient>
</defs>
</svg>
