<svg width="15" height="15" viewBox="0 0 15 15" fill="none" xmlns="http://www.w3.org/2000/svg">
<path fill-rule="evenodd" clip-rule="evenodd" d="M1.75602 1.03706C2.30667 0.733489 2.95737 0.726408 3.51157 1.03263L10.3779 4.8215L8.20985 6.98896L1.75602 1.03706ZM0.862305 2.51068C0.862305 2.19825 0.952605 1.90352 1.11019 1.64597L7.58347 7.61569L1.09337 14.1041C0.944637 13.8518 0.862305 13.5633 0.862305 13.2606V2.51068ZM13.2528 6.40771L11.1847 5.26686L8.86081 7.58928L11.7088 10.2153L13.2537 9.36296C13.8096 9.05496 14.1425 8.50267 14.1425 7.88489C14.1416 7.26711 13.8096 6.71483 13.2528 6.40771ZM1.72832 14.7214L8.23615 8.21558L10.8938 10.6662L3.51308 14.7382C3.23599 14.8914 2.93321 14.9675 2.63221 14.9675C2.32059 14.9675 2.01073 14.8825 1.72832 14.7214Z" fill="url(#paint0_linear)"/>
<defs>
<linearGradient id="paint0_linear" x1="1.63698" y1="14.1414" x2="15.8656" y2="3.0083" gradientUnits="userSpaceOnUse">
<stop stop-color="#FF2A00"/>
<stop offset="1" stop-color="#FF9900"/>
</linearGradient>
</defs>
</svg>
