<svg width="180" height="53" viewBox="0 0 180 53" fill="none" xmlns="http://www.w3.org/2000/svg">
<path fill-rule="evenodd" clip-rule="evenodd" d="M170 1.3H10C5.19512 1.3 1.3 5.19512 1.3 10V43C1.3 47.8049 5.19513 51.7 10 51.7H170C174.805 51.7 178.7 47.8049 178.7 43V10C178.7 5.19512 174.805 1.3 170 1.3ZM10 0C4.47715 0 0 4.47715 0 10V43C0 48.5228 4.47716 53 10 53H170C175.523 53 180 48.5229 180 43V10C180 4.47715 175.523 0 170 0H10Z" fill="url(#paint0_linear)"/>
<path fill-rule="evenodd" clip-rule="evenodd" d="M31.2953 16C32.0935 15.5599 33.0368 15.5497 33.8402 15.9936L43.7941 21.4861L40.6511 24.6282L31.2953 16ZM30 18.1361C30 17.6832 30.1309 17.256 30.3593 16.8826L39.7433 25.5367L30.335 34.9425C30.1194 34.5769 30 34.1586 30 33.7198V18.1361ZM47.9619 23.7854L44.964 22.1315L41.5951 25.4982L45.7237 29.305L47.9632 28.0695C48.7692 27.623 49.2517 26.8223 49.2517 25.9268C49.2504 25.0312 48.7692 24.2306 47.9619 23.7854ZM31.2555 35.8377L40.6896 26.4064L44.5423 29.959L33.8428 35.862C33.4411 36.084 33.0022 36.1943 32.5658 36.1943C32.1141 36.1943 31.6649 36.0712 31.2555 35.8377Z" fill="url(#paint1_linear)"/>
<path d="M63.848 22.156C62.576 22.156 61.524 21.736 60.692 20.896C59.868 20.056 59.456 19.024 59.456 17.8C59.456 16.576 59.868 15.544 60.692 14.704C61.524 13.864 62.576 13.444 63.848 13.444C64.616 13.444 65.32 13.628 65.96 13.996C66.608 14.364 67.112 14.86 67.472 15.484L66.5 16.048C66.26 15.584 65.9 15.216 65.42 14.944C64.948 14.664 64.424 14.524 63.848 14.524C62.88 14.524 62.088 14.836 61.472 15.46C60.864 16.084 60.56 16.864 60.56 17.8C60.56 18.728 60.864 19.504 61.472 20.128C62.088 20.752 62.88 21.064 63.848 21.064C64.424 21.064 64.948 20.928 65.42 20.656C65.9 20.376 66.26 20.008 66.5 19.552L67.472 20.104C67.12 20.728 66.62 21.228 65.972 21.604C65.324 21.972 64.616 22.156 63.848 22.156ZM73.7391 22H72.4431L69.7071 19.156V22H68.6631V16H69.7071V18.652L72.2991 16H73.6431L70.7751 18.904L73.7391 22ZM79.1272 16H80.1712V22H79.1272V20.968C78.6072 21.76 77.8512 22.156 76.8592 22.156C76.0192 22.156 75.3032 21.852 74.7112 21.244C74.1192 20.628 73.8232 19.88 73.8232 19C73.8232 18.12 74.1192 17.376 74.7112 16.768C75.3032 16.152 76.0192 15.844 76.8592 15.844C77.8512 15.844 78.6072 16.24 79.1272 17.032V16ZM76.9912 21.148C77.5992 21.148 78.1072 20.944 78.5152 20.536C78.9232 20.12 79.1272 19.608 79.1272 19C79.1272 18.392 78.9232 17.884 78.5152 17.476C78.1072 17.06 77.5992 16.852 76.9912 16.852C76.3912 16.852 75.8872 17.06 75.4792 17.476C75.0712 17.884 74.8672 18.392 74.8672 19C74.8672 19.608 75.0712 20.12 75.4792 20.536C75.8872 20.944 76.3912 21.148 76.9912 21.148ZM85.5329 16H86.5769V22H85.5329V19.84C85.0529 20.048 84.5129 20.152 83.9129 20.152C83.1449 20.152 82.5489 19.972 82.1249 19.612C81.7089 19.244 81.5009 18.704 81.5009 17.992V16H82.5449V17.932C82.5449 18.38 82.6649 18.7 82.9049 18.892C83.1529 19.084 83.5129 19.18 83.9849 19.18C84.5529 19.18 85.0689 19.076 85.5329 18.868V16ZM93.1311 16H94.1751V22H93.1311V20.968C92.6111 21.76 91.8551 22.156 90.8631 22.156C90.0231 22.156 89.3071 21.852 88.7151 21.244C88.1231 20.628 87.8271 19.88 87.8271 19C87.8271 18.12 88.1231 17.376 88.7151 16.768C89.3071 16.152 90.0231 15.844 90.8631 15.844C91.8551 15.844 92.6111 16.24 93.1311 17.032V16ZM90.9951 21.148C91.6031 21.148 92.1111 20.944 92.5191 20.536C92.9271 20.12 93.1311 19.608 93.1311 19C93.1311 18.392 92.9271 17.884 92.5191 17.476C92.1111 17.06 91.6031 16.852 90.9951 16.852C90.3951 16.852 89.8911 17.06 89.4831 17.476C89.0751 17.884 88.8711 18.392 88.8711 19C88.8711 19.608 89.0751 20.12 89.4831 20.536C89.8911 20.944 90.3951 21.148 90.9951 21.148ZM100.221 16V17.008H98.1808V22H97.1368V17.008H95.0848V16H100.221ZM105.492 16H106.332V22H105.3V17.788L101.976 22H101.136V16H102.168V20.212L105.492 16ZM114.917 18.916C115.533 19.172 115.841 19.636 115.841 20.308C115.841 20.804 115.673 21.212 115.337 21.532C115.009 21.844 114.537 22 113.921 22H110.921V16H113.681C114.281 16 114.745 16.152 115.073 16.456C115.401 16.752 115.565 17.144 115.565 17.632C115.565 18.208 115.349 18.636 114.917 18.916ZM113.633 16.936H111.941V18.508H113.633C114.241 18.508 114.545 18.24 114.545 17.704C114.545 17.192 114.241 16.936 113.633 16.936ZM113.861 21.052C114.165 21.052 114.397 20.98 114.557 20.836C114.725 20.692 114.809 20.488 114.809 20.224C114.809 19.976 114.725 19.784 114.557 19.648C114.397 19.504 114.165 19.432 113.861 19.432H111.941V21.052H113.861ZM71.016 33.208V33.976C71.016 35.512 70.5093 36.7707 69.496 37.752C68.4827 38.7227 67.16 39.208 65.528 39.208C63.8 39.208 62.3707 38.648 61.24 37.528C60.12 36.408 59.56 35.032 59.56 33.4C59.56 31.7787 60.12 30.408 61.24 29.288C62.3707 28.1573 63.768 27.592 65.432 27.592C66.4773 27.592 67.432 27.832 68.296 28.312C69.16 28.792 69.832 29.4373 70.312 30.248L68.728 31.16C68.4293 30.6267 67.9867 30.2 67.4 29.88C66.8133 29.5493 66.1573 29.384 65.432 29.384C64.2587 29.384 63.2933 29.768 62.536 30.536C61.7787 31.304 61.4 32.264 61.4 33.416C61.4 34.568 61.7787 35.5227 62.536 36.28C63.304 37.0373 64.3067 37.416 65.544 37.416C66.536 37.416 67.3413 37.1867 67.96 36.728C68.5893 36.2587 68.9893 35.6347 69.16 34.856H65.416V33.208H71.016ZM76.3621 39.208C75.1888 39.208 74.1915 38.8027 73.3701 37.992C72.5488 37.1813 72.1381 36.184 72.1381 35C72.1381 33.816 72.5488 32.8187 73.3701 32.008C74.1915 31.1973 75.1888 30.792 76.3621 30.792C77.5461 30.792 78.5435 31.1973 79.3541 32.008C80.1755 32.8187 80.5861 33.816 80.5861 35C80.5861 36.184 80.1755 37.1813 79.3541 37.992C78.5435 38.8027 77.5461 39.208 76.3621 39.208ZM74.5861 36.808C75.0661 37.288 75.6581 37.528 76.3621 37.528C77.0661 37.528 77.6581 37.288 78.1381 36.808C78.6181 36.328 78.8581 35.7253 78.8581 35C78.8581 34.2747 78.6181 33.672 78.1381 33.192C77.6581 32.712 77.0661 32.472 76.3621 32.472C75.6581 32.472 75.0661 32.712 74.5861 33.192C74.1061 33.672 73.8661 34.2747 73.8661 35C73.8661 35.7253 74.1061 36.328 74.5861 36.808ZM85.9246 39.208C84.7513 39.208 83.754 38.8027 82.9326 37.992C82.1113 37.1813 81.7006 36.184 81.7006 35C81.7006 33.816 82.1113 32.8187 82.9326 32.008C83.754 31.1973 84.7513 30.792 85.9246 30.792C87.1086 30.792 88.106 31.1973 88.9166 32.008C89.738 32.8187 90.1486 33.816 90.1486 35C90.1486 36.184 89.738 37.1813 88.9166 37.992C88.106 38.8027 87.1086 39.208 85.9246 39.208ZM84.1486 36.808C84.6286 37.288 85.2206 37.528 85.9246 37.528C86.6286 37.528 87.2206 37.288 87.7006 36.808C88.1806 36.328 88.4206 35.7253 88.4206 35C88.4206 34.2747 88.1806 33.672 87.7006 33.192C87.2206 32.712 86.6286 32.472 85.9246 32.472C85.2206 32.472 84.6286 32.712 84.1486 33.192C83.6686 33.672 83.4286 34.2747 83.4286 35C83.4286 35.7253 83.6686 36.328 84.1486 36.808ZM98.0791 31H99.7751V38.632C99.7751 39.848 99.3751 40.7813 98.5751 41.432C97.7751 42.0827 96.8045 42.408 95.6631 42.408C93.8178 42.408 92.5538 41.7627 91.8711 40.472L93.3591 39.608C93.7751 40.4293 94.5538 40.84 95.6951 40.84C96.4418 40.84 97.0231 40.6427 97.4391 40.248C97.8658 39.864 98.0791 39.3253 98.0791 38.632V37.656C97.4285 38.584 96.5005 39.048 95.2951 39.048C94.1645 39.048 93.2098 38.648 92.4311 37.848C91.6525 37.0373 91.2631 36.0613 91.2631 34.92C91.2631 33.7787 91.6525 32.808 92.4311 32.008C93.2098 31.1973 94.1645 30.792 95.2951 30.792C96.5005 30.792 97.4285 31.256 98.0791 32.184V31ZM93.7111 36.712C94.2018 37.192 94.8098 37.432 95.5351 37.432C96.2605 37.432 96.8631 37.192 97.3431 36.712C97.8338 36.232 98.0791 35.6347 98.0791 34.92C98.0791 34.2053 97.8338 33.608 97.3431 33.128C96.8631 32.648 96.2605 32.408 95.5351 32.408C94.8098 32.408 94.2018 32.648 93.7111 33.128C93.2311 33.608 92.9911 34.2053 92.9911 34.92C92.9911 35.6347 93.2311 36.232 93.7111 36.712ZM101.789 39V27.32H103.517V39H101.789ZM106.884 35.736C107.012 36.344 107.305 36.8133 107.764 37.144C108.222 37.464 108.782 37.624 109.444 37.624C110.361 37.624 111.049 37.2933 111.508 36.632L112.932 37.464C112.142 38.6267 110.974 39.208 109.428 39.208C108.126 39.208 107.076 38.8133 106.276 38.024C105.476 37.224 105.076 36.216 105.076 35C105.076 33.8053 105.47 32.808 106.26 32.008C107.049 31.1973 108.062 30.792 109.3 30.792C110.473 30.792 111.433 31.2027 112.18 32.024C112.937 32.8453 113.316 33.8427 113.316 35.016C113.316 35.1973 113.294 35.4373 113.252 35.736H106.884ZM106.868 34.328H111.572C111.454 33.6773 111.182 33.1867 110.756 32.856C110.34 32.5253 109.849 32.36 109.284 32.36C108.644 32.36 108.11 32.536 107.684 32.888C107.257 33.24 106.985 33.72 106.868 34.328ZM123.076 27.8C124.132 27.8 125.012 28.152 125.716 28.856C126.431 29.56 126.788 30.4347 126.788 31.48C126.788 32.5147 126.431 33.3893 125.716 34.104C125.012 34.808 124.132 35.16 123.076 35.16H120.788V39H118.948V27.8H123.076ZM123.076 33.432C123.62 33.432 124.068 33.2507 124.42 32.888C124.772 32.5147 124.948 32.0453 124.948 31.48C124.948 30.9147 124.772 30.4507 124.42 30.088C124.068 29.7147 123.62 29.528 123.076 29.528H120.788V33.432H123.076ZM128.274 39V27.32H130.002V39H128.274ZM138.344 31H140.072V39H138.344V37.848C137.693 38.7547 136.76 39.208 135.544 39.208C134.445 39.208 133.507 38.8027 132.728 37.992C131.949 37.1707 131.56 36.1733 131.56 35C131.56 33.816 131.949 32.8187 132.728 32.008C133.507 31.1973 134.445 30.792 135.544 30.792C136.76 30.792 137.693 31.24 138.344 32.136V31ZM134.008 36.84C134.488 37.32 135.091 37.56 135.816 37.56C136.541 37.56 137.144 37.32 137.624 36.84C138.104 36.3493 138.344 35.736 138.344 35C138.344 34.264 138.104 33.656 137.624 33.176C137.144 32.6853 136.541 32.44 135.816 32.44C135.091 32.44 134.488 32.6853 134.008 33.176C133.528 33.656 133.288 34.264 133.288 35C133.288 35.736 133.528 36.3493 134.008 36.84ZM147.478 31H149.318L146.246 39.256C145.478 41.3253 144.177 42.3067 142.342 42.2V40.584C142.886 40.616 143.323 40.4987 143.654 40.232C143.985 39.976 144.257 39.5707 144.47 39.016L144.55 38.856L141.158 31H143.046L145.43 36.808L147.478 31Z" fill="url(#paint2_linear)"/>
<defs>
<linearGradient id="paint0_linear" x1="10.5" y1="49.9083" x2="44.9334" y2="-47.6648" gradientUnits="userSpaceOnUse">
<stop stop-color="#FF2A00"/>
<stop offset="1" stop-color="#FF9900"/>
</linearGradient>
<linearGradient id="paint1_linear" x1="31.123" y1="34.9968" x2="51.7496" y2="18.8576" gradientUnits="userSpaceOnUse">
<stop stop-color="#FF2A00"/>
<stop offset="1" stop-color="#FF9900"/>
</linearGradient>
<linearGradient id="paint2_linear" x1="64.3083" y1="39.3083" x2="84.3202" y2="-13.0862" gradientUnits="userSpaceOnUse">
<stop stop-color="#FF2A00"/>
<stop offset="1" stop-color="#FF9900"/>
</linearGradient>
</defs>
</svg>
