<svg width="180" height="335" viewBox="0 0 180 335" fill="none" xmlns="http://www.w3.org/2000/svg">
<g filter="url(#filter0_d)">
<path d="M163.937 96.1064H164.468C164.762 96.1064 165 96.3446 165 96.6384V128.553C165 128.847 164.762 129.085 164.468 129.085H163.937V96.1064Z" fill="white"/>
<path d="M16.0635 136.177L15.5316 136.177C15.2378 136.177 14.9996 135.939 14.9996 135.645L14.9996 115.787C14.9996 115.493 15.2378 115.255 15.5316 115.255L16.0635 115.255L16.0635 136.177Z" fill="white"/>
<path d="M16.0635 109.582L15.5316 109.582C15.2378 109.582 14.9996 109.343 14.9996 109.05L14.9996 89.1915C14.9996 88.8977 15.2378 88.6596 15.5316 88.6596L16.0635 88.6596L16.0635 109.582Z" fill="white"/>
<path d="M16.0635 79.4397L15.5316 79.4397C15.2378 79.4397 14.9996 79.2016 14.9996 78.9078L14.9996 70.0425C14.9996 69.7488 15.2378 69.5106 15.5316 69.5106L16.0635 69.5106L16.0635 79.4397Z" fill="white"/>
<path d="M16.0635 43.2695C16.0635 34.6891 16.0635 30.3989 17.1916 26.9269C19.4716 19.9097 24.9732 14.4082 31.9904 12.1281C35.4624 11 39.7526 11 48.333 11H131.666C140.247 11 144.537 11 148.009 12.1281C155.026 14.4082 160.528 19.9097 162.808 26.9269C163.936 30.3989 163.936 34.6891 163.936 43.2695V282.986C163.936 291.566 163.936 295.856 162.808 299.328C160.528 306.346 155.026 311.847 148.009 314.127C144.537 315.255 140.247 315.255 131.666 315.255H48.333C39.7526 315.255 35.4624 315.255 31.9904 314.127C24.9732 311.847 19.4716 306.346 17.1916 299.328C16.0635 295.856 16.0635 291.566 16.0635 282.986V43.2695Z" fill="white"/>
<path d="M17.8369 42.5603C17.8369 34.64 17.8369 30.6798 18.8783 27.4748C20.9829 20.9974 26.0613 15.9191 32.5387 13.8144C35.7436 12.7731 39.7038 12.7731 47.6241 12.7731H132.376C140.296 12.7731 144.256 12.7731 147.461 13.8144C153.939 15.9191 159.017 20.9974 161.122 27.4748C162.163 30.6798 162.163 34.64 162.163 42.5603V283.695C162.163 291.615 162.163 295.576 161.122 298.781C159.017 305.258 153.939 310.336 147.461 312.441C144.256 313.482 140.296 313.482 132.376 313.482H47.6242C39.7038 313.482 35.7436 313.482 32.5387 312.441C26.0613 310.336 20.9829 305.258 18.8783 298.781C17.8369 295.576 17.8369 291.615 17.8369 283.695V42.5603Z" fill="white"/>
<path d="M132.376 11H134.504V12.773H132.376V11Z" fill="#F5F5F5"/>
<path d="M162.164 41.4965H163.937V43.6241H162.164V41.4965Z" fill="#F5F5F5"/>
<path d="M16.0635 41.4965H17.8365V43.6241H16.0635V41.4965Z" fill="#F5F5F5"/>
<path d="M16.0635 282.631H17.8365V284.759H16.0635V282.631Z" fill="#F5F5F5"/>
<path d="M162.164 282.631H163.937V284.759H162.164V282.631Z" fill="#F5F5F5"/>
<path d="M45.4971 313.482H47.6247V315.255H45.4971V313.482Z" fill="#F5F5F5"/>
<mask id="mask0" mask-type="alpha" maskUnits="userSpaceOnUse" x="22" y="17" width="136" height="292">
<path d="M57.1989 21.39C57.1989 25.0523 60.2473 28.0212 63.9365 28.0212H116.064C119.753 28.0212 122.802 25.0523 122.802 21.39V19.5815C122.802 18.5827 123.569 17.7375 124.575 17.7375H132.699C139.996 17.7375 143.644 17.7375 146.546 18.8602C150.923 20.5535 154.383 24.0137 156.076 28.3907C157.199 31.2927 157.199 34.941 157.199 42.2376V284.018C157.199 291.314 157.199 294.963 156.076 297.865C154.383 302.242 150.923 305.702 146.546 307.395C143.644 308.518 139.996 308.518 132.699 308.518H47.3018C40.0052 308.518 36.3569 308.518 33.4549 307.395C29.078 305.702 25.6178 302.242 23.9244 297.865C22.8018 294.963 22.8018 291.314 22.8018 284.018V42.2376C22.8018 34.941 22.8018 31.2927 23.9244 28.3907C25.6178 24.0137 29.078 20.5535 33.4549 18.8602C36.3569 17.7375 40.0052 17.7375 47.3018 17.7375H55.4259C56.432 17.7375 57.1989 18.5827 57.1989 19.5815V21.39Z" fill="white"/>
</mask>
<g mask="url(#mask0)">
<rect x="22.8018" y="17.7375" width="134.397" height="290.78" fill="url(#paint0_linear)"/>
</g>
<path fill-rule="evenodd" clip-rule="evenodd" d="M103.652 24.1205C105.023 24.1205 106.134 23.0092 106.134 21.6383C106.134 20.2674 105.023 19.156 103.652 19.156C102.281 19.156 101.17 20.2674 101.17 21.6383C101.17 23.0092 102.281 24.1205 103.652 24.1205Z" fill="#F5F5F5"/>
<rect width="15.2482" height="2.12766" transform="translate(82.376 20.5745)" fill="#EBEBEB"/>
<path fill-rule="evenodd" clip-rule="evenodd" d="M82.376 21.6383C82.376 21.0508 82.8523 20.5745 83.4398 20.5745H96.5604C97.1479 20.5745 97.6242 21.0508 97.6242 21.6383V21.6383C97.6242 22.2258 97.1479 22.7021 96.5604 22.7021H83.4398C82.8523 22.7021 82.376 22.2258 82.376 21.6383V21.6383Z" fill="#F5F5F5"/>
<path fill-rule="evenodd" clip-rule="evenodd" d="M112.954 168.313H113.739C114.667 168.313 115.421 169.068 115.421 169.995V177.979C115.421 178.906 114.667 179.661 113.739 179.661H112.954V186.737C112.954 188.571 111.462 190.062 109.629 190.062H67.8885C66.055 190.062 64.5635 188.571 64.5635 186.737V161.236C64.5635 159.897 65.3596 158.742 66.503 158.215V157.558C66.503 156.16 67.6401 155.023 69.0378 155.023H70.9537L72.0787 143.634C72.2101 142.305 73.3988 141.33 74.7281 141.461L86.3226 142.607C86.7338 142.647 87.0341 143.013 86.9935 143.425C86.9529 143.836 86.5867 144.135 86.1756 144.095L74.5811 142.95C74.0719 142.899 73.6179 143.273 73.5677 143.781L72.1719 157.912H73.1259L74.0229 148.83C74.0893 148.158 74.5214 147.592 75.1507 147.355C75.9867 147.04 76.7112 146.451 77.1907 145.698C77.5475 145.137 78.1827 144.83 78.8486 144.895L84.5862 145.462C84.9974 145.503 85.2977 145.869 85.2571 146.28C85.2165 146.691 84.8505 146.991 84.4392 146.951L78.7016 146.384C78.6013 146.374 78.5044 146.42 78.4531 146.501C77.8009 147.526 76.8155 148.326 75.6785 148.755C75.5872 148.79 75.5218 148.877 75.5118 148.977L74.6293 157.912H78.2874L91.4329 138.622C91.7973 138.087 92.3483 137.726 92.9841 137.606C93.6203 137.485 94.2648 137.619 94.7996 137.984L110.03 148.363C111.134 149.115 111.42 150.626 110.667 151.73L108.423 155.023H109.01C110.407 155.023 111.544 156.16 111.544 157.558V158.521C112.396 159.124 112.954 160.116 112.954 161.236V168.313ZM110.048 157.558C110.048 156.985 109.582 156.519 109.01 156.519H107.403L106.455 157.912H109.629C109.771 157.912 109.911 157.922 110.048 157.939V157.558ZM93.2626 139.076C93.0194 139.122 92.8087 139.26 92.6692 139.464L80.0979 157.912H81.2467L90.6494 144.114C91.0244 143.564 91.69 143.268 92.3462 143.36C93.2311 143.483 94.1492 143.314 94.931 142.882C95.5128 142.561 96.2177 142.596 96.7707 142.972L104.666 148.353C105.219 148.73 105.509 149.373 105.423 150.032C105.307 150.918 105.485 151.834 105.924 152.612C106.254 153.198 106.223 153.909 105.842 154.468L103.495 157.911H104.644L109.431 150.887C109.719 150.465 109.609 149.887 109.187 149.599L93.957 139.22C93.8013 139.114 93.6213 139.059 93.437 139.059C93.3791 139.059 93.3208 139.065 93.2626 139.076ZM86.8488 157.912C87.0667 154.708 89.7409 152.168 92.9987 152.168C96.2566 152.168 98.9307 154.708 99.1488 157.911H101.685L104.606 153.625C104.663 153.541 104.669 153.432 104.621 153.347C104.024 152.289 103.782 151.043 103.939 149.838C103.951 149.743 103.906 149.646 103.823 149.589L95.928 144.209C95.8452 144.152 95.7377 144.146 95.654 144.192C94.5905 144.779 93.3421 145.01 92.1385 144.841C92.1271 144.84 92.1157 144.839 92.1043 144.839C92.0189 144.839 91.9358 144.883 91.8856 144.957H91.8855L83.057 157.912H86.8488ZM88.3489 157.912H97.6486C97.4344 155.534 95.4313 153.664 92.9987 153.664C90.5662 153.664 88.5632 155.534 88.3489 157.912ZM69.0378 156.519C68.465 156.519 67.9991 156.985 67.9991 157.558V157.912H70.6684L70.8059 156.519H69.0378ZM67.8885 159.408C66.88 159.408 66.0596 160.228 66.0596 161.236V163.312H111.457V161.236C111.457 160.228 110.637 159.408 109.629 159.408H67.8885ZM109.629 188.566C110.637 188.566 111.457 187.746 111.457 186.737V184.662H74.8837C74.4706 184.662 74.1357 184.327 74.1357 183.914C74.1357 183.5 74.4705 183.166 74.8837 183.166H111.457V179.661H104.345H104.344C101.216 179.661 98.6708 177.116 98.6708 173.987C98.6708 173.401 98.7601 172.836 98.9257 172.304L98.9263 172.302C99.004 172.053 99.0993 171.811 99.209 171.578C99.2166 171.562 99.2234 171.545 99.2312 171.529C99.2344 171.523 99.2378 171.517 99.2409 171.51C100.162 169.62 102.103 168.313 104.345 168.313H104.345H111.457V164.808H66.0596V183.166H70.0937C70.5068 183.166 70.8417 183.5 70.8417 183.914C70.8417 184.327 70.5069 184.662 70.0937 184.662H66.0596V186.737C66.0596 187.746 66.88 188.566 67.8885 188.566H109.629ZM113.739 178.165C113.842 178.165 113.925 178.081 113.925 177.979V169.995C113.925 169.893 113.842 169.809 113.739 169.809H104.345C102.761 169.809 101.38 170.695 100.672 171.997C100.64 172.056 100.609 172.117 100.58 172.177C100.521 172.299 100.468 172.424 100.421 172.552C100.257 173 100.167 173.483 100.167 173.987C100.167 174.491 100.257 174.974 100.421 175.422C100.468 175.55 100.521 175.675 100.58 175.797C100.609 175.857 100.64 175.917 100.672 175.977C101.38 177.279 102.761 178.165 104.345 178.165H113.739ZM101.485 173.987C101.485 172.313 102.847 170.952 104.52 170.952C106.194 170.952 107.556 172.313 107.556 173.987C107.556 175.66 106.194 177.022 104.52 177.022C102.847 177.022 101.485 175.66 101.485 173.987ZM102.981 173.987C102.981 174.835 103.672 175.526 104.52 175.526C105.369 175.526 106.059 174.836 106.059 173.987C106.059 173.138 105.369 172.448 104.52 172.448C103.672 172.448 102.981 173.138 102.981 173.987Z" fill="url(#paint1_linear)"/>
</g>
<defs>
<filter id="filter0_d" x="0" y="0" width="180" height="334.255" filterUnits="userSpaceOnUse" color-interpolation-filters="sRGB">
<feFlood flood-opacity="0" result="BackgroundImageFix"/>
<feColorMatrix in="SourceAlpha" type="matrix" values="0 0 0 0 0 0 0 0 0 0 0 0 0 0 0 0 0 0 127 0"/>
<feOffset dy="4"/>
<feGaussianBlur stdDeviation="7.5"/>
<feColorMatrix type="matrix" values="0 0 0 0 0.2 0 0 0 0 0.2 0 0 0 0 0.2 0 0 0 0.1 0"/>
<feBlend mode="normal" in2="BackgroundImageFix" result="effect1_dropShadow"/>
<feBlend mode="normal" in="SourceGraphic" in2="effect1_dropShadow" result="shape"/>
</filter>
<linearGradient id="paint0_linear" x1="9.50204e-05" y1="342.875" x2="184.199" y2="334.7" gradientUnits="userSpaceOnUse">
<stop stop-color="#F2F2F2"/>
<stop offset="1" stop-color="#F2F2F2" stop-opacity="0.03"/>
</linearGradient>
<linearGradient id="paint1_linear" x1="67.5302" y1="187" x2="120.666" y2="144.052" gradientUnits="userSpaceOnUse">
<stop stop-color="#FF2A00"/>
<stop offset="1" stop-color="#FF9900"/>
</linearGradient>
</defs>
</svg>
