<svg width="15" height="19" viewBox="0 0 15 19" fill="none" xmlns="http://www.w3.org/2000/svg">
<path d="M10.934 0.967529C10.9744 0.967529 11.0148 0.967529 11.0575 0.967529C11.1566 2.19105 10.6894 3.10527 10.1217 3.76731C9.56462 4.42478 8.8018 5.06245 7.56803 4.96569C7.48572 3.75969 7.95363 2.91328 8.5206 2.25276C9.04642 1.63719 10.0104 1.08942 10.934 0.967529Z" fill="white"/>
<path d="M14.6708 13.7025C14.6708 13.7147 14.6708 13.7253 14.6708 13.7368C14.3241 14.7866 13.8295 15.6863 13.2259 16.5212C12.675 17.2793 11.9998 18.2994 10.7942 18.2994C9.75249 18.2994 9.06055 17.6297 7.9929 17.6114C6.86354 17.5931 6.24246 18.1714 5.20987 18.3169C5.09175 18.3169 4.97364 18.3169 4.8578 18.3169C4.09956 18.2072 3.48762 17.6069 3.04182 17.066C1.72727 15.4676 0.711451 13.4031 0.522461 10.7611C0.522461 10.5021 0.522461 10.2438 0.522461 9.98478C0.602477 8.09392 1.52152 6.55656 2.74309 5.81149C3.38779 5.41534 4.27407 5.07785 5.26093 5.22869C5.68387 5.29421 6.11596 5.43896 6.4947 5.58218C6.85363 5.72007 7.30248 5.96462 7.72771 5.95167C8.01577 5.94329 8.3023 5.79321 8.59264 5.68731C9.4431 5.3803 10.2768 5.02833 11.3757 5.19365C12.6963 5.39325 13.6336 5.97986 14.2128 6.88491C13.0956 7.59569 12.2124 8.66682 12.3633 10.496C12.4974 12.1575 13.4637 13.1296 14.6708 13.7025Z" fill="white"/>
</svg>
