<svg width="24" height="23" viewBox="0 0 24 23" fill="none" xmlns="http://www.w3.org/2000/svg">
<path d="M12.0865 0C9.86794 0 7.69918 0.657888 5.85449 1.89047C4.0098 3.12305 2.57204 4.87497 1.72302 6.92468C0.874001 8.97439 0.651859 11.2298 1.08468 13.4058C1.51751 15.5818 2.58586 17.5805 4.15464 19.1493C5.72342 20.7181 7.72217 21.7864 9.89813 22.2192C12.0741 22.6521 14.3295 22.4299 16.3792 21.5809C18.429 20.7319 20.1809 19.2941 21.4135 17.4494C22.646 15.6047 23.3039 13.436 23.3039 11.2174C23.3039 9.7443 23.0138 8.28563 22.4501 6.92468C21.8863 5.56372 21.0601 4.32713 20.0184 3.2855C18.9768 2.24387 17.7402 1.4176 16.3792 0.853873C15.0183 0.290146 13.5596 0 12.0865 0ZM15.6537 16.9966C15.6118 17.1014 15.548 17.196 15.4665 17.2741C15.3851 17.3522 15.2878 17.412 15.1814 17.4494C15.0749 17.4868 14.9617 17.5009 14.8493 17.4909C14.7369 17.481 14.6279 17.447 14.5297 17.3914L11.4842 15.0246L9.53009 16.8283C9.48473 16.8618 9.43169 16.8834 9.37583 16.891C9.31997 16.8987 9.26308 16.8921 9.2104 16.8721L9.58506 13.5192L9.59627 13.5293L9.60413 13.4631C9.60413 13.4631 15.0838 8.47361 15.307 8.26161C15.5336 8.0496 15.4585 8.00361 15.4585 8.00361C15.4719 7.74561 15.0535 8.00361 15.0535 8.00361L7.79252 12.6745L4.76943 11.6448C4.76943 11.6448 4.30503 11.4788 4.26128 11.1119C4.21529 10.7485 4.78401 10.5511 4.78401 10.5511L16.8057 5.77471C16.8057 5.77471 17.7939 5.33499 17.7939 6.06412L15.6537 16.9966Z" fill="#333333"/>
</svg>
