<svg width="1320" height="670" viewBox="0 0 1320 670" fill="none" xmlns="http://www.w3.org/2000/svg">
<g opacity="0.25">
<path d="M4.0624 2.0312C4.0624 3.11451 3.11451 4.0624 2.0312 4.0624C0.947894 4.0624 0 3.11451 0 2.0312C0 0.947894 0.947894 0 2.0312 0C3.11451 0 4.0624 0.947894 4.0624 2.0312Z" fill="url(#paint0_linear)"/>
<path d="M17.8744 39.5406C17.8744 40.6239 16.9265 41.5718 15.8432 41.5718C14.7599 41.5718 13.812 40.6239 13.812 39.5406C13.812 38.4573 14.7599 37.5094 15.8432 37.5094C16.9265 37.5094 17.8744 38.3219 17.8744 39.5406Z" fill="url(#paint1_linear)"/>
<path d="M31.6869 14.4891C31.6869 15.5724 30.739 16.5203 29.6557 16.5203C28.5724 16.5203 27.6245 15.5724 27.6245 14.4891C27.6245 13.4058 28.5724 12.4579 29.6557 12.4579C30.739 12.4579 31.6869 13.4058 31.6869 14.4891Z" fill="url(#paint2_linear)"/>
<path d="M2.0312 16.5203C3.153 16.5203 4.0624 15.6109 4.0624 14.4891C4.0624 13.3673 3.153 12.4579 2.0312 12.4579C0.9094 12.4579 0 13.3673 0 14.4891C0 15.6109 0.9094 16.5203 2.0312 16.5203Z" fill="url(#paint3_linear)"/>
<path d="M15.8432 54.0299C16.965 54.0299 17.8744 53.1205 17.8744 51.9987C17.8744 50.8769 16.965 49.9675 15.8432 49.9675C14.7214 49.9675 13.812 50.8769 13.812 51.9987C13.812 53.1205 14.7214 54.0299 15.8432 54.0299Z" fill="url(#paint4_linear)"/>
<path d="M31.6869 26.9472C31.6869 28.0305 30.739 28.9784 29.6557 28.9784C28.5724 28.9784 27.6245 28.0305 27.6245 26.9472C27.6245 25.8639 28.5724 24.916 29.6557 24.916C30.739 24.916 31.6869 25.8639 31.6869 26.9472Z" fill="url(#paint5_linear)"/>
<path d="M2.0312 29.1138C3.153 29.1138 4.0624 28.2044 4.0624 27.0826C4.0624 25.9608 3.153 25.0514 2.0312 25.0514C0.9094 25.0514 0 25.9608 0 27.0826C0 28.2044 0.9094 29.1138 2.0312 29.1138Z" fill="url(#paint6_linear)"/>
<path d="M15.8432 66.4878C16.965 66.4878 17.8744 65.5784 17.8744 64.4566C17.8744 63.3348 16.965 62.4254 15.8432 62.4254C14.7214 62.4254 13.812 63.3348 13.812 64.4566C13.812 65.5784 14.7214 66.4878 15.8432 66.4878Z" fill="url(#paint7_linear)"/>
<path d="M31.6869 39.5406C31.6869 40.6239 30.739 41.5718 29.6557 41.5718C28.5724 41.5718 27.6245 40.6239 27.6245 39.5406C27.6245 38.4573 28.5724 37.5094 29.6557 37.5094C30.739 37.5094 31.6869 38.3219 31.6869 39.5406Z" fill="url(#paint8_linear)"/>
<path d="M4.0624 39.5406C4.0624 40.6239 3.11451 41.5718 2.0312 41.5718C0.947894 41.5718 0 40.6239 0 39.5406C0 38.4573 0.947894 37.5094 2.0312 37.5094C3.11451 37.5094 4.0624 38.4573 4.0624 39.5406Z" fill="url(#paint9_linear)"/>
<path d="M17.8744 76.9146C17.8744 77.9979 16.9265 78.9458 15.8432 78.9458C14.7599 78.9458 13.812 77.9979 13.812 76.9146C13.812 75.8313 14.7599 74.8834 15.8432 74.8834C16.9265 74.8834 17.8744 75.8313 17.8744 76.9146Z" fill="url(#paint10_linear)"/>
<path d="M29.6557 54.0299C30.7775 54.0299 31.6869 53.1205 31.6869 51.9987C31.6869 50.8769 30.7775 49.9675 29.6557 49.9675C28.5339 49.9675 27.6245 50.8769 27.6245 51.9987C27.6245 53.1205 28.5339 54.0299 29.6557 54.0299Z" fill="url(#paint11_linear)"/>
<path d="M4.0624 51.9987C4.0624 53.082 3.11451 54.0299 2.0312 54.0299C0.947894 54.0299 0 53.082 0 51.9987C0 50.9154 0.947894 49.9675 2.0312 49.9675C3.11451 49.9675 4.0624 50.9154 4.0624 51.9987Z" fill="url(#paint12_linear)"/>
<path d="M17.8744 89.5081C17.8744 90.5914 16.9265 91.5393 15.8432 91.5393C14.7599 91.5393 13.812 90.5914 13.812 89.5081C13.812 88.4248 14.7599 87.4769 15.8432 87.4769C16.9265 87.4769 17.8744 88.2894 17.8744 89.5081Z" fill="url(#paint13_linear)"/>
<path d="M31.6869 64.4566C31.6869 65.5399 30.739 66.4878 29.6557 66.4878C28.5724 66.4878 27.6245 65.5399 27.6245 64.4566C27.6245 63.3733 28.5724 62.4254 29.6557 62.4254C30.739 62.4254 31.6869 63.3733 31.6869 64.4566Z" fill="url(#paint14_linear)"/>
<path d="M4.0624 64.4566C4.0624 65.5399 3.11451 66.4878 2.0312 66.4878C0.947894 66.4878 0 65.5399 0 64.4566C0 63.3733 0.947894 62.4254 2.0312 62.4254C3.11451 62.4254 4.0624 63.3733 4.0624 64.4566Z" fill="url(#paint15_linear)"/>
<path d="M17.8744 101.966C17.8744 103.05 16.9265 103.998 15.8432 103.998C14.7599 103.998 13.812 103.05 13.812 101.966C13.812 100.883 14.7599 99.9352 15.8432 99.9352C16.9265 99.9352 17.8744 100.883 17.8744 101.966Z" fill="url(#paint16_linear)"/>
<path d="M31.6869 76.9146C31.6869 77.9979 30.739 78.9458 29.6557 78.9458C28.5724 78.9458 27.6245 77.9979 27.6245 76.9146C27.6245 75.8313 28.5724 74.8834 29.6557 74.8834C30.739 74.8834 31.6869 75.8313 31.6869 76.9146Z" fill="url(#paint17_linear)"/>
</g>
<g opacity="0.25">
<path d="M459.669 590.779C459.107 591.341 458.123 591.341 457.56 590.779C456.998 590.216 456.998 589.232 457.56 588.67C458.123 588.107 459.107 588.107 459.669 588.67C460.232 589.232 460.232 590.216 459.669 590.779Z" fill="url(#paint18_linear)"/>
<path d="M447.365 617.427C446.802 617.99 445.818 617.99 445.255 617.427C444.693 616.865 444.693 615.88 445.255 615.318C445.818 614.755 446.802 614.755 447.365 615.318C447.927 615.88 447.998 616.794 447.365 617.427Z" fill="url(#paint19_linear)"/>
<path d="M467.545 611.591C466.982 612.154 465.998 612.154 465.436 611.591C464.873 611.029 464.873 610.044 465.436 609.482C465.998 608.919 466.982 608.919 467.545 609.482C468.107 610.044 468.107 611.029 467.545 611.591Z" fill="url(#paint20_linear)"/>
<path d="M451.091 597.248C451.674 597.83 452.618 597.83 453.201 597.248C453.783 596.665 453.783 595.721 453.201 595.138C452.618 594.556 451.674 594.556 451.091 595.138C450.509 595.721 450.509 596.665 451.091 597.248Z" fill="url(#paint21_linear)"/>
<path d="M438.787 623.896C439.369 624.478 440.314 624.478 440.896 623.896C441.478 623.313 441.478 622.369 440.896 621.786C440.314 621.204 439.369 621.204 438.787 621.786C438.204 622.369 438.204 623.313 438.787 623.896Z" fill="url(#paint22_linear)"/>
<path d="M461.076 618.06C460.513 618.622 459.529 618.622 458.966 618.06C458.404 617.497 458.404 616.513 458.966 615.951C459.529 615.388 460.513 615.388 461.076 615.951C461.638 616.513 461.638 617.497 461.076 618.06Z" fill="url(#paint23_linear)"/>
<path d="M444.552 603.787C445.135 604.369 446.079 604.369 446.662 603.787C447.244 603.204 447.244 602.26 446.662 601.677C446.079 601.095 445.135 601.095 444.552 601.677C443.97 602.26 443.97 603.204 444.552 603.787Z" fill="url(#paint24_linear)"/>
<path d="M432.318 630.365C432.901 630.947 433.845 630.947 434.428 630.365C435.01 629.782 435.01 628.838 434.428 628.255C433.845 627.673 432.901 627.673 432.318 628.255C431.736 628.838 431.736 629.782 432.318 630.365Z" fill="url(#paint25_linear)"/>
<path d="M454.537 624.599C453.975 625.161 452.99 625.161 452.428 624.599C451.865 624.036 451.865 623.052 452.428 622.489C452.99 621.927 453.975 621.927 454.537 622.489C455.1 623.052 455.17 623.966 454.537 624.599Z" fill="url(#paint26_linear)"/>
<path d="M440.193 610.255C439.631 610.818 438.646 610.818 438.084 610.255C437.521 609.693 437.521 608.708 438.084 608.146C438.646 607.583 439.631 607.583 440.193 608.146C440.756 608.708 440.756 609.693 440.193 610.255Z" fill="url(#paint27_linear)"/>
<path d="M427.959 636.833C427.396 637.396 426.412 637.396 425.85 636.833C425.287 636.271 425.287 635.286 425.85 634.724C426.412 634.161 427.396 634.161 427.959 634.724C428.521 635.286 428.521 636.271 427.959 636.833Z" fill="url(#paint28_linear)"/>
<path d="M445.959 631.068C446.541 631.65 447.486 631.65 448.068 631.068C448.651 630.485 448.651 629.541 448.068 628.958C447.486 628.376 446.541 628.376 445.959 628.958C445.377 629.541 445.377 630.485 445.959 631.068Z" fill="url(#paint29_linear)"/>
<path d="M433.725 616.724C433.162 617.286 432.178 617.286 431.615 616.724C431.053 616.161 431.053 615.177 431.615 614.615C432.178 614.052 433.162 614.052 433.725 614.615C434.287 615.177 434.287 616.161 433.725 616.724Z" fill="url(#paint30_linear)"/>
<path d="M421.42 643.372C420.857 643.935 419.873 643.935 419.311 643.372C418.748 642.81 418.748 641.825 419.311 641.263C419.873 640.7 420.857 640.7 421.42 641.263C421.982 641.825 422.053 642.739 421.42 643.372Z" fill="url(#paint31_linear)"/>
<path d="M441.599 637.536C441.037 638.099 440.052 638.099 439.49 637.536C438.927 636.974 438.927 635.989 439.49 635.427C440.052 634.864 441.037 634.864 441.599 635.427C442.162 635.989 442.162 636.974 441.599 637.536Z" fill="url(#paint32_linear)"/>
<path d="M427.256 623.193C426.693 623.755 425.709 623.755 425.146 623.193C424.584 622.63 424.584 621.646 425.146 621.083C425.709 620.521 426.693 620.521 427.256 621.083C427.818 621.646 427.818 622.63 427.256 623.193Z" fill="url(#paint33_linear)"/>
<path d="M414.951 649.841C414.388 650.403 413.404 650.403 412.841 649.841C412.279 649.278 412.279 648.294 412.841 647.732C413.404 647.169 414.388 647.169 414.951 647.732C415.513 648.294 415.513 649.278 414.951 649.841Z" fill="url(#paint34_linear)"/>
<path d="M435.131 644.005C434.568 644.568 433.584 644.568 433.021 644.005C432.459 643.443 432.459 642.458 433.021 641.896C433.584 641.333 434.568 641.333 435.131 641.896C435.693 642.458 435.693 643.443 435.131 644.005Z" fill="url(#paint35_linear)"/>
</g>
<g opacity="0.25">
<path d="M1314.7 640.305C1314.7 639.101 1315.75 638.048 1316.95 638.048C1318.16 638.048 1319.21 639.101 1319.21 640.305C1319.21 641.509 1318.16 642.562 1316.95 642.562C1315.75 642.562 1314.7 641.509 1314.7 640.305Z" fill="url(#paint36_linear)"/>
<path d="M1299.35 598.624C1299.35 597.421 1300.4 596.367 1301.61 596.367C1302.81 596.367 1303.86 597.421 1303.86 598.624C1303.86 599.828 1302.81 600.881 1301.61 600.881C1300.4 600.881 1299.35 599.979 1299.35 598.624Z" fill="url(#paint37_linear)"/>
<path d="M1284 626.461C1284 625.258 1285.05 624.204 1286.26 624.204C1287.46 624.204 1288.51 625.258 1288.51 626.461C1288.51 627.665 1287.46 628.719 1286.26 628.719C1285.05 628.719 1284 627.665 1284 626.461Z" fill="url(#paint38_linear)"/>
<path d="M1316.95 624.205C1315.71 624.205 1314.7 625.215 1314.7 626.462C1314.7 627.708 1315.71 628.719 1316.95 628.719C1318.2 628.719 1319.21 627.708 1319.21 626.462C1319.21 625.215 1318.2 624.205 1316.95 624.205Z" fill="url(#paint39_linear)"/>
<path d="M1301.61 582.524C1300.36 582.524 1299.35 583.535 1299.35 584.781C1299.35 586.028 1300.36 587.038 1301.61 587.038C1302.85 587.038 1303.86 586.028 1303.86 584.781C1303.86 583.535 1302.85 582.524 1301.61 582.524Z" fill="url(#paint40_linear)"/>
<path d="M1284 612.618C1284 611.414 1285.05 610.361 1286.26 610.361C1287.46 610.361 1288.51 611.414 1288.51 612.618C1288.51 613.822 1287.46 614.875 1286.26 614.875C1285.05 614.875 1284 613.822 1284 612.618Z" fill="url(#paint41_linear)"/>
<path d="M1316.95 610.211C1315.71 610.211 1314.7 611.221 1314.7 612.468C1314.7 613.714 1315.71 614.725 1316.95 614.725C1318.2 614.725 1319.21 613.714 1319.21 612.468C1319.21 611.221 1318.2 610.211 1316.95 610.211Z" fill="url(#paint42_linear)"/>
<path d="M1301.61 568.681C1300.36 568.681 1299.35 569.691 1299.35 570.938C1299.35 572.184 1300.36 573.195 1301.61 573.195C1302.85 573.195 1303.86 572.184 1303.86 570.938C1303.86 569.691 1302.85 568.681 1301.61 568.681Z" fill="url(#paint43_linear)"/>
<path d="M1284 598.625C1284 597.421 1285.05 596.367 1286.26 596.367C1287.46 596.367 1288.51 597.421 1288.51 598.625C1288.51 599.828 1287.46 600.882 1286.26 600.882C1285.05 600.882 1284 599.979 1284 598.625Z" fill="url(#paint44_linear)"/>
<path d="M1314.7 598.624C1314.7 597.421 1315.75 596.367 1316.95 596.367C1318.16 596.367 1319.21 597.421 1319.21 598.624C1319.21 599.828 1318.16 600.881 1316.95 600.881C1315.75 600.881 1314.7 599.828 1314.7 598.624Z" fill="url(#paint45_linear)"/>
<path d="M1299.35 557.094C1299.35 555.891 1300.4 554.837 1301.61 554.837C1302.81 554.837 1303.86 555.891 1303.86 557.094C1303.86 558.298 1302.81 559.351 1301.61 559.351C1300.4 559.351 1299.35 558.298 1299.35 557.094Z" fill="url(#paint46_linear)"/>
<path d="M1286.26 582.524C1285.01 582.524 1284 583.535 1284 584.781C1284 586.028 1285.01 587.038 1286.26 587.038C1287.5 587.038 1288.51 586.028 1288.51 584.781C1288.51 583.535 1287.5 582.524 1286.26 582.524Z" fill="url(#paint47_linear)"/>
<path d="M1314.7 584.781C1314.7 583.577 1315.75 582.524 1316.95 582.524C1318.16 582.524 1319.21 583.577 1319.21 584.781C1319.21 585.985 1318.16 587.038 1316.95 587.038C1315.75 587.038 1314.7 585.985 1314.7 584.781Z" fill="url(#paint48_linear)"/>
<path d="M1299.35 543.101C1299.35 541.897 1300.4 540.844 1301.61 540.844C1302.81 540.844 1303.86 541.897 1303.86 543.101C1303.86 544.304 1302.81 545.358 1301.61 545.358C1300.4 545.358 1299.35 544.455 1299.35 543.101Z" fill="url(#paint49_linear)"/>
<path d="M1284 570.938C1284 569.734 1285.05 568.681 1286.26 568.681C1287.46 568.681 1288.51 569.734 1288.51 570.938C1288.51 572.141 1287.46 573.195 1286.26 573.195C1285.05 573.195 1284 572.141 1284 570.938Z" fill="url(#paint50_linear)"/>
<path d="M1314.7 570.938C1314.7 569.734 1315.75 568.681 1316.95 568.681C1318.16 568.681 1319.21 569.734 1319.21 570.938C1319.21 572.142 1318.16 573.195 1316.95 573.195C1315.75 573.195 1314.7 572.142 1314.7 570.938Z" fill="url(#paint51_linear)"/>
<path d="M1299.35 529.257C1299.35 528.053 1300.4 527 1301.61 527C1302.81 527 1303.86 528.053 1303.86 529.257C1303.86 530.461 1302.81 531.514 1301.61 531.514C1300.4 531.514 1299.35 530.461 1299.35 529.257Z" fill="url(#paint52_linear)"/>
<path d="M1284 557.094C1284 555.891 1285.05 554.837 1286.26 554.837C1287.46 554.837 1288.51 555.891 1288.51 557.094C1288.51 558.298 1287.46 559.351 1286.26 559.351C1285.05 559.351 1284 558.298 1284 557.094Z" fill="url(#paint53_linear)"/>
</g>
<circle opacity="0.4" cx="1260.67" cy="96.6705" r="7.67049" stroke="url(#paint54_linear)" stroke-width="2"/>
<circle opacity="0.4" cx="988.67" cy="660.67" r="7.67049" stroke="url(#paint55_linear)" stroke-width="2"/>
<g opacity="0.15">
<path fill-rule="evenodd" clip-rule="evenodd" d="M1078.76 6.84691C1078.98 7.06678 1078.98 7.42327 1078.76 7.64314L1072 14.3994C1071.78 14.6192 1071.42 14.6192 1071.2 14.3994C1070.98 14.1795 1070.98 13.823 1071.2 13.6031L1077.96 6.84691C1078.18 6.62704 1078.54 6.62704 1078.76 6.84691Z" fill="url(#paint56_linear)"/>
<path fill-rule="evenodd" clip-rule="evenodd" d="M1071.2 6.84691C1071.42 6.62704 1071.78 6.62704 1072 6.84691L1078.76 13.6031C1078.98 13.823 1078.98 14.1795 1078.76 14.3994C1078.54 14.6192 1078.18 14.6192 1077.96 14.3994L1071.2 7.64314C1070.98 7.42327 1070.98 7.06678 1071.2 6.84691Z" fill="url(#paint57_linear)"/>
</g>
<g opacity="0.3">
<path fill-rule="evenodd" clip-rule="evenodd" d="M695.435 9.32981C695.874 9.76955 695.874 10.4825 695.435 10.9223L681.922 24.4347C681.483 24.8745 680.77 24.8745 680.33 24.4347C679.89 23.995 679.89 23.282 680.33 22.8423L693.842 9.32981C694.282 8.89006 694.995 8.89006 695.435 9.32981Z" fill="url(#paint58_linear)"/>
<path fill-rule="evenodd" clip-rule="evenodd" d="M680.33 9.32981C680.77 8.89006 681.483 8.89006 681.922 9.32981L695.435 22.8423C695.874 23.282 695.874 23.995 695.435 24.4347C694.995 24.8745 694.282 24.8745 693.842 24.4347L680.33 10.9223C679.89 10.4825 679.89 9.76955 680.33 9.32981Z" fill="url(#paint59_linear)"/>
</g>
<g opacity="0.3">
<path fill-rule="evenodd" clip-rule="evenodd" d="M172.348 526.264C172.7 526.616 172.7 527.186 172.348 527.538L161.538 538.348C161.186 538.7 160.616 538.7 160.264 538.348C159.912 537.996 159.912 537.426 160.264 537.074L171.074 526.264C171.426 525.912 171.996 525.912 172.348 526.264Z" fill="url(#paint60_linear)"/>
<path fill-rule="evenodd" clip-rule="evenodd" d="M160.264 526.264C160.616 525.912 161.186 525.912 161.538 526.264L172.348 537.074C172.7 537.426 172.7 537.996 172.348 538.348C171.996 538.7 171.426 538.7 171.074 538.348L160.264 527.538C159.912 527.186 159.912 526.616 160.264 526.264Z" fill="url(#paint61_linear)"/>
</g>
<circle opacity="0.3" cx="603.553" cy="498.553" r="15.0528" stroke="url(#paint62_linear)" stroke-width="3"/>
<circle opacity="0.3" cx="49.3999" cy="651.4" r="12.3999" stroke="url(#paint63_linear)" stroke-width="2"/>
<circle opacity="0.3" cx="295.424" cy="95.7515" r="6.88227" stroke="url(#paint64_linear)" stroke-width="2"/>
<defs>
<linearGradient id="paint0_linear" x1="-0.19979" y1="4.0624" x2="4.37741" y2="0.392926" gradientUnits="userSpaceOnUse">
<stop stop-color="#FF4C02"/>
<stop offset="1" stop-color="#FF741C"/>
</linearGradient>
<linearGradient id="paint1_linear" x1="13.6122" y1="41.5718" x2="18.1894" y2="37.9023" gradientUnits="userSpaceOnUse">
<stop stop-color="#FF4C02"/>
<stop offset="1" stop-color="#FF741C"/>
</linearGradient>
<linearGradient id="paint2_linear" x1="27.4247" y1="16.5203" x2="32.0019" y2="12.8508" gradientUnits="userSpaceOnUse">
<stop stop-color="#FF4C02"/>
<stop offset="1" stop-color="#FF741C"/>
</linearGradient>
<linearGradient id="paint3_linear" x1="-0.19979" y1="16.5203" x2="4.37741" y2="12.8508" gradientUnits="userSpaceOnUse">
<stop stop-color="#FF4C02"/>
<stop offset="1" stop-color="#FF741C"/>
</linearGradient>
<linearGradient id="paint4_linear" x1="13.6122" y1="54.0299" x2="18.1894" y2="50.3605" gradientUnits="userSpaceOnUse">
<stop stop-color="#FF4C02"/>
<stop offset="1" stop-color="#FF741C"/>
</linearGradient>
<linearGradient id="paint5_linear" x1="27.4247" y1="28.9784" x2="32.0019" y2="25.3089" gradientUnits="userSpaceOnUse">
<stop stop-color="#FF4C02"/>
<stop offset="1" stop-color="#FF741C"/>
</linearGradient>
<linearGradient id="paint6_linear" x1="-0.19979" y1="29.1138" x2="4.37741" y2="25.4443" gradientUnits="userSpaceOnUse">
<stop stop-color="#FF4C02"/>
<stop offset="1" stop-color="#FF741C"/>
</linearGradient>
<linearGradient id="paint7_linear" x1="13.6122" y1="66.4878" x2="18.1894" y2="62.8183" gradientUnits="userSpaceOnUse">
<stop stop-color="#FF4C02"/>
<stop offset="1" stop-color="#FF741C"/>
</linearGradient>
<linearGradient id="paint8_linear" x1="27.4247" y1="41.5718" x2="32.0019" y2="37.9023" gradientUnits="userSpaceOnUse">
<stop stop-color="#FF4C02"/>
<stop offset="1" stop-color="#FF741C"/>
</linearGradient>
<linearGradient id="paint9_linear" x1="-0.19979" y1="41.5718" x2="4.37741" y2="37.9023" gradientUnits="userSpaceOnUse">
<stop stop-color="#FF4C02"/>
<stop offset="1" stop-color="#FF741C"/>
</linearGradient>
<linearGradient id="paint10_linear" x1="13.6122" y1="78.9458" x2="18.1894" y2="75.2763" gradientUnits="userSpaceOnUse">
<stop stop-color="#FF4C02"/>
<stop offset="1" stop-color="#FF741C"/>
</linearGradient>
<linearGradient id="paint11_linear" x1="27.4247" y1="54.0299" x2="32.0019" y2="50.3605" gradientUnits="userSpaceOnUse">
<stop stop-color="#FF4C02"/>
<stop offset="1" stop-color="#FF741C"/>
</linearGradient>
<linearGradient id="paint12_linear" x1="-0.19979" y1="54.0299" x2="4.37741" y2="50.3605" gradientUnits="userSpaceOnUse">
<stop stop-color="#FF4C02"/>
<stop offset="1" stop-color="#FF741C"/>
</linearGradient>
<linearGradient id="paint13_linear" x1="13.6122" y1="91.5393" x2="18.1894" y2="87.8699" gradientUnits="userSpaceOnUse">
<stop stop-color="#FF4C02"/>
<stop offset="1" stop-color="#FF741C"/>
</linearGradient>
<linearGradient id="paint14_linear" x1="27.4247" y1="66.4878" x2="32.0019" y2="62.8183" gradientUnits="userSpaceOnUse">
<stop stop-color="#FF4C02"/>
<stop offset="1" stop-color="#FF741C"/>
</linearGradient>
<linearGradient id="paint15_linear" x1="-0.19979" y1="66.4878" x2="4.37741" y2="62.8183" gradientUnits="userSpaceOnUse">
<stop stop-color="#FF4C02"/>
<stop offset="1" stop-color="#FF741C"/>
</linearGradient>
<linearGradient id="paint16_linear" x1="13.6122" y1="103.998" x2="18.1894" y2="100.328" gradientUnits="userSpaceOnUse">
<stop stop-color="#FF4C02"/>
<stop offset="1" stop-color="#FF741C"/>
</linearGradient>
<linearGradient id="paint17_linear" x1="27.4247" y1="78.9458" x2="32.0019" y2="75.2763" gradientUnits="userSpaceOnUse">
<stop stop-color="#FF4C02"/>
<stop offset="1" stop-color="#FF741C"/>
</linearGradient>
<linearGradient id="paint18_linear" x1="456.402" y1="589.621" x2="460.684" y2="590.092" gradientUnits="userSpaceOnUse">
<stop stop-color="#FF4C02"/>
<stop offset="1" stop-color="#FF741C"/>
</linearGradient>
<linearGradient id="paint19_linear" x1="444.097" y1="616.269" x2="448.379" y2="616.74" gradientUnits="userSpaceOnUse">
<stop stop-color="#FF4C02"/>
<stop offset="1" stop-color="#FF741C"/>
</linearGradient>
<linearGradient id="paint20_linear" x1="464.277" y1="610.433" x2="468.559" y2="610.904" gradientUnits="userSpaceOnUse">
<stop stop-color="#FF4C02"/>
<stop offset="1" stop-color="#FF741C"/>
</linearGradient>
<linearGradient id="paint21_linear" x1="449.933" y1="596.089" x2="454.215" y2="596.561" gradientUnits="userSpaceOnUse">
<stop stop-color="#FF4C02"/>
<stop offset="1" stop-color="#FF741C"/>
</linearGradient>
<linearGradient id="paint22_linear" x1="437.628" y1="622.737" x2="441.91" y2="623.209" gradientUnits="userSpaceOnUse">
<stop stop-color="#FF4C02"/>
<stop offset="1" stop-color="#FF741C"/>
</linearGradient>
<linearGradient id="paint23_linear" x1="457.808" y1="616.902" x2="462.09" y2="617.373" gradientUnits="userSpaceOnUse">
<stop stop-color="#FF4C02"/>
<stop offset="1" stop-color="#FF741C"/>
</linearGradient>
<linearGradient id="paint24_linear" x1="443.394" y1="602.628" x2="447.676" y2="603.099" gradientUnits="userSpaceOnUse">
<stop stop-color="#FF4C02"/>
<stop offset="1" stop-color="#FF741C"/>
</linearGradient>
<linearGradient id="paint25_linear" x1="431.16" y1="629.206" x2="435.442" y2="629.678" gradientUnits="userSpaceOnUse">
<stop stop-color="#FF4C02"/>
<stop offset="1" stop-color="#FF741C"/>
</linearGradient>
<linearGradient id="paint26_linear" x1="451.269" y1="623.44" x2="455.551" y2="623.912" gradientUnits="userSpaceOnUse">
<stop stop-color="#FF4C02"/>
<stop offset="1" stop-color="#FF741C"/>
</linearGradient>
<linearGradient id="paint27_linear" x1="436.926" y1="609.097" x2="441.208" y2="609.568" gradientUnits="userSpaceOnUse">
<stop stop-color="#FF4C02"/>
<stop offset="1" stop-color="#FF741C"/>
</linearGradient>
<linearGradient id="paint28_linear" x1="424.691" y1="635.675" x2="428.973" y2="636.146" gradientUnits="userSpaceOnUse">
<stop stop-color="#FF4C02"/>
<stop offset="1" stop-color="#FF741C"/>
</linearGradient>
<linearGradient id="paint29_linear" x1="444.801" y1="629.909" x2="449.083" y2="630.381" gradientUnits="userSpaceOnUse">
<stop stop-color="#FF4C02"/>
<stop offset="1" stop-color="#FF741C"/>
</linearGradient>
<linearGradient id="paint30_linear" x1="430.457" y1="615.566" x2="434.739" y2="616.037" gradientUnits="userSpaceOnUse">
<stop stop-color="#FF4C02"/>
<stop offset="1" stop-color="#FF741C"/>
</linearGradient>
<linearGradient id="paint31_linear" x1="418.152" y1="642.214" x2="422.434" y2="642.685" gradientUnits="userSpaceOnUse">
<stop stop-color="#FF4C02"/>
<stop offset="1" stop-color="#FF741C"/>
</linearGradient>
<linearGradient id="paint32_linear" x1="438.331" y1="636.378" x2="442.613" y2="636.849" gradientUnits="userSpaceOnUse">
<stop stop-color="#FF4C02"/>
<stop offset="1" stop-color="#FF741C"/>
</linearGradient>
<linearGradient id="paint33_linear" x1="423.988" y1="622.034" x2="428.27" y2="622.506" gradientUnits="userSpaceOnUse">
<stop stop-color="#FF4C02"/>
<stop offset="1" stop-color="#FF741C"/>
</linearGradient>
<linearGradient id="paint34_linear" x1="411.683" y1="648.683" x2="415.965" y2="649.154" gradientUnits="userSpaceOnUse">
<stop stop-color="#FF4C02"/>
<stop offset="1" stop-color="#FF741C"/>
</linearGradient>
<linearGradient id="paint35_linear" x1="431.863" y1="642.847" x2="436.145" y2="643.318" gradientUnits="userSpaceOnUse">
<stop stop-color="#FF4C02"/>
<stop offset="1" stop-color="#FF741C"/>
</linearGradient>
<linearGradient id="paint36_linear" x1="1319.43" y1="638.048" x2="1314.35" y2="642.125" gradientUnits="userSpaceOnUse">
<stop stop-color="#FF4C02"/>
<stop offset="1" stop-color="#FF741C"/>
</linearGradient>
<linearGradient id="paint37_linear" x1="1304.08" y1="596.367" x2="1299" y2="600.445" gradientUnits="userSpaceOnUse">
<stop stop-color="#FF4C02"/>
<stop offset="1" stop-color="#FF741C"/>
</linearGradient>
<linearGradient id="paint38_linear" x1="1288.74" y1="624.204" x2="1283.65" y2="628.282" gradientUnits="userSpaceOnUse">
<stop stop-color="#FF4C02"/>
<stop offset="1" stop-color="#FF741C"/>
</linearGradient>
<linearGradient id="paint39_linear" x1="1319.43" y1="624.205" x2="1314.35" y2="628.282" gradientUnits="userSpaceOnUse">
<stop stop-color="#FF4C02"/>
<stop offset="1" stop-color="#FF741C"/>
</linearGradient>
<linearGradient id="paint40_linear" x1="1304.08" y1="582.524" x2="1299" y2="586.602" gradientUnits="userSpaceOnUse">
<stop stop-color="#FF4C02"/>
<stop offset="1" stop-color="#FF741C"/>
</linearGradient>
<linearGradient id="paint41_linear" x1="1288.74" y1="610.361" x2="1283.65" y2="614.439" gradientUnits="userSpaceOnUse">
<stop stop-color="#FF4C02"/>
<stop offset="1" stop-color="#FF741C"/>
</linearGradient>
<linearGradient id="paint42_linear" x1="1319.43" y1="610.211" x2="1314.35" y2="614.288" gradientUnits="userSpaceOnUse">
<stop stop-color="#FF4C02"/>
<stop offset="1" stop-color="#FF741C"/>
</linearGradient>
<linearGradient id="paint43_linear" x1="1304.08" y1="568.681" x2="1299" y2="572.758" gradientUnits="userSpaceOnUse">
<stop stop-color="#FF4C02"/>
<stop offset="1" stop-color="#FF741C"/>
</linearGradient>
<linearGradient id="paint44_linear" x1="1288.74" y1="596.367" x2="1283.65" y2="600.445" gradientUnits="userSpaceOnUse">
<stop stop-color="#FF4C02"/>
<stop offset="1" stop-color="#FF741C"/>
</linearGradient>
<linearGradient id="paint45_linear" x1="1319.43" y1="596.367" x2="1314.35" y2="600.445" gradientUnits="userSpaceOnUse">
<stop stop-color="#FF4C02"/>
<stop offset="1" stop-color="#FF741C"/>
</linearGradient>
<linearGradient id="paint46_linear" x1="1304.08" y1="554.837" x2="1299" y2="558.915" gradientUnits="userSpaceOnUse">
<stop stop-color="#FF4C02"/>
<stop offset="1" stop-color="#FF741C"/>
</linearGradient>
<linearGradient id="paint47_linear" x1="1288.74" y1="582.524" x2="1283.65" y2="586.602" gradientUnits="userSpaceOnUse">
<stop stop-color="#FF4C02"/>
<stop offset="1" stop-color="#FF741C"/>
</linearGradient>
<linearGradient id="paint48_linear" x1="1319.43" y1="582.524" x2="1314.35" y2="586.602" gradientUnits="userSpaceOnUse">
<stop stop-color="#FF4C02"/>
<stop offset="1" stop-color="#FF741C"/>
</linearGradient>
<linearGradient id="paint49_linear" x1="1304.08" y1="540.844" x2="1299" y2="544.921" gradientUnits="userSpaceOnUse">
<stop stop-color="#FF4C02"/>
<stop offset="1" stop-color="#FF741C"/>
</linearGradient>
<linearGradient id="paint50_linear" x1="1288.74" y1="568.681" x2="1283.65" y2="572.758" gradientUnits="userSpaceOnUse">
<stop stop-color="#FF4C02"/>
<stop offset="1" stop-color="#FF741C"/>
</linearGradient>
<linearGradient id="paint51_linear" x1="1319.43" y1="568.681" x2="1314.35" y2="572.758" gradientUnits="userSpaceOnUse">
<stop stop-color="#FF4C02"/>
<stop offset="1" stop-color="#FF741C"/>
</linearGradient>
<linearGradient id="paint52_linear" x1="1304.08" y1="527" x2="1299" y2="531.078" gradientUnits="userSpaceOnUse">
<stop stop-color="#FF4C02"/>
<stop offset="1" stop-color="#FF741C"/>
</linearGradient>
<linearGradient id="paint53_linear" x1="1288.74" y1="554.837" x2="1283.65" y2="558.915" gradientUnits="userSpaceOnUse">
<stop stop-color="#FF4C02"/>
<stop offset="1" stop-color="#FF741C"/>
</linearGradient>
<linearGradient id="paint54_linear" x1="1251.15" y1="105.341" x2="1270.69" y2="89.6773" gradientUnits="userSpaceOnUse">
<stop stop-color="#FF4C02"/>
<stop offset="1" stop-color="#FF741C"/>
</linearGradient>
<linearGradient id="paint55_linear" x1="979.147" y1="669.341" x2="998.686" y2="653.677" gradientUnits="userSpaceOnUse">
<stop stop-color="#FF4C02"/>
<stop offset="1" stop-color="#FF741C"/>
</linearGradient>
<linearGradient id="paint56_linear" x1="1070.65" y1="14.5643" x2="1079.53" y2="7.4444" gradientUnits="userSpaceOnUse">
<stop stop-color="#FF4C02"/>
<stop offset="1" stop-color="#FF741C"/>
</linearGradient>
<linearGradient id="paint57_linear" x1="1070.65" y1="14.5643" x2="1079.53" y2="7.4444" gradientUnits="userSpaceOnUse">
<stop stop-color="#FF4C02"/>
<stop offset="1" stop-color="#FF741C"/>
</linearGradient>
<linearGradient id="paint58_linear" x1="679.225" y1="24.7645" x2="696.987" y2="10.5248" gradientUnits="userSpaceOnUse">
<stop stop-color="#FF4C02"/>
<stop offset="1" stop-color="#FF741C"/>
</linearGradient>
<linearGradient id="paint59_linear" x1="679.225" y1="24.7645" x2="696.987" y2="10.5248" gradientUnits="userSpaceOnUse">
<stop stop-color="#FF4C02"/>
<stop offset="1" stop-color="#FF741C"/>
</linearGradient>
<linearGradient id="paint60_linear" x1="159.38" y1="538.612" x2="173.59" y2="527.22" gradientUnits="userSpaceOnUse">
<stop stop-color="#FF4C02"/>
<stop offset="1" stop-color="#FF741C"/>
</linearGradient>
<linearGradient id="paint61_linear" x1="159.38" y1="538.612" x2="173.59" y2="527.22" gradientUnits="userSpaceOnUse">
<stop stop-color="#FF4C02"/>
<stop offset="1" stop-color="#FF741C"/>
</linearGradient>
<linearGradient id="paint62_linear" x1="585.372" y1="515.106" x2="622.673" y2="485.202" gradientUnits="userSpaceOnUse">
<stop stop-color="#FF4C02"/>
<stop offset="1" stop-color="#FF741C"/>
</linearGradient>
<linearGradient id="paint63_linear" x1="34.682" y1="664.8" x2="64.8778" y2="640.592" gradientUnits="userSpaceOnUse">
<stop stop-color="#FF4C02"/>
<stop offset="1" stop-color="#FF741C"/>
</linearGradient>
<linearGradient id="paint64_linear" x1="286.767" y1="103.634" x2="304.529" y2="89.3941" gradientUnits="userSpaceOnUse">
<stop stop-color="#FF4C02"/>
<stop offset="1" stop-color="#FF741C"/>
</linearGradient>
</defs>
</svg>
