<svg width="45" height="46" viewBox="0 0 45 46" fill="none" xmlns="http://www.w3.org/2000/svg">
<path d="M44.4017 41.5995L44.005 34.1991C43.8244 31.359 41.9761 28.9118 39.2962 27.9647L30.1611 24.7361C29.741 24.5876 29.2656 24.6954 28.9505 25.011L28.6578 25.3043L26.6688 24.3058L26.6687 22.5492C28.5825 21.2641 30.1141 19.0608 30.5315 16.8743C30.5358 16.8518 30.5396 16.8296 30.5436 16.8071C30.557 16.7327 30.5697 16.6583 30.5806 16.584C30.5909 16.5141 30.6002 16.4443 30.608 16.3747C30.6113 16.3453 30.6139 16.316 30.6168 16.2867C30.6239 16.2139 30.6298 16.1413 30.6343 16.069C30.6355 16.0489 30.6369 16.0289 30.638 16.0088C30.6389 15.9894 30.6407 15.9699 30.6415 15.9506H31.1327C32.0956 15.9506 32.8791 15.1672 32.8791 14.2043V12.0663C32.8791 11.9665 32.8706 11.868 32.854 11.7712C32.87 11.7146 32.8791 11.6551 32.8791 11.5934C32.8791 11.0079 32.7801 10.4455 32.6005 9.92017V7.5956C32.6004 3.40735 29.193 0 25.0048 0H19.4007C15.2125 0 11.8051 3.40735 11.8051 7.5956V9.92017C11.6254 10.4456 11.5265 11.008 11.5265 11.5934C11.5265 11.6551 11.5357 11.7146 11.5516 11.7712C11.535 11.868 11.5265 11.9665 11.5265 12.0663V14.2043C11.5265 15.1672 12.3099 15.9506 13.2729 15.9506H13.7635C13.7644 15.9742 13.7664 15.9979 13.7676 16.0215C13.7686 16.0416 13.7699 16.0617 13.7711 16.0818C13.7757 16.1567 13.7817 16.2318 13.7893 16.3072C13.7917 16.3317 13.7937 16.356 13.7964 16.3805C13.8059 16.4661 13.817 16.5518 13.8301 16.6377C13.8375 16.6865 13.8466 16.7354 13.8551 16.7844C13.8615 16.8206 13.8678 16.8567 13.8748 16.8929C13.8867 16.9547 13.8994 17.0165 13.913 17.0783C13.9156 17.0901 13.9185 17.102 13.9211 17.1137C14.397 19.2248 15.8892 21.3249 17.7367 22.5665L17.7365 24.3058L15.7481 25.3045L15.455 25.011C15.14 24.6955 14.6646 24.5876 14.2445 24.7362L5.10919 27.9647C2.42929 28.9118 0.581064 31.359 0.400032 34.2055L0.00409862 41.593C-0.0318382 42.1586 0.169857 42.72 0.557525 43.1331C0.944564 43.5456 1.49089 43.7821 2.05627 43.7821H10.9371V44.9808C10.9371 45.5422 11.3939 45.999 11.9553 45.999H32.4501C33.0115 45.999 33.4683 45.5422 33.4683 44.9808V43.7821H42.3491C42.9145 43.7821 43.4607 43.5456 43.8479 43.1331C44.2355 42.72 44.4372 42.1587 44.4017 41.5995ZM31.5695 14.2043C31.5695 14.4451 31.3735 14.6412 31.1326 14.6412H30.6456V12.2482H31.5695V14.2043ZM19.4007 1.30945H25.0049C28.4711 1.30945 31.291 4.12941 31.291 7.5956V7.86324C31.2809 7.85345 31.2701 7.84437 31.2598 7.83467C31.2134 7.79056 31.1662 7.74716 31.1182 7.70485C31.1109 7.69847 31.1036 7.69218 31.0963 7.68589C30.3053 6.99635 29.3045 6.54184 28.2031 6.43412C28.196 6.4334 28.1887 6.43313 28.1816 6.4325C28.1057 6.42541 28.0294 6.4193 27.9526 6.41543C27.867 6.41112 27.781 6.40888 27.6946 6.40888H16.7111C16.6248 6.40888 16.5388 6.41112 16.4532 6.41543C16.3764 6.41921 16.3001 6.42532 16.2242 6.4325C16.2171 6.43322 16.2098 6.4334 16.2027 6.43412C15.1011 6.54184 14.1005 6.99635 13.3094 7.68589C13.3021 7.69218 13.2948 7.69847 13.2876 7.70485C13.2395 7.74725 13.1924 7.79056 13.1459 7.83467C13.1357 7.84437 13.1249 7.85345 13.1147 7.86324V7.5956H13.1146C13.1146 4.12941 15.9345 1.30945 19.4007 1.30945ZM13.7598 14.6412H13.2728C13.0318 14.6412 12.8359 14.4451 12.8359 14.2043V12.2482H13.7598V14.6412ZM12.8912 10.9387C13.0271 10.1432 13.4065 9.42972 13.9496 8.87764C13.9647 8.86237 13.9803 8.84746 13.9956 8.83245C14.0153 8.81314 14.0349 8.79382 14.0549 8.77495C14.0808 8.75061 14.1071 8.7268 14.1336 8.70326C14.1427 8.69517 14.1517 8.68709 14.1609 8.67909C14.1942 8.65007 14.2279 8.62141 14.2621 8.59356C14.2629 8.59284 14.2638 8.59222 14.2646 8.5915C14.7887 8.16538 15.4214 7.87653 16.1014 7.7672C16.1085 7.76603 16.1157 7.76486 16.1229 7.76378C16.1614 7.75785 16.2 7.75264 16.2388 7.74779C16.2573 7.74554 16.2758 7.74348 16.2944 7.74141C16.3259 7.738 16.3574 7.73476 16.389 7.73216C16.4181 7.72973 16.4474 7.72794 16.4767 7.72614C16.5002 7.7247 16.5236 7.72299 16.5471 7.72201C16.6015 7.71976 16.6561 7.71832 16.711 7.71832H27.6943C27.7492 7.71832 27.8038 7.71976 27.8582 7.72201C27.8817 7.72299 27.9051 7.7247 27.9286 7.72614C27.9579 7.72794 27.9872 7.72973 28.0163 7.73216C28.0479 7.73485 28.0794 7.738 28.1109 7.74141C28.1295 7.74339 28.148 7.74546 28.1665 7.74779C28.2052 7.75255 28.2439 7.75776 28.2824 7.76378C28.2896 7.76486 28.2968 7.76612 28.304 7.7672C28.9839 7.87644 29.6166 8.16538 30.1407 8.5915C30.1415 8.59222 30.1424 8.59284 30.1432 8.59356C30.1774 8.62141 30.2111 8.65007 30.2445 8.67909C30.2536 8.68709 30.2626 8.69517 30.2717 8.70326C30.2982 8.7268 30.3245 8.7507 30.3504 8.77495C30.3704 8.79382 30.3901 8.81314 30.4097 8.83245C30.425 8.84746 30.4406 8.86237 30.4557 8.87764C30.9987 9.42972 31.3781 10.1432 31.5141 10.9387H12.8912ZM15.1001 16.2538C15.099 16.2445 15.098 16.2353 15.097 16.226C15.0889 16.1528 15.0827 16.0798 15.0782 16.0071C15.0777 15.9979 15.0769 15.9885 15.0763 15.9793C15.0719 15.8985 15.0692 15.8181 15.0692 15.7383V12.2482H29.3362V15.7214C29.3362 15.801 29.3337 15.8814 29.3291 15.962C29.3286 15.9724 29.3277 15.9829 29.327 15.9932C29.3225 16.0641 29.3165 16.1353 29.3087 16.2069C29.3074 16.2185 29.3061 16.23 29.3048 16.2415C29.0086 18.7833 26.6349 21.6543 24.2189 22.2551L24.1335 22.2763C22.3765 22.7133 21.9318 22.7122 20.168 22.2676C17.7598 21.6604 15.3936 18.7888 15.1001 16.2538ZM18.3115 25.4823C18.7533 25.318 19.0457 24.9008 19.0458 24.4243L19.0459 23.2709C19.3102 23.3788 19.578 23.4693 19.8479 23.5374C20.8444 23.7886 21.5026 23.9139 22.1623 23.9139C22.8143 23.9139 23.4677 23.7913 24.4496 23.5472L24.5349 23.526C24.8125 23.457 25.0876 23.3646 25.3592 23.2537L25.3593 24.4243C25.3594 24.9009 25.6519 25.3182 26.0937 25.4824L27.6373 26.2573C27.6285 26.2644 27.6197 26.2714 27.6109 26.2785C27.5244 26.348 27.4371 26.4162 27.3483 26.4821C27.3462 26.4837 27.344 26.4852 27.3418 26.4868C27.2541 26.5518 27.1649 26.6146 27.0749 26.6761C27.0606 26.6858 27.0464 26.6957 27.0322 26.7054C26.9446 26.7645 26.8558 26.8217 26.7662 26.8774C26.7485 26.8884 26.7306 26.8994 26.7129 26.9103C26.6227 26.9654 26.5317 27.0191 26.4397 27.0707C26.4256 27.0786 26.4114 27.0863 26.3973 27.0941C26.305 27.1453 26.2118 27.195 26.1177 27.2427C26.1116 27.2457 26.1056 27.2491 26.0995 27.2521C26.0029 27.3007 25.9053 27.347 25.807 27.3919C25.7894 27.3999 25.7718 27.4081 25.7542 27.416C25.659 27.4588 25.5629 27.4996 25.4661 27.5388C25.447 27.5465 25.4278 27.5542 25.4086 27.5617C25.3099 27.6009 25.2106 27.6386 25.1104 27.674C25.0982 27.6783 25.0859 27.6823 25.0738 27.6866C24.9757 27.7208 24.8769 27.7533 24.7775 27.784C24.7662 27.7875 24.7549 27.7912 24.7436 27.7947C24.6413 27.8258 24.5381 27.8546 24.4346 27.8818C24.4149 27.887 24.3953 27.8922 24.3755 27.8973C24.2736 27.9233 24.1712 27.9476 24.0682 27.97C24.0491 27.9741 24.03 27.978 24.0109 27.982C23.9043 28.0044 23.7974 28.0253 23.6898 28.0437C23.6821 28.0451 23.6744 28.0461 23.6668 28.0474C23.5615 28.0651 23.4555 28.0806 23.3493 28.0946C23.3342 28.0965 23.3193 28.0988 23.3042 28.1007C23.1972 28.1141 23.0899 28.1252 22.9821 28.1346C22.9615 28.1364 22.941 28.1382 22.9204 28.1399C22.8131 28.1486 22.7054 28.1555 22.5973 28.1602C22.5797 28.1611 22.562 28.1615 22.5444 28.1621C22.4309 28.1664 22.3171 28.1693 22.2028 28.1693C22.0885 28.1693 21.9748 28.1665 21.8612 28.1621C21.8437 28.1615 21.8262 28.161 21.8087 28.1602C21.7005 28.1555 21.5928 28.1486 21.4853 28.1399C21.465 28.1382 21.4447 28.1364 21.4243 28.1346C21.3161 28.1251 21.2083 28.114 21.1011 28.1005C21.0871 28.0988 21.0733 28.0967 21.0594 28.0949C20.9512 28.0808 20.8434 28.065 20.7362 28.047C20.7302 28.046 20.7241 28.0451 20.7181 28.0441C20.6086 28.0254 20.4999 28.0042 20.3917 27.9814C20.375 27.9779 20.3582 27.9745 20.3414 27.9708C20.2358 27.9479 20.1308 27.923 20.0264 27.8962C20.0105 27.8922 19.9947 27.8879 19.9788 27.8837C19.8711 27.8554 19.7639 27.8255 19.6577 27.7931C19.6531 27.7918 19.6486 27.7903 19.644 27.7888C19.5342 27.7551 19.4251 27.7194 19.3169 27.6813C19.3124 27.6798 19.3079 27.6782 19.3034 27.6767C19.1962 27.6389 19.0899 27.5986 18.9845 27.5566C18.9737 27.5523 18.9629 27.5481 18.9521 27.5437C18.8473 27.5014 18.7432 27.4571 18.6401 27.4108C18.633 27.4076 18.626 27.4043 18.6189 27.4011C18.4026 27.3029 18.1901 27.1959 17.9823 27.0797C17.9817 27.0794 17.9811 27.0791 17.9806 27.0788C17.8773 27.021 17.7751 26.9609 17.6741 26.8988C17.6691 26.8956 17.6641 26.8926 17.659 26.8894C17.558 26.827 17.4581 26.7626 17.3595 26.6958C17.359 26.6955 17.3585 26.6952 17.3581 26.6948C17.1585 26.5596 16.9641 26.4155 16.7752 26.2629C16.7728 26.261 16.7706 26.2592 16.7682 26.2573L18.3115 25.4823ZM42.893 42.2368C42.7505 42.3887 42.5573 42.4724 42.3492 42.4724H36.9414V34.7183C36.9414 34.3566 36.6482 34.0635 36.2866 34.0635C35.925 34.0635 35.6318 34.3566 35.6318 34.7183V42.4724H33.4682V31.5933C33.4682 31.0319 33.0114 30.5751 32.45 30.5751H11.9553V30.5752C11.3939 30.5752 10.9371 31.032 10.9371 31.5934V35.9677C10.9371 36.3293 11.2303 36.6225 11.5919 36.6225C11.9535 36.6225 12.2467 36.3293 12.2467 35.9677V31.8846H18.9351V37.5693C18.9351 37.8013 19.0579 38.0159 19.2578 38.1335C19.4577 38.2511 19.7049 38.2543 19.9077 38.1417L22.1543 36.8942L24.508 38.1472C24.6043 38.1985 24.71 38.2239 24.8157 38.2239C24.9325 38.2239 25.0493 38.1926 25.1528 38.1305C25.3498 38.012 25.4704 37.799 25.4704 37.5691V31.8845H32.1589V44.6895H12.2466V40.5785C12.2466 40.2169 11.9534 39.9237 11.5918 39.9237C11.2302 39.9237 10.9371 40.2169 10.9371 40.5785V42.4726H8.77339V34.7184C8.77339 34.3568 8.48024 34.0637 8.11862 34.0637C7.75701 34.0637 7.46386 34.3568 7.46386 34.7184V42.4726H2.05627C1.84819 42.4726 1.65503 42.3889 1.51246 42.237C1.36925 42.0843 1.29773 41.8851 1.31139 41.6694L1.70732 34.282C1.85457 31.9663 3.36122 29.9712 5.54564 29.1991L14.5936 26.0013L15.159 26.5676C15.1591 26.5677 15.1592 26.5679 15.1594 26.568C17.0335 28.4449 19.5348 29.4786 22.2028 29.4786C22.4762 29.4786 22.7478 29.4671 23.0172 29.4456C25.3767 29.2572 27.5643 28.2525 29.2462 26.568L29.2495 26.5647C29.2496 26.5646 29.2497 26.5645 29.2498 26.5644V26.5643L29.812 26.0013L38.8599 29.199C41.0444 29.9711 42.551 31.9662 42.6978 34.2753L43.0945 41.6758C43.1078 41.885 43.0362 42.0842 42.893 42.2368ZM24.1609 31.8846V36.4791L22.4553 35.5711C22.3591 35.5199 22.2534 35.4944 22.1476 35.4944C22.0381 35.4944 21.9286 35.5219 21.8299 35.5767L20.2446 36.4569V31.8846H24.1609Z" fill="url(#paint0_linear)"/>
<defs>
<linearGradient id="paint0_linear" x1="2.59033" y1="43.3157" x2="49.1127" y2="5.84384" gradientUnits="userSpaceOnUse">
<stop stop-color="#FF2A00"/>
<stop offset="1" stop-color="#FF9900"/>
</linearGradient>
</defs>
</svg>
