<svg width="543" height="651" viewBox="0 0 543 651" fill="none" xmlns="http://www.w3.org/2000/svg">
<path opacity="0.7" d="M543.413 385.644V650.6H0C1.78265 639.447 5.19941 628.399 10.2503 617.663C27.1855 581.286 64.027 549.391 110.525 529.9C135.185 519.581 162.519 512.702 191.19 510.513C228.477 507.594 270.666 511.138 299.337 494.149C316.57 483.934 325.037 468.403 335.882 454.436C366.633 414.828 424.42 384.393 488.596 381.266C507.017 380.328 525.735 381.891 543.413 385.644Z" fill="white"/>
<g opacity="0.25">
<path d="M570.438 627.341C534.733 636.407 495.898 642.977 461.473 630.363C416.38 613.808 391.202 567.953 385.369 523.411C379.537 478.869 389.21 434.196 392.766 389.524C396.465 344.851 393.193 297.024 365.596 260.235C327.331 209.124 252.649 192.437 207.413 146.319C170.002 107.821 157.483 49.7464 176.545 1.0003" stroke="url(#paint0_linear)" stroke-miterlimit="10"/>
<path d="M570.438 593.442C536.724 601.983 499.881 608.29 467.306 596.333C424.631 580.697 400.732 537.207 395.327 495.162C389.921 453.117 398.883 410.678 402.439 368.501C405.854 326.193 402.866 280.995 376.834 246.176C340.56 197.824 270.004 182.057 227.187 138.435C191.624 102.04 179.817 47.25 197.741 1.13179" stroke="url(#paint1_linear)" stroke-miterlimit="10"/>
<path d="M570.437 559.675C538.573 567.69 503.864 573.602 473.138 562.303C432.881 547.587 410.405 506.593 405.284 466.913C400.163 427.233 408.698 387.29 411.97 347.478C415.242 307.667 412.397 264.965 387.787 232.117C353.647 186.524 286.932 171.677 246.675 130.552C213.103 96.2586 202.008 44.4906 218.936 1.00016" stroke="url(#paint2_linear)" stroke-miterlimit="10"/>
<path d="M570.438 525.776C540.566 533.396 507.848 538.915 479.113 528.272C441.275 514.345 420.222 475.979 415.385 438.663C410.549 401.348 418.515 363.902 421.644 326.456C424.774 289.009 422.071 248.935 398.884 218.058C366.735 175.224 304.145 161.166 266.306 122.668C234.727 90.4772 224.342 41.8626 240.274 0.999988" stroke="url(#paint3_linear)" stroke-miterlimit="10"/>
<path d="M570.437 492.009C542.414 499.104 511.972 504.228 484.945 494.374C449.666 481.366 429.894 445.365 425.341 410.546C420.789 375.727 428.329 340.515 431.174 305.565C434.019 270.483 431.601 233.037 409.836 204.131C379.821 164.057 321.214 150.917 285.936 114.785C256.49 84.6964 246.674 39.2352 261.611 1.00038" stroke="url(#paint4_linear)" stroke-miterlimit="10"/>
</g>
<defs>
<linearGradient id="paint0_linear" x1="546.946" y1="600.239" x2="17.6886" y2="198.81" gradientUnits="userSpaceOnUse">
<stop stop-color="#FF2A00"/>
<stop offset="1" stop-color="#FF9900"/>
</linearGradient>
<linearGradient id="paint1_linear" x1="548.214" y1="567.835" x2="47.649" y2="188.046" gradientUnits="userSpaceOnUse">
<stop stop-color="#FF2A00"/>
<stop offset="1" stop-color="#FF9900"/>
</linearGradient>
<linearGradient id="paint2_linear" x1="549.476" y1="535.459" x2="77.38" y2="177.236" gradientUnits="userSpaceOnUse">
<stop stop-color="#FF2A00"/>
<stop offset="1" stop-color="#FF9900"/>
</linearGradient>
<linearGradient id="paint3_linear" x1="550.748" y1="503.083" x2="107.256" y2="166.581" gradientUnits="userSpaceOnUse">
<stop stop-color="#FF2A00"/>
<stop offset="1" stop-color="#FF9900"/>
</linearGradient>
<linearGradient id="paint4_linear" x1="552.019" y1="470.743" x2="137.119" y2="156.005" gradientUnits="userSpaceOnUse">
<stop stop-color="#FF2A00"/>
<stop offset="1" stop-color="#FF9900"/>
</linearGradient>
</defs>
</svg>
