<svg width="41" height="42" viewBox="0 0 41 42" fill="none" xmlns="http://www.w3.org/2000/svg">
<path fill-rule="evenodd" clip-rule="evenodd" d="M0.00471671 16.8211C0.00698813 16.8576 0.0122633 16.8937 0.0204885 16.9293L2.00966 25.5618L1.16596 40.9028C1.16095 40.9939 1.17457 41.085 1.20598 41.1707C1.2374 41.2564 1.28595 41.3347 1.34867 41.401C1.41139 41.4672 1.48696 41.52 1.57077 41.5561C1.65457 41.5922 1.74485 41.6108 1.83609 41.6108H38.4331C38.5244 41.6108 38.6147 41.5922 38.6985 41.5561C38.7823 41.52 38.8578 41.4672 38.9206 41.401C38.9833 41.3347 39.0318 41.2564 39.0632 41.1707C39.0947 41.085 39.1083 40.9939 39.1033 40.9028L38.2596 25.5615L40.2487 16.9289C40.257 16.8934 40.2622 16.8572 40.2645 16.8208C40.2914 16.4302 40.203 16.0402 40.0103 15.6994C39.8177 15.3585 39.5292 15.0816 39.1807 14.9031C39.0985 14.8602 39.0136 14.8227 38.9265 14.7908V6.04037C38.9268 4.65475 38.4506 3.31117 37.5778 2.235C36.705 1.15883 35.4886 0.415537 34.1328 0.129804C32.7769 -0.155929 31.3641 0.0332771 30.1312 0.665684C28.8983 1.29809 27.9204 2.33523 27.3614 3.60313C26.4607 3.04011 25.4275 2.72453 24.3659 2.68821C23.3043 2.65188 22.2519 2.89611 21.3148 3.39625C20.613 2.5972 19.7126 1.99764 18.7048 1.65821C17.6969 1.31879 16.6173 1.25154 15.5751 1.46326C14.5329 1.67499 13.565 2.15817 12.7695 2.86396C11.974 3.56975 11.3789 4.4731 11.0445 5.48266C10.7259 5.40643 10.3992 5.36835 10.0716 5.36924C9.62331 5.36674 9.17775 5.43846 8.75293 5.58148L10.0439 0.847854C10.071 0.748294 10.0749 0.643813 10.0551 0.542533C10.0353 0.441252 9.99238 0.3459 9.92974 0.263889C9.8671 0.181877 9.7864 0.115415 9.69389 0.0696681C9.60139 0.0239214 9.49959 0.000122548 9.39639 0.000121336H6.04069C5.89341 0.00014814 5.75023 0.048622 5.63322 0.138069C5.51621 0.227516 5.43187 0.35297 5.39321 0.495086L4.7594 2.81891L4.67476 2.5085C4.63609 2.36639 4.55176 2.24093 4.43475 2.15149C4.31774 2.06204 4.17456 2.01357 4.02727 2.01354H0.671577C0.568427 2.01356 0.466669 2.03735 0.374207 2.08308C0.281744 2.1288 0.201064 2.19522 0.138434 2.27718C0.0758037 2.35914 0.0329081 2.45443 0.0130785 2.55566C-0.00675116 2.65688 -0.00298116 2.76132 0.0240958 2.86085L1.94129 9.89104C1.4772 11.2744 1.17577 13.0794 1.44817 14.7557C1.32404 14.7938 1.20366 14.8432 1.08852 14.9033C0.739997 15.0818 0.451527 15.3587 0.258871 15.6996C0.0662152 16.0405 -0.0221543 16.4305 0.00471671 16.8211ZM28.1883 6.04037C28.1883 4.79439 28.6833 3.59945 29.5643 2.7184C30.4453 1.83736 31.6403 1.3424 32.8863 1.3424C34.1322 1.3424 35.3272 1.83736 36.2082 2.7184C37.0893 3.59945 37.5842 4.79439 37.5842 6.04037V14.7645C37.3533 14.8411 37.1375 14.9575 36.9467 15.1085C36.8097 15.2164 36.6381 15.2708 36.4639 15.2614C36.2898 15.2521 36.125 15.1796 36.0004 15.0575L35.1332 14.2031C34.7471 13.8259 34.2288 13.6147 33.6891 13.6147C33.1493 13.6147 32.631 13.8259 32.245 14.2031L31.4802 14.9567C31.346 15.0878 31.1658 15.1612 30.9782 15.1612C30.7906 15.1612 30.6104 15.0878 30.4762 14.9567L29.7114 14.2031C29.511 14.0067 29.2724 13.8534 29.0104 13.7529C28.7485 13.6523 28.4686 13.6066 28.1883 13.6185V6.04037ZM16.7789 2.68468C17.5289 2.68593 18.2677 2.86624 18.9339 3.2106C19.6001 3.55497 20.1745 4.05344 20.6092 4.66454C20.7108 4.80732 20.8642 4.90471 21.0366 4.93589C21.2091 4.96707 21.3869 4.92957 21.532 4.8314C22.3359 4.28886 23.2879 4.00833 24.2575 4.02829C25.2271 4.04825 26.1668 4.36773 26.9476 4.94289C26.8804 5.30486 26.8464 5.67222 26.846 6.04037V10.7367C25.6325 9.82725 24.1467 9.35571 22.6308 9.39893C21.115 9.44215 19.6585 9.99758 18.4987 10.9747C18.3673 10.4001 18.1913 9.83667 17.9721 9.28953C17.486 8.09188 16.7843 7.39423 15.8866 7.21604C15.0705 7.05405 14.3121 7.37309 13.7781 7.71009C13.4244 7.03432 12.9106 6.45551 12.2815 6.02427C12.5742 5.05907 13.1693 4.21348 13.979 3.61219C14.7888 3.0109 15.7703 2.68574 16.7789 2.68468ZM26.846 12.5583V14.1829C26.8439 14.1849 26.8418 14.1868 26.8396 14.1887C26.8382 14.1899 26.8368 14.1911 26.8354 14.1923L26.8354 14.1923C26.8313 14.1958 26.8272 14.1993 26.8233 14.2031L26.0584 14.9567C25.9242 15.0878 25.744 15.1612 25.5564 15.1612C25.3688 15.1612 25.1886 15.0878 25.0544 14.9567L24.2896 14.2031C23.9035 13.8259 23.3852 13.6147 22.8455 13.6147C22.3058 13.6147 21.7875 13.8259 21.4015 14.2031L20.6366 14.9567C20.5024 15.0878 20.3222 15.1612 20.1346 15.1612C19.947 15.1612 19.7668 15.0878 19.6326 14.9567L18.8678 14.2031C18.63 13.9688 18.3382 13.7967 18.0182 13.7018C18.4119 12.916 18.9926 12.2389 19.7092 11.73C20.4258 11.221 21.2564 10.8958 22.128 10.7829C22.9997 10.67 23.8858 10.7728 24.7084 11.0824C25.531 11.3919 26.265 11.8988 26.846 12.5583ZM6.55327 1.3424H8.5177L7.05034 6.72276C6.78014 7.02241 6.54747 7.35388 6.35747 7.70983C6.26041 7.64859 6.15562 7.58794 6.04463 7.53064L5.45512 5.36924L6.55327 1.3424ZM6.16208 9.25404C6.24494 9.33823 6.34854 9.39906 6.46243 9.43039C6.57632 9.46172 6.69645 9.46243 6.81071 9.43247C6.92496 9.4025 7.02928 9.34291 7.11313 9.25971C7.19698 9.17652 7.25739 9.07267 7.28826 8.95866C7.2943 8.93626 7.92148 6.71151 10.0716 6.71151C12.1929 6.71151 12.8219 8.86956 12.8468 8.95866C12.8777 9.07267 12.9381 9.17652 13.0219 9.25971C13.1058 9.34291 13.2101 9.4025 13.3243 9.43247C13.4386 9.46243 13.5587 9.46172 13.6726 9.43039C13.7865 9.39906 13.8901 9.33823 13.973 9.25404C14.197 9.02636 14.9814 8.40463 15.6249 8.53257C16.0514 8.61721 16.4225 9.04171 16.7281 9.79431C17.0363 10.5674 17.2495 11.3751 17.363 12.1997C17.003 12.7009 16.7143 13.2497 16.5049 13.8302C16.3111 13.9258 16.1338 14.0516 15.9797 14.203L15.2148 14.9566C15.1231 15.0464 15.009 15.1098 14.8843 15.1405C14.7597 15.1711 14.6292 15.1678 14.5063 15.1309C14.8261 12.6102 14.1403 11.1759 14.1093 11.113C14.0314 10.953 13.893 10.8305 13.7248 10.7724C13.5565 10.7144 13.3721 10.7256 13.212 10.8035C13.052 10.8814 12.9295 11.0198 12.8714 11.188C12.8134 11.3563 12.8246 11.5407 12.9025 11.7008C12.9073 11.7109 13.283 12.5325 13.2465 14.033C12.852 13.7353 12.364 13.5888 11.8708 13.62C11.3776 13.6513 10.9119 13.8582 10.5582 14.2034L9.79337 14.957C9.65915 15.0881 9.47897 15.1615 9.29136 15.1615C9.10374 15.1615 8.92356 15.0881 8.78934 14.957L8.02458 14.2034C7.73061 13.9141 7.35589 13.7208 6.94983 13.6488C6.99103 12.4101 7.30394 11.7284 7.3146 11.7055C7.39014 11.5465 7.40015 11.3641 7.34247 11.1977C7.28478 11.0314 7.16402 10.8943 7.00622 10.8162C6.84843 10.738 6.66624 10.725 6.49894 10.78C6.33165 10.8349 6.19265 10.9534 6.11192 11.1099C6.08985 11.154 5.6141 12.1283 5.60336 13.8608C5.43215 13.9522 5.2749 14.0677 5.13642 14.2037L4.26914 15.0573C4.14454 15.1793 3.97977 15.2518 3.80563 15.2612C3.63148 15.2705 3.45988 15.2162 3.32291 15.1082C3.17091 14.9883 3.00301 14.89 2.82401 14.8161C2.45488 13.0963 2.86788 11.1226 3.40697 9.79439C3.71184 9.04347 4.08197 8.61923 4.50722 8.53324C5.14573 8.40388 5.91947 9.011 6.16208 9.25404ZM1.55027 3.35582H3.51469L4.55672 7.17687C4.45332 7.18287 4.35045 7.19596 4.24883 7.21604C3.7079 7.32343 3.23877 7.62074 2.84447 8.10102L1.55027 3.35582ZM1.71235 16.0919C1.83487 16.0258 1.97416 15.9972 2.11282 16.0098C2.25148 16.0223 2.38338 16.0755 2.49204 16.1625C2.88599 16.4723 3.37928 16.6281 3.87971 16.6006C4.38014 16.5732 4.85345 16.3644 5.21116 16.0134L6.07811 15.1595C6.21231 15.0283 6.39249 14.9549 6.58012 14.9549C6.76775 14.9549 6.94794 15.0283 7.08213 15.1595L7.84698 15.913C8.23302 16.2902 8.75133 16.5014 9.29106 16.5014C9.8308 16.5014 10.3491 16.2902 10.7351 15.913L11.4999 15.1595C11.6341 15.0283 11.8143 14.9549 12.0019 14.9549C12.1896 14.9549 12.3697 15.0283 12.5039 15.1595L13.2688 15.913C13.6548 16.2902 14.1731 16.5014 14.7128 16.5014C15.2525 16.5014 15.7708 16.2902 16.1569 15.913L16.9215 15.1595C17.0557 15.0283 17.2359 14.9549 17.4235 14.9549C17.6112 14.9549 17.7914 15.0283 17.9256 15.1595L18.6904 15.913C19.0764 16.2902 19.5947 16.5014 20.1344 16.5014C20.6742 16.5014 21.1925 16.2902 21.5785 15.913L22.3433 15.1595C22.4775 15.0283 22.6577 14.9549 22.8454 14.9549C23.033 14.9549 23.2132 15.0283 23.3474 15.1595L24.1122 15.913C24.4982 16.2902 25.0165 16.5014 25.5562 16.5014C26.096 16.5014 26.6143 16.2902 27.0003 15.913L27.7651 15.1595C27.8993 15.0283 28.0795 14.9549 28.2671 14.9549C28.4548 14.9549 28.635 15.0283 28.7692 15.1595L29.5339 15.913C29.92 16.2902 30.4383 16.5014 30.978 16.5014C31.5177 16.5014 32.036 16.2902 32.4221 15.913L33.1869 15.1595C33.3211 15.0283 33.5013 14.9549 33.6889 14.9549C33.8766 14.9549 34.0568 15.0283 34.191 15.1595L35.0579 16.0136C35.4156 16.3646 35.8889 16.5734 36.3894 16.6008C36.8898 16.6282 37.3831 16.4725 37.777 16.1627C37.8857 16.0756 38.0176 16.0225 38.1562 16.01C38.2949 15.9974 38.4342 16.026 38.5567 16.0921C38.6673 16.1482 38.7603 16.2336 38.8255 16.339C38.8907 16.4444 38.9257 16.5657 38.9265 16.6897L36.9299 25.3524C36.9158 25.4138 36.9103 25.477 36.9138 25.5399L37.7241 40.2685H2.54515L3.35513 25.5402C3.35869 25.4772 3.35338 25.414 3.33936 25.3524L1.34272 16.6897C1.34352 16.5657 1.37843 16.4444 1.44363 16.3389C1.50883 16.2335 1.6018 16.148 1.71235 16.0919ZM30.201 12.0806C30.229 12.0806 30.257 12.0788 30.2849 12.0753C31.4167 11.9339 33.5573 11.0435 33.5573 8.6876C33.5573 7.96444 33.8713 7.4376 34.5172 7.07628C34.8658 6.88741 35.2456 6.76267 35.6383 6.70799C35.814 6.68869 35.975 6.60084 36.0863 6.46353C36.1977 6.32622 36.2503 6.15053 36.2329 5.97462C36.2154 5.79872 36.1293 5.6368 35.9932 5.52403C35.857 5.41126 35.6819 5.35675 35.5058 5.37234C34.3677 5.48307 32.2152 6.31831 32.2152 8.68768C32.2152 9.41754 31.8972 9.95848 31.2429 10.3423C30.8947 10.5411 30.5141 10.6769 30.1188 10.7435C29.9494 10.7648 29.7945 10.8497 29.6856 10.981C29.5766 11.1124 29.5218 11.2803 29.5323 11.4507C29.5427 11.621 29.6177 11.781 29.7419 11.898C29.8662 12.015 30.0303 12.0803 30.201 12.0806ZM25.5038 25.5034H14.7656C14.5876 25.5034 14.4169 25.4327 14.2911 25.3069C14.1652 25.181 14.0945 25.0103 14.0945 24.8323V20.8054C14.0945 20.6274 14.1652 20.4567 14.2911 20.3309C14.4169 20.205 14.5876 20.1343 14.7656 20.1343H25.5038C25.6818 20.1343 25.8526 20.205 25.9784 20.3309C26.1043 20.4567 26.175 20.6274 26.175 20.8054V24.8323C26.175 25.0103 26.1043 25.181 25.9784 25.3069C25.8526 25.4327 25.6818 25.5034 25.5038 25.5034ZM24.8327 21.4766H15.4368V24.1611H24.8327V21.4766Z" fill="url(#paint0_linear)"/>
<defs>
<linearGradient id="paint0_linear" x1="2.34904" y1="39.1835" x2="44.4553" y2="5.18428" gradientUnits="userSpaceOnUse">
<stop stop-color="#FF2A00"/>
<stop offset="1" stop-color="#FF9900"/>
</linearGradient>
</defs>
</svg>
