<svg width="45" height="38" viewBox="0 0 45 38" fill="none" xmlns="http://www.w3.org/2000/svg">
<path fill-rule="evenodd" clip-rule="evenodd" d="M2.76435 0H42.0975C43.6219 0 44.8619 1.24001 44.8619 2.76426V29.4547C44.8619 30.979 43.6218 32.219 42.0975 32.219H28.7944L29.3326 36.5237H31.5619C31.9249 36.5237 32.2191 36.8179 32.2191 37.1809C32.2191 37.5438 31.9249 37.838 31.5619 37.838H13.3C12.937 37.838 12.6428 37.5438 12.6428 37.1809C12.6428 36.8179 12.937 36.5237 13.3 36.5237H15.5294L16.0675 32.219H2.76435C1.24001 32.219 0 30.979 0 29.4547V2.76426C0 1.24001 1.24001 0 2.76435 0ZM17.3921 32.219L16.854 36.5237H28.0079L27.4699 32.219H25.0513L24.8141 33.1679C24.5401 34.2634 23.5602 35.0285 22.431 35.0285C21.3019 35.0285 20.3219 34.2634 20.048 33.1679L19.8107 32.219H17.3921ZM23.6964 32.219H21.1654L21.3229 32.8491C21.4503 33.3584 21.9057 33.7141 22.4309 33.7141C22.956 33.7141 23.4115 33.3585 23.5388 32.8491L23.6964 32.219ZM42.0975 30.9047C42.8971 30.9047 43.5476 30.2543 43.5476 29.4547V2.76426C43.5476 1.96472 42.8971 1.31431 42.0975 1.31431H2.76435C1.96481 1.31431 1.31431 1.96472 1.31431 2.76426V29.4547C1.31431 30.2543 1.96481 30.9047 2.76435 30.9047H42.0975ZM3.46648 2.80956H37.1807C37.5437 2.80956 37.8379 3.10371 37.8379 3.46672C37.8379 3.82964 37.5437 4.12388 37.1807 4.12388H4.12373V28.0952H4.8714C5.23432 28.0952 5.52855 28.3894 5.52846 28.7523C5.52846 29.1154 5.23432 29.4095 4.87131 29.4095H3.46648C3.10347 29.4095 2.80933 29.1154 2.80933 28.7523V3.46672C2.80933 3.10371 3.10347 2.80956 3.46648 2.80956ZM41.3953 2.80956H39.9905C39.6275 2.80956 39.3333 3.10371 39.3333 3.46672C39.3333 3.82964 39.6275 4.12388 39.9905 4.12388H40.7381V28.0952H7.68108C7.31807 28.0952 7.02393 28.3894 7.02393 28.7523C7.02393 29.1154 7.31807 29.4095 7.68108 29.4095H41.3952C41.7582 29.4095 42.0524 29.1154 42.0524 28.7523V3.46672C42.0525 3.10371 41.7582 2.80956 41.3953 2.80956ZM30.8895 9.83395C31.0808 9.84262 31.259 9.93445 31.3771 10.0854C31.4952 10.2364 31.5416 10.4313 31.504 10.6193L30.3994 16.1424C30.1639 17.32 29.2044 18.2053 28.0117 18.3457L18.7777 19.432C18.6952 19.4417 18.6132 19.4465 18.532 19.4465C18.3557 19.4465 18.1834 19.4235 18.0181 19.381L17.2056 21.0058L17.2056 21.0059C17.2014 21.0144 17.1944 21.0285 17.2076 21.0498C17.2208 21.0712 17.2367 21.0712 17.246 21.0712H29.455C29.818 21.0712 30.1121 21.3655 30.1121 21.7284C30.1121 21.9216 30.0283 22.0947 29.8956 22.215C30.0339 22.4917 30.1121 22.8033 30.1121 23.1331C30.1121 24.27 29.1871 25.195 28.0502 25.195C26.9133 25.195 25.9883 24.2701 25.9883 23.1331C25.9883 22.8695 26.0386 22.6175 26.1292 22.3855H20.138C20.2286 22.6175 20.2789 22.8695 20.2789 23.1331C20.2789 24.27 19.3538 25.195 18.217 25.195C17.0801 25.195 16.1551 24.2701 16.1551 23.1331C16.1551 22.7616 16.2543 22.4131 16.427 22.1117C16.2951 22.0118 16.1803 21.8872 16.0898 21.7407C15.8402 21.337 15.818 20.8425 16.0303 20.418L16.9122 18.6542C16.7533 18.4501 16.6296 18.2137 16.5544 17.9506L14.1441 9.5144C14.1411 9.50406 14.1345 9.49503 14.1256 9.48907L12.2333 8.22768C11.9314 8.02642 11.8498 7.61846 12.0511 7.31643C12.2523 7.0144 12.6604 6.93282 12.9623 7.13409L14.8547 8.39565C15.1163 8.57019 15.3096 8.8306 15.4011 9.13088C15.4133 9.1307 15.4251 9.13097 15.4372 9.13149L30.8895 9.83395ZM28.7976 23.1333C28.7976 22.7211 28.4623 22.3857 28.05 22.3857C27.6378 22.3857 27.3025 22.721 27.3025 23.1333C27.3025 23.5456 27.6378 23.8809 28.05 23.8809C28.4623 23.8809 28.7976 23.5456 28.7976 23.1333ZM18.9644 23.1333C18.9644 22.721 18.629 22.3857 18.2168 22.3857C17.8045 22.3857 17.4692 22.721 17.4692 23.1333C17.4692 23.5456 17.8045 23.8809 18.2168 23.8809C18.629 23.8809 18.9644 23.5456 18.9644 23.1333ZM15.7817 10.4629L16.6053 13.3452H18.8646L18.409 10.5823L15.7817 10.4629ZM17.818 17.5896C17.9191 17.9439 18.2578 18.1698 18.6242 18.1267L19.6334 18.008L19.0813 14.6595H16.9808L17.818 17.5896ZM20.9401 17.8543L22.4763 17.6736V14.6596H20.4134L20.9401 17.8543ZM20.1967 13.3452H22.4763V10.7673L19.7512 10.6434L20.1967 13.3452ZM23.7906 17.5189L25.8043 17.282L26.0417 14.6595H23.7906V17.5189ZM23.7906 13.3452H26.1607L26.378 10.9445L23.7906 10.827V13.3452ZM27.8581 17.0404C28.4837 16.9668 28.987 16.5023 29.1105 15.8848L29.3555 14.6596H27.3613L27.1382 17.1251L27.8581 17.0404ZM27.4804 13.3452H29.6185L30.0651 11.1122L27.6923 11.0043L27.4804 13.3452Z" fill="url(#paint0_linear)"/>
<defs>
<linearGradient id="paint0_linear" x1="2.61694" y1="35.6308" x2="41.7822" y2="-3.11315" gradientUnits="userSpaceOnUse">
<stop stop-color="#FF2A00"/>
<stop offset="1" stop-color="#FF9900"/>
</linearGradient>
</defs>
</svg>
